M48
; DRILL file {KiCad 8.0.5} date 2024-10-22T21:56:22+0200
; FORMAT={-:-/ absolute / metric / decimal}
; #@! TF.CreationDate,2024-10-22T21:56:22+02:00
; #@! TF.GenerationSoftware,Kicad,Pcbnew,8.0.5
; #@! TF.FileFunction,Plated,1,2,PTH
FMAT,2
METRIC
; #@! TA.AperFunction,Plated,PTH,ComponentDrill
T1C0.200
; #@! TA.AperFunction,Plated,PTH,ViaDrill
T2C0.300
; #@! TA.AperFunction,Plated,PTH,ComponentDrill
T3C0.500
; #@! TA.AperFunction,Plated,PTH,ComponentDrill
T4C0.600
; #@! TA.AperFunction,Plated,PTH,ComponentDrill
T5C0.762
; #@! TA.AperFunction,Plated,PTH,ComponentDrill
T6C0.900
; #@! TA.AperFunction,Plated,PTH,ComponentDrill
T7C0.950
; #@! TA.AperFunction,Plated,PTH,ComponentDrill
T8C1.000
; #@! TA.AperFunction,Plated,PTH,ComponentDrill
T9C1.200
; #@! TA.AperFunction,Plated,PTH,ComponentDrill
T10C3.183
; #@! TA.AperFunction,Plated,PTH,ComponentDrill
T11C3.200
%
G90
G05
T1
X182.6Y-88.228
X182.6Y-89.628
X183.3Y-87.528
X183.3Y-88.928
X183.3Y-90.328
X184.0Y-88.228
X184.0Y-89.628
X184.7Y-87.528
X184.7Y-88.928
X184.7Y-90.328
X185.4Y-88.228
X185.4Y-89.628
T2
X87.8Y-86.6
X87.85Y-81.15
X87.85Y-92.5
X87.9Y-104.0
X87.9Y-109.7
X87.95Y-97.85
X87.95Y-114.65
X87.95Y-119.45
X89.9Y-94.55
X90.9Y-97.5
X91.3Y-100.3
X91.5Y-85.428
X92.25Y-94.95
X92.3Y-81.8
X92.3Y-97.378
X92.35Y-91.7
X93.5Y-88.25
X93.6Y-85.5
X94.45Y-74.55
X94.9Y-91.6
X95.0Y-125.45
X95.5Y-83.4
X95.5Y-85.428
X97.4Y-105.0
X97.45Y-88.8
X98.3Y-78.9
X98.675Y-85.403
X98.95Y-115.3
X99.0Y-95.6
X99.35Y-98.24
X99.35Y-98.978
X99.55Y-91.528
X100.11Y-98.98
X100.12Y-98.24
X100.45Y-88.128
X100.45Y-90.328
X100.45Y-118.25
X101.5Y-125.5
X101.95Y-74.55
X103.2Y-98.7
X103.7Y-91.9
X103.75Y-89.35
X104.0Y-118.2
X104.2Y-95.6
X105.54Y-115.29
X105.95Y-88.25
X105.95Y-91.95
X107.35Y-89.328
X107.55Y-118.25
X107.7Y-125.55
X109.0Y-74.55
X109.9Y-95.7
X109.95Y-98.65
X111.45Y-84.7
X113.7Y-125.55
X114.4Y-92.3
X116.3Y-74.65
X116.4Y-84.778
X116.5Y-92.25
X116.5Y-105.0
X117.2Y-89.95
X117.95Y-95.6
X118.25Y-76.6
X118.25Y-77.4
X119.9Y-125.55
X122.7Y-92.928
X122.75Y-93.778
X122.75Y-94.678
X122.8Y-98.2
X123.05Y-90.0
X123.6Y-74.65
X124.15Y-87.65
X124.6Y-92.0
X125.19Y-111.2
X125.4Y-86.6
X126.15Y-125.55
X127.45Y-120.928
X127.5Y-89.1
X127.5Y-98.2
X128.8Y-119.0
X129.4Y-95.75
X130.55Y-74.65
X130.55Y-87.678
X130.9Y-114.35
X130.9Y-115.15
X131.05Y-87.128
X131.1Y-81.6
X131.19Y-85.5
X131.4Y-94.9
X131.45Y-119.428
X131.85Y-114.35
X131.85Y-115.15
X132.15Y-85.46
X132.16Y-84.69
X132.2Y-75.95
X132.2Y-76.95
X132.2Y-77.95
X132.8Y-119.628
X133.05Y-83.9
X133.05Y-84.69
X133.05Y-85.54
X133.29Y-76.95
X133.3Y-76.0
X133.3Y-77.95
X133.4Y-95.75
X133.85Y-120.228
X133.92Y-83.09
X133.94Y-84.73
X133.94Y-85.52
X133.98Y-83.9
X134.3Y-76.0
X134.3Y-76.95
X134.3Y-77.95
X134.65Y-121.128
X134.86Y-83.94
X134.87Y-84.74
X134.9Y-85.5
X135.4Y-98.3
X135.45Y-108.728
X135.45Y-122.028
X135.66Y-83.93
X135.68Y-84.77
X135.7Y-85.52
X137.49Y-83.97
X137.5Y-74.55
X138.1Y-104.9
X138.1Y-107.8
X138.2Y-110.9
X138.3Y-100.7
X138.45Y-81.1
X138.45Y-82.05
X138.45Y-83.0
X138.45Y-83.95
X138.6Y-124.128
X139.0Y-125.4
X139.45Y-90.29
X139.75Y-83.2
X139.75Y-83.94
X139.75Y-121.5
X141.05Y-80.75
X141.05Y-81.65
X141.05Y-82.5
X141.06Y-83.49
X141.49Y-85.49
X141.94Y-81.65
X141.95Y-80.75
X141.96Y-82.49
X142.0Y-84.27
X142.01Y-83.45
X142.2Y-85.49
X142.5Y-98.3
X142.85Y-84.24
X142.88Y-83.39
X142.9Y-80.75
X142.9Y-81.6
X142.9Y-85.5
X142.91Y-82.45
X143.4Y-90.34
X143.6Y-121.6
X143.79Y-82.48
X143.85Y-80.75
X143.88Y-81.58
X143.9Y-74.6
X144.2Y-75.95
X144.2Y-76.95
X144.2Y-77.95
X144.79Y-81.59
X144.8Y-80.75
X145.29Y-76.95
X145.3Y-76.0
X145.3Y-77.95
X145.45Y-85.6
X145.7Y-80.75
X146.3Y-76.0
X146.3Y-76.95
X146.3Y-77.95
X146.5Y-104.9
X147.3Y-121.65
X147.4Y-125.5
X147.97Y-90.39
X148.2Y-78.228
X149.55Y-97.75
X149.73Y-114.66
X149.85Y-117.328
X149.85Y-120.028
X149.866Y-118.277
X149.867Y-119.161
X150.3Y-74.6
X152.3Y-93.928
X152.35Y-97.728
X152.55Y-112.578
X152.9Y-100.8
X153.35Y-84.3
X154.0Y-93.978
X154.0Y-97.728
X154.0Y-112.578
X154.25Y-80.35
X155.2Y-124.028
X155.25Y-112.578
X155.45Y-80.328
X155.9Y-125.45
X155.95Y-94.928
X156.35Y-74.55
X156.5Y-124.028
X156.55Y-112.578
X157.15Y-84.2
X157.8Y-97.778
X157.8Y-112.578
X157.86Y-93.97
X159.05Y-100.8
X159.05Y-116.728
X159.2Y-112.578
X159.4Y-94.028
X159.4Y-97.778
X160.55Y-90.578
X160.55Y-91.728
X161.3Y-74.59
X162.25Y-97.9
X162.55Y-115.1
X162.55Y-119.803
X163.8Y-77.22
X164.15Y-125.45
X165.05Y-80.0
X165.4Y-104.9
X165.45Y-78.85
X165.45Y-92.3
X167.25Y-96.4
X167.29Y-85.13
X167.75Y-80.45
X170.1Y-98.7
X170.68Y-94.32
X170.86Y-92.65
X171.8Y-95.95
X171.84Y-80.68
X172.4Y-125.45
X173.45Y-110.75
X173.45Y-124.228
X173.6Y-102.2
X175.36Y-84.14
X175.62Y-80.66
X176.45Y-108.528
X176.7Y-87.178
X177.65Y-119.0
X178.055Y-87.853
X179.275Y-82.525
X180.0Y-114.25
X180.0Y-115.05
X180.45Y-120.428
X180.5Y-80.6
X180.6Y-88.478
X180.9Y-114.25
X180.9Y-115.05
X181.5Y-89.528
X181.7Y-121.028
X182.85Y-118.5
X183.135Y-92.213
X183.65Y-121.578
X184.4Y-94.378
X184.4Y-120.128
X185.1Y-92.9
X185.35Y-80.6
X185.6Y-125.45
X185.65Y-95.09
X186.4Y-111.2
X187.2Y-96.5
X187.2Y-97.3
X188.1Y-96.5
X188.1Y-97.3
X188.2Y-89.5
X188.22Y-95.16
X188.4Y-84.378
X188.4Y-85.278
X189.35Y-84.378
X189.35Y-85.275
X189.5Y-82.675
X189.65Y-93.878
X191.25Y-79.85
X191.25Y-99.428
X192.55Y-125.45
X193.802Y-95.504
X194.1Y-98.4
X194.15Y-79.1
X195.35Y-82.278
X195.4Y-80.018
X195.45Y-92.0
X195.45Y-93.6
X195.5Y-104.9
X196.5Y-79.15
X197.0Y-95.75
X197.0Y-98.4
X197.02Y-94.64
X198.3Y-83.2
X198.45Y-125.45
X198.85Y-87.05
X199.0Y-78.9
X199.85Y-87.828
X199.86Y-88.53
X200.2Y-93.65
X202.6Y-78.3
X204.55Y-125.5
X205.2Y-81.8
X205.3Y-76.45
X206.4Y-115.2
X207.6Y-92.9
X207.7Y-96.0
X209.15Y-74.55
X209.45Y-86.578
X209.85Y-90.71
X209.9Y-88.16
X210.03Y-83.07
X210.06Y-83.98
X210.06Y-84.78
X210.25Y-86.578
X210.62Y-76.77
X211.05Y-86.578
X211.1Y-125.5
X211.2Y-98.2
X211.48Y-115.2
X211.8Y-79.25
X212.34Y-85.51
X213.6Y-76.86
X213.61Y-89.12
X213.62Y-86.78
X214.3Y-91.65
X214.35Y-93.65
X214.5Y-104.8
X214.65Y-85.46
X214.7Y-74.55
X215.8Y-89.0
X217.3Y-125.55
X217.75Y-96.128
X217.75Y-98.2
X219.63Y-93.05
X220.11Y-88.74
X222.25Y-92.178
X223.95Y-98.15
X224.0Y-92.45
X224.0Y-103.5
X224.0Y-113.85
X224.0Y-118.55
X224.05Y-109.1
T3
X88.6Y-77.6
X88.6Y-122.4
X89.303Y-75.903
X89.303Y-79.297
X89.303Y-120.703
X89.303Y-124.097
X91.0Y-75.2
X91.0Y-80.0
X91.0Y-120.0
X91.0Y-124.8
X92.697Y-75.903
X92.697Y-79.297
X92.697Y-120.703
X92.697Y-124.097
X93.4Y-77.6
X93.4Y-122.4
X218.4Y-77.6
X218.4Y-122.4
X219.103Y-75.903
X219.103Y-79.297
X219.103Y-120.703
X219.103Y-124.097
X220.8Y-75.2
X220.8Y-80.0
X220.8Y-120.0
X220.8Y-124.8
X222.497Y-75.903
X222.497Y-79.297
X222.497Y-120.703
X222.497Y-124.097
X223.2Y-77.6
X223.2Y-122.4
T5
X93.005Y-103.912
X93.005Y-105.944
X93.767Y-102.134
X93.894Y-107.722
X95.418Y-100.864
X95.418Y-108.992
X97.45Y-109.5
X99.482Y-100.864
X99.482Y-108.992
X101.006Y-102.134
X101.006Y-107.849
X101.895Y-103.912
X101.895Y-105.944
X112.005Y-103.912
X112.005Y-105.944
X112.767Y-102.134
X112.894Y-107.722
X114.418Y-100.864
X114.418Y-108.992
X116.45Y-109.5
X118.482Y-100.864
X118.482Y-108.992
X120.006Y-102.134
X120.006Y-107.849
X120.895Y-103.912
X120.895Y-105.944
X128.81Y-104.928
X133.89Y-104.928
X142.005Y-103.912
X142.005Y-105.944
X142.767Y-102.134
X142.894Y-107.722
X144.418Y-100.864
X144.418Y-108.992
X146.45Y-109.5
X148.482Y-100.864
X148.482Y-108.992
X150.006Y-102.134
X150.006Y-107.849
X150.895Y-103.912
X150.895Y-105.944
X161.005Y-103.912
X161.005Y-105.944
X161.767Y-102.134
X161.894Y-107.722
X163.418Y-100.864
X163.418Y-108.992
X165.45Y-109.5
X167.482Y-100.864
X167.482Y-108.992
X169.006Y-102.134
X169.006Y-107.849
X169.895Y-103.912
X169.895Y-105.944
X177.51Y-104.928
X182.59Y-104.928
X191.005Y-103.912
X191.005Y-105.944
X191.767Y-102.134
X191.894Y-107.722
X193.418Y-100.864
X193.418Y-108.992
X195.45Y-109.5
X197.482Y-100.864
X197.482Y-108.992
X199.006Y-102.134
X199.006Y-107.849
X199.895Y-103.912
X199.895Y-105.944
X210.005Y-103.912
X210.005Y-105.944
X210.767Y-102.134
X210.894Y-107.722
X212.418Y-100.864
X212.418Y-108.992
X214.45Y-109.5
X216.482Y-100.864
X216.482Y-108.992
X218.006Y-102.134
X218.006Y-107.849
X218.895Y-103.912
X218.895Y-105.944
T6
X90.3Y-87.428
X96.8Y-87.428
T7
X216.7Y-84.428
X219.2Y-84.428
X221.7Y-84.428
T8
X165.97Y-83.848
X168.51Y-83.848
X171.05Y-83.848
T9
X152.8Y-76.778
X152.8Y-91.278
X155.3Y-76.778
X157.8Y-76.778
X157.8Y-91.278
T10
X149.7Y-84.278
X160.9Y-84.278
T11
X91.0Y-77.6
X91.0Y-122.4
X220.8Y-77.6
X220.8Y-122.4
T4
X207.53Y-75.813G85X207.53Y-76.613
G05
X207.53Y-79.843G85X207.53Y-80.943
G05
X216.17Y-75.813G85X216.17Y-76.613
G05
X216.17Y-79.843G85X216.17Y-80.943
G05
M30
