G04 #@! TF.GenerationSoftware,KiCad,Pcbnew,8.0.5*
G04 #@! TF.CreationDate,2024-10-22T21:56:19+02:00*
G04 #@! TF.ProjectId,nixie_alarm_main_board,6e697869-655f-4616-9c61-726d5f6d6169,rev?*
G04 #@! TF.SameCoordinates,Original*
G04 #@! TF.FileFunction,Soldermask,Bot*
G04 #@! TF.FilePolarity,Negative*
%FSLAX46Y46*%
G04 Gerber Fmt 4.6, Leading zero omitted, Abs format (unit mm)*
G04 Created by KiCad (PCBNEW 8.0.5) date 2024-10-22 21:56:19*
%MOMM*%
%LPD*%
G01*
G04 APERTURE LIST*
G04 Aperture macros list*
%AMRoundRect*
0 Rectangle with rounded corners*
0 $1 Rounding radius*
0 $2 $3 $4 $5 $6 $7 $8 $9 X,Y pos of 4 corners*
0 Add a 4 corners polygon primitive as box body*
4,1,4,$2,$3,$4,$5,$6,$7,$8,$9,$2,$3,0*
0 Add four circle primitives for the rounded corners*
1,1,$1+$1,$2,$3*
1,1,$1+$1,$4,$5*
1,1,$1+$1,$6,$7*
1,1,$1+$1,$8,$9*
0 Add four rect primitives between the rounded corners*
20,1,$1+$1,$2,$3,$4,$5,0*
20,1,$1+$1,$4,$5,$6,$7,0*
20,1,$1+$1,$6,$7,$8,$9,0*
20,1,$1+$1,$8,$9,$2,$3,0*%
G04 Aperture macros list end*
%ADD10C,0.700000*%
%ADD11C,1.524000*%
%ADD12C,0.800000*%
%ADD13C,6.400000*%
%ADD14C,1.800000*%
%ADD15C,4.572000*%
%ADD16RoundRect,0.250000X-0.475000X0.337500X-0.475000X-0.337500X0.475000X-0.337500X0.475000X0.337500X0*%
%ADD17R,0.400000X0.450000*%
%ADD18R,0.500000X0.450000*%
%ADD19RoundRect,0.250000X0.450000X-0.350000X0.450000X0.350000X-0.450000X0.350000X-0.450000X-0.350000X0*%
%ADD20RoundRect,0.250000X-0.450000X0.350000X-0.450000X-0.350000X0.450000X-0.350000X0.450000X0.350000X0*%
%ADD21RoundRect,0.250000X0.337500X0.475000X-0.337500X0.475000X-0.337500X-0.475000X0.337500X-0.475000X0*%
%ADD22R,2.900000X5.400000*%
%ADD23R,0.250000X0.750000*%
%ADD24R,2.300000X2.500000*%
%ADD25R,1.250000X4.700000*%
%ADD26RoundRect,0.250000X0.350000X0.450000X-0.350000X0.450000X-0.350000X-0.450000X0.350000X-0.450000X0*%
%ADD27R,1.700000X1.700000*%
%ADD28O,1.700000X1.700000*%
%ADD29RoundRect,0.250000X0.475000X-0.337500X0.475000X0.337500X-0.475000X0.337500X-0.475000X-0.337500X0*%
%ADD30RoundRect,0.250000X-0.350000X-0.450000X0.350000X-0.450000X0.350000X0.450000X-0.350000X0.450000X0*%
%ADD31RoundRect,0.250000X-0.337500X-0.475000X0.337500X-0.475000X0.337500X0.475000X-0.337500X0.475000X0*%
%ADD32RoundRect,0.250000X-0.400000X-0.625000X0.400000X-0.625000X0.400000X0.625000X-0.400000X0.625000X0*%
%ADD33RoundRect,0.250000X0.600000X0.725000X-0.600000X0.725000X-0.600000X-0.725000X0.600000X-0.725000X0*%
%ADD34O,1.700000X1.950000*%
%ADD35C,1.410000*%
%ADD36C,1.300000*%
%ADD37R,1.800000X1.700000*%
%ADD38R,2.100000X1.800000*%
%ADD39R,1.700000X1.800000*%
%ADD40R,1.500000X0.900000*%
%ADD41R,0.900000X1.500000*%
%ADD42C,0.600000*%
%ADD43R,3.900000X3.900000*%
%ADD44C,0.650000*%
%ADD45RoundRect,0.150000X-0.150000X-0.425000X0.150000X-0.425000X0.150000X0.425000X-0.150000X0.425000X0*%
%ADD46RoundRect,0.075000X-0.075000X-0.500000X0.075000X-0.500000X0.075000X0.500000X-0.075000X0.500000X0*%
%ADD47O,1.000000X1.800000*%
%ADD48O,1.000000X2.100000*%
G04 APERTURE END LIST*
D10*
X223900000Y-126500000D02*
X87900000Y-126500000D01*
X86900000Y-125500000D02*
X86900000Y-74500000D01*
X87900000Y-73500000D02*
X223900000Y-73500000D01*
X86900000Y-74500000D02*
G75*
G02*
X87900000Y-73500000I1000000J0D01*
G01*
X223900000Y-73500000D02*
G75*
G02*
X224900000Y-74500000I0J-1000000D01*
G01*
X224900000Y-125500000D02*
G75*
G02*
X223900000Y-126500000I-1000000J0D01*
G01*
X224900000Y-74500000D02*
X224900000Y-125500000D01*
X87900000Y-126500000D02*
G75*
G02*
X86900000Y-125500000I0J1000000D01*
G01*
D11*
X182590000Y-104928000D03*
X177510000Y-104928000D03*
D12*
X88600000Y-122400000D03*
X89302944Y-120702944D03*
X89302944Y-124097056D03*
X91000000Y-120000000D03*
D13*
X91000000Y-122400000D03*
D12*
X91000000Y-124800000D03*
X92697056Y-120702944D03*
X92697056Y-124097056D03*
X93400000Y-122400000D03*
D11*
X210767000Y-102134000D03*
X216482000Y-100864000D03*
X218006000Y-102134000D03*
X218895000Y-103912000D03*
X218006000Y-107849000D03*
X216482000Y-108992000D03*
X214450000Y-109500000D03*
X212418000Y-108992000D03*
X210894000Y-107722000D03*
X210005000Y-103912000D03*
X218895000Y-105944000D03*
X210005000Y-105944000D03*
X212418000Y-100864000D03*
X128810000Y-104928000D03*
X133890000Y-104928000D03*
X142767000Y-102134000D03*
X148482000Y-100864000D03*
X150006000Y-102134000D03*
X150895000Y-103912000D03*
X150006000Y-107849000D03*
X148482000Y-108992000D03*
X146450000Y-109500000D03*
X144418000Y-108992000D03*
X142894000Y-107722000D03*
X142005000Y-103912000D03*
X150895000Y-105944000D03*
X142005000Y-105944000D03*
X144418000Y-100864000D03*
X112767000Y-102134000D03*
X118482000Y-100864000D03*
X120006000Y-102134000D03*
X120895000Y-103912000D03*
X120006000Y-107849000D03*
X118482000Y-108992000D03*
X116450000Y-109500000D03*
X114418000Y-108992000D03*
X112894000Y-107722000D03*
X112005000Y-103912000D03*
X120895000Y-105944000D03*
X112005000Y-105944000D03*
X114418000Y-100864000D03*
D12*
X218400000Y-122400000D03*
X219102944Y-120702944D03*
X219102944Y-124097056D03*
X220800000Y-120000000D03*
D13*
X220800000Y-122400000D03*
D12*
X220800000Y-124800000D03*
X222497056Y-120702944D03*
X222497056Y-124097056D03*
X223200000Y-122400000D03*
D14*
X157800000Y-91278000D03*
X152800000Y-91278000D03*
X157800000Y-76778000D03*
X152800000Y-76778000D03*
X155300000Y-76778000D03*
D15*
X160900000Y-84278000D03*
X149700000Y-84278000D03*
D12*
X88600000Y-77600000D03*
X89302944Y-75902944D03*
X89302944Y-79297056D03*
X91000000Y-75200000D03*
D13*
X91000000Y-77600000D03*
D12*
X91000000Y-80000000D03*
X92697056Y-75902944D03*
X92697056Y-79297056D03*
X93400000Y-77600000D03*
D11*
X93767000Y-102134000D03*
X99482000Y-100864000D03*
X101006000Y-102134000D03*
X101895000Y-103912000D03*
X101006000Y-107849000D03*
X99482000Y-108992000D03*
X97450000Y-109500000D03*
X95418000Y-108992000D03*
X93894000Y-107722000D03*
X93005000Y-103912000D03*
X101895000Y-105944000D03*
X93005000Y-105944000D03*
X95418000Y-100864000D03*
X191767000Y-102134000D03*
X197482000Y-100864000D03*
X199006000Y-102134000D03*
X199895000Y-103912000D03*
X199006000Y-107849000D03*
X197482000Y-108992000D03*
X195450000Y-109500000D03*
X193418000Y-108992000D03*
X191894000Y-107722000D03*
X191005000Y-103912000D03*
X199895000Y-105944000D03*
X191005000Y-105944000D03*
X193418000Y-100864000D03*
X161767000Y-102134000D03*
X167482000Y-100864000D03*
X169006000Y-102134000D03*
X169895000Y-103912000D03*
X169006000Y-107849000D03*
X167482000Y-108992000D03*
X165450000Y-109500000D03*
X163418000Y-108992000D03*
X161894000Y-107722000D03*
X161005000Y-103912000D03*
X169895000Y-105944000D03*
X161005000Y-105944000D03*
X163418000Y-100864000D03*
D12*
X218400000Y-77600000D03*
X219102944Y-75902944D03*
X219102944Y-79297056D03*
X220800000Y-75200000D03*
D13*
X220800000Y-77600000D03*
D12*
X220800000Y-80000000D03*
X222497056Y-75902944D03*
X222497056Y-79297056D03*
X223200000Y-77600000D03*
D16*
X197000000Y-81240500D03*
X197000000Y-83315500D03*
D17*
X91300000Y-96303000D03*
X90500000Y-96303000D03*
D18*
X90900000Y-95153000D03*
D16*
X153900000Y-85890500D03*
X153900000Y-87965500D03*
D19*
X93950000Y-96778000D03*
X93950000Y-94778000D03*
D16*
X105950000Y-85062500D03*
X105950000Y-87137500D03*
D20*
X146350000Y-96728000D03*
X146350000Y-98728000D03*
D21*
X110637500Y-89328000D03*
X108562500Y-89328000D03*
D22*
X128150000Y-80878000D03*
X118250000Y-80878000D03*
D16*
X136450000Y-90640500D03*
X136450000Y-92715500D03*
D23*
X211340000Y-83500000D03*
X211840000Y-83500000D03*
X212340000Y-83500000D03*
X212840000Y-83500000D03*
X213340000Y-83500000D03*
X213340000Y-84500000D03*
X212840000Y-84500000D03*
X212340000Y-84500000D03*
X211840000Y-84500000D03*
X211340000Y-84500000D03*
D24*
X133150000Y-92678000D03*
X126950000Y-92678000D03*
D25*
X204905000Y-93990000D03*
X201655000Y-93990000D03*
D26*
X187700000Y-103128000D03*
X185700000Y-103128000D03*
D27*
X171050000Y-83848000D03*
D28*
X168510000Y-83848000D03*
X165970000Y-83848000D03*
D20*
X157050000Y-85928000D03*
X157050000Y-87928000D03*
D19*
X152850000Y-81278000D03*
X152850000Y-79278000D03*
D23*
X169150000Y-86460000D03*
X169650000Y-86460000D03*
X170150000Y-86460000D03*
X170650000Y-86460000D03*
X171150000Y-86460000D03*
X171150000Y-87460000D03*
X170650000Y-87460000D03*
X170150000Y-87460000D03*
X169650000Y-87460000D03*
X169150000Y-87460000D03*
D29*
X193700000Y-83315500D03*
X193700000Y-81240500D03*
D30*
X108600000Y-91828000D03*
X110600000Y-91828000D03*
D16*
X203600000Y-86562500D03*
X203600000Y-88637500D03*
D20*
X131450000Y-96628000D03*
X131450000Y-98628000D03*
D30*
X206450000Y-100628000D03*
X208450000Y-100628000D03*
D31*
X179612500Y-123628000D03*
X181687500Y-123628000D03*
D32*
X185150000Y-105828000D03*
X188250000Y-105828000D03*
D19*
X155450000Y-83978000D03*
X155450000Y-81978000D03*
X103050000Y-87130000D03*
X103050000Y-85130000D03*
D26*
X203050000Y-100628000D03*
X201050000Y-100628000D03*
D21*
X162337500Y-76700000D03*
X160262500Y-76700000D03*
D19*
X180050000Y-107828000D03*
X180050000Y-105828000D03*
D16*
X206800000Y-86562500D03*
X206800000Y-88637500D03*
D31*
X148162500Y-79678000D03*
X150237500Y-79678000D03*
D33*
X221700000Y-84428000D03*
D34*
X219200000Y-84428000D03*
X216700000Y-84428000D03*
D20*
X157850000Y-79278000D03*
X157850000Y-81278000D03*
D30*
X159950000Y-79750000D03*
X161950000Y-79750000D03*
D21*
X132087500Y-123628000D03*
X130012500Y-123628000D03*
D35*
X96800000Y-87428000D03*
X90300000Y-87428000D03*
D20*
X165450000Y-96528000D03*
X165450000Y-98528000D03*
X116420000Y-96640000D03*
X116420000Y-98640000D03*
D26*
X150250000Y-76778000D03*
X148250000Y-76778000D03*
D36*
X139750000Y-76628000D03*
X139750000Y-81628000D03*
D37*
X139750000Y-85478000D03*
D38*
X136350000Y-82128000D03*
D37*
X137500000Y-85478000D03*
D39*
X142350000Y-76978000D03*
X136150000Y-76978000D03*
D19*
X96600000Y-80000000D03*
X96600000Y-78000000D03*
D20*
X97350000Y-96728000D03*
X97350000Y-98728000D03*
D24*
X139750000Y-92678000D03*
X145950000Y-92678000D03*
D40*
X191250000Y-81208000D03*
X191250000Y-82478000D03*
X191250000Y-83748000D03*
X191250000Y-85018000D03*
X191250000Y-86288000D03*
X191250000Y-87558000D03*
X191250000Y-88828000D03*
X191250000Y-90098000D03*
X191250000Y-91368000D03*
X191250000Y-92638000D03*
X191250000Y-93908000D03*
X191250000Y-95178000D03*
X191250000Y-96448000D03*
X191250000Y-97718000D03*
D41*
X189485000Y-98968000D03*
X188215000Y-98968000D03*
X186945000Y-98968000D03*
X185675000Y-98968000D03*
X184405000Y-98968000D03*
X183135000Y-98968000D03*
X181865000Y-98968000D03*
X180595000Y-98968000D03*
X179325000Y-98968000D03*
X178055000Y-98968000D03*
X176785000Y-98968000D03*
X175515000Y-98968000D03*
D40*
X173750000Y-97718000D03*
X173750000Y-96448000D03*
X173750000Y-95178000D03*
X173750000Y-93908000D03*
X173750000Y-92638000D03*
X173750000Y-91368000D03*
X173750000Y-90098000D03*
X173750000Y-88828000D03*
X173750000Y-87558000D03*
X173750000Y-86288000D03*
X173750000Y-85018000D03*
X173750000Y-83748000D03*
X173750000Y-82478000D03*
X173750000Y-81208000D03*
D42*
X185400000Y-89628000D03*
X185400000Y-88228000D03*
X184700000Y-90328000D03*
X184700000Y-88928000D03*
X184700000Y-87528000D03*
X184000000Y-89628000D03*
D43*
X184000000Y-88928000D03*
D42*
X184000000Y-88228000D03*
X183300000Y-90328000D03*
X183300000Y-88928000D03*
X183300000Y-87528000D03*
X182600000Y-89628000D03*
X182600000Y-88228000D03*
D44*
X208960000Y-79893000D03*
X214740000Y-79893000D03*
D45*
X208650000Y-80968000D03*
X209450000Y-80968000D03*
D46*
X210600000Y-80968000D03*
X211600000Y-80968000D03*
X212100000Y-80968000D03*
X213100000Y-80968000D03*
D45*
X214250000Y-80968000D03*
X215050000Y-80968000D03*
X215050000Y-80968000D03*
X214250000Y-80968000D03*
D46*
X213600000Y-80968000D03*
X212600000Y-80968000D03*
X211100000Y-80968000D03*
X210100000Y-80968000D03*
D45*
X209450000Y-80968000D03*
X208650000Y-80968000D03*
D47*
X207530000Y-76213000D03*
D48*
X207530000Y-80393000D03*
D47*
X216170000Y-76213000D03*
D48*
X216170000Y-80393000D03*
M02*
