G04 #@! TF.GenerationSoftware,KiCad,Pcbnew,8.0.0*
G04 #@! TF.CreationDate,2024-11-13T23:09:03+01:00*
G04 #@! TF.ProjectId,nixie_alarm_main_board,6e697869-655f-4616-9c61-726d5f6d6169,rev?*
G04 #@! TF.SameCoordinates,Original*
G04 #@! TF.FileFunction,Legend,Bot*
G04 #@! TF.FilePolarity,Positive*
%FSLAX46Y46*%
G04 Gerber Fmt 4.6, Leading zero omitted, Abs format (unit mm)*
G04 Created by KiCad (PCBNEW 8.0.0) date 2024-11-13 23:09:03*
%MOMM*%
%LPD*%
G01*
G04 APERTURE LIST*
G04 Aperture macros list*
%AMRoundRect*
0 Rectangle with rounded corners*
0 $1 Rounding radius*
0 $2 $3 $4 $5 $6 $7 $8 $9 X,Y pos of 4 corners*
0 Add a 4 corners polygon primitive as box body*
4,1,4,$2,$3,$4,$5,$6,$7,$8,$9,$2,$3,0*
0 Add four circle primitives for the rounded corners*
1,1,$1+$1,$2,$3*
1,1,$1+$1,$4,$5*
1,1,$1+$1,$6,$7*
1,1,$1+$1,$8,$9*
0 Add four rect primitives between the rounded corners*
20,1,$1+$1,$2,$3,$4,$5,0*
20,1,$1+$1,$4,$5,$6,$7,0*
20,1,$1+$1,$6,$7,$8,$9,0*
20,1,$1+$1,$8,$9,$2,$3,0*%
G04 Aperture macros list end*
%ADD10C,0.100000*%
%ADD11C,0.150000*%
%ADD12C,0.125000*%
%ADD13C,0.200000*%
%ADD14C,0.254000*%
%ADD15C,0.120000*%
%ADD16C,0.250000*%
%ADD17C,1.700000*%
%ADD18C,1.524000*%
%ADD19C,0.800000*%
%ADD20C,6.400000*%
%ADD21C,1.800000*%
%ADD22C,4.572000*%
%ADD23RoundRect,0.250000X-0.475000X0.337500X-0.475000X-0.337500X0.475000X-0.337500X0.475000X0.337500X0*%
%ADD24R,0.650000X1.200000*%
%ADD25RoundRect,0.250000X-0.337500X-0.475000X0.337500X-0.475000X0.337500X0.475000X-0.337500X0.475000X0*%
%ADD26RoundRect,0.250000X0.450000X-0.350000X0.450000X0.350000X-0.450000X0.350000X-0.450000X-0.350000X0*%
%ADD27RoundRect,0.250000X-0.450000X0.350000X-0.450000X-0.350000X0.450000X-0.350000X0.450000X0.350000X0*%
%ADD28RoundRect,0.250000X0.337500X0.475000X-0.337500X0.475000X-0.337500X-0.475000X0.337500X-0.475000X0*%
%ADD29R,2.900000X5.400000*%
%ADD30R,0.750000X0.250000*%
%ADD31R,2.300000X2.500000*%
%ADD32R,1.250000X4.700000*%
%ADD33RoundRect,0.250000X0.350000X0.450000X-0.350000X0.450000X-0.350000X-0.450000X0.350000X-0.450000X0*%
%ADD34RoundRect,0.250000X0.400000X0.625000X-0.400000X0.625000X-0.400000X-0.625000X0.400000X-0.625000X0*%
%ADD35R,1.700000X1.700000*%
%ADD36O,1.700000X1.700000*%
%ADD37RoundRect,0.250000X-0.350000X-0.450000X0.350000X-0.450000X0.350000X0.450000X-0.350000X0.450000X0*%
%ADD38R,1.450000X1.150000*%
%ADD39R,0.250000X0.750000*%
%ADD40RoundRect,0.250000X0.475000X-0.337500X0.475000X0.337500X-0.475000X0.337500X-0.475000X-0.337500X0*%
%ADD41RoundRect,0.250000X-0.400000X-0.625000X0.400000X-0.625000X0.400000X0.625000X-0.400000X0.625000X0*%
%ADD42R,0.800000X1.700000*%
%ADD43RoundRect,0.250000X0.600000X0.725000X-0.600000X0.725000X-0.600000X-0.725000X0.600000X-0.725000X0*%
%ADD44O,1.700000X1.950000*%
%ADD45C,1.410000*%
%ADD46C,1.300000*%
%ADD47R,1.800000X1.700000*%
%ADD48R,2.100000X1.800000*%
%ADD49R,1.700000X1.800000*%
%ADD50R,1.500000X0.900000*%
%ADD51R,0.900000X1.500000*%
%ADD52C,0.600000*%
%ADD53R,3.900000X3.900000*%
%ADD54C,0.650000*%
%ADD55RoundRect,0.150000X-0.150000X-0.425000X0.150000X-0.425000X0.150000X0.425000X-0.150000X0.425000X0*%
%ADD56RoundRect,0.075000X-0.075000X-0.500000X0.075000X-0.500000X0.075000X0.500000X-0.075000X0.500000X0*%
%ADD57O,1.000000X1.800000*%
%ADD58O,1.000000X2.100000*%
G04 APERTURE END LIST*
D10*
X217324687Y-81434990D02*
X217400877Y-81396895D01*
X217400877Y-81396895D02*
X217515163Y-81396895D01*
X217515163Y-81396895D02*
X217629449Y-81434990D01*
X217629449Y-81434990D02*
X217705639Y-81511180D01*
X217705639Y-81511180D02*
X217743734Y-81587371D01*
X217743734Y-81587371D02*
X217781830Y-81739752D01*
X217781830Y-81739752D02*
X217781830Y-81854038D01*
X217781830Y-81854038D02*
X217743734Y-82006419D01*
X217743734Y-82006419D02*
X217705639Y-82082609D01*
X217705639Y-82082609D02*
X217629449Y-82158800D01*
X217629449Y-82158800D02*
X217515163Y-82196895D01*
X217515163Y-82196895D02*
X217438972Y-82196895D01*
X217438972Y-82196895D02*
X217324687Y-82158800D01*
X217324687Y-82158800D02*
X217286591Y-82120704D01*
X217286591Y-82120704D02*
X217286591Y-81854038D01*
X217286591Y-81854038D02*
X217438972Y-81854038D01*
X216943734Y-82196895D02*
X216943734Y-81396895D01*
X216943734Y-81396895D02*
X216486591Y-82196895D01*
X216486591Y-82196895D02*
X216486591Y-81396895D01*
X216105639Y-82196895D02*
X216105639Y-81396895D01*
X216105639Y-81396895D02*
X215915163Y-81396895D01*
X215915163Y-81396895D02*
X215800877Y-81434990D01*
X215800877Y-81434990D02*
X215724687Y-81511180D01*
X215724687Y-81511180D02*
X215686592Y-81587371D01*
X215686592Y-81587371D02*
X215648496Y-81739752D01*
X215648496Y-81739752D02*
X215648496Y-81854038D01*
X215648496Y-81854038D02*
X215686592Y-82006419D01*
X215686592Y-82006419D02*
X215724687Y-82082609D01*
X215724687Y-82082609D02*
X215800877Y-82158800D01*
X215800877Y-82158800D02*
X215915163Y-82196895D01*
X215915163Y-82196895D02*
X216105639Y-82196895D01*
X168663496Y-86484894D02*
X168930163Y-86103941D01*
X169120639Y-86484894D02*
X169120639Y-85684894D01*
X169120639Y-85684894D02*
X168815877Y-85684894D01*
X168815877Y-85684894D02*
X168739687Y-85722989D01*
X168739687Y-85722989D02*
X168701592Y-85761084D01*
X168701592Y-85761084D02*
X168663496Y-85837275D01*
X168663496Y-85837275D02*
X168663496Y-85951560D01*
X168663496Y-85951560D02*
X168701592Y-86027751D01*
X168701592Y-86027751D02*
X168739687Y-86065846D01*
X168739687Y-86065846D02*
X168815877Y-86103941D01*
X168815877Y-86103941D02*
X169120639Y-86103941D01*
X168396830Y-85684894D02*
X167863496Y-86484894D01*
X167863496Y-85684894D02*
X168396830Y-86484894D01*
X171594449Y-85684894D02*
X171137306Y-85684894D01*
X171365878Y-86484894D02*
X171365878Y-85684894D01*
X170946830Y-85684894D02*
X170413496Y-86484894D01*
X170413496Y-85684894D02*
X170946830Y-86484894D01*
X219674686Y-82196895D02*
X219674686Y-81396895D01*
X219293734Y-82196895D02*
X219293734Y-81396895D01*
X219293734Y-81396895D02*
X218836591Y-82196895D01*
X218836591Y-82196895D02*
X218836591Y-81396895D01*
X221872306Y-81396895D02*
X222253258Y-81396895D01*
X222253258Y-81396895D02*
X222291354Y-81777847D01*
X222291354Y-81777847D02*
X222253258Y-81739752D01*
X222253258Y-81739752D02*
X222177068Y-81701657D01*
X222177068Y-81701657D02*
X221986592Y-81701657D01*
X221986592Y-81701657D02*
X221910401Y-81739752D01*
X221910401Y-81739752D02*
X221872306Y-81777847D01*
X221872306Y-81777847D02*
X221834211Y-81854038D01*
X221834211Y-81854038D02*
X221834211Y-82044514D01*
X221834211Y-82044514D02*
X221872306Y-82120704D01*
X221872306Y-82120704D02*
X221910401Y-82158800D01*
X221910401Y-82158800D02*
X221986592Y-82196895D01*
X221986592Y-82196895D02*
X222177068Y-82196895D01*
X222177068Y-82196895D02*
X222253258Y-82158800D01*
X222253258Y-82158800D02*
X222291354Y-82120704D01*
X221605639Y-81396895D02*
X221338972Y-82196895D01*
X221338972Y-82196895D02*
X221072306Y-81396895D01*
X166577782Y-85722989D02*
X166653972Y-85684894D01*
X166653972Y-85684894D02*
X166768258Y-85684894D01*
X166768258Y-85684894D02*
X166882544Y-85722989D01*
X166882544Y-85722989D02*
X166958734Y-85799179D01*
X166958734Y-85799179D02*
X166996829Y-85875370D01*
X166996829Y-85875370D02*
X167034925Y-86027751D01*
X167034925Y-86027751D02*
X167034925Y-86142037D01*
X167034925Y-86142037D02*
X166996829Y-86294418D01*
X166996829Y-86294418D02*
X166958734Y-86370608D01*
X166958734Y-86370608D02*
X166882544Y-86446799D01*
X166882544Y-86446799D02*
X166768258Y-86484894D01*
X166768258Y-86484894D02*
X166692067Y-86484894D01*
X166692067Y-86484894D02*
X166577782Y-86446799D01*
X166577782Y-86446799D02*
X166539686Y-86408703D01*
X166539686Y-86408703D02*
X166539686Y-86142037D01*
X166539686Y-86142037D02*
X166692067Y-86142037D01*
X166196829Y-86484894D02*
X166196829Y-85684894D01*
X166196829Y-85684894D02*
X165739686Y-86484894D01*
X165739686Y-86484894D02*
X165739686Y-85684894D01*
X165358734Y-86484894D02*
X165358734Y-85684894D01*
X165358734Y-85684894D02*
X165168258Y-85684894D01*
X165168258Y-85684894D02*
X165053972Y-85722989D01*
X165053972Y-85722989D02*
X164977782Y-85799179D01*
X164977782Y-85799179D02*
X164939687Y-85875370D01*
X164939687Y-85875370D02*
X164901591Y-86027751D01*
X164901591Y-86027751D02*
X164901591Y-86142037D01*
X164901591Y-86142037D02*
X164939687Y-86294418D01*
X164939687Y-86294418D02*
X164977782Y-86370608D01*
X164977782Y-86370608D02*
X165053972Y-86446799D01*
X165053972Y-86446799D02*
X165168258Y-86484894D01*
X165168258Y-86484894D02*
X165358734Y-86484894D01*
D11*
X200742857Y-76509580D02*
X200790476Y-76557200D01*
X200790476Y-76557200D02*
X200933333Y-76604819D01*
X200933333Y-76604819D02*
X201028571Y-76604819D01*
X201028571Y-76604819D02*
X201171428Y-76557200D01*
X201171428Y-76557200D02*
X201266666Y-76461961D01*
X201266666Y-76461961D02*
X201314285Y-76366723D01*
X201314285Y-76366723D02*
X201361904Y-76176247D01*
X201361904Y-76176247D02*
X201361904Y-76033390D01*
X201361904Y-76033390D02*
X201314285Y-75842914D01*
X201314285Y-75842914D02*
X201266666Y-75747676D01*
X201266666Y-75747676D02*
X201171428Y-75652438D01*
X201171428Y-75652438D02*
X201028571Y-75604819D01*
X201028571Y-75604819D02*
X200933333Y-75604819D01*
X200933333Y-75604819D02*
X200790476Y-75652438D01*
X200790476Y-75652438D02*
X200742857Y-75700057D01*
X199790476Y-76604819D02*
X200361904Y-76604819D01*
X200076190Y-76604819D02*
X200076190Y-75604819D01*
X200076190Y-75604819D02*
X200171428Y-75747676D01*
X200171428Y-75747676D02*
X200266666Y-75842914D01*
X200266666Y-75842914D02*
X200361904Y-75890533D01*
X199219047Y-76033390D02*
X199314285Y-75985771D01*
X199314285Y-75985771D02*
X199361904Y-75938152D01*
X199361904Y-75938152D02*
X199409523Y-75842914D01*
X199409523Y-75842914D02*
X199409523Y-75795295D01*
X199409523Y-75795295D02*
X199361904Y-75700057D01*
X199361904Y-75700057D02*
X199314285Y-75652438D01*
X199314285Y-75652438D02*
X199219047Y-75604819D01*
X199219047Y-75604819D02*
X199028571Y-75604819D01*
X199028571Y-75604819D02*
X198933333Y-75652438D01*
X198933333Y-75652438D02*
X198885714Y-75700057D01*
X198885714Y-75700057D02*
X198838095Y-75795295D01*
X198838095Y-75795295D02*
X198838095Y-75842914D01*
X198838095Y-75842914D02*
X198885714Y-75938152D01*
X198885714Y-75938152D02*
X198933333Y-75985771D01*
X198933333Y-75985771D02*
X199028571Y-76033390D01*
X199028571Y-76033390D02*
X199219047Y-76033390D01*
X199219047Y-76033390D02*
X199314285Y-76081009D01*
X199314285Y-76081009D02*
X199361904Y-76128628D01*
X199361904Y-76128628D02*
X199409523Y-76223866D01*
X199409523Y-76223866D02*
X199409523Y-76414342D01*
X199409523Y-76414342D02*
X199361904Y-76509580D01*
X199361904Y-76509580D02*
X199314285Y-76557200D01*
X199314285Y-76557200D02*
X199219047Y-76604819D01*
X199219047Y-76604819D02*
X199028571Y-76604819D01*
X199028571Y-76604819D02*
X198933333Y-76557200D01*
X198933333Y-76557200D02*
X198885714Y-76509580D01*
X198885714Y-76509580D02*
X198838095Y-76414342D01*
X198838095Y-76414342D02*
X198838095Y-76223866D01*
X198838095Y-76223866D02*
X198885714Y-76128628D01*
X198885714Y-76128628D02*
X198933333Y-76081009D01*
X198933333Y-76081009D02*
X199028571Y-76033390D01*
D12*
X93270238Y-99426357D02*
X93365476Y-99378738D01*
X93365476Y-99378738D02*
X93460714Y-99283500D01*
X93460714Y-99283500D02*
X93603571Y-99140642D01*
X93603571Y-99140642D02*
X93698809Y-99093023D01*
X93698809Y-99093023D02*
X93794047Y-99093023D01*
X93746428Y-99331119D02*
X93841666Y-99283500D01*
X93841666Y-99283500D02*
X93936904Y-99188261D01*
X93936904Y-99188261D02*
X93984523Y-98997785D01*
X93984523Y-98997785D02*
X93984523Y-98664452D01*
X93984523Y-98664452D02*
X93936904Y-98473976D01*
X93936904Y-98473976D02*
X93841666Y-98378738D01*
X93841666Y-98378738D02*
X93746428Y-98331119D01*
X93746428Y-98331119D02*
X93555952Y-98331119D01*
X93555952Y-98331119D02*
X93460714Y-98378738D01*
X93460714Y-98378738D02*
X93365476Y-98473976D01*
X93365476Y-98473976D02*
X93317857Y-98664452D01*
X93317857Y-98664452D02*
X93317857Y-98997785D01*
X93317857Y-98997785D02*
X93365476Y-99188261D01*
X93365476Y-99188261D02*
X93460714Y-99283500D01*
X93460714Y-99283500D02*
X93555952Y-99331119D01*
X93555952Y-99331119D02*
X93746428Y-99331119D01*
X92365476Y-99331119D02*
X92936904Y-99331119D01*
X92651190Y-99331119D02*
X92651190Y-98331119D01*
X92651190Y-98331119D02*
X92746428Y-98473976D01*
X92746428Y-98473976D02*
X92841666Y-98569214D01*
X92841666Y-98569214D02*
X92936904Y-98616833D01*
D11*
X166409580Y-90933333D02*
X166457200Y-90885714D01*
X166457200Y-90885714D02*
X166504819Y-90742857D01*
X166504819Y-90742857D02*
X166504819Y-90647619D01*
X166504819Y-90647619D02*
X166457200Y-90504762D01*
X166457200Y-90504762D02*
X166361961Y-90409524D01*
X166361961Y-90409524D02*
X166266723Y-90361905D01*
X166266723Y-90361905D02*
X166076247Y-90314286D01*
X166076247Y-90314286D02*
X165933390Y-90314286D01*
X165933390Y-90314286D02*
X165742914Y-90361905D01*
X165742914Y-90361905D02*
X165647676Y-90409524D01*
X165647676Y-90409524D02*
X165552438Y-90504762D01*
X165552438Y-90504762D02*
X165504819Y-90647619D01*
X165504819Y-90647619D02*
X165504819Y-90742857D01*
X165504819Y-90742857D02*
X165552438Y-90885714D01*
X165552438Y-90885714D02*
X165600057Y-90933333D01*
X165838152Y-91790476D02*
X166504819Y-91790476D01*
X165457200Y-91552381D02*
X166171485Y-91314286D01*
X166171485Y-91314286D02*
X166171485Y-91933333D01*
X97079819Y-95407142D02*
X96603628Y-95073809D01*
X97079819Y-94835714D02*
X96079819Y-94835714D01*
X96079819Y-94835714D02*
X96079819Y-95216666D01*
X96079819Y-95216666D02*
X96127438Y-95311904D01*
X96127438Y-95311904D02*
X96175057Y-95359523D01*
X96175057Y-95359523D02*
X96270295Y-95407142D01*
X96270295Y-95407142D02*
X96413152Y-95407142D01*
X96413152Y-95407142D02*
X96508390Y-95359523D01*
X96508390Y-95359523D02*
X96556009Y-95311904D01*
X96556009Y-95311904D02*
X96603628Y-95216666D01*
X96603628Y-95216666D02*
X96603628Y-94835714D01*
X96079819Y-95740476D02*
X96079819Y-96359523D01*
X96079819Y-96359523D02*
X96460771Y-96026190D01*
X96460771Y-96026190D02*
X96460771Y-96169047D01*
X96460771Y-96169047D02*
X96508390Y-96264285D01*
X96508390Y-96264285D02*
X96556009Y-96311904D01*
X96556009Y-96311904D02*
X96651247Y-96359523D01*
X96651247Y-96359523D02*
X96889342Y-96359523D01*
X96889342Y-96359523D02*
X96984580Y-96311904D01*
X96984580Y-96311904D02*
X97032200Y-96264285D01*
X97032200Y-96264285D02*
X97079819Y-96169047D01*
X97079819Y-96169047D02*
X97079819Y-95883333D01*
X97079819Y-95883333D02*
X97032200Y-95788095D01*
X97032200Y-95788095D02*
X96984580Y-95740476D01*
X96079819Y-97264285D02*
X96079819Y-96788095D01*
X96079819Y-96788095D02*
X96556009Y-96740476D01*
X96556009Y-96740476D02*
X96508390Y-96788095D01*
X96508390Y-96788095D02*
X96460771Y-96883333D01*
X96460771Y-96883333D02*
X96460771Y-97121428D01*
X96460771Y-97121428D02*
X96508390Y-97216666D01*
X96508390Y-97216666D02*
X96556009Y-97264285D01*
X96556009Y-97264285D02*
X96651247Y-97311904D01*
X96651247Y-97311904D02*
X96889342Y-97311904D01*
X96889342Y-97311904D02*
X96984580Y-97264285D01*
X96984580Y-97264285D02*
X97032200Y-97216666D01*
X97032200Y-97216666D02*
X97079819Y-97121428D01*
X97079819Y-97121428D02*
X97079819Y-96883333D01*
X97079819Y-96883333D02*
X97032200Y-96788095D01*
X97032200Y-96788095D02*
X96984580Y-96740476D01*
X111209580Y-85482142D02*
X111257200Y-85434523D01*
X111257200Y-85434523D02*
X111304819Y-85291666D01*
X111304819Y-85291666D02*
X111304819Y-85196428D01*
X111304819Y-85196428D02*
X111257200Y-85053571D01*
X111257200Y-85053571D02*
X111161961Y-84958333D01*
X111161961Y-84958333D02*
X111066723Y-84910714D01*
X111066723Y-84910714D02*
X110876247Y-84863095D01*
X110876247Y-84863095D02*
X110733390Y-84863095D01*
X110733390Y-84863095D02*
X110542914Y-84910714D01*
X110542914Y-84910714D02*
X110447676Y-84958333D01*
X110447676Y-84958333D02*
X110352438Y-85053571D01*
X110352438Y-85053571D02*
X110304819Y-85196428D01*
X110304819Y-85196428D02*
X110304819Y-85291666D01*
X110304819Y-85291666D02*
X110352438Y-85434523D01*
X110352438Y-85434523D02*
X110400057Y-85482142D01*
X111304819Y-86434523D02*
X111304819Y-85863095D01*
X111304819Y-86148809D02*
X110304819Y-86148809D01*
X110304819Y-86148809D02*
X110447676Y-86053571D01*
X110447676Y-86053571D02*
X110542914Y-85958333D01*
X110542914Y-85958333D02*
X110590533Y-85863095D01*
X110304819Y-87053571D02*
X110304819Y-87148809D01*
X110304819Y-87148809D02*
X110352438Y-87244047D01*
X110352438Y-87244047D02*
X110400057Y-87291666D01*
X110400057Y-87291666D02*
X110495295Y-87339285D01*
X110495295Y-87339285D02*
X110685771Y-87386904D01*
X110685771Y-87386904D02*
X110923866Y-87386904D01*
X110923866Y-87386904D02*
X111114342Y-87339285D01*
X111114342Y-87339285D02*
X111209580Y-87291666D01*
X111209580Y-87291666D02*
X111257200Y-87244047D01*
X111257200Y-87244047D02*
X111304819Y-87148809D01*
X111304819Y-87148809D02*
X111304819Y-87053571D01*
X111304819Y-87053571D02*
X111257200Y-86958333D01*
X111257200Y-86958333D02*
X111209580Y-86910714D01*
X111209580Y-86910714D02*
X111114342Y-86863095D01*
X111114342Y-86863095D02*
X110923866Y-86815476D01*
X110923866Y-86815476D02*
X110685771Y-86815476D01*
X110685771Y-86815476D02*
X110495295Y-86863095D01*
X110495295Y-86863095D02*
X110400057Y-86910714D01*
X110400057Y-86910714D02*
X110352438Y-86958333D01*
X110352438Y-86958333D02*
X110304819Y-87053571D01*
X144954819Y-97107142D02*
X144478628Y-96773809D01*
X144954819Y-96535714D02*
X143954819Y-96535714D01*
X143954819Y-96535714D02*
X143954819Y-96916666D01*
X143954819Y-96916666D02*
X144002438Y-97011904D01*
X144002438Y-97011904D02*
X144050057Y-97059523D01*
X144050057Y-97059523D02*
X144145295Y-97107142D01*
X144145295Y-97107142D02*
X144288152Y-97107142D01*
X144288152Y-97107142D02*
X144383390Y-97059523D01*
X144383390Y-97059523D02*
X144431009Y-97011904D01*
X144431009Y-97011904D02*
X144478628Y-96916666D01*
X144478628Y-96916666D02*
X144478628Y-96535714D01*
X144050057Y-97488095D02*
X144002438Y-97535714D01*
X144002438Y-97535714D02*
X143954819Y-97630952D01*
X143954819Y-97630952D02*
X143954819Y-97869047D01*
X143954819Y-97869047D02*
X144002438Y-97964285D01*
X144002438Y-97964285D02*
X144050057Y-98011904D01*
X144050057Y-98011904D02*
X144145295Y-98059523D01*
X144145295Y-98059523D02*
X144240533Y-98059523D01*
X144240533Y-98059523D02*
X144383390Y-98011904D01*
X144383390Y-98011904D02*
X144954819Y-97440476D01*
X144954819Y-97440476D02*
X144954819Y-98059523D01*
X144383390Y-98630952D02*
X144335771Y-98535714D01*
X144335771Y-98535714D02*
X144288152Y-98488095D01*
X144288152Y-98488095D02*
X144192914Y-98440476D01*
X144192914Y-98440476D02*
X144145295Y-98440476D01*
X144145295Y-98440476D02*
X144050057Y-98488095D01*
X144050057Y-98488095D02*
X144002438Y-98535714D01*
X144002438Y-98535714D02*
X143954819Y-98630952D01*
X143954819Y-98630952D02*
X143954819Y-98821428D01*
X143954819Y-98821428D02*
X144002438Y-98916666D01*
X144002438Y-98916666D02*
X144050057Y-98964285D01*
X144050057Y-98964285D02*
X144145295Y-99011904D01*
X144145295Y-99011904D02*
X144192914Y-99011904D01*
X144192914Y-99011904D02*
X144288152Y-98964285D01*
X144288152Y-98964285D02*
X144335771Y-98916666D01*
X144335771Y-98916666D02*
X144383390Y-98821428D01*
X144383390Y-98821428D02*
X144383390Y-98630952D01*
X144383390Y-98630952D02*
X144431009Y-98535714D01*
X144431009Y-98535714D02*
X144478628Y-98488095D01*
X144478628Y-98488095D02*
X144573866Y-98440476D01*
X144573866Y-98440476D02*
X144764342Y-98440476D01*
X144764342Y-98440476D02*
X144859580Y-98488095D01*
X144859580Y-98488095D02*
X144907200Y-98535714D01*
X144907200Y-98535714D02*
X144954819Y-98630952D01*
X144954819Y-98630952D02*
X144954819Y-98821428D01*
X144954819Y-98821428D02*
X144907200Y-98916666D01*
X144907200Y-98916666D02*
X144859580Y-98964285D01*
X144859580Y-98964285D02*
X144764342Y-99011904D01*
X144764342Y-99011904D02*
X144573866Y-99011904D01*
X144573866Y-99011904D02*
X144478628Y-98964285D01*
X144478628Y-98964285D02*
X144431009Y-98916666D01*
X144431009Y-98916666D02*
X144383390Y-98821428D01*
X119392857Y-90404580D02*
X119440476Y-90452200D01*
X119440476Y-90452200D02*
X119583333Y-90499819D01*
X119583333Y-90499819D02*
X119678571Y-90499819D01*
X119678571Y-90499819D02*
X119821428Y-90452200D01*
X119821428Y-90452200D02*
X119916666Y-90356961D01*
X119916666Y-90356961D02*
X119964285Y-90261723D01*
X119964285Y-90261723D02*
X120011904Y-90071247D01*
X120011904Y-90071247D02*
X120011904Y-89928390D01*
X120011904Y-89928390D02*
X119964285Y-89737914D01*
X119964285Y-89737914D02*
X119916666Y-89642676D01*
X119916666Y-89642676D02*
X119821428Y-89547438D01*
X119821428Y-89547438D02*
X119678571Y-89499819D01*
X119678571Y-89499819D02*
X119583333Y-89499819D01*
X119583333Y-89499819D02*
X119440476Y-89547438D01*
X119440476Y-89547438D02*
X119392857Y-89595057D01*
X118440476Y-90499819D02*
X119011904Y-90499819D01*
X118726190Y-90499819D02*
X118726190Y-89499819D01*
X118726190Y-89499819D02*
X118821428Y-89642676D01*
X118821428Y-89642676D02*
X118916666Y-89737914D01*
X118916666Y-89737914D02*
X119011904Y-89785533D01*
X118107142Y-89499819D02*
X117488095Y-89499819D01*
X117488095Y-89499819D02*
X117821428Y-89880771D01*
X117821428Y-89880771D02*
X117678571Y-89880771D01*
X117678571Y-89880771D02*
X117583333Y-89928390D01*
X117583333Y-89928390D02*
X117535714Y-89976009D01*
X117535714Y-89976009D02*
X117488095Y-90071247D01*
X117488095Y-90071247D02*
X117488095Y-90309342D01*
X117488095Y-90309342D02*
X117535714Y-90404580D01*
X117535714Y-90404580D02*
X117583333Y-90452200D01*
X117583333Y-90452200D02*
X117678571Y-90499819D01*
X117678571Y-90499819D02*
X117964285Y-90499819D01*
X117964285Y-90499819D02*
X118059523Y-90452200D01*
X118059523Y-90452200D02*
X118107142Y-90404580D01*
X123366666Y-89032819D02*
X123842856Y-89032819D01*
X123842856Y-89032819D02*
X123842856Y-88032819D01*
X123080951Y-88128057D02*
X123033332Y-88080438D01*
X123033332Y-88080438D02*
X122938094Y-88032819D01*
X122938094Y-88032819D02*
X122699999Y-88032819D01*
X122699999Y-88032819D02*
X122604761Y-88080438D01*
X122604761Y-88080438D02*
X122557142Y-88128057D01*
X122557142Y-88128057D02*
X122509523Y-88223295D01*
X122509523Y-88223295D02*
X122509523Y-88318533D01*
X122509523Y-88318533D02*
X122557142Y-88461390D01*
X122557142Y-88461390D02*
X123128570Y-89032819D01*
X123128570Y-89032819D02*
X122509523Y-89032819D01*
X137592857Y-94659580D02*
X137640476Y-94707200D01*
X137640476Y-94707200D02*
X137783333Y-94754819D01*
X137783333Y-94754819D02*
X137878571Y-94754819D01*
X137878571Y-94754819D02*
X138021428Y-94707200D01*
X138021428Y-94707200D02*
X138116666Y-94611961D01*
X138116666Y-94611961D02*
X138164285Y-94516723D01*
X138164285Y-94516723D02*
X138211904Y-94326247D01*
X138211904Y-94326247D02*
X138211904Y-94183390D01*
X138211904Y-94183390D02*
X138164285Y-93992914D01*
X138164285Y-93992914D02*
X138116666Y-93897676D01*
X138116666Y-93897676D02*
X138021428Y-93802438D01*
X138021428Y-93802438D02*
X137878571Y-93754819D01*
X137878571Y-93754819D02*
X137783333Y-93754819D01*
X137783333Y-93754819D02*
X137640476Y-93802438D01*
X137640476Y-93802438D02*
X137592857Y-93850057D01*
X137211904Y-93850057D02*
X137164285Y-93802438D01*
X137164285Y-93802438D02*
X137069047Y-93754819D01*
X137069047Y-93754819D02*
X136830952Y-93754819D01*
X136830952Y-93754819D02*
X136735714Y-93802438D01*
X136735714Y-93802438D02*
X136688095Y-93850057D01*
X136688095Y-93850057D02*
X136640476Y-93945295D01*
X136640476Y-93945295D02*
X136640476Y-94040533D01*
X136640476Y-94040533D02*
X136688095Y-94183390D01*
X136688095Y-94183390D02*
X137259523Y-94754819D01*
X137259523Y-94754819D02*
X136640476Y-94754819D01*
X136259523Y-93850057D02*
X136211904Y-93802438D01*
X136211904Y-93802438D02*
X136116666Y-93754819D01*
X136116666Y-93754819D02*
X135878571Y-93754819D01*
X135878571Y-93754819D02*
X135783333Y-93802438D01*
X135783333Y-93802438D02*
X135735714Y-93850057D01*
X135735714Y-93850057D02*
X135688095Y-93945295D01*
X135688095Y-93945295D02*
X135688095Y-94040533D01*
X135688095Y-94040533D02*
X135735714Y-94183390D01*
X135735714Y-94183390D02*
X136307142Y-94754819D01*
X136307142Y-94754819D02*
X135688095Y-94754819D01*
D13*
X210488094Y-84727219D02*
X210488094Y-83727219D01*
X210488094Y-83727219D02*
X210249999Y-83727219D01*
X210249999Y-83727219D02*
X210107142Y-83774838D01*
X210107142Y-83774838D02*
X210011904Y-83870076D01*
X210011904Y-83870076D02*
X209964285Y-83965314D01*
X209964285Y-83965314D02*
X209916666Y-84155790D01*
X209916666Y-84155790D02*
X209916666Y-84298647D01*
X209916666Y-84298647D02*
X209964285Y-84489123D01*
X209964285Y-84489123D02*
X210011904Y-84584361D01*
X210011904Y-84584361D02*
X210107142Y-84679600D01*
X210107142Y-84679600D02*
X210249999Y-84727219D01*
X210249999Y-84727219D02*
X210488094Y-84727219D01*
X208964285Y-84727219D02*
X209535713Y-84727219D01*
X209249999Y-84727219D02*
X209249999Y-83727219D01*
X209249999Y-83727219D02*
X209345237Y-83870076D01*
X209345237Y-83870076D02*
X209440475Y-83965314D01*
X209440475Y-83965314D02*
X209535713Y-84012933D01*
D11*
X198416666Y-92507580D02*
X198464285Y-92555200D01*
X198464285Y-92555200D02*
X198607142Y-92602819D01*
X198607142Y-92602819D02*
X198702380Y-92602819D01*
X198702380Y-92602819D02*
X198845237Y-92555200D01*
X198845237Y-92555200D02*
X198940475Y-92459961D01*
X198940475Y-92459961D02*
X198988094Y-92364723D01*
X198988094Y-92364723D02*
X199035713Y-92174247D01*
X199035713Y-92174247D02*
X199035713Y-92031390D01*
X199035713Y-92031390D02*
X198988094Y-91840914D01*
X198988094Y-91840914D02*
X198940475Y-91745676D01*
X198940475Y-91745676D02*
X198845237Y-91650438D01*
X198845237Y-91650438D02*
X198702380Y-91602819D01*
X198702380Y-91602819D02*
X198607142Y-91602819D01*
X198607142Y-91602819D02*
X198464285Y-91650438D01*
X198464285Y-91650438D02*
X198416666Y-91698057D01*
X198083332Y-91602819D02*
X197464285Y-91602819D01*
X197464285Y-91602819D02*
X197797618Y-91983771D01*
X197797618Y-91983771D02*
X197654761Y-91983771D01*
X197654761Y-91983771D02*
X197559523Y-92031390D01*
X197559523Y-92031390D02*
X197511904Y-92079009D01*
X197511904Y-92079009D02*
X197464285Y-92174247D01*
X197464285Y-92174247D02*
X197464285Y-92412342D01*
X197464285Y-92412342D02*
X197511904Y-92507580D01*
X197511904Y-92507580D02*
X197559523Y-92555200D01*
X197559523Y-92555200D02*
X197654761Y-92602819D01*
X197654761Y-92602819D02*
X197940475Y-92602819D01*
X197940475Y-92602819D02*
X198035713Y-92555200D01*
X198035713Y-92555200D02*
X198083332Y-92507580D01*
D14*
X129266428Y-92953365D02*
X129326904Y-93013842D01*
X129326904Y-93013842D02*
X129508333Y-93074318D01*
X129508333Y-93074318D02*
X129629285Y-93074318D01*
X129629285Y-93074318D02*
X129810714Y-93013842D01*
X129810714Y-93013842D02*
X129931666Y-92892889D01*
X129931666Y-92892889D02*
X129992143Y-92771937D01*
X129992143Y-92771937D02*
X130052619Y-92530032D01*
X130052619Y-92530032D02*
X130052619Y-92348603D01*
X130052619Y-92348603D02*
X129992143Y-92106699D01*
X129992143Y-92106699D02*
X129931666Y-91985746D01*
X129931666Y-91985746D02*
X129810714Y-91864794D01*
X129810714Y-91864794D02*
X129629285Y-91804318D01*
X129629285Y-91804318D02*
X129508333Y-91804318D01*
X129508333Y-91804318D02*
X129326904Y-91864794D01*
X129326904Y-91864794D02*
X129266428Y-91925270D01*
X128782619Y-91925270D02*
X128722143Y-91864794D01*
X128722143Y-91864794D02*
X128601190Y-91804318D01*
X128601190Y-91804318D02*
X128298809Y-91804318D01*
X128298809Y-91804318D02*
X128177857Y-91864794D01*
X128177857Y-91864794D02*
X128117381Y-91925270D01*
X128117381Y-91925270D02*
X128056904Y-92046222D01*
X128056904Y-92046222D02*
X128056904Y-92167175D01*
X128056904Y-92167175D02*
X128117381Y-92348603D01*
X128117381Y-92348603D02*
X128843095Y-93074318D01*
X128843095Y-93074318D02*
X128056904Y-93074318D01*
X127270714Y-91804318D02*
X127149761Y-91804318D01*
X127149761Y-91804318D02*
X127028809Y-91864794D01*
X127028809Y-91864794D02*
X126968333Y-91925270D01*
X126968333Y-91925270D02*
X126907857Y-92046222D01*
X126907857Y-92046222D02*
X126847380Y-92288127D01*
X126847380Y-92288127D02*
X126847380Y-92590508D01*
X126847380Y-92590508D02*
X126907857Y-92832413D01*
X126907857Y-92832413D02*
X126968333Y-92953365D01*
X126968333Y-92953365D02*
X127028809Y-93013842D01*
X127028809Y-93013842D02*
X127149761Y-93074318D01*
X127149761Y-93074318D02*
X127270714Y-93074318D01*
X127270714Y-93074318D02*
X127391666Y-93013842D01*
X127391666Y-93013842D02*
X127452142Y-92953365D01*
X127452142Y-92953365D02*
X127512619Y-92832413D01*
X127512619Y-92832413D02*
X127573095Y-92590508D01*
X127573095Y-92590508D02*
X127573095Y-92288127D01*
X127573095Y-92288127D02*
X127512619Y-92046222D01*
X127512619Y-92046222D02*
X127452142Y-91925270D01*
X127452142Y-91925270D02*
X127391666Y-91864794D01*
X127391666Y-91864794D02*
X127270714Y-91804318D01*
X209724318Y-93238333D02*
X209724318Y-92633571D01*
X209724318Y-92633571D02*
X208454318Y-92633571D01*
X209724318Y-94326905D02*
X209724318Y-93601190D01*
X209724318Y-93964047D02*
X208454318Y-93964047D01*
X208454318Y-93964047D02*
X208635746Y-93843095D01*
X208635746Y-93843095D02*
X208756699Y-93722143D01*
X208756699Y-93722143D02*
X208817175Y-93601190D01*
D11*
X187767857Y-102129819D02*
X188101190Y-101653628D01*
X188339285Y-102129819D02*
X188339285Y-101129819D01*
X188339285Y-101129819D02*
X187958333Y-101129819D01*
X187958333Y-101129819D02*
X187863095Y-101177438D01*
X187863095Y-101177438D02*
X187815476Y-101225057D01*
X187815476Y-101225057D02*
X187767857Y-101320295D01*
X187767857Y-101320295D02*
X187767857Y-101463152D01*
X187767857Y-101463152D02*
X187815476Y-101558390D01*
X187815476Y-101558390D02*
X187863095Y-101606009D01*
X187863095Y-101606009D02*
X187958333Y-101653628D01*
X187958333Y-101653628D02*
X188339285Y-101653628D01*
X186815476Y-102129819D02*
X187386904Y-102129819D01*
X187101190Y-102129819D02*
X187101190Y-101129819D01*
X187101190Y-101129819D02*
X187196428Y-101272676D01*
X187196428Y-101272676D02*
X187291666Y-101367914D01*
X187291666Y-101367914D02*
X187386904Y-101415533D01*
X185958333Y-101129819D02*
X186148809Y-101129819D01*
X186148809Y-101129819D02*
X186244047Y-101177438D01*
X186244047Y-101177438D02*
X186291666Y-101225057D01*
X186291666Y-101225057D02*
X186386904Y-101367914D01*
X186386904Y-101367914D02*
X186434523Y-101558390D01*
X186434523Y-101558390D02*
X186434523Y-101939342D01*
X186434523Y-101939342D02*
X186386904Y-102034580D01*
X186386904Y-102034580D02*
X186339285Y-102082200D01*
X186339285Y-102082200D02*
X186244047Y-102129819D01*
X186244047Y-102129819D02*
X186053571Y-102129819D01*
X186053571Y-102129819D02*
X185958333Y-102082200D01*
X185958333Y-102082200D02*
X185910714Y-102034580D01*
X185910714Y-102034580D02*
X185863095Y-101939342D01*
X185863095Y-101939342D02*
X185863095Y-101701247D01*
X185863095Y-101701247D02*
X185910714Y-101606009D01*
X185910714Y-101606009D02*
X185958333Y-101558390D01*
X185958333Y-101558390D02*
X186053571Y-101510771D01*
X186053571Y-101510771D02*
X186244047Y-101510771D01*
X186244047Y-101510771D02*
X186339285Y-101558390D01*
X186339285Y-101558390D02*
X186386904Y-101606009D01*
X186386904Y-101606009D02*
X186434523Y-101701247D01*
X103825000Y-84241033D02*
X104058333Y-83907700D01*
X104225000Y-84241033D02*
X104225000Y-83541033D01*
X104225000Y-83541033D02*
X103958333Y-83541033D01*
X103958333Y-83541033D02*
X103891667Y-83574366D01*
X103891667Y-83574366D02*
X103858333Y-83607700D01*
X103858333Y-83607700D02*
X103825000Y-83674366D01*
X103825000Y-83674366D02*
X103825000Y-83774366D01*
X103825000Y-83774366D02*
X103858333Y-83841033D01*
X103858333Y-83841033D02*
X103891667Y-83874366D01*
X103891667Y-83874366D02*
X103958333Y-83907700D01*
X103958333Y-83907700D02*
X104225000Y-83907700D01*
X103158333Y-84241033D02*
X103558333Y-84241033D01*
X103358333Y-84241033D02*
X103358333Y-83541033D01*
X103358333Y-83541033D02*
X103425000Y-83641033D01*
X103425000Y-83641033D02*
X103491667Y-83707700D01*
X103491667Y-83707700D02*
X103558333Y-83741033D01*
X102891666Y-83607700D02*
X102858333Y-83574366D01*
X102858333Y-83574366D02*
X102791666Y-83541033D01*
X102791666Y-83541033D02*
X102625000Y-83541033D01*
X102625000Y-83541033D02*
X102558333Y-83574366D01*
X102558333Y-83574366D02*
X102525000Y-83607700D01*
X102525000Y-83607700D02*
X102491666Y-83674366D01*
X102491666Y-83674366D02*
X102491666Y-83741033D01*
X102491666Y-83741033D02*
X102525000Y-83841033D01*
X102525000Y-83841033D02*
X102925000Y-84241033D01*
X102925000Y-84241033D02*
X102491666Y-84241033D01*
X164408333Y-78204819D02*
X164408333Y-78919104D01*
X164408333Y-78919104D02*
X164455952Y-79061961D01*
X164455952Y-79061961D02*
X164551190Y-79157200D01*
X164551190Y-79157200D02*
X164694047Y-79204819D01*
X164694047Y-79204819D02*
X164789285Y-79204819D01*
X163455952Y-78204819D02*
X163932142Y-78204819D01*
X163932142Y-78204819D02*
X163979761Y-78681009D01*
X163979761Y-78681009D02*
X163932142Y-78633390D01*
X163932142Y-78633390D02*
X163836904Y-78585771D01*
X163836904Y-78585771D02*
X163598809Y-78585771D01*
X163598809Y-78585771D02*
X163503571Y-78633390D01*
X163503571Y-78633390D02*
X163455952Y-78681009D01*
X163455952Y-78681009D02*
X163408333Y-78776247D01*
X163408333Y-78776247D02*
X163408333Y-79014342D01*
X163408333Y-79014342D02*
X163455952Y-79109580D01*
X163455952Y-79109580D02*
X163503571Y-79157200D01*
X163503571Y-79157200D02*
X163598809Y-79204819D01*
X163598809Y-79204819D02*
X163836904Y-79204819D01*
X163836904Y-79204819D02*
X163932142Y-79157200D01*
X163932142Y-79157200D02*
X163979761Y-79109580D01*
X166379819Y-88133333D02*
X165903628Y-87800000D01*
X166379819Y-87561905D02*
X165379819Y-87561905D01*
X165379819Y-87561905D02*
X165379819Y-87942857D01*
X165379819Y-87942857D02*
X165427438Y-88038095D01*
X165427438Y-88038095D02*
X165475057Y-88085714D01*
X165475057Y-88085714D02*
X165570295Y-88133333D01*
X165570295Y-88133333D02*
X165713152Y-88133333D01*
X165713152Y-88133333D02*
X165808390Y-88085714D01*
X165808390Y-88085714D02*
X165856009Y-88038095D01*
X165856009Y-88038095D02*
X165903628Y-87942857D01*
X165903628Y-87942857D02*
X165903628Y-87561905D01*
X165808390Y-88704762D02*
X165760771Y-88609524D01*
X165760771Y-88609524D02*
X165713152Y-88561905D01*
X165713152Y-88561905D02*
X165617914Y-88514286D01*
X165617914Y-88514286D02*
X165570295Y-88514286D01*
X165570295Y-88514286D02*
X165475057Y-88561905D01*
X165475057Y-88561905D02*
X165427438Y-88609524D01*
X165427438Y-88609524D02*
X165379819Y-88704762D01*
X165379819Y-88704762D02*
X165379819Y-88895238D01*
X165379819Y-88895238D02*
X165427438Y-88990476D01*
X165427438Y-88990476D02*
X165475057Y-89038095D01*
X165475057Y-89038095D02*
X165570295Y-89085714D01*
X165570295Y-89085714D02*
X165617914Y-89085714D01*
X165617914Y-89085714D02*
X165713152Y-89038095D01*
X165713152Y-89038095D02*
X165760771Y-88990476D01*
X165760771Y-88990476D02*
X165808390Y-88895238D01*
X165808390Y-88895238D02*
X165808390Y-88704762D01*
X165808390Y-88704762D02*
X165856009Y-88609524D01*
X165856009Y-88609524D02*
X165903628Y-88561905D01*
X165903628Y-88561905D02*
X165998866Y-88514286D01*
X165998866Y-88514286D02*
X166189342Y-88514286D01*
X166189342Y-88514286D02*
X166284580Y-88561905D01*
X166284580Y-88561905D02*
X166332200Y-88609524D01*
X166332200Y-88609524D02*
X166379819Y-88704762D01*
X166379819Y-88704762D02*
X166379819Y-88895238D01*
X166379819Y-88895238D02*
X166332200Y-88990476D01*
X166332200Y-88990476D02*
X166284580Y-89038095D01*
X166284580Y-89038095D02*
X166189342Y-89085714D01*
X166189342Y-89085714D02*
X165998866Y-89085714D01*
X165998866Y-89085714D02*
X165903628Y-89038095D01*
X165903628Y-89038095D02*
X165856009Y-88990476D01*
X165856009Y-88990476D02*
X165808390Y-88895238D01*
X198416666Y-99429819D02*
X198749999Y-98953628D01*
X198988094Y-99429819D02*
X198988094Y-98429819D01*
X198988094Y-98429819D02*
X198607142Y-98429819D01*
X198607142Y-98429819D02*
X198511904Y-98477438D01*
X198511904Y-98477438D02*
X198464285Y-98525057D01*
X198464285Y-98525057D02*
X198416666Y-98620295D01*
X198416666Y-98620295D02*
X198416666Y-98763152D01*
X198416666Y-98763152D02*
X198464285Y-98858390D01*
X198464285Y-98858390D02*
X198511904Y-98906009D01*
X198511904Y-98906009D02*
X198607142Y-98953628D01*
X198607142Y-98953628D02*
X198988094Y-98953628D01*
X197940475Y-99429819D02*
X197749999Y-99429819D01*
X197749999Y-99429819D02*
X197654761Y-99382200D01*
X197654761Y-99382200D02*
X197607142Y-99334580D01*
X197607142Y-99334580D02*
X197511904Y-99191723D01*
X197511904Y-99191723D02*
X197464285Y-99001247D01*
X197464285Y-99001247D02*
X197464285Y-98620295D01*
X197464285Y-98620295D02*
X197511904Y-98525057D01*
X197511904Y-98525057D02*
X197559523Y-98477438D01*
X197559523Y-98477438D02*
X197654761Y-98429819D01*
X197654761Y-98429819D02*
X197845237Y-98429819D01*
X197845237Y-98429819D02*
X197940475Y-98477438D01*
X197940475Y-98477438D02*
X197988094Y-98525057D01*
X197988094Y-98525057D02*
X198035713Y-98620295D01*
X198035713Y-98620295D02*
X198035713Y-98858390D01*
X198035713Y-98858390D02*
X197988094Y-98953628D01*
X197988094Y-98953628D02*
X197940475Y-99001247D01*
X197940475Y-99001247D02*
X197845237Y-99048866D01*
X197845237Y-99048866D02*
X197654761Y-99048866D01*
X197654761Y-99048866D02*
X197559523Y-99001247D01*
X197559523Y-99001247D02*
X197511904Y-98953628D01*
X197511904Y-98953628D02*
X197464285Y-98858390D01*
D13*
X108581980Y-79232142D02*
X108629600Y-79184523D01*
X108629600Y-79184523D02*
X108677219Y-79041666D01*
X108677219Y-79041666D02*
X108677219Y-78946428D01*
X108677219Y-78946428D02*
X108629600Y-78803571D01*
X108629600Y-78803571D02*
X108534361Y-78708333D01*
X108534361Y-78708333D02*
X108439123Y-78660714D01*
X108439123Y-78660714D02*
X108248647Y-78613095D01*
X108248647Y-78613095D02*
X108105790Y-78613095D01*
X108105790Y-78613095D02*
X107915314Y-78660714D01*
X107915314Y-78660714D02*
X107820076Y-78708333D01*
X107820076Y-78708333D02*
X107724838Y-78803571D01*
X107724838Y-78803571D02*
X107677219Y-78946428D01*
X107677219Y-78946428D02*
X107677219Y-79041666D01*
X107677219Y-79041666D02*
X107724838Y-79184523D01*
X107724838Y-79184523D02*
X107772457Y-79232142D01*
X108677219Y-80184523D02*
X108677219Y-79613095D01*
X108677219Y-79898809D02*
X107677219Y-79898809D01*
X107677219Y-79898809D02*
X107820076Y-79803571D01*
X107820076Y-79803571D02*
X107915314Y-79708333D01*
X107915314Y-79708333D02*
X107962933Y-79613095D01*
X108677219Y-81136904D02*
X108677219Y-80565476D01*
X108677219Y-80851190D02*
X107677219Y-80851190D01*
X107677219Y-80851190D02*
X107820076Y-80755952D01*
X107820076Y-80755952D02*
X107915314Y-80660714D01*
X107915314Y-80660714D02*
X107962933Y-80565476D01*
D11*
X155104819Y-78432142D02*
X154628628Y-78098809D01*
X155104819Y-77860714D02*
X154104819Y-77860714D01*
X154104819Y-77860714D02*
X154104819Y-78241666D01*
X154104819Y-78241666D02*
X154152438Y-78336904D01*
X154152438Y-78336904D02*
X154200057Y-78384523D01*
X154200057Y-78384523D02*
X154295295Y-78432142D01*
X154295295Y-78432142D02*
X154438152Y-78432142D01*
X154438152Y-78432142D02*
X154533390Y-78384523D01*
X154533390Y-78384523D02*
X154581009Y-78336904D01*
X154581009Y-78336904D02*
X154628628Y-78241666D01*
X154628628Y-78241666D02*
X154628628Y-77860714D01*
X155104819Y-79384523D02*
X155104819Y-78813095D01*
X155104819Y-79098809D02*
X154104819Y-79098809D01*
X154104819Y-79098809D02*
X154247676Y-79003571D01*
X154247676Y-79003571D02*
X154342914Y-78908333D01*
X154342914Y-78908333D02*
X154390533Y-78813095D01*
X154533390Y-79955952D02*
X154485771Y-79860714D01*
X154485771Y-79860714D02*
X154438152Y-79813095D01*
X154438152Y-79813095D02*
X154342914Y-79765476D01*
X154342914Y-79765476D02*
X154295295Y-79765476D01*
X154295295Y-79765476D02*
X154200057Y-79813095D01*
X154200057Y-79813095D02*
X154152438Y-79860714D01*
X154152438Y-79860714D02*
X154104819Y-79955952D01*
X154104819Y-79955952D02*
X154104819Y-80146428D01*
X154104819Y-80146428D02*
X154152438Y-80241666D01*
X154152438Y-80241666D02*
X154200057Y-80289285D01*
X154200057Y-80289285D02*
X154295295Y-80336904D01*
X154295295Y-80336904D02*
X154342914Y-80336904D01*
X154342914Y-80336904D02*
X154438152Y-80289285D01*
X154438152Y-80289285D02*
X154485771Y-80241666D01*
X154485771Y-80241666D02*
X154533390Y-80146428D01*
X154533390Y-80146428D02*
X154533390Y-79955952D01*
X154533390Y-79955952D02*
X154581009Y-79860714D01*
X154581009Y-79860714D02*
X154628628Y-79813095D01*
X154628628Y-79813095D02*
X154723866Y-79765476D01*
X154723866Y-79765476D02*
X154914342Y-79765476D01*
X154914342Y-79765476D02*
X155009580Y-79813095D01*
X155009580Y-79813095D02*
X155057200Y-79860714D01*
X155057200Y-79860714D02*
X155104819Y-79955952D01*
X155104819Y-79955952D02*
X155104819Y-80146428D01*
X155104819Y-80146428D02*
X155057200Y-80241666D01*
X155057200Y-80241666D02*
X155009580Y-80289285D01*
X155009580Y-80289285D02*
X154914342Y-80336904D01*
X154914342Y-80336904D02*
X154723866Y-80336904D01*
X154723866Y-80336904D02*
X154628628Y-80289285D01*
X154628628Y-80289285D02*
X154581009Y-80241666D01*
X154581009Y-80241666D02*
X154533390Y-80146428D01*
X207841666Y-88634580D02*
X207889285Y-88682200D01*
X207889285Y-88682200D02*
X208032142Y-88729819D01*
X208032142Y-88729819D02*
X208127380Y-88729819D01*
X208127380Y-88729819D02*
X208270237Y-88682200D01*
X208270237Y-88682200D02*
X208365475Y-88586961D01*
X208365475Y-88586961D02*
X208413094Y-88491723D01*
X208413094Y-88491723D02*
X208460713Y-88301247D01*
X208460713Y-88301247D02*
X208460713Y-88158390D01*
X208460713Y-88158390D02*
X208413094Y-87967914D01*
X208413094Y-87967914D02*
X208365475Y-87872676D01*
X208365475Y-87872676D02*
X208270237Y-87777438D01*
X208270237Y-87777438D02*
X208127380Y-87729819D01*
X208127380Y-87729819D02*
X208032142Y-87729819D01*
X208032142Y-87729819D02*
X207889285Y-87777438D01*
X207889285Y-87777438D02*
X207841666Y-87825057D01*
X206936904Y-87729819D02*
X207413094Y-87729819D01*
X207413094Y-87729819D02*
X207460713Y-88206009D01*
X207460713Y-88206009D02*
X207413094Y-88158390D01*
X207413094Y-88158390D02*
X207317856Y-88110771D01*
X207317856Y-88110771D02*
X207079761Y-88110771D01*
X207079761Y-88110771D02*
X206984523Y-88158390D01*
X206984523Y-88158390D02*
X206936904Y-88206009D01*
X206936904Y-88206009D02*
X206889285Y-88301247D01*
X206889285Y-88301247D02*
X206889285Y-88539342D01*
X206889285Y-88539342D02*
X206936904Y-88634580D01*
X206936904Y-88634580D02*
X206984523Y-88682200D01*
X206984523Y-88682200D02*
X207079761Y-88729819D01*
X207079761Y-88729819D02*
X207317856Y-88729819D01*
X207317856Y-88729819D02*
X207413094Y-88682200D01*
X207413094Y-88682200D02*
X207460713Y-88634580D01*
D13*
X171302219Y-88186905D02*
X170302219Y-88186905D01*
X170302219Y-88186905D02*
X170302219Y-88425000D01*
X170302219Y-88425000D02*
X170349838Y-88567857D01*
X170349838Y-88567857D02*
X170445076Y-88663095D01*
X170445076Y-88663095D02*
X170540314Y-88710714D01*
X170540314Y-88710714D02*
X170730790Y-88758333D01*
X170730790Y-88758333D02*
X170873647Y-88758333D01*
X170873647Y-88758333D02*
X171064123Y-88710714D01*
X171064123Y-88710714D02*
X171159361Y-88663095D01*
X171159361Y-88663095D02*
X171254600Y-88567857D01*
X171254600Y-88567857D02*
X171302219Y-88425000D01*
X171302219Y-88425000D02*
X171302219Y-88186905D01*
X170302219Y-89091667D02*
X170302219Y-89710714D01*
X170302219Y-89710714D02*
X170683171Y-89377381D01*
X170683171Y-89377381D02*
X170683171Y-89520238D01*
X170683171Y-89520238D02*
X170730790Y-89615476D01*
X170730790Y-89615476D02*
X170778409Y-89663095D01*
X170778409Y-89663095D02*
X170873647Y-89710714D01*
X170873647Y-89710714D02*
X171111742Y-89710714D01*
X171111742Y-89710714D02*
X171206980Y-89663095D01*
X171206980Y-89663095D02*
X171254600Y-89615476D01*
X171254600Y-89615476D02*
X171302219Y-89520238D01*
X171302219Y-89520238D02*
X171302219Y-89234524D01*
X171302219Y-89234524D02*
X171254600Y-89139286D01*
X171254600Y-89139286D02*
X171206980Y-89091667D01*
D11*
X196817857Y-76559580D02*
X196865476Y-76607200D01*
X196865476Y-76607200D02*
X197008333Y-76654819D01*
X197008333Y-76654819D02*
X197103571Y-76654819D01*
X197103571Y-76654819D02*
X197246428Y-76607200D01*
X197246428Y-76607200D02*
X197341666Y-76511961D01*
X197341666Y-76511961D02*
X197389285Y-76416723D01*
X197389285Y-76416723D02*
X197436904Y-76226247D01*
X197436904Y-76226247D02*
X197436904Y-76083390D01*
X197436904Y-76083390D02*
X197389285Y-75892914D01*
X197389285Y-75892914D02*
X197341666Y-75797676D01*
X197341666Y-75797676D02*
X197246428Y-75702438D01*
X197246428Y-75702438D02*
X197103571Y-75654819D01*
X197103571Y-75654819D02*
X197008333Y-75654819D01*
X197008333Y-75654819D02*
X196865476Y-75702438D01*
X196865476Y-75702438D02*
X196817857Y-75750057D01*
X195865476Y-76654819D02*
X196436904Y-76654819D01*
X196151190Y-76654819D02*
X196151190Y-75654819D01*
X196151190Y-75654819D02*
X196246428Y-75797676D01*
X196246428Y-75797676D02*
X196341666Y-75892914D01*
X196341666Y-75892914D02*
X196436904Y-75940533D01*
X195389285Y-76654819D02*
X195198809Y-76654819D01*
X195198809Y-76654819D02*
X195103571Y-76607200D01*
X195103571Y-76607200D02*
X195055952Y-76559580D01*
X195055952Y-76559580D02*
X194960714Y-76416723D01*
X194960714Y-76416723D02*
X194913095Y-76226247D01*
X194913095Y-76226247D02*
X194913095Y-75845295D01*
X194913095Y-75845295D02*
X194960714Y-75750057D01*
X194960714Y-75750057D02*
X195008333Y-75702438D01*
X195008333Y-75702438D02*
X195103571Y-75654819D01*
X195103571Y-75654819D02*
X195294047Y-75654819D01*
X195294047Y-75654819D02*
X195389285Y-75702438D01*
X195389285Y-75702438D02*
X195436904Y-75750057D01*
X195436904Y-75750057D02*
X195484523Y-75845295D01*
X195484523Y-75845295D02*
X195484523Y-76083390D01*
X195484523Y-76083390D02*
X195436904Y-76178628D01*
X195436904Y-76178628D02*
X195389285Y-76226247D01*
X195389285Y-76226247D02*
X195294047Y-76273866D01*
X195294047Y-76273866D02*
X195103571Y-76273866D01*
X195103571Y-76273866D02*
X195008333Y-76226247D01*
X195008333Y-76226247D02*
X194960714Y-76178628D01*
X194960714Y-76178628D02*
X194913095Y-76083390D01*
X205854819Y-78282142D02*
X205378628Y-77948809D01*
X205854819Y-77710714D02*
X204854819Y-77710714D01*
X204854819Y-77710714D02*
X204854819Y-78091666D01*
X204854819Y-78091666D02*
X204902438Y-78186904D01*
X204902438Y-78186904D02*
X204950057Y-78234523D01*
X204950057Y-78234523D02*
X205045295Y-78282142D01*
X205045295Y-78282142D02*
X205188152Y-78282142D01*
X205188152Y-78282142D02*
X205283390Y-78234523D01*
X205283390Y-78234523D02*
X205331009Y-78186904D01*
X205331009Y-78186904D02*
X205378628Y-78091666D01*
X205378628Y-78091666D02*
X205378628Y-77710714D01*
X205188152Y-79139285D02*
X205854819Y-79139285D01*
X204807200Y-78901190D02*
X205521485Y-78663095D01*
X205521485Y-78663095D02*
X205521485Y-79282142D01*
X204854819Y-80139285D02*
X204854819Y-79663095D01*
X204854819Y-79663095D02*
X205331009Y-79615476D01*
X205331009Y-79615476D02*
X205283390Y-79663095D01*
X205283390Y-79663095D02*
X205235771Y-79758333D01*
X205235771Y-79758333D02*
X205235771Y-79996428D01*
X205235771Y-79996428D02*
X205283390Y-80091666D01*
X205283390Y-80091666D02*
X205331009Y-80139285D01*
X205331009Y-80139285D02*
X205426247Y-80186904D01*
X205426247Y-80186904D02*
X205664342Y-80186904D01*
X205664342Y-80186904D02*
X205759580Y-80139285D01*
X205759580Y-80139285D02*
X205807200Y-80091666D01*
X205807200Y-80091666D02*
X205854819Y-79996428D01*
X205854819Y-79996428D02*
X205854819Y-79758333D01*
X205854819Y-79758333D02*
X205807200Y-79663095D01*
X205807200Y-79663095D02*
X205759580Y-79615476D01*
X110242857Y-90632819D02*
X110576190Y-90156628D01*
X110814285Y-90632819D02*
X110814285Y-89632819D01*
X110814285Y-89632819D02*
X110433333Y-89632819D01*
X110433333Y-89632819D02*
X110338095Y-89680438D01*
X110338095Y-89680438D02*
X110290476Y-89728057D01*
X110290476Y-89728057D02*
X110242857Y-89823295D01*
X110242857Y-89823295D02*
X110242857Y-89966152D01*
X110242857Y-89966152D02*
X110290476Y-90061390D01*
X110290476Y-90061390D02*
X110338095Y-90109009D01*
X110338095Y-90109009D02*
X110433333Y-90156628D01*
X110433333Y-90156628D02*
X110814285Y-90156628D01*
X109290476Y-90632819D02*
X109861904Y-90632819D01*
X109576190Y-90632819D02*
X109576190Y-89632819D01*
X109576190Y-89632819D02*
X109671428Y-89775676D01*
X109671428Y-89775676D02*
X109766666Y-89870914D01*
X109766666Y-89870914D02*
X109861904Y-89918533D01*
X108433333Y-89966152D02*
X108433333Y-90632819D01*
X108671428Y-89585200D02*
X108909523Y-90299485D01*
X108909523Y-90299485D02*
X108290476Y-90299485D01*
X205904580Y-98983333D02*
X205952200Y-98935714D01*
X205952200Y-98935714D02*
X205999819Y-98792857D01*
X205999819Y-98792857D02*
X205999819Y-98697619D01*
X205999819Y-98697619D02*
X205952200Y-98554762D01*
X205952200Y-98554762D02*
X205856961Y-98459524D01*
X205856961Y-98459524D02*
X205761723Y-98411905D01*
X205761723Y-98411905D02*
X205571247Y-98364286D01*
X205571247Y-98364286D02*
X205428390Y-98364286D01*
X205428390Y-98364286D02*
X205237914Y-98411905D01*
X205237914Y-98411905D02*
X205142676Y-98459524D01*
X205142676Y-98459524D02*
X205047438Y-98554762D01*
X205047438Y-98554762D02*
X204999819Y-98697619D01*
X204999819Y-98697619D02*
X204999819Y-98792857D01*
X204999819Y-98792857D02*
X205047438Y-98935714D01*
X205047438Y-98935714D02*
X205095057Y-98983333D01*
X205999819Y-99935714D02*
X205999819Y-99364286D01*
X205999819Y-99650000D02*
X204999819Y-99650000D01*
X204999819Y-99650000D02*
X205142676Y-99554762D01*
X205142676Y-99554762D02*
X205237914Y-99459524D01*
X205237914Y-99459524D02*
X205285533Y-99364286D01*
X130004819Y-97007142D02*
X129528628Y-96673809D01*
X130004819Y-96435714D02*
X129004819Y-96435714D01*
X129004819Y-96435714D02*
X129004819Y-96816666D01*
X129004819Y-96816666D02*
X129052438Y-96911904D01*
X129052438Y-96911904D02*
X129100057Y-96959523D01*
X129100057Y-96959523D02*
X129195295Y-97007142D01*
X129195295Y-97007142D02*
X129338152Y-97007142D01*
X129338152Y-97007142D02*
X129433390Y-96959523D01*
X129433390Y-96959523D02*
X129481009Y-96911904D01*
X129481009Y-96911904D02*
X129528628Y-96816666D01*
X129528628Y-96816666D02*
X129528628Y-96435714D01*
X129100057Y-97388095D02*
X129052438Y-97435714D01*
X129052438Y-97435714D02*
X129004819Y-97530952D01*
X129004819Y-97530952D02*
X129004819Y-97769047D01*
X129004819Y-97769047D02*
X129052438Y-97864285D01*
X129052438Y-97864285D02*
X129100057Y-97911904D01*
X129100057Y-97911904D02*
X129195295Y-97959523D01*
X129195295Y-97959523D02*
X129290533Y-97959523D01*
X129290533Y-97959523D02*
X129433390Y-97911904D01*
X129433390Y-97911904D02*
X130004819Y-97340476D01*
X130004819Y-97340476D02*
X130004819Y-97959523D01*
X129004819Y-98292857D02*
X129004819Y-98959523D01*
X129004819Y-98959523D02*
X130004819Y-98530952D01*
X207942857Y-108404819D02*
X208276190Y-107928628D01*
X208514285Y-108404819D02*
X208514285Y-107404819D01*
X208514285Y-107404819D02*
X208133333Y-107404819D01*
X208133333Y-107404819D02*
X208038095Y-107452438D01*
X208038095Y-107452438D02*
X207990476Y-107500057D01*
X207990476Y-107500057D02*
X207942857Y-107595295D01*
X207942857Y-107595295D02*
X207942857Y-107738152D01*
X207942857Y-107738152D02*
X207990476Y-107833390D01*
X207990476Y-107833390D02*
X208038095Y-107881009D01*
X208038095Y-107881009D02*
X208133333Y-107928628D01*
X208133333Y-107928628D02*
X208514285Y-107928628D01*
X207561904Y-107500057D02*
X207514285Y-107452438D01*
X207514285Y-107452438D02*
X207419047Y-107404819D01*
X207419047Y-107404819D02*
X207180952Y-107404819D01*
X207180952Y-107404819D02*
X207085714Y-107452438D01*
X207085714Y-107452438D02*
X207038095Y-107500057D01*
X207038095Y-107500057D02*
X206990476Y-107595295D01*
X206990476Y-107595295D02*
X206990476Y-107690533D01*
X206990476Y-107690533D02*
X207038095Y-107833390D01*
X207038095Y-107833390D02*
X207609523Y-108404819D01*
X207609523Y-108404819D02*
X206990476Y-108404819D01*
X206657142Y-107404819D02*
X206038095Y-107404819D01*
X206038095Y-107404819D02*
X206371428Y-107785771D01*
X206371428Y-107785771D02*
X206228571Y-107785771D01*
X206228571Y-107785771D02*
X206133333Y-107833390D01*
X206133333Y-107833390D02*
X206085714Y-107881009D01*
X206085714Y-107881009D02*
X206038095Y-107976247D01*
X206038095Y-107976247D02*
X206038095Y-108214342D01*
X206038095Y-108214342D02*
X206085714Y-108309580D01*
X206085714Y-108309580D02*
X206133333Y-108357200D01*
X206133333Y-108357200D02*
X206228571Y-108404819D01*
X206228571Y-108404819D02*
X206514285Y-108404819D01*
X206514285Y-108404819D02*
X206609523Y-108357200D01*
X206609523Y-108357200D02*
X206657142Y-108309580D01*
X180916666Y-118284580D02*
X180964285Y-118332200D01*
X180964285Y-118332200D02*
X181107142Y-118379819D01*
X181107142Y-118379819D02*
X181202380Y-118379819D01*
X181202380Y-118379819D02*
X181345237Y-118332200D01*
X181345237Y-118332200D02*
X181440475Y-118236961D01*
X181440475Y-118236961D02*
X181488094Y-118141723D01*
X181488094Y-118141723D02*
X181535713Y-117951247D01*
X181535713Y-117951247D02*
X181535713Y-117808390D01*
X181535713Y-117808390D02*
X181488094Y-117617914D01*
X181488094Y-117617914D02*
X181440475Y-117522676D01*
X181440475Y-117522676D02*
X181345237Y-117427438D01*
X181345237Y-117427438D02*
X181202380Y-117379819D01*
X181202380Y-117379819D02*
X181107142Y-117379819D01*
X181107142Y-117379819D02*
X180964285Y-117427438D01*
X180964285Y-117427438D02*
X180916666Y-117475057D01*
X180440475Y-118379819D02*
X180249999Y-118379819D01*
X180249999Y-118379819D02*
X180154761Y-118332200D01*
X180154761Y-118332200D02*
X180107142Y-118284580D01*
X180107142Y-118284580D02*
X180011904Y-118141723D01*
X180011904Y-118141723D02*
X179964285Y-117951247D01*
X179964285Y-117951247D02*
X179964285Y-117570295D01*
X179964285Y-117570295D02*
X180011904Y-117475057D01*
X180011904Y-117475057D02*
X180059523Y-117427438D01*
X180059523Y-117427438D02*
X180154761Y-117379819D01*
X180154761Y-117379819D02*
X180345237Y-117379819D01*
X180345237Y-117379819D02*
X180440475Y-117427438D01*
X180440475Y-117427438D02*
X180488094Y-117475057D01*
X180488094Y-117475057D02*
X180535713Y-117570295D01*
X180535713Y-117570295D02*
X180535713Y-117808390D01*
X180535713Y-117808390D02*
X180488094Y-117903628D01*
X180488094Y-117903628D02*
X180440475Y-117951247D01*
X180440475Y-117951247D02*
X180345237Y-117998866D01*
X180345237Y-117998866D02*
X180154761Y-117998866D01*
X180154761Y-117998866D02*
X180059523Y-117951247D01*
X180059523Y-117951247D02*
X180011904Y-117903628D01*
X180011904Y-117903628D02*
X179964285Y-117808390D01*
X187242857Y-109474819D02*
X187576190Y-108998628D01*
X187814285Y-109474819D02*
X187814285Y-108474819D01*
X187814285Y-108474819D02*
X187433333Y-108474819D01*
X187433333Y-108474819D02*
X187338095Y-108522438D01*
X187338095Y-108522438D02*
X187290476Y-108570057D01*
X187290476Y-108570057D02*
X187242857Y-108665295D01*
X187242857Y-108665295D02*
X187242857Y-108808152D01*
X187242857Y-108808152D02*
X187290476Y-108903390D01*
X187290476Y-108903390D02*
X187338095Y-108951009D01*
X187338095Y-108951009D02*
X187433333Y-108998628D01*
X187433333Y-108998628D02*
X187814285Y-108998628D01*
X186290476Y-109474819D02*
X186861904Y-109474819D01*
X186576190Y-109474819D02*
X186576190Y-108474819D01*
X186576190Y-108474819D02*
X186671428Y-108617676D01*
X186671428Y-108617676D02*
X186766666Y-108712914D01*
X186766666Y-108712914D02*
X186861904Y-108760533D01*
X185385714Y-108474819D02*
X185861904Y-108474819D01*
X185861904Y-108474819D02*
X185909523Y-108951009D01*
X185909523Y-108951009D02*
X185861904Y-108903390D01*
X185861904Y-108903390D02*
X185766666Y-108855771D01*
X185766666Y-108855771D02*
X185528571Y-108855771D01*
X185528571Y-108855771D02*
X185433333Y-108903390D01*
X185433333Y-108903390D02*
X185385714Y-108951009D01*
X185385714Y-108951009D02*
X185338095Y-109046247D01*
X185338095Y-109046247D02*
X185338095Y-109284342D01*
X185338095Y-109284342D02*
X185385714Y-109379580D01*
X185385714Y-109379580D02*
X185433333Y-109427200D01*
X185433333Y-109427200D02*
X185528571Y-109474819D01*
X185528571Y-109474819D02*
X185766666Y-109474819D01*
X185766666Y-109474819D02*
X185861904Y-109427200D01*
X185861904Y-109427200D02*
X185909523Y-109379580D01*
X155316665Y-90754820D02*
X155649998Y-90278629D01*
X155888093Y-90754820D02*
X155888093Y-89754820D01*
X155888093Y-89754820D02*
X155507141Y-89754820D01*
X155507141Y-89754820D02*
X155411903Y-89802439D01*
X155411903Y-89802439D02*
X155364284Y-89850058D01*
X155364284Y-89850058D02*
X155316665Y-89945296D01*
X155316665Y-89945296D02*
X155316665Y-90088153D01*
X155316665Y-90088153D02*
X155364284Y-90183391D01*
X155364284Y-90183391D02*
X155411903Y-90231010D01*
X155411903Y-90231010D02*
X155507141Y-90278629D01*
X155507141Y-90278629D02*
X155888093Y-90278629D01*
X154983331Y-89754820D02*
X154316665Y-89754820D01*
X154316665Y-89754820D02*
X154745236Y-90754820D01*
X111167857Y-83754819D02*
X111501190Y-83278628D01*
X111739285Y-83754819D02*
X111739285Y-82754819D01*
X111739285Y-82754819D02*
X111358333Y-82754819D01*
X111358333Y-82754819D02*
X111263095Y-82802438D01*
X111263095Y-82802438D02*
X111215476Y-82850057D01*
X111215476Y-82850057D02*
X111167857Y-82945295D01*
X111167857Y-82945295D02*
X111167857Y-83088152D01*
X111167857Y-83088152D02*
X111215476Y-83183390D01*
X111215476Y-83183390D02*
X111263095Y-83231009D01*
X111263095Y-83231009D02*
X111358333Y-83278628D01*
X111358333Y-83278628D02*
X111739285Y-83278628D01*
X110310714Y-83088152D02*
X110310714Y-83754819D01*
X110548809Y-82707200D02*
X110786904Y-83421485D01*
X110786904Y-83421485D02*
X110167857Y-83421485D01*
X109358333Y-83088152D02*
X109358333Y-83754819D01*
X109596428Y-82707200D02*
X109834523Y-83421485D01*
X109834523Y-83421485D02*
X109215476Y-83421485D01*
X203567857Y-108379819D02*
X203901190Y-107903628D01*
X204139285Y-108379819D02*
X204139285Y-107379819D01*
X204139285Y-107379819D02*
X203758333Y-107379819D01*
X203758333Y-107379819D02*
X203663095Y-107427438D01*
X203663095Y-107427438D02*
X203615476Y-107475057D01*
X203615476Y-107475057D02*
X203567857Y-107570295D01*
X203567857Y-107570295D02*
X203567857Y-107713152D01*
X203567857Y-107713152D02*
X203615476Y-107808390D01*
X203615476Y-107808390D02*
X203663095Y-107856009D01*
X203663095Y-107856009D02*
X203758333Y-107903628D01*
X203758333Y-107903628D02*
X204139285Y-107903628D01*
X203186904Y-107475057D02*
X203139285Y-107427438D01*
X203139285Y-107427438D02*
X203044047Y-107379819D01*
X203044047Y-107379819D02*
X202805952Y-107379819D01*
X202805952Y-107379819D02*
X202710714Y-107427438D01*
X202710714Y-107427438D02*
X202663095Y-107475057D01*
X202663095Y-107475057D02*
X202615476Y-107570295D01*
X202615476Y-107570295D02*
X202615476Y-107665533D01*
X202615476Y-107665533D02*
X202663095Y-107808390D01*
X202663095Y-107808390D02*
X203234523Y-108379819D01*
X203234523Y-108379819D02*
X202615476Y-108379819D01*
X202234523Y-107475057D02*
X202186904Y-107427438D01*
X202186904Y-107427438D02*
X202091666Y-107379819D01*
X202091666Y-107379819D02*
X201853571Y-107379819D01*
X201853571Y-107379819D02*
X201758333Y-107427438D01*
X201758333Y-107427438D02*
X201710714Y-107475057D01*
X201710714Y-107475057D02*
X201663095Y-107570295D01*
X201663095Y-107570295D02*
X201663095Y-107665533D01*
X201663095Y-107665533D02*
X201710714Y-107808390D01*
X201710714Y-107808390D02*
X202282142Y-108379819D01*
X202282142Y-108379819D02*
X201663095Y-108379819D01*
X161942857Y-75459580D02*
X161990476Y-75507200D01*
X161990476Y-75507200D02*
X162133333Y-75554819D01*
X162133333Y-75554819D02*
X162228571Y-75554819D01*
X162228571Y-75554819D02*
X162371428Y-75507200D01*
X162371428Y-75507200D02*
X162466666Y-75411961D01*
X162466666Y-75411961D02*
X162514285Y-75316723D01*
X162514285Y-75316723D02*
X162561904Y-75126247D01*
X162561904Y-75126247D02*
X162561904Y-74983390D01*
X162561904Y-74983390D02*
X162514285Y-74792914D01*
X162514285Y-74792914D02*
X162466666Y-74697676D01*
X162466666Y-74697676D02*
X162371428Y-74602438D01*
X162371428Y-74602438D02*
X162228571Y-74554819D01*
X162228571Y-74554819D02*
X162133333Y-74554819D01*
X162133333Y-74554819D02*
X161990476Y-74602438D01*
X161990476Y-74602438D02*
X161942857Y-74650057D01*
X160990476Y-75554819D02*
X161561904Y-75554819D01*
X161276190Y-75554819D02*
X161276190Y-74554819D01*
X161276190Y-74554819D02*
X161371428Y-74697676D01*
X161371428Y-74697676D02*
X161466666Y-74792914D01*
X161466666Y-74792914D02*
X161561904Y-74840533D01*
X160085714Y-74554819D02*
X160561904Y-74554819D01*
X160561904Y-74554819D02*
X160609523Y-75031009D01*
X160609523Y-75031009D02*
X160561904Y-74983390D01*
X160561904Y-74983390D02*
X160466666Y-74935771D01*
X160466666Y-74935771D02*
X160228571Y-74935771D01*
X160228571Y-74935771D02*
X160133333Y-74983390D01*
X160133333Y-74983390D02*
X160085714Y-75031009D01*
X160085714Y-75031009D02*
X160038095Y-75126247D01*
X160038095Y-75126247D02*
X160038095Y-75364342D01*
X160038095Y-75364342D02*
X160085714Y-75459580D01*
X160085714Y-75459580D02*
X160133333Y-75507200D01*
X160133333Y-75507200D02*
X160228571Y-75554819D01*
X160228571Y-75554819D02*
X160466666Y-75554819D01*
X160466666Y-75554819D02*
X160561904Y-75507200D01*
X160561904Y-75507200D02*
X160609523Y-75459580D01*
X180692857Y-109932819D02*
X181026190Y-109456628D01*
X181264285Y-109932819D02*
X181264285Y-108932819D01*
X181264285Y-108932819D02*
X180883333Y-108932819D01*
X180883333Y-108932819D02*
X180788095Y-108980438D01*
X180788095Y-108980438D02*
X180740476Y-109028057D01*
X180740476Y-109028057D02*
X180692857Y-109123295D01*
X180692857Y-109123295D02*
X180692857Y-109266152D01*
X180692857Y-109266152D02*
X180740476Y-109361390D01*
X180740476Y-109361390D02*
X180788095Y-109409009D01*
X180788095Y-109409009D02*
X180883333Y-109456628D01*
X180883333Y-109456628D02*
X181264285Y-109456628D01*
X180311904Y-109028057D02*
X180264285Y-108980438D01*
X180264285Y-108980438D02*
X180169047Y-108932819D01*
X180169047Y-108932819D02*
X179930952Y-108932819D01*
X179930952Y-108932819D02*
X179835714Y-108980438D01*
X179835714Y-108980438D02*
X179788095Y-109028057D01*
X179788095Y-109028057D02*
X179740476Y-109123295D01*
X179740476Y-109123295D02*
X179740476Y-109218533D01*
X179740476Y-109218533D02*
X179788095Y-109361390D01*
X179788095Y-109361390D02*
X180359523Y-109932819D01*
X180359523Y-109932819D02*
X179740476Y-109932819D01*
X178788095Y-109932819D02*
X179359523Y-109932819D01*
X179073809Y-109932819D02*
X179073809Y-108932819D01*
X179073809Y-108932819D02*
X179169047Y-109075676D01*
X179169047Y-109075676D02*
X179264285Y-109170914D01*
X179264285Y-109170914D02*
X179359523Y-109218533D01*
X101937285Y-77032295D02*
X102203952Y-76651342D01*
X102394428Y-77032295D02*
X102394428Y-76232295D01*
X102394428Y-76232295D02*
X102089666Y-76232295D01*
X102089666Y-76232295D02*
X102013476Y-76270390D01*
X102013476Y-76270390D02*
X101975381Y-76308485D01*
X101975381Y-76308485D02*
X101937285Y-76384676D01*
X101937285Y-76384676D02*
X101937285Y-76498961D01*
X101937285Y-76498961D02*
X101975381Y-76575152D01*
X101975381Y-76575152D02*
X102013476Y-76613247D01*
X102013476Y-76613247D02*
X102089666Y-76651342D01*
X102089666Y-76651342D02*
X102394428Y-76651342D01*
X101251571Y-76498961D02*
X101251571Y-77032295D01*
X101442047Y-76194200D02*
X101632524Y-76765628D01*
X101632524Y-76765628D02*
X101137285Y-76765628D01*
X100908714Y-76232295D02*
X100413476Y-76232295D01*
X100413476Y-76232295D02*
X100680142Y-76537057D01*
X100680142Y-76537057D02*
X100565857Y-76537057D01*
X100565857Y-76537057D02*
X100489666Y-76575152D01*
X100489666Y-76575152D02*
X100451571Y-76613247D01*
X100451571Y-76613247D02*
X100413476Y-76689438D01*
X100413476Y-76689438D02*
X100413476Y-76879914D01*
X100413476Y-76879914D02*
X100451571Y-76956104D01*
X100451571Y-76956104D02*
X100489666Y-76994200D01*
X100489666Y-76994200D02*
X100565857Y-77032295D01*
X100565857Y-77032295D02*
X100794428Y-77032295D01*
X100794428Y-77032295D02*
X100870619Y-76994200D01*
X100870619Y-76994200D02*
X100908714Y-76956104D01*
X214366667Y-79154820D02*
X214700000Y-78678629D01*
X214938095Y-79154820D02*
X214938095Y-78154820D01*
X214938095Y-78154820D02*
X214557143Y-78154820D01*
X214557143Y-78154820D02*
X214461905Y-78202439D01*
X214461905Y-78202439D02*
X214414286Y-78250058D01*
X214414286Y-78250058D02*
X214366667Y-78345296D01*
X214366667Y-78345296D02*
X214366667Y-78488153D01*
X214366667Y-78488153D02*
X214414286Y-78583391D01*
X214414286Y-78583391D02*
X214461905Y-78631010D01*
X214461905Y-78631010D02*
X214557143Y-78678629D01*
X214557143Y-78678629D02*
X214938095Y-78678629D01*
X214033333Y-78154820D02*
X213414286Y-78154820D01*
X213414286Y-78154820D02*
X213747619Y-78535772D01*
X213747619Y-78535772D02*
X213604762Y-78535772D01*
X213604762Y-78535772D02*
X213509524Y-78583391D01*
X213509524Y-78583391D02*
X213461905Y-78631010D01*
X213461905Y-78631010D02*
X213414286Y-78726248D01*
X213414286Y-78726248D02*
X213414286Y-78964343D01*
X213414286Y-78964343D02*
X213461905Y-79059581D01*
X213461905Y-79059581D02*
X213509524Y-79107201D01*
X213509524Y-79107201D02*
X213604762Y-79154820D01*
X213604762Y-79154820D02*
X213890476Y-79154820D01*
X213890476Y-79154820D02*
X213985714Y-79107201D01*
X213985714Y-79107201D02*
X214033333Y-79059581D01*
X201379580Y-98582142D02*
X201427200Y-98534523D01*
X201427200Y-98534523D02*
X201474819Y-98391666D01*
X201474819Y-98391666D02*
X201474819Y-98296428D01*
X201474819Y-98296428D02*
X201427200Y-98153571D01*
X201427200Y-98153571D02*
X201331961Y-98058333D01*
X201331961Y-98058333D02*
X201236723Y-98010714D01*
X201236723Y-98010714D02*
X201046247Y-97963095D01*
X201046247Y-97963095D02*
X200903390Y-97963095D01*
X200903390Y-97963095D02*
X200712914Y-98010714D01*
X200712914Y-98010714D02*
X200617676Y-98058333D01*
X200617676Y-98058333D02*
X200522438Y-98153571D01*
X200522438Y-98153571D02*
X200474819Y-98296428D01*
X200474819Y-98296428D02*
X200474819Y-98391666D01*
X200474819Y-98391666D02*
X200522438Y-98534523D01*
X200522438Y-98534523D02*
X200570057Y-98582142D01*
X200570057Y-98963095D02*
X200522438Y-99010714D01*
X200522438Y-99010714D02*
X200474819Y-99105952D01*
X200474819Y-99105952D02*
X200474819Y-99344047D01*
X200474819Y-99344047D02*
X200522438Y-99439285D01*
X200522438Y-99439285D02*
X200570057Y-99486904D01*
X200570057Y-99486904D02*
X200665295Y-99534523D01*
X200665295Y-99534523D02*
X200760533Y-99534523D01*
X200760533Y-99534523D02*
X200903390Y-99486904D01*
X200903390Y-99486904D02*
X201474819Y-98915476D01*
X201474819Y-98915476D02*
X201474819Y-99534523D01*
X201474819Y-100010714D02*
X201474819Y-100201190D01*
X201474819Y-100201190D02*
X201427200Y-100296428D01*
X201427200Y-100296428D02*
X201379580Y-100344047D01*
X201379580Y-100344047D02*
X201236723Y-100439285D01*
X201236723Y-100439285D02*
X201046247Y-100486904D01*
X201046247Y-100486904D02*
X200665295Y-100486904D01*
X200665295Y-100486904D02*
X200570057Y-100439285D01*
X200570057Y-100439285D02*
X200522438Y-100391666D01*
X200522438Y-100391666D02*
X200474819Y-100296428D01*
X200474819Y-100296428D02*
X200474819Y-100105952D01*
X200474819Y-100105952D02*
X200522438Y-100010714D01*
X200522438Y-100010714D02*
X200570057Y-99963095D01*
X200570057Y-99963095D02*
X200665295Y-99915476D01*
X200665295Y-99915476D02*
X200903390Y-99915476D01*
X200903390Y-99915476D02*
X200998628Y-99963095D01*
X200998628Y-99963095D02*
X201046247Y-100010714D01*
X201046247Y-100010714D02*
X201093866Y-100105952D01*
X201093866Y-100105952D02*
X201093866Y-100296428D01*
X201093866Y-100296428D02*
X201046247Y-100391666D01*
X201046247Y-100391666D02*
X200998628Y-100439285D01*
X200998628Y-100439285D02*
X200903390Y-100486904D01*
D13*
X195458332Y-85779600D02*
X195315475Y-85827219D01*
X195315475Y-85827219D02*
X195077380Y-85827219D01*
X195077380Y-85827219D02*
X194982142Y-85779600D01*
X194982142Y-85779600D02*
X194934523Y-85731980D01*
X194934523Y-85731980D02*
X194886904Y-85636742D01*
X194886904Y-85636742D02*
X194886904Y-85541504D01*
X194886904Y-85541504D02*
X194934523Y-85446266D01*
X194934523Y-85446266D02*
X194982142Y-85398647D01*
X194982142Y-85398647D02*
X195077380Y-85351028D01*
X195077380Y-85351028D02*
X195267856Y-85303409D01*
X195267856Y-85303409D02*
X195363094Y-85255790D01*
X195363094Y-85255790D02*
X195410713Y-85208171D01*
X195410713Y-85208171D02*
X195458332Y-85112933D01*
X195458332Y-85112933D02*
X195458332Y-85017695D01*
X195458332Y-85017695D02*
X195410713Y-84922457D01*
X195410713Y-84922457D02*
X195363094Y-84874838D01*
X195363094Y-84874838D02*
X195267856Y-84827219D01*
X195267856Y-84827219D02*
X195029761Y-84827219D01*
X195029761Y-84827219D02*
X194886904Y-84874838D01*
X194553570Y-84827219D02*
X194315475Y-85827219D01*
X194315475Y-85827219D02*
X194124999Y-85112933D01*
X194124999Y-85112933D02*
X193934523Y-85827219D01*
X193934523Y-85827219D02*
X193696428Y-84827219D01*
X192791666Y-85827219D02*
X193363094Y-85827219D01*
X193077380Y-85827219D02*
X193077380Y-84827219D01*
X193077380Y-84827219D02*
X193172618Y-84970076D01*
X193172618Y-84970076D02*
X193267856Y-85065314D01*
X193267856Y-85065314D02*
X193363094Y-85112933D01*
D11*
X147792857Y-78954580D02*
X147840476Y-79002200D01*
X147840476Y-79002200D02*
X147983333Y-79049819D01*
X147983333Y-79049819D02*
X148078571Y-79049819D01*
X148078571Y-79049819D02*
X148221428Y-79002200D01*
X148221428Y-79002200D02*
X148316666Y-78906961D01*
X148316666Y-78906961D02*
X148364285Y-78811723D01*
X148364285Y-78811723D02*
X148411904Y-78621247D01*
X148411904Y-78621247D02*
X148411904Y-78478390D01*
X148411904Y-78478390D02*
X148364285Y-78287914D01*
X148364285Y-78287914D02*
X148316666Y-78192676D01*
X148316666Y-78192676D02*
X148221428Y-78097438D01*
X148221428Y-78097438D02*
X148078571Y-78049819D01*
X148078571Y-78049819D02*
X147983333Y-78049819D01*
X147983333Y-78049819D02*
X147840476Y-78097438D01*
X147840476Y-78097438D02*
X147792857Y-78145057D01*
X146840476Y-79049819D02*
X147411904Y-79049819D01*
X147126190Y-79049819D02*
X147126190Y-78049819D01*
X147126190Y-78049819D02*
X147221428Y-78192676D01*
X147221428Y-78192676D02*
X147316666Y-78287914D01*
X147316666Y-78287914D02*
X147411904Y-78335533D01*
X145983333Y-78383152D02*
X145983333Y-79049819D01*
X146221428Y-78002200D02*
X146459523Y-78716485D01*
X146459523Y-78716485D02*
X145840476Y-78716485D01*
X214833333Y-93054819D02*
X214833333Y-93769104D01*
X214833333Y-93769104D02*
X214880952Y-93911961D01*
X214880952Y-93911961D02*
X214976190Y-94007200D01*
X214976190Y-94007200D02*
X215119047Y-94054819D01*
X215119047Y-94054819D02*
X215214285Y-94054819D01*
X214404761Y-93150057D02*
X214357142Y-93102438D01*
X214357142Y-93102438D02*
X214261904Y-93054819D01*
X214261904Y-93054819D02*
X214023809Y-93054819D01*
X214023809Y-93054819D02*
X213928571Y-93102438D01*
X213928571Y-93102438D02*
X213880952Y-93150057D01*
X213880952Y-93150057D02*
X213833333Y-93245295D01*
X213833333Y-93245295D02*
X213833333Y-93340533D01*
X213833333Y-93340533D02*
X213880952Y-93483390D01*
X213880952Y-93483390D02*
X214452380Y-94054819D01*
X214452380Y-94054819D02*
X213833333Y-94054819D01*
X100991666Y-83504819D02*
X101324999Y-83028628D01*
X101563094Y-83504819D02*
X101563094Y-82504819D01*
X101563094Y-82504819D02*
X101182142Y-82504819D01*
X101182142Y-82504819D02*
X101086904Y-82552438D01*
X101086904Y-82552438D02*
X101039285Y-82600057D01*
X101039285Y-82600057D02*
X100991666Y-82695295D01*
X100991666Y-82695295D02*
X100991666Y-82838152D01*
X100991666Y-82838152D02*
X101039285Y-82933390D01*
X101039285Y-82933390D02*
X101086904Y-82981009D01*
X101086904Y-82981009D02*
X101182142Y-83028628D01*
X101182142Y-83028628D02*
X101563094Y-83028628D01*
X100086904Y-82504819D02*
X100563094Y-82504819D01*
X100563094Y-82504819D02*
X100610713Y-82981009D01*
X100610713Y-82981009D02*
X100563094Y-82933390D01*
X100563094Y-82933390D02*
X100467856Y-82885771D01*
X100467856Y-82885771D02*
X100229761Y-82885771D01*
X100229761Y-82885771D02*
X100134523Y-82933390D01*
X100134523Y-82933390D02*
X100086904Y-82981009D01*
X100086904Y-82981009D02*
X100039285Y-83076247D01*
X100039285Y-83076247D02*
X100039285Y-83314342D01*
X100039285Y-83314342D02*
X100086904Y-83409580D01*
X100086904Y-83409580D02*
X100134523Y-83457200D01*
X100134523Y-83457200D02*
X100229761Y-83504819D01*
X100229761Y-83504819D02*
X100467856Y-83504819D01*
X100467856Y-83504819D02*
X100563094Y-83457200D01*
X100563094Y-83457200D02*
X100610713Y-83409580D01*
X153304819Y-82232142D02*
X152828628Y-81898809D01*
X153304819Y-81660714D02*
X152304819Y-81660714D01*
X152304819Y-81660714D02*
X152304819Y-82041666D01*
X152304819Y-82041666D02*
X152352438Y-82136904D01*
X152352438Y-82136904D02*
X152400057Y-82184523D01*
X152400057Y-82184523D02*
X152495295Y-82232142D01*
X152495295Y-82232142D02*
X152638152Y-82232142D01*
X152638152Y-82232142D02*
X152733390Y-82184523D01*
X152733390Y-82184523D02*
X152781009Y-82136904D01*
X152781009Y-82136904D02*
X152828628Y-82041666D01*
X152828628Y-82041666D02*
X152828628Y-81660714D01*
X153304819Y-83184523D02*
X153304819Y-82613095D01*
X153304819Y-82898809D02*
X152304819Y-82898809D01*
X152304819Y-82898809D02*
X152447676Y-82803571D01*
X152447676Y-82803571D02*
X152542914Y-82708333D01*
X152542914Y-82708333D02*
X152590533Y-82613095D01*
X152304819Y-83517857D02*
X152304819Y-84184523D01*
X152304819Y-84184523D02*
X153304819Y-83755952D01*
X160917857Y-81804819D02*
X161251190Y-81328628D01*
X161489285Y-81804819D02*
X161489285Y-80804819D01*
X161489285Y-80804819D02*
X161108333Y-80804819D01*
X161108333Y-80804819D02*
X161013095Y-80852438D01*
X161013095Y-80852438D02*
X160965476Y-80900057D01*
X160965476Y-80900057D02*
X160917857Y-80995295D01*
X160917857Y-80995295D02*
X160917857Y-81138152D01*
X160917857Y-81138152D02*
X160965476Y-81233390D01*
X160965476Y-81233390D02*
X161013095Y-81281009D01*
X161013095Y-81281009D02*
X161108333Y-81328628D01*
X161108333Y-81328628D02*
X161489285Y-81328628D01*
X160536904Y-80900057D02*
X160489285Y-80852438D01*
X160489285Y-80852438D02*
X160394047Y-80804819D01*
X160394047Y-80804819D02*
X160155952Y-80804819D01*
X160155952Y-80804819D02*
X160060714Y-80852438D01*
X160060714Y-80852438D02*
X160013095Y-80900057D01*
X160013095Y-80900057D02*
X159965476Y-80995295D01*
X159965476Y-80995295D02*
X159965476Y-81090533D01*
X159965476Y-81090533D02*
X160013095Y-81233390D01*
X160013095Y-81233390D02*
X160584523Y-81804819D01*
X160584523Y-81804819D02*
X159965476Y-81804819D01*
X159346428Y-80804819D02*
X159251190Y-80804819D01*
X159251190Y-80804819D02*
X159155952Y-80852438D01*
X159155952Y-80852438D02*
X159108333Y-80900057D01*
X159108333Y-80900057D02*
X159060714Y-80995295D01*
X159060714Y-80995295D02*
X159013095Y-81185771D01*
X159013095Y-81185771D02*
X159013095Y-81423866D01*
X159013095Y-81423866D02*
X159060714Y-81614342D01*
X159060714Y-81614342D02*
X159108333Y-81709580D01*
X159108333Y-81709580D02*
X159155952Y-81757200D01*
X159155952Y-81757200D02*
X159251190Y-81804819D01*
X159251190Y-81804819D02*
X159346428Y-81804819D01*
X159346428Y-81804819D02*
X159441666Y-81757200D01*
X159441666Y-81757200D02*
X159489285Y-81709580D01*
X159489285Y-81709580D02*
X159536904Y-81614342D01*
X159536904Y-81614342D02*
X159584523Y-81423866D01*
X159584523Y-81423866D02*
X159584523Y-81185771D01*
X159584523Y-81185771D02*
X159536904Y-80995295D01*
X159536904Y-80995295D02*
X159489285Y-80900057D01*
X159489285Y-80900057D02*
X159441666Y-80852438D01*
X159441666Y-80852438D02*
X159346428Y-80804819D01*
X131916666Y-118309580D02*
X131964285Y-118357200D01*
X131964285Y-118357200D02*
X132107142Y-118404819D01*
X132107142Y-118404819D02*
X132202380Y-118404819D01*
X132202380Y-118404819D02*
X132345237Y-118357200D01*
X132345237Y-118357200D02*
X132440475Y-118261961D01*
X132440475Y-118261961D02*
X132488094Y-118166723D01*
X132488094Y-118166723D02*
X132535713Y-117976247D01*
X132535713Y-117976247D02*
X132535713Y-117833390D01*
X132535713Y-117833390D02*
X132488094Y-117642914D01*
X132488094Y-117642914D02*
X132440475Y-117547676D01*
X132440475Y-117547676D02*
X132345237Y-117452438D01*
X132345237Y-117452438D02*
X132202380Y-117404819D01*
X132202380Y-117404819D02*
X132107142Y-117404819D01*
X132107142Y-117404819D02*
X131964285Y-117452438D01*
X131964285Y-117452438D02*
X131916666Y-117500057D01*
X131345237Y-117833390D02*
X131440475Y-117785771D01*
X131440475Y-117785771D02*
X131488094Y-117738152D01*
X131488094Y-117738152D02*
X131535713Y-117642914D01*
X131535713Y-117642914D02*
X131535713Y-117595295D01*
X131535713Y-117595295D02*
X131488094Y-117500057D01*
X131488094Y-117500057D02*
X131440475Y-117452438D01*
X131440475Y-117452438D02*
X131345237Y-117404819D01*
X131345237Y-117404819D02*
X131154761Y-117404819D01*
X131154761Y-117404819D02*
X131059523Y-117452438D01*
X131059523Y-117452438D02*
X131011904Y-117500057D01*
X131011904Y-117500057D02*
X130964285Y-117595295D01*
X130964285Y-117595295D02*
X130964285Y-117642914D01*
X130964285Y-117642914D02*
X131011904Y-117738152D01*
X131011904Y-117738152D02*
X131059523Y-117785771D01*
X131059523Y-117785771D02*
X131154761Y-117833390D01*
X131154761Y-117833390D02*
X131345237Y-117833390D01*
X131345237Y-117833390D02*
X131440475Y-117881009D01*
X131440475Y-117881009D02*
X131488094Y-117928628D01*
X131488094Y-117928628D02*
X131535713Y-118023866D01*
X131535713Y-118023866D02*
X131535713Y-118214342D01*
X131535713Y-118214342D02*
X131488094Y-118309580D01*
X131488094Y-118309580D02*
X131440475Y-118357200D01*
X131440475Y-118357200D02*
X131345237Y-118404819D01*
X131345237Y-118404819D02*
X131154761Y-118404819D01*
X131154761Y-118404819D02*
X131059523Y-118357200D01*
X131059523Y-118357200D02*
X131011904Y-118309580D01*
X131011904Y-118309580D02*
X130964285Y-118214342D01*
X130964285Y-118214342D02*
X130964285Y-118023866D01*
X130964285Y-118023866D02*
X131011904Y-117928628D01*
X131011904Y-117928628D02*
X131059523Y-117881009D01*
X131059523Y-117881009D02*
X131154761Y-117833390D01*
D13*
X195533332Y-90304600D02*
X195390475Y-90352219D01*
X195390475Y-90352219D02*
X195152380Y-90352219D01*
X195152380Y-90352219D02*
X195057142Y-90304600D01*
X195057142Y-90304600D02*
X195009523Y-90256980D01*
X195009523Y-90256980D02*
X194961904Y-90161742D01*
X194961904Y-90161742D02*
X194961904Y-90066504D01*
X194961904Y-90066504D02*
X195009523Y-89971266D01*
X195009523Y-89971266D02*
X195057142Y-89923647D01*
X195057142Y-89923647D02*
X195152380Y-89876028D01*
X195152380Y-89876028D02*
X195342856Y-89828409D01*
X195342856Y-89828409D02*
X195438094Y-89780790D01*
X195438094Y-89780790D02*
X195485713Y-89733171D01*
X195485713Y-89733171D02*
X195533332Y-89637933D01*
X195533332Y-89637933D02*
X195533332Y-89542695D01*
X195533332Y-89542695D02*
X195485713Y-89447457D01*
X195485713Y-89447457D02*
X195438094Y-89399838D01*
X195438094Y-89399838D02*
X195342856Y-89352219D01*
X195342856Y-89352219D02*
X195104761Y-89352219D01*
X195104761Y-89352219D02*
X194961904Y-89399838D01*
X194628570Y-89352219D02*
X194390475Y-90352219D01*
X194390475Y-90352219D02*
X194199999Y-89637933D01*
X194199999Y-89637933D02*
X194009523Y-90352219D01*
X194009523Y-90352219D02*
X193771428Y-89352219D01*
X193438094Y-89447457D02*
X193390475Y-89399838D01*
X193390475Y-89399838D02*
X193295237Y-89352219D01*
X193295237Y-89352219D02*
X193057142Y-89352219D01*
X193057142Y-89352219D02*
X192961904Y-89399838D01*
X192961904Y-89399838D02*
X192914285Y-89447457D01*
X192914285Y-89447457D02*
X192866666Y-89542695D01*
X192866666Y-89542695D02*
X192866666Y-89637933D01*
X192866666Y-89637933D02*
X192914285Y-89780790D01*
X192914285Y-89780790D02*
X193485713Y-90352219D01*
X193485713Y-90352219D02*
X192866666Y-90352219D01*
D14*
X94316428Y-87724318D02*
X94921190Y-87724318D01*
X94921190Y-87724318D02*
X94921190Y-86454318D01*
X93953571Y-87663842D02*
X93772142Y-87724318D01*
X93772142Y-87724318D02*
X93469761Y-87724318D01*
X93469761Y-87724318D02*
X93348809Y-87663842D01*
X93348809Y-87663842D02*
X93288333Y-87603365D01*
X93288333Y-87603365D02*
X93227856Y-87482413D01*
X93227856Y-87482413D02*
X93227856Y-87361461D01*
X93227856Y-87361461D02*
X93288333Y-87240508D01*
X93288333Y-87240508D02*
X93348809Y-87180032D01*
X93348809Y-87180032D02*
X93469761Y-87119556D01*
X93469761Y-87119556D02*
X93711666Y-87059080D01*
X93711666Y-87059080D02*
X93832618Y-86998603D01*
X93832618Y-86998603D02*
X93893095Y-86938127D01*
X93893095Y-86938127D02*
X93953571Y-86817175D01*
X93953571Y-86817175D02*
X93953571Y-86696222D01*
X93953571Y-86696222D02*
X93893095Y-86575270D01*
X93893095Y-86575270D02*
X93832618Y-86514794D01*
X93832618Y-86514794D02*
X93711666Y-86454318D01*
X93711666Y-86454318D02*
X93409285Y-86454318D01*
X93409285Y-86454318D02*
X93227856Y-86514794D01*
X92018332Y-87724318D02*
X92744047Y-87724318D01*
X92381190Y-87724318D02*
X92381190Y-86454318D01*
X92381190Y-86454318D02*
X92502142Y-86635746D01*
X92502142Y-86635746D02*
X92623094Y-86756699D01*
X92623094Y-86756699D02*
X92744047Y-86817175D01*
D11*
X164154819Y-96857142D02*
X163678628Y-96523809D01*
X164154819Y-96285714D02*
X163154819Y-96285714D01*
X163154819Y-96285714D02*
X163154819Y-96666666D01*
X163154819Y-96666666D02*
X163202438Y-96761904D01*
X163202438Y-96761904D02*
X163250057Y-96809523D01*
X163250057Y-96809523D02*
X163345295Y-96857142D01*
X163345295Y-96857142D02*
X163488152Y-96857142D01*
X163488152Y-96857142D02*
X163583390Y-96809523D01*
X163583390Y-96809523D02*
X163631009Y-96761904D01*
X163631009Y-96761904D02*
X163678628Y-96666666D01*
X163678628Y-96666666D02*
X163678628Y-96285714D01*
X163250057Y-97238095D02*
X163202438Y-97285714D01*
X163202438Y-97285714D02*
X163154819Y-97380952D01*
X163154819Y-97380952D02*
X163154819Y-97619047D01*
X163154819Y-97619047D02*
X163202438Y-97714285D01*
X163202438Y-97714285D02*
X163250057Y-97761904D01*
X163250057Y-97761904D02*
X163345295Y-97809523D01*
X163345295Y-97809523D02*
X163440533Y-97809523D01*
X163440533Y-97809523D02*
X163583390Y-97761904D01*
X163583390Y-97761904D02*
X164154819Y-97190476D01*
X164154819Y-97190476D02*
X164154819Y-97809523D01*
X163154819Y-98714285D02*
X163154819Y-98238095D01*
X163154819Y-98238095D02*
X163631009Y-98190476D01*
X163631009Y-98190476D02*
X163583390Y-98238095D01*
X163583390Y-98238095D02*
X163535771Y-98333333D01*
X163535771Y-98333333D02*
X163535771Y-98571428D01*
X163535771Y-98571428D02*
X163583390Y-98666666D01*
X163583390Y-98666666D02*
X163631009Y-98714285D01*
X163631009Y-98714285D02*
X163726247Y-98761904D01*
X163726247Y-98761904D02*
X163964342Y-98761904D01*
X163964342Y-98761904D02*
X164059580Y-98714285D01*
X164059580Y-98714285D02*
X164107200Y-98666666D01*
X164107200Y-98666666D02*
X164154819Y-98571428D01*
X164154819Y-98571428D02*
X164154819Y-98333333D01*
X164154819Y-98333333D02*
X164107200Y-98238095D01*
X164107200Y-98238095D02*
X164059580Y-98190476D01*
X115154819Y-97057142D02*
X114678628Y-96723809D01*
X115154819Y-96485714D02*
X114154819Y-96485714D01*
X114154819Y-96485714D02*
X114154819Y-96866666D01*
X114154819Y-96866666D02*
X114202438Y-96961904D01*
X114202438Y-96961904D02*
X114250057Y-97009523D01*
X114250057Y-97009523D02*
X114345295Y-97057142D01*
X114345295Y-97057142D02*
X114488152Y-97057142D01*
X114488152Y-97057142D02*
X114583390Y-97009523D01*
X114583390Y-97009523D02*
X114631009Y-96961904D01*
X114631009Y-96961904D02*
X114678628Y-96866666D01*
X114678628Y-96866666D02*
X114678628Y-96485714D01*
X114154819Y-97390476D02*
X114154819Y-98009523D01*
X114154819Y-98009523D02*
X114535771Y-97676190D01*
X114535771Y-97676190D02*
X114535771Y-97819047D01*
X114535771Y-97819047D02*
X114583390Y-97914285D01*
X114583390Y-97914285D02*
X114631009Y-97961904D01*
X114631009Y-97961904D02*
X114726247Y-98009523D01*
X114726247Y-98009523D02*
X114964342Y-98009523D01*
X114964342Y-98009523D02*
X115059580Y-97961904D01*
X115059580Y-97961904D02*
X115107200Y-97914285D01*
X115107200Y-97914285D02*
X115154819Y-97819047D01*
X115154819Y-97819047D02*
X115154819Y-97533333D01*
X115154819Y-97533333D02*
X115107200Y-97438095D01*
X115107200Y-97438095D02*
X115059580Y-97390476D01*
X115154819Y-98961904D02*
X115154819Y-98390476D01*
X115154819Y-98676190D02*
X114154819Y-98676190D01*
X114154819Y-98676190D02*
X114297676Y-98580952D01*
X114297676Y-98580952D02*
X114392914Y-98485714D01*
X114392914Y-98485714D02*
X114440533Y-98390476D01*
X205267857Y-83554580D02*
X205315476Y-83602200D01*
X205315476Y-83602200D02*
X205458333Y-83649819D01*
X205458333Y-83649819D02*
X205553571Y-83649819D01*
X205553571Y-83649819D02*
X205696428Y-83602200D01*
X205696428Y-83602200D02*
X205791666Y-83506961D01*
X205791666Y-83506961D02*
X205839285Y-83411723D01*
X205839285Y-83411723D02*
X205886904Y-83221247D01*
X205886904Y-83221247D02*
X205886904Y-83078390D01*
X205886904Y-83078390D02*
X205839285Y-82887914D01*
X205839285Y-82887914D02*
X205791666Y-82792676D01*
X205791666Y-82792676D02*
X205696428Y-82697438D01*
X205696428Y-82697438D02*
X205553571Y-82649819D01*
X205553571Y-82649819D02*
X205458333Y-82649819D01*
X205458333Y-82649819D02*
X205315476Y-82697438D01*
X205315476Y-82697438D02*
X205267857Y-82745057D01*
X204934523Y-82649819D02*
X204315476Y-82649819D01*
X204315476Y-82649819D02*
X204648809Y-83030771D01*
X204648809Y-83030771D02*
X204505952Y-83030771D01*
X204505952Y-83030771D02*
X204410714Y-83078390D01*
X204410714Y-83078390D02*
X204363095Y-83126009D01*
X204363095Y-83126009D02*
X204315476Y-83221247D01*
X204315476Y-83221247D02*
X204315476Y-83459342D01*
X204315476Y-83459342D02*
X204363095Y-83554580D01*
X204363095Y-83554580D02*
X204410714Y-83602200D01*
X204410714Y-83602200D02*
X204505952Y-83649819D01*
X204505952Y-83649819D02*
X204791666Y-83649819D01*
X204791666Y-83649819D02*
X204886904Y-83602200D01*
X204886904Y-83602200D02*
X204934523Y-83554580D01*
X203696428Y-82649819D02*
X203601190Y-82649819D01*
X203601190Y-82649819D02*
X203505952Y-82697438D01*
X203505952Y-82697438D02*
X203458333Y-82745057D01*
X203458333Y-82745057D02*
X203410714Y-82840295D01*
X203410714Y-82840295D02*
X203363095Y-83030771D01*
X203363095Y-83030771D02*
X203363095Y-83268866D01*
X203363095Y-83268866D02*
X203410714Y-83459342D01*
X203410714Y-83459342D02*
X203458333Y-83554580D01*
X203458333Y-83554580D02*
X203505952Y-83602200D01*
X203505952Y-83602200D02*
X203601190Y-83649819D01*
X203601190Y-83649819D02*
X203696428Y-83649819D01*
X203696428Y-83649819D02*
X203791666Y-83602200D01*
X203791666Y-83602200D02*
X203839285Y-83554580D01*
X203839285Y-83554580D02*
X203886904Y-83459342D01*
X203886904Y-83459342D02*
X203934523Y-83268866D01*
X203934523Y-83268866D02*
X203934523Y-83030771D01*
X203934523Y-83030771D02*
X203886904Y-82840295D01*
X203886904Y-82840295D02*
X203839285Y-82745057D01*
X203839285Y-82745057D02*
X203791666Y-82697438D01*
X203791666Y-82697438D02*
X203696428Y-82649819D01*
X147792857Y-75779819D02*
X148126190Y-75303628D01*
X148364285Y-75779819D02*
X148364285Y-74779819D01*
X148364285Y-74779819D02*
X147983333Y-74779819D01*
X147983333Y-74779819D02*
X147888095Y-74827438D01*
X147888095Y-74827438D02*
X147840476Y-74875057D01*
X147840476Y-74875057D02*
X147792857Y-74970295D01*
X147792857Y-74970295D02*
X147792857Y-75113152D01*
X147792857Y-75113152D02*
X147840476Y-75208390D01*
X147840476Y-75208390D02*
X147888095Y-75256009D01*
X147888095Y-75256009D02*
X147983333Y-75303628D01*
X147983333Y-75303628D02*
X148364285Y-75303628D01*
X146840476Y-75779819D02*
X147411904Y-75779819D01*
X147126190Y-75779819D02*
X147126190Y-74779819D01*
X147126190Y-74779819D02*
X147221428Y-74922676D01*
X147221428Y-74922676D02*
X147316666Y-75017914D01*
X147316666Y-75017914D02*
X147411904Y-75065533D01*
X146364285Y-75779819D02*
X146173809Y-75779819D01*
X146173809Y-75779819D02*
X146078571Y-75732200D01*
X146078571Y-75732200D02*
X146030952Y-75684580D01*
X146030952Y-75684580D02*
X145935714Y-75541723D01*
X145935714Y-75541723D02*
X145888095Y-75351247D01*
X145888095Y-75351247D02*
X145888095Y-74970295D01*
X145888095Y-74970295D02*
X145935714Y-74875057D01*
X145935714Y-74875057D02*
X145983333Y-74827438D01*
X145983333Y-74827438D02*
X146078571Y-74779819D01*
X146078571Y-74779819D02*
X146269047Y-74779819D01*
X146269047Y-74779819D02*
X146364285Y-74827438D01*
X146364285Y-74827438D02*
X146411904Y-74875057D01*
X146411904Y-74875057D02*
X146459523Y-74970295D01*
X146459523Y-74970295D02*
X146459523Y-75208390D01*
X146459523Y-75208390D02*
X146411904Y-75303628D01*
X146411904Y-75303628D02*
X146364285Y-75351247D01*
X146364285Y-75351247D02*
X146269047Y-75398866D01*
X146269047Y-75398866D02*
X146078571Y-75398866D01*
X146078571Y-75398866D02*
X145983333Y-75351247D01*
X145983333Y-75351247D02*
X145935714Y-75303628D01*
X145935714Y-75303628D02*
X145888095Y-75208390D01*
D14*
X138554318Y-80017667D02*
X139461461Y-80017667D01*
X139461461Y-80017667D02*
X139642889Y-79957190D01*
X139642889Y-79957190D02*
X139763842Y-79836238D01*
X139763842Y-79836238D02*
X139824318Y-79654809D01*
X139824318Y-79654809D02*
X139824318Y-79533857D01*
X139824318Y-81287667D02*
X139824318Y-80561952D01*
X139824318Y-80924809D02*
X138554318Y-80924809D01*
X138554318Y-80924809D02*
X138735746Y-80803857D01*
X138735746Y-80803857D02*
X138856699Y-80682905D01*
X138856699Y-80682905D02*
X138917175Y-80561952D01*
D11*
X102142857Y-93657819D02*
X102476190Y-93181628D01*
X102714285Y-93657819D02*
X102714285Y-92657819D01*
X102714285Y-92657819D02*
X102333333Y-92657819D01*
X102333333Y-92657819D02*
X102238095Y-92705438D01*
X102238095Y-92705438D02*
X102190476Y-92753057D01*
X102190476Y-92753057D02*
X102142857Y-92848295D01*
X102142857Y-92848295D02*
X102142857Y-92991152D01*
X102142857Y-92991152D02*
X102190476Y-93086390D01*
X102190476Y-93086390D02*
X102238095Y-93134009D01*
X102238095Y-93134009D02*
X102333333Y-93181628D01*
X102333333Y-93181628D02*
X102714285Y-93181628D01*
X101190476Y-93657819D02*
X101761904Y-93657819D01*
X101476190Y-93657819D02*
X101476190Y-92657819D01*
X101476190Y-92657819D02*
X101571428Y-92800676D01*
X101571428Y-92800676D02*
X101666666Y-92895914D01*
X101666666Y-92895914D02*
X101761904Y-92943533D01*
X100238095Y-93657819D02*
X100809523Y-93657819D01*
X100523809Y-93657819D02*
X100523809Y-92657819D01*
X100523809Y-92657819D02*
X100619047Y-92800676D01*
X100619047Y-92800676D02*
X100714285Y-92895914D01*
X100714285Y-92895914D02*
X100809523Y-92943533D01*
X104604819Y-97132142D02*
X104128628Y-96798809D01*
X104604819Y-96560714D02*
X103604819Y-96560714D01*
X103604819Y-96560714D02*
X103604819Y-96941666D01*
X103604819Y-96941666D02*
X103652438Y-97036904D01*
X103652438Y-97036904D02*
X103700057Y-97084523D01*
X103700057Y-97084523D02*
X103795295Y-97132142D01*
X103795295Y-97132142D02*
X103938152Y-97132142D01*
X103938152Y-97132142D02*
X104033390Y-97084523D01*
X104033390Y-97084523D02*
X104081009Y-97036904D01*
X104081009Y-97036904D02*
X104128628Y-96941666D01*
X104128628Y-96941666D02*
X104128628Y-96560714D01*
X103604819Y-97465476D02*
X103604819Y-98084523D01*
X103604819Y-98084523D02*
X103985771Y-97751190D01*
X103985771Y-97751190D02*
X103985771Y-97894047D01*
X103985771Y-97894047D02*
X104033390Y-97989285D01*
X104033390Y-97989285D02*
X104081009Y-98036904D01*
X104081009Y-98036904D02*
X104176247Y-98084523D01*
X104176247Y-98084523D02*
X104414342Y-98084523D01*
X104414342Y-98084523D02*
X104509580Y-98036904D01*
X104509580Y-98036904D02*
X104557200Y-97989285D01*
X104557200Y-97989285D02*
X104604819Y-97894047D01*
X104604819Y-97894047D02*
X104604819Y-97608333D01*
X104604819Y-97608333D02*
X104557200Y-97513095D01*
X104557200Y-97513095D02*
X104509580Y-97465476D01*
X103604819Y-98417857D02*
X103604819Y-99036904D01*
X103604819Y-99036904D02*
X103985771Y-98703571D01*
X103985771Y-98703571D02*
X103985771Y-98846428D01*
X103985771Y-98846428D02*
X104033390Y-98941666D01*
X104033390Y-98941666D02*
X104081009Y-98989285D01*
X104081009Y-98989285D02*
X104176247Y-99036904D01*
X104176247Y-99036904D02*
X104414342Y-99036904D01*
X104414342Y-99036904D02*
X104509580Y-98989285D01*
X104509580Y-98989285D02*
X104557200Y-98941666D01*
X104557200Y-98941666D02*
X104604819Y-98846428D01*
X104604819Y-98846428D02*
X104604819Y-98560714D01*
X104604819Y-98560714D02*
X104557200Y-98465476D01*
X104557200Y-98465476D02*
X104509580Y-98417857D01*
D14*
X146141428Y-92953365D02*
X146201904Y-93013842D01*
X146201904Y-93013842D02*
X146383333Y-93074318D01*
X146383333Y-93074318D02*
X146504285Y-93074318D01*
X146504285Y-93074318D02*
X146685714Y-93013842D01*
X146685714Y-93013842D02*
X146806666Y-92892889D01*
X146806666Y-92892889D02*
X146867143Y-92771937D01*
X146867143Y-92771937D02*
X146927619Y-92530032D01*
X146927619Y-92530032D02*
X146927619Y-92348603D01*
X146927619Y-92348603D02*
X146867143Y-92106699D01*
X146867143Y-92106699D02*
X146806666Y-91985746D01*
X146806666Y-91985746D02*
X146685714Y-91864794D01*
X146685714Y-91864794D02*
X146504285Y-91804318D01*
X146504285Y-91804318D02*
X146383333Y-91804318D01*
X146383333Y-91804318D02*
X146201904Y-91864794D01*
X146201904Y-91864794D02*
X146141428Y-91925270D01*
X145657619Y-91925270D02*
X145597143Y-91864794D01*
X145597143Y-91864794D02*
X145476190Y-91804318D01*
X145476190Y-91804318D02*
X145173809Y-91804318D01*
X145173809Y-91804318D02*
X145052857Y-91864794D01*
X145052857Y-91864794D02*
X144992381Y-91925270D01*
X144992381Y-91925270D02*
X144931904Y-92046222D01*
X144931904Y-92046222D02*
X144931904Y-92167175D01*
X144931904Y-92167175D02*
X144992381Y-92348603D01*
X144992381Y-92348603D02*
X145718095Y-93074318D01*
X145718095Y-93074318D02*
X144931904Y-93074318D01*
X143722380Y-93074318D02*
X144448095Y-93074318D01*
X144085238Y-93074318D02*
X144085238Y-91804318D01*
X144085238Y-91804318D02*
X144206190Y-91985746D01*
X144206190Y-91985746D02*
X144327142Y-92106699D01*
X144327142Y-92106699D02*
X144448095Y-92167175D01*
D11*
X183261904Y-85332819D02*
X183261904Y-86142342D01*
X183261904Y-86142342D02*
X183214285Y-86237580D01*
X183214285Y-86237580D02*
X183166666Y-86285200D01*
X183166666Y-86285200D02*
X183071428Y-86332819D01*
X183071428Y-86332819D02*
X182880952Y-86332819D01*
X182880952Y-86332819D02*
X182785714Y-86285200D01*
X182785714Y-86285200D02*
X182738095Y-86237580D01*
X182738095Y-86237580D02*
X182690476Y-86142342D01*
X182690476Y-86142342D02*
X182690476Y-85332819D01*
X181690476Y-86332819D02*
X182261904Y-86332819D01*
X181976190Y-86332819D02*
X181976190Y-85332819D01*
X181976190Y-85332819D02*
X182071428Y-85475676D01*
X182071428Y-85475676D02*
X182166666Y-85570914D01*
X182166666Y-85570914D02*
X182261904Y-85618533D01*
X205733333Y-75154819D02*
X205733333Y-75869104D01*
X205733333Y-75869104D02*
X205780952Y-76011961D01*
X205780952Y-76011961D02*
X205876190Y-76107200D01*
X205876190Y-76107200D02*
X206019047Y-76154819D01*
X206019047Y-76154819D02*
X206114285Y-76154819D01*
X205352380Y-75154819D02*
X204733333Y-75154819D01*
X204733333Y-75154819D02*
X205066666Y-75535771D01*
X205066666Y-75535771D02*
X204923809Y-75535771D01*
X204923809Y-75535771D02*
X204828571Y-75583390D01*
X204828571Y-75583390D02*
X204780952Y-75631009D01*
X204780952Y-75631009D02*
X204733333Y-75726247D01*
X204733333Y-75726247D02*
X204733333Y-75964342D01*
X204733333Y-75964342D02*
X204780952Y-76059580D01*
X204780952Y-76059580D02*
X204828571Y-76107200D01*
X204828571Y-76107200D02*
X204923809Y-76154819D01*
X204923809Y-76154819D02*
X205209523Y-76154819D01*
X205209523Y-76154819D02*
X205304761Y-76107200D01*
X205304761Y-76107200D02*
X205352380Y-76059580D01*
D10*
X219022000Y-104928000D02*
G75*
G02*
X209878000Y-104928000I-4572000J0D01*
G01*
X209878000Y-104928000D02*
G75*
G02*
X219022000Y-104928000I4572000J0D01*
G01*
X151022000Y-104928000D02*
G75*
G02*
X141878000Y-104928000I-4572000J0D01*
G01*
X141878000Y-104928000D02*
G75*
G02*
X151022000Y-104928000I4572000J0D01*
G01*
X121022000Y-104928000D02*
G75*
G02*
X111878000Y-104928000I-4572000J0D01*
G01*
X111878000Y-104928000D02*
G75*
G02*
X121022000Y-104928000I4572000J0D01*
G01*
X102022000Y-104928000D02*
G75*
G02*
X92878000Y-104928000I-4572000J0D01*
G01*
X92878000Y-104928000D02*
G75*
G02*
X102022000Y-104928000I4572000J0D01*
G01*
X200022000Y-104928000D02*
G75*
G02*
X190878000Y-104928000I-4572000J0D01*
G01*
X190878000Y-104928000D02*
G75*
G02*
X200022000Y-104928000I4572000J0D01*
G01*
X170022000Y-104928000D02*
G75*
G02*
X160878000Y-104928000I-4572000J0D01*
G01*
X160878000Y-104928000D02*
G75*
G02*
X170022000Y-104928000I4572000J0D01*
G01*
D15*
X199315000Y-79261252D02*
X199315000Y-78738748D01*
X200785000Y-79261252D02*
X200785000Y-78738748D01*
D13*
X91775000Y-95850000D02*
X94675000Y-95850000D01*
X91775000Y-96050000D02*
X91775000Y-95850000D01*
X94675000Y-95850000D02*
X94675000Y-96050000D01*
X94675000Y-96050000D02*
X91775000Y-96050000D01*
X94760000Y-96400000D02*
X94760000Y-97600000D01*
D15*
X163661252Y-90365000D02*
X163138748Y-90365000D01*
X163661252Y-91835000D02*
X163138748Y-91835000D01*
X97565000Y-95797936D02*
X97565000Y-96252064D01*
X99035000Y-95797936D02*
X99035000Y-96252064D01*
X108415000Y-86386252D02*
X108415000Y-85863748D01*
X109885000Y-86386252D02*
X109885000Y-85863748D01*
X145615000Y-97955064D02*
X145615000Y-97500936D01*
X147085000Y-97955064D02*
X147085000Y-97500936D01*
X118488748Y-90990000D02*
X119011252Y-90990000D01*
X118488748Y-92460000D02*
X119011252Y-92460000D01*
X136215000Y-91861252D02*
X136215000Y-91338748D01*
X137685000Y-91861252D02*
X137685000Y-91338748D01*
D16*
X211250000Y-85100000D02*
G75*
G02*
X211000000Y-85100000I-125000J0D01*
G01*
X211000000Y-85100000D02*
G75*
G02*
X211250000Y-85100000I125000J0D01*
G01*
D15*
X197988748Y-93093000D02*
X198511252Y-93093000D01*
X197988748Y-94563000D02*
X198511252Y-94563000D01*
D13*
X124800000Y-94675000D02*
X132100000Y-94675000D01*
X132700000Y-90325000D02*
X124800000Y-90325000D01*
D10*
X202550000Y-90675000D02*
X207850000Y-90675000D01*
X202550000Y-96175000D02*
X202550000Y-90675000D01*
X207850000Y-90675000D02*
X207850000Y-96175000D01*
X207850000Y-96175000D02*
X202550000Y-96175000D01*
D15*
X186897936Y-102590000D02*
X187352064Y-102590000D01*
X186897936Y-104060000D02*
X187352064Y-104060000D01*
X102197936Y-84640000D02*
X103652064Y-84640000D01*
X102197936Y-86460000D02*
X103652064Y-86460000D01*
X164640000Y-79748000D02*
X164640000Y-82408000D01*
X164640000Y-82408000D02*
X172380000Y-82408000D01*
X165590000Y-73748000D02*
X166350000Y-73748000D01*
X165590000Y-79748000D02*
X165590000Y-73748000D01*
X165590000Y-82408000D02*
X165590000Y-82805071D01*
X166350000Y-73748000D02*
X166350000Y-79748000D01*
X166350000Y-82408000D02*
X166350000Y-82805071D01*
X167240000Y-79748000D02*
X167240000Y-82408000D01*
X168130000Y-73748000D02*
X168890000Y-73748000D01*
X168130000Y-79748000D02*
X168130000Y-73748000D01*
X168130000Y-82408000D02*
X168130000Y-82805071D01*
X168890000Y-73748000D02*
X168890000Y-79748000D01*
X168890000Y-82408000D02*
X168890000Y-82805071D01*
X169780000Y-79748000D02*
X169780000Y-82408000D01*
X170670000Y-73748000D02*
X171430000Y-73748000D01*
X170670000Y-79748000D02*
X170670000Y-73748000D01*
X170670000Y-82408000D02*
X170670000Y-82738000D01*
X170770000Y-73748000D02*
X170770000Y-79748000D01*
X170890000Y-73748000D02*
X170890000Y-79748000D01*
X171010000Y-73748000D02*
X171010000Y-79748000D01*
X171130000Y-73748000D02*
X171130000Y-79748000D01*
X171250000Y-73748000D02*
X171250000Y-79748000D01*
X171370000Y-73748000D02*
X171370000Y-79748000D01*
X171430000Y-73748000D02*
X171430000Y-79748000D01*
X171430000Y-82408000D02*
X171430000Y-82738000D01*
X172320000Y-83848000D02*
X172320000Y-85118000D01*
X172320000Y-85118000D02*
X171050000Y-85118000D01*
X172380000Y-79748000D02*
X164640000Y-79748000D01*
X172380000Y-82408000D02*
X172380000Y-79748000D01*
X163552064Y-87565000D02*
X163097936Y-87565000D01*
X163552064Y-89035000D02*
X163097936Y-89035000D01*
X198477064Y-96590000D02*
X198022936Y-96590000D01*
X198477064Y-98060000D02*
X198022936Y-98060000D01*
D13*
X106100000Y-81650000D02*
G75*
G02*
X106000000Y-81650000I-50000J0D01*
G01*
X106000000Y-81650000D02*
G75*
G02*
X106100000Y-81650000I50000J0D01*
G01*
D15*
X151922936Y-78690000D02*
X152377064Y-78690000D01*
X151922936Y-80160000D02*
X152377064Y-80160000D01*
X205136252Y-87540000D02*
X204613748Y-87540000D01*
X205136252Y-89010000D02*
X204613748Y-89010000D01*
D16*
X167000000Y-88050000D02*
G75*
G02*
X166750000Y-88050000I-125000J0D01*
G01*
X166750000Y-88050000D02*
G75*
G02*
X167000000Y-88050000I125000J0D01*
G01*
D15*
X195540000Y-78788748D02*
X195540000Y-79311252D01*
X197010000Y-78788748D02*
X197010000Y-79311252D01*
X203015000Y-78697936D02*
X203015000Y-79152064D01*
X204485000Y-78697936D02*
X204485000Y-79152064D01*
X109372936Y-91093000D02*
X109827064Y-91093000D01*
X109372936Y-92563000D02*
X109827064Y-92563000D01*
X206490000Y-99411252D02*
X206490000Y-98888748D01*
X207960000Y-99411252D02*
X207960000Y-98888748D01*
X130715000Y-97855064D02*
X130715000Y-97400936D01*
X132185000Y-97855064D02*
X132185000Y-97400936D01*
X206190000Y-104997936D02*
X206190000Y-105452064D01*
X207660000Y-104997936D02*
X207660000Y-105452064D01*
X179965000Y-120338748D02*
X179965000Y-120861252D01*
X181435000Y-120338748D02*
X181435000Y-120861252D01*
X187327064Y-106290000D02*
X185872936Y-106290000D01*
X187327064Y-108110000D02*
X185872936Y-108110000D01*
X154415000Y-87772936D02*
X154415000Y-88227064D01*
X155885000Y-87772936D02*
X155885000Y-88227064D01*
X110752064Y-80840000D02*
X110297936Y-80840000D01*
X110752064Y-82310000D02*
X110297936Y-82310000D01*
X202590000Y-104997936D02*
X202590000Y-105452064D01*
X204060000Y-104997936D02*
X204060000Y-105452064D01*
X161038748Y-75965000D02*
X161561252Y-75965000D01*
X161038748Y-77435000D02*
X161561252Y-77435000D01*
X179315000Y-106600936D02*
X179315000Y-107055064D01*
X180785000Y-106600936D02*
X180785000Y-107055064D01*
X101152064Y-77415000D02*
X100697936Y-77415000D01*
X101152064Y-78885000D02*
X100697936Y-78885000D01*
X211090000Y-77047936D02*
X211090000Y-77502064D01*
X212560000Y-77047936D02*
X212560000Y-77502064D01*
X201965000Y-99486252D02*
X201965000Y-98963748D01*
X203435000Y-99486252D02*
X203435000Y-98963748D01*
D10*
X195725000Y-85425000D02*
X195725000Y-85425000D01*
X195825000Y-85425000D02*
X195825000Y-85425000D01*
D13*
X196825000Y-84175000D02*
X199825000Y-84175000D01*
X196825000Y-86675000D02*
X199825000Y-86675000D01*
D10*
X195725000Y-85425000D02*
G75*
G02*
X195825000Y-85425000I50000J0D01*
G01*
X195825000Y-85425000D02*
G75*
G02*
X195725000Y-85425000I-50000J0D01*
G01*
D15*
X146888748Y-79540000D02*
X147411252Y-79540000D01*
X146888748Y-81010000D02*
X147411252Y-81010000D01*
X221400000Y-82328000D02*
X222000000Y-82328000D01*
X221700000Y-82928000D02*
X221400000Y-82328000D01*
X222000000Y-82328000D02*
X221700000Y-82928000D01*
X100597936Y-80915000D02*
X101052064Y-80915000D01*
X100597936Y-82385000D02*
X101052064Y-82385000D01*
X155072936Y-82390000D02*
X155527064Y-82390000D01*
X155072936Y-83860000D02*
X155527064Y-83860000D01*
X159952064Y-78965000D02*
X159497936Y-78965000D01*
X159952064Y-80435000D02*
X159497936Y-80435000D01*
X131015000Y-120438748D02*
X131015000Y-120961252D01*
X132485000Y-120438748D02*
X132485000Y-120961252D01*
D13*
X199850000Y-88700000D02*
X196850000Y-88700000D01*
X199850000Y-91200000D02*
X196850000Y-91200000D01*
D10*
X200850000Y-89950000D02*
X200850000Y-89950000D01*
X200950000Y-89950000D02*
X200950000Y-89950000D01*
X200850000Y-89950000D02*
G75*
G02*
X200950000Y-89950000I50000J0D01*
G01*
X200950000Y-89950000D02*
G75*
G02*
X200850000Y-89950000I-50000J0D01*
G01*
D13*
X99550000Y-87428000D02*
G75*
G02*
X87550000Y-87428000I-6000000J0D01*
G01*
X87550000Y-87428000D02*
G75*
G02*
X99550000Y-87428000I6000000J0D01*
G01*
X100201590Y-87382000D02*
G75*
G02*
X100158410Y-87382000I-21590J0D01*
G01*
X100158410Y-87382000D02*
G75*
G02*
X100201590Y-87382000I21590J0D01*
G01*
D15*
X164715000Y-97755064D02*
X164715000Y-97300936D01*
X166185000Y-97755064D02*
X166185000Y-97300936D01*
X115685000Y-97867064D02*
X115685000Y-97412936D01*
X117155000Y-97867064D02*
X117155000Y-97412936D01*
X204363748Y-84140000D02*
X204886252Y-84140000D01*
X204363748Y-85610000D02*
X204886252Y-85610000D01*
X146922936Y-76240000D02*
X147377064Y-76240000D01*
X146922936Y-77710000D02*
X147377064Y-77710000D01*
D10*
X137000000Y-73628000D02*
X137000000Y-75553000D01*
X137000000Y-80553000D02*
X137000000Y-78553000D01*
D13*
X139750000Y-87053000D02*
X139750000Y-87053000D01*
X139750000Y-87253000D02*
X139750000Y-87253000D01*
D10*
X141500000Y-73628000D02*
X137000000Y-73628000D01*
X141500000Y-75553000D02*
X141500000Y-73628000D01*
X141500000Y-78553000D02*
X141500000Y-84553000D01*
D13*
X139750000Y-87053000D02*
G75*
G02*
X139750000Y-87253000I0J-100000D01*
G01*
X139750000Y-87253000D02*
G75*
G02*
X139750000Y-87053000I0J100000D01*
G01*
D15*
X100715000Y-90702064D02*
X100715000Y-90247936D01*
X102185000Y-90702064D02*
X102185000Y-90247936D01*
X101990000Y-98002064D02*
X101990000Y-97547936D01*
X103460000Y-98002064D02*
X103460000Y-97547936D01*
D13*
X141075000Y-94675000D02*
X148975000Y-94675000D01*
X148975000Y-90325000D02*
X141675000Y-90325000D01*
D15*
X173300000Y-73568000D02*
X191700000Y-73568000D01*
X173300000Y-79768000D02*
X173300000Y-73568000D01*
X173300000Y-98418000D02*
X173300000Y-99418000D01*
X174800000Y-99418000D02*
X173300000Y-99418000D01*
X190200000Y-99418000D02*
X191700000Y-99418000D01*
X191700000Y-79768000D02*
X191700000Y-73568000D01*
X191700000Y-99418000D02*
X191700000Y-98418000D01*
X192200000Y-80443000D02*
X191700000Y-80443000D01*
X191700000Y-79943000D01*
X192200000Y-80443000D01*
G36*
X192200000Y-80443000D02*
G01*
X191700000Y-80443000D01*
X191700000Y-79943000D01*
X192200000Y-80443000D01*
G37*
X207180000Y-79088000D02*
X207180000Y-77388000D01*
X216520000Y-79088000D02*
X216520000Y-77388000D01*
%LPC*%
D17*
X223400000Y-126500000D02*
X88400000Y-126500000D01*
X224900000Y-125000000D02*
G75*
G02*
X223400000Y-126500000I-1500000J0D01*
G01*
X224900000Y-75000000D02*
X224900000Y-125000000D01*
X88400000Y-126500000D02*
G75*
G02*
X86900000Y-125000000I0J1500000D01*
G01*
X88400000Y-73500000D02*
X223400000Y-73500000D01*
X86900000Y-75000000D02*
G75*
G02*
X88400000Y-73500000I1500000J0D01*
G01*
X86900000Y-125000000D02*
X86900000Y-75000000D01*
X223400000Y-73500000D02*
G75*
G02*
X224900000Y-75000000I0J-1500000D01*
G01*
D18*
X182590000Y-104928000D03*
X177510000Y-104928000D03*
D19*
X88600000Y-122400000D03*
X89302944Y-120702944D03*
X89302944Y-124097056D03*
X91000000Y-120000000D03*
D20*
X91000000Y-122400000D03*
D19*
X91000000Y-124800000D03*
X92697056Y-120702944D03*
X92697056Y-124097056D03*
X93400000Y-122400000D03*
D18*
X218133000Y-102134000D03*
X212418000Y-100864000D03*
X210894000Y-102134000D03*
X210005000Y-103912000D03*
X210894000Y-107849000D03*
X212418000Y-108992000D03*
X214450000Y-109500000D03*
X216482000Y-108992000D03*
X218006000Y-107722000D03*
X218895000Y-103912000D03*
X210005000Y-105944000D03*
X218895000Y-105944000D03*
X216482000Y-100864000D03*
X128810000Y-104928000D03*
X133890000Y-104928000D03*
X150133000Y-102134000D03*
X144418000Y-100864000D03*
X142894000Y-102134000D03*
X142005000Y-103912000D03*
X142894000Y-107849000D03*
X144418000Y-108992000D03*
X146450000Y-109500000D03*
X148482000Y-108992000D03*
X150006000Y-107722000D03*
X150895000Y-103912000D03*
X142005000Y-105944000D03*
X150895000Y-105944000D03*
X148482000Y-100864000D03*
X120133000Y-102134000D03*
X114418000Y-100864000D03*
X112894000Y-102134000D03*
X112005000Y-103912000D03*
X112894000Y-107849000D03*
X114418000Y-108992000D03*
X116450000Y-109500000D03*
X118482000Y-108992000D03*
X120006000Y-107722000D03*
X120895000Y-103912000D03*
X112005000Y-105944000D03*
X120895000Y-105944000D03*
X118482000Y-100864000D03*
D19*
X218400000Y-122400000D03*
X219102944Y-120702944D03*
X219102944Y-124097056D03*
X220800000Y-120000000D03*
D20*
X220800000Y-122400000D03*
D19*
X220800000Y-124800000D03*
X222497056Y-120702944D03*
X222497056Y-124097056D03*
X223200000Y-122400000D03*
D21*
X157800000Y-91278000D03*
X152800000Y-91278000D03*
X157800000Y-76778000D03*
X152800000Y-76778000D03*
X155300000Y-76778000D03*
D22*
X160900000Y-84278000D03*
X149700000Y-84278000D03*
D19*
X88600000Y-77600000D03*
X89302944Y-75902944D03*
X89302944Y-79297056D03*
X91000000Y-75200000D03*
D20*
X91000000Y-77600000D03*
D19*
X91000000Y-80000000D03*
X92697056Y-75902944D03*
X92697056Y-79297056D03*
X93400000Y-77600000D03*
D18*
X101133000Y-102134000D03*
X95418000Y-100864000D03*
X93894000Y-102134000D03*
X93005000Y-103912000D03*
X93894000Y-107849000D03*
X95418000Y-108992000D03*
X97450000Y-109500000D03*
X99482000Y-108992000D03*
X101006000Y-107722000D03*
X101895000Y-103912000D03*
X93005000Y-105944000D03*
X101895000Y-105944000D03*
X99482000Y-100864000D03*
X199133000Y-102134000D03*
X193418000Y-100864000D03*
X191894000Y-102134000D03*
X191005000Y-103912000D03*
X191894000Y-107849000D03*
X193418000Y-108992000D03*
X195450000Y-109500000D03*
X197482000Y-108992000D03*
X199006000Y-107722000D03*
X199895000Y-103912000D03*
X191005000Y-105944000D03*
X199895000Y-105944000D03*
X197482000Y-100864000D03*
X169133000Y-102134000D03*
X163418000Y-100864000D03*
X161894000Y-102134000D03*
X161005000Y-103912000D03*
X161894000Y-107849000D03*
X163418000Y-108992000D03*
X165450000Y-109500000D03*
X167482000Y-108992000D03*
X169006000Y-107722000D03*
X169895000Y-103912000D03*
X161005000Y-105944000D03*
X169895000Y-105944000D03*
X167482000Y-100864000D03*
D19*
X218400000Y-77600000D03*
X219102944Y-75902944D03*
X219102944Y-79297056D03*
X220800000Y-75200000D03*
D20*
X220800000Y-77600000D03*
D19*
X220800000Y-80000000D03*
X222497056Y-75902944D03*
X222497056Y-79297056D03*
X223200000Y-77600000D03*
D23*
X200050000Y-77962500D03*
X200050000Y-80037500D03*
D24*
X94185000Y-97000000D03*
X92265000Y-97000000D03*
X93225000Y-94900000D03*
D25*
X162362500Y-91100000D03*
X164437500Y-91100000D03*
D26*
X98300000Y-97025000D03*
X98300000Y-95025000D03*
D23*
X109150000Y-85087500D03*
X109150000Y-87162500D03*
D27*
X146350000Y-96728000D03*
X146350000Y-98728000D03*
D28*
X119787500Y-91725000D03*
X117712500Y-91725000D03*
D29*
X128150000Y-80878000D03*
X118250000Y-80878000D03*
D23*
X136950000Y-90562500D03*
X136950000Y-92637500D03*
D30*
X210750000Y-85725000D03*
X210750000Y-86225000D03*
X210750000Y-86725000D03*
X210750000Y-87225000D03*
X210750000Y-87725000D03*
X209750000Y-87725000D03*
X209750000Y-87225000D03*
X209750000Y-86725000D03*
X209750000Y-86225000D03*
X209750000Y-85725000D03*
D28*
X199287500Y-93828000D03*
X197212500Y-93828000D03*
D31*
X131550000Y-92500000D03*
X125350000Y-92500000D03*
D32*
X203575000Y-93425000D03*
X206825000Y-93425000D03*
D33*
X188125000Y-103325000D03*
X186125000Y-103325000D03*
D34*
X104475000Y-85550000D03*
X101375000Y-85550000D03*
D35*
X171050000Y-83848000D03*
D36*
X168510000Y-83848000D03*
X165970000Y-83848000D03*
D37*
X162325000Y-88300000D03*
X164325000Y-88300000D03*
X197250000Y-97325000D03*
X199250000Y-97325000D03*
D38*
X106050000Y-80800000D03*
X106050000Y-79000000D03*
D33*
X153150000Y-79425000D03*
X151150000Y-79425000D03*
D25*
X203837500Y-88275000D03*
X205912500Y-88275000D03*
D39*
X167500000Y-88425000D03*
X168000000Y-88425000D03*
X168500000Y-88425000D03*
X169000000Y-88425000D03*
X169500000Y-88425000D03*
X169500000Y-89425000D03*
X169000000Y-89425000D03*
X168500000Y-89425000D03*
X168000000Y-89425000D03*
X167500000Y-89425000D03*
D40*
X196275000Y-80087500D03*
X196275000Y-78012500D03*
D26*
X203750000Y-79925000D03*
X203750000Y-77925000D03*
D33*
X110600000Y-91828000D03*
X108600000Y-91828000D03*
D23*
X207225000Y-98112500D03*
X207225000Y-100187500D03*
D27*
X131450000Y-96628000D03*
X131450000Y-98628000D03*
D26*
X206925000Y-106225000D03*
X206925000Y-104225000D03*
D40*
X180700000Y-121637500D03*
X180700000Y-119562500D03*
D41*
X185050000Y-107200000D03*
X188150000Y-107200000D03*
D26*
X155150000Y-89000000D03*
X155150000Y-87000000D03*
D37*
X109525000Y-81575000D03*
X111525000Y-81575000D03*
D26*
X203325000Y-106225000D03*
X203325000Y-104225000D03*
D28*
X162337500Y-76700000D03*
X160262500Y-76700000D03*
D26*
X180050000Y-107828000D03*
X180050000Y-105828000D03*
D37*
X99925000Y-78150000D03*
X101925000Y-78150000D03*
D26*
X211825000Y-78275000D03*
X211825000Y-76275000D03*
D23*
X202700000Y-98187500D03*
X202700000Y-100262500D03*
D42*
X196625000Y-85425000D03*
X200025000Y-85425000D03*
D28*
X148187500Y-80275000D03*
X146112500Y-80275000D03*
D43*
X221700000Y-84428000D03*
D44*
X219200000Y-84428000D03*
X216700000Y-84428000D03*
D33*
X101825000Y-81650000D03*
X99825000Y-81650000D03*
X156300000Y-83125000D03*
X154300000Y-83125000D03*
D37*
X158725000Y-79700000D03*
X160725000Y-79700000D03*
D40*
X131750000Y-121737500D03*
X131750000Y-119662500D03*
D42*
X200050000Y-89950000D03*
X196650000Y-89950000D03*
D45*
X96800000Y-87428000D03*
X90300000Y-87428000D03*
D27*
X165450000Y-96528000D03*
X165450000Y-98528000D03*
X116420000Y-96640000D03*
X116420000Y-98640000D03*
D28*
X205662500Y-84875000D03*
X203587500Y-84875000D03*
D33*
X148150000Y-76975000D03*
X146150000Y-76975000D03*
D46*
X139750000Y-76628000D03*
X139750000Y-81628000D03*
D47*
X139750000Y-85478000D03*
D48*
X136350000Y-82128000D03*
D47*
X137500000Y-85478000D03*
D49*
X142350000Y-76978000D03*
X136150000Y-76978000D03*
D27*
X101450000Y-89475000D03*
X101450000Y-91475000D03*
X102725000Y-96775000D03*
X102725000Y-98775000D03*
D31*
X142225000Y-92500000D03*
X148425000Y-92500000D03*
D50*
X191250000Y-81208000D03*
X191250000Y-82478000D03*
X191250000Y-83748000D03*
X191250000Y-85018000D03*
X191250000Y-86288000D03*
X191250000Y-87558000D03*
X191250000Y-88828000D03*
X191250000Y-90098000D03*
X191250000Y-91368000D03*
X191250000Y-92638000D03*
X191250000Y-93908000D03*
X191250000Y-95178000D03*
X191250000Y-96448000D03*
X191250000Y-97718000D03*
D51*
X189485000Y-98968000D03*
X188215000Y-98968000D03*
X186945000Y-98968000D03*
X185675000Y-98968000D03*
X184405000Y-98968000D03*
X183135000Y-98968000D03*
X181865000Y-98968000D03*
X180595000Y-98968000D03*
X179325000Y-98968000D03*
X178055000Y-98968000D03*
X176785000Y-98968000D03*
X175515000Y-98968000D03*
D50*
X173750000Y-97718000D03*
X173750000Y-96448000D03*
X173750000Y-95178000D03*
X173750000Y-93908000D03*
X173750000Y-92638000D03*
X173750000Y-91368000D03*
X173750000Y-90098000D03*
X173750000Y-88828000D03*
X173750000Y-87558000D03*
X173750000Y-86288000D03*
X173750000Y-85018000D03*
X173750000Y-83748000D03*
X173750000Y-82478000D03*
X173750000Y-81208000D03*
D52*
X185400000Y-89628000D03*
X185400000Y-88228000D03*
X184700000Y-90328000D03*
X184700000Y-88928000D03*
X184700000Y-87528000D03*
X184000000Y-89628000D03*
D53*
X184000000Y-88928000D03*
D52*
X184000000Y-88228000D03*
X183300000Y-90328000D03*
X183300000Y-88928000D03*
X183300000Y-87528000D03*
X182600000Y-89628000D03*
X182600000Y-88228000D03*
D54*
X208960000Y-79893000D03*
X214740000Y-79893000D03*
D55*
X208650000Y-80968000D03*
X209450000Y-80968000D03*
D56*
X210600000Y-80968000D03*
X211600000Y-80968000D03*
X212100000Y-80968000D03*
X213100000Y-80968000D03*
D55*
X214250000Y-80968000D03*
X215050000Y-80968000D03*
X215050000Y-80968000D03*
X214250000Y-80968000D03*
D56*
X213600000Y-80968000D03*
X212600000Y-80968000D03*
X211100000Y-80968000D03*
X210100000Y-80968000D03*
D55*
X209450000Y-80968000D03*
X208650000Y-80968000D03*
D57*
X207530000Y-76213000D03*
D58*
X207530000Y-80393000D03*
D57*
X216170000Y-76213000D03*
D58*
X216170000Y-80393000D03*
%LPD*%
M02*
