G04 #@! TF.GenerationSoftware,KiCad,Pcbnew,8.0.4*
G04 #@! TF.CreationDate,2024-11-13T17:36:55+01:00*
G04 #@! TF.ProjectId,nixie_alarm_main_board,6e697869-655f-4616-9c61-726d5f6d6169,rev?*
G04 #@! TF.SameCoordinates,Original*
G04 #@! TF.FileFunction,Soldermask,Top*
G04 #@! TF.FilePolarity,Negative*
%FSLAX46Y46*%
G04 Gerber Fmt 4.6, Leading zero omitted, Abs format (unit mm)*
G04 Created by KiCad (PCBNEW 8.0.4) date 2024-11-13 17:36:55*
%MOMM*%
%LPD*%
G01*
G04 APERTURE LIST*
G04 Aperture macros list*
%AMRoundRect*
0 Rectangle with rounded corners*
0 $1 Rounding radius*
0 $2 $3 $4 $5 $6 $7 $8 $9 X,Y pos of 4 corners*
0 Add a 4 corners polygon primitive as box body*
4,1,4,$2,$3,$4,$5,$6,$7,$8,$9,$2,$3,0*
0 Add four circle primitives for the rounded corners*
1,1,$1+$1,$2,$3*
1,1,$1+$1,$4,$5*
1,1,$1+$1,$6,$7*
1,1,$1+$1,$8,$9*
0 Add four rect primitives between the rounded corners*
20,1,$1+$1,$2,$3,$4,$5,0*
20,1,$1+$1,$4,$5,$6,$7,0*
20,1,$1+$1,$6,$7,$8,$9,0*
20,1,$1+$1,$8,$9,$2,$3,0*%
G04 Aperture macros list end*
%ADD10C,1.700000*%
%ADD11C,0.000000*%
%ADD12C,0.375000*%
%ADD13C,0.287500*%
%ADD14C,0.150000*%
%ADD15RoundRect,0.250000X-0.450000X0.350000X-0.450000X-0.350000X0.450000X-0.350000X0.450000X0.350000X0*%
%ADD16C,1.524000*%
%ADD17R,0.600000X1.900000*%
%ADD18R,1.900000X0.600000*%
%ADD19RoundRect,0.250000X0.337500X0.475000X-0.337500X0.475000X-0.337500X-0.475000X0.337500X-0.475000X0*%
%ADD20RoundRect,0.249999X2.450001X-0.737501X2.450001X0.737501X-2.450001X0.737501X-2.450001X-0.737501X0*%
%ADD21RoundRect,0.250000X0.450000X-0.350000X0.450000X0.350000X-0.450000X0.350000X-0.450000X-0.350000X0*%
%ADD22R,0.650000X1.200000*%
%ADD23R,1.000000X0.400000*%
%ADD24R,1.400000X0.450000*%
%ADD25C,0.800000*%
%ADD26C,6.400000*%
%ADD27RoundRect,0.250000X0.475000X-0.337500X0.475000X0.337500X-0.475000X0.337500X-0.475000X-0.337500X0*%
%ADD28C,2.000000*%
%ADD29R,1.200000X0.450000*%
%ADD30RoundRect,0.250000X-0.475000X0.337500X-0.475000X-0.337500X0.475000X-0.337500X0.475000X0.337500X0*%
%ADD31RoundRect,0.250000X0.350000X0.450000X-0.350000X0.450000X-0.350000X-0.450000X0.350000X-0.450000X0*%
%ADD32R,1.060000X2.600000*%
%ADD33R,5.632000X5.700000*%
%ADD34R,0.700000X1.825000*%
%ADD35RoundRect,0.250000X-0.337500X-0.475000X0.337500X-0.475000X0.337500X0.475000X-0.337500X0.475000X0*%
%ADD36C,1.800000*%
%ADD37C,4.572000*%
%ADD38RoundRect,0.250000X-0.350000X-0.450000X0.350000X-0.450000X0.350000X0.450000X-0.350000X0.450000X0*%
%ADD39RoundRect,0.250000X-0.400000X-0.625000X0.400000X-0.625000X0.400000X0.625000X-0.400000X0.625000X0*%
%ADD40RoundRect,0.062500X0.250000X-0.437500X0.250000X0.437500X-0.250000X0.437500X-0.250000X-0.437500X0*%
%ADD41R,1.550000X2.350000*%
%ADD42R,1.450000X0.850000*%
%ADD43R,1.050000X0.850000*%
%ADD44R,3.750000X4.700000*%
%ADD45RoundRect,0.250000X0.450000X-0.325000X0.450000X0.325000X-0.450000X0.325000X-0.450000X-0.325000X0*%
%ADD46RoundRect,0.237500X0.287500X0.237500X-0.287500X0.237500X-0.287500X-0.237500X0.287500X-0.237500X0*%
%ADD47R,1.700000X1.700000*%
%ADD48O,1.700000X1.700000*%
%ADD49RoundRect,0.250000X0.600000X0.725000X-0.600000X0.725000X-0.600000X-0.725000X0.600000X-0.725000X0*%
%ADD50O,1.700000X1.950000*%
%ADD51C,1.410000*%
%ADD52C,1.300000*%
%ADD53C,0.650000*%
%ADD54O,1.000000X1.800000*%
%ADD55O,1.000000X2.100000*%
G04 APERTURE END LIST*
D10*
X224900000Y-75000000D02*
X224900000Y-125000000D01*
D11*
G36*
X123073205Y-79086713D02*
G01*
X123090653Y-79104551D01*
X123107266Y-79123843D01*
X123123030Y-79144458D01*
X123137929Y-79166262D01*
X123151947Y-79189124D01*
X123165069Y-79212910D01*
X123177280Y-79237489D01*
X123188563Y-79262727D01*
X123198904Y-79288493D01*
X123208287Y-79314653D01*
X123216697Y-79341075D01*
X123224117Y-79367626D01*
X123230532Y-79394175D01*
X123235928Y-79420588D01*
X123240288Y-79446732D01*
X123243597Y-79472476D01*
X123245839Y-79497686D01*
X123246999Y-79522231D01*
X123247062Y-79545977D01*
X123246011Y-79568792D01*
X123243832Y-79590544D01*
X123240509Y-79611100D01*
X123236026Y-79630327D01*
X123230368Y-79648093D01*
X123223519Y-79664265D01*
X123215464Y-79678711D01*
X123206188Y-79691298D01*
X123195674Y-79701894D01*
X123183908Y-79710366D01*
X123170873Y-79716582D01*
X123156555Y-79720408D01*
X123140938Y-79721713D01*
X123116665Y-79720588D01*
X123094587Y-79717075D01*
X123074617Y-79710970D01*
X123065395Y-79706881D01*
X123056669Y-79702068D01*
X123048425Y-79696504D01*
X123040655Y-79690165D01*
X123033347Y-79683024D01*
X123026490Y-79675056D01*
X123020073Y-79666235D01*
X123014085Y-79656536D01*
X123003355Y-79634401D01*
X122994212Y-79608446D01*
X122986570Y-79578466D01*
X122980342Y-79544257D01*
X122975441Y-79505615D01*
X122971781Y-79462334D01*
X122969273Y-79414210D01*
X122967833Y-79361038D01*
X122967372Y-79302613D01*
X122967372Y-78989347D01*
X123073205Y-79086713D01*
G37*
G36*
X122463235Y-78339164D02*
G01*
X122486045Y-78341299D01*
X122506796Y-78343906D01*
X122525650Y-78347071D01*
X122534415Y-78348889D01*
X122542767Y-78350880D01*
X122550725Y-78353054D01*
X122558309Y-78355421D01*
X122565540Y-78357994D01*
X122572438Y-78360781D01*
X122579022Y-78363795D01*
X122585313Y-78367047D01*
X122591332Y-78370546D01*
X122597098Y-78374304D01*
X122602631Y-78378332D01*
X122607952Y-78382641D01*
X122613080Y-78387240D01*
X122618037Y-78392143D01*
X122622842Y-78397358D01*
X122627514Y-78402898D01*
X122632076Y-78408772D01*
X122636545Y-78414992D01*
X122640944Y-78421569D01*
X122645291Y-78428513D01*
X122653913Y-78443546D01*
X122662572Y-78460180D01*
X122670706Y-78477776D01*
X122677645Y-78494187D01*
X122683380Y-78509619D01*
X122687906Y-78524275D01*
X122691216Y-78538361D01*
X122693305Y-78552081D01*
X122694166Y-78565640D01*
X122693793Y-78579243D01*
X122692179Y-78593093D01*
X122689319Y-78607396D01*
X122685207Y-78622356D01*
X122679836Y-78638178D01*
X122673200Y-78655067D01*
X122665292Y-78673227D01*
X122656107Y-78692863D01*
X122645638Y-78714180D01*
X122617399Y-78766976D01*
X122589786Y-78815871D01*
X122562732Y-78860934D01*
X122536167Y-78902232D01*
X122510024Y-78939835D01*
X122484234Y-78973811D01*
X122458730Y-79004226D01*
X122446063Y-79018121D01*
X122433443Y-79031151D01*
X122420859Y-79043325D01*
X122408304Y-79054652D01*
X122395769Y-79065141D01*
X122383246Y-79074799D01*
X122370726Y-79083635D01*
X122358201Y-79091659D01*
X122345661Y-79098878D01*
X122333099Y-79105300D01*
X122320506Y-79110935D01*
X122307874Y-79115792D01*
X122295194Y-79119877D01*
X122282456Y-79123201D01*
X122269654Y-79125771D01*
X122256778Y-79127597D01*
X122243820Y-79128686D01*
X122230772Y-79129047D01*
X122211728Y-79128323D01*
X122192721Y-79126181D01*
X122173789Y-79122667D01*
X122154969Y-79117827D01*
X122136297Y-79111706D01*
X122117811Y-79104350D01*
X122099549Y-79095806D01*
X122081547Y-79086118D01*
X122063842Y-79075332D01*
X122046473Y-79063495D01*
X122029475Y-79050652D01*
X122012887Y-79036848D01*
X121981088Y-79006541D01*
X121951372Y-78972942D01*
X121924037Y-78936417D01*
X121899381Y-78897330D01*
X121877702Y-78856047D01*
X121859297Y-78812936D01*
X121844463Y-78768361D01*
X121838479Y-78745639D01*
X121833500Y-78722688D01*
X121829562Y-78699554D01*
X121826703Y-78676283D01*
X121824961Y-78652921D01*
X121824372Y-78629513D01*
X121825326Y-78601868D01*
X121828233Y-78576034D01*
X121830440Y-78563773D01*
X121833162Y-78551937D01*
X121836406Y-78540516D01*
X121840181Y-78529501D01*
X121844495Y-78518883D01*
X121849357Y-78508652D01*
X121854776Y-78498800D01*
X121860760Y-78489317D01*
X121867318Y-78480194D01*
X121874458Y-78471421D01*
X121882188Y-78462989D01*
X121890518Y-78454888D01*
X121899455Y-78447111D01*
X121909008Y-78439646D01*
X121919187Y-78432485D01*
X121929998Y-78425619D01*
X121953556Y-78412733D01*
X121979748Y-78400913D01*
X122008645Y-78390086D01*
X122040313Y-78380177D01*
X122074822Y-78371111D01*
X122112238Y-78362813D01*
X122146733Y-78356860D01*
X122185793Y-78351701D01*
X122228027Y-78347335D01*
X122272047Y-78343763D01*
X122316464Y-78340985D01*
X122359888Y-78339001D01*
X122400932Y-78337810D01*
X122438205Y-78337413D01*
X122463235Y-78339164D01*
G37*
D10*
X88400000Y-73500000D02*
X223400000Y-73500000D01*
D11*
G36*
X123410152Y-78328880D02*
G01*
X123483392Y-78333602D01*
X123576972Y-78341647D01*
X123619672Y-78345725D01*
X123659017Y-78350064D01*
X123695225Y-78354725D01*
X123728512Y-78359771D01*
X123759095Y-78365263D01*
X123787191Y-78371263D01*
X123813018Y-78377835D01*
X123836793Y-78385038D01*
X123858731Y-78392937D01*
X123879051Y-78401591D01*
X123888672Y-78406222D01*
X123897970Y-78411065D01*
X123906972Y-78416128D01*
X123915705Y-78421418D01*
X123932471Y-78432715D01*
X123948488Y-78445016D01*
X123963971Y-78458384D01*
X123979138Y-78472880D01*
X123996313Y-78489505D01*
X124011360Y-78504680D01*
X124024336Y-78518738D01*
X124035296Y-78532014D01*
X124044297Y-78544844D01*
X124048080Y-78551197D01*
X124051394Y-78557563D01*
X124054247Y-78563985D01*
X124056644Y-78570505D01*
X124058593Y-78577164D01*
X124060101Y-78584005D01*
X124061175Y-78591069D01*
X124061822Y-78598398D01*
X124062048Y-78606034D01*
X124061862Y-78614019D01*
X124060278Y-78631202D01*
X124057124Y-78650283D01*
X124052458Y-78671596D01*
X124046334Y-78695477D01*
X124038809Y-78722260D01*
X124029938Y-78752280D01*
X124019118Y-78785701D01*
X124007327Y-78817688D01*
X123994608Y-78848221D01*
X123981007Y-78877279D01*
X123966569Y-78904843D01*
X123951338Y-78930892D01*
X123935361Y-78955407D01*
X123918681Y-78978366D01*
X123901344Y-78999751D01*
X123883394Y-79019540D01*
X123864877Y-79037714D01*
X123845838Y-79054252D01*
X123826321Y-79069135D01*
X123806372Y-79082341D01*
X123786035Y-79093852D01*
X123765355Y-79103647D01*
X123744378Y-79111705D01*
X123723148Y-79118006D01*
X123701710Y-79122531D01*
X123680110Y-79125260D01*
X123658391Y-79126171D01*
X123636600Y-79125245D01*
X123614781Y-79122462D01*
X123592979Y-79117802D01*
X123571239Y-79111244D01*
X123549606Y-79102768D01*
X123528125Y-79092355D01*
X123506841Y-79079983D01*
X123485798Y-79065633D01*
X123465043Y-79049285D01*
X123444619Y-79030919D01*
X123424572Y-79010513D01*
X123380805Y-78961763D01*
X123341534Y-78915387D01*
X123306691Y-78871182D01*
X123276207Y-78828943D01*
X123250014Y-78788465D01*
X123238505Y-78768822D01*
X123228044Y-78749543D01*
X123218622Y-78730602D01*
X123210229Y-78711973D01*
X123202859Y-78693631D01*
X123196501Y-78675551D01*
X123191148Y-78657706D01*
X123186791Y-78640071D01*
X123183421Y-78622620D01*
X123181031Y-78605329D01*
X123179611Y-78588170D01*
X123179153Y-78571120D01*
X123179649Y-78554152D01*
X123181089Y-78537240D01*
X123183466Y-78520359D01*
X123186770Y-78503484D01*
X123190994Y-78486588D01*
X123196129Y-78469647D01*
X123202166Y-78452634D01*
X123209097Y-78435525D01*
X123216912Y-78418293D01*
X123225605Y-78400913D01*
X123233458Y-78386714D01*
X123241397Y-78374232D01*
X123249808Y-78363399D01*
X123259075Y-78354148D01*
X123269582Y-78346410D01*
X123281713Y-78340117D01*
X123295854Y-78335201D01*
X123312388Y-78331592D01*
X123331701Y-78329225D01*
X123354176Y-78328029D01*
X123380198Y-78327937D01*
X123410152Y-78328880D01*
G37*
D10*
X86900000Y-125000000D02*
X86900000Y-75000000D01*
X86900000Y-75000000D02*
G75*
G02*
X88400000Y-73500000I1500000J0D01*
G01*
X88400000Y-126500000D02*
G75*
G02*
X86900000Y-125000000I0J1500000D01*
G01*
D11*
G36*
X122915290Y-76430357D02*
G01*
X123027697Y-76433472D01*
X123140202Y-76439067D01*
X123251270Y-76447081D01*
X123359360Y-76457452D01*
X123462936Y-76470116D01*
X123560460Y-76485014D01*
X123650394Y-76502081D01*
X123731199Y-76521258D01*
X123801339Y-76542480D01*
X123896713Y-76580347D01*
X123987473Y-76623963D01*
X124073471Y-76673123D01*
X124154557Y-76727622D01*
X124230584Y-76787256D01*
X124301401Y-76851819D01*
X124366860Y-76921108D01*
X124426813Y-76994917D01*
X124481111Y-77073043D01*
X124529604Y-77155280D01*
X124572144Y-77241423D01*
X124608582Y-77331269D01*
X124638769Y-77424612D01*
X124662557Y-77521248D01*
X124679796Y-77620972D01*
X124690338Y-77723580D01*
X124694150Y-77786520D01*
X124696027Y-77846892D01*
X124695920Y-77904908D01*
X124693778Y-77960779D01*
X124689553Y-78014715D01*
X124683195Y-78066926D01*
X124674654Y-78117625D01*
X124663880Y-78167022D01*
X124650825Y-78215327D01*
X124635437Y-78262751D01*
X124617669Y-78309506D01*
X124597470Y-78355802D01*
X124574790Y-78401850D01*
X124549580Y-78447860D01*
X124521790Y-78494044D01*
X124491372Y-78540613D01*
X124472504Y-78569048D01*
X124455529Y-78595845D01*
X124440351Y-78621352D01*
X124426879Y-78645917D01*
X124415020Y-78669887D01*
X124404679Y-78693608D01*
X124395765Y-78717429D01*
X124388184Y-78741697D01*
X124381844Y-78766758D01*
X124376650Y-78792960D01*
X124372511Y-78820650D01*
X124369333Y-78850176D01*
X124367023Y-78881884D01*
X124365488Y-78916123D01*
X124364635Y-78953239D01*
X124364372Y-78993580D01*
X124364129Y-79021432D01*
X124363421Y-79049308D01*
X124362279Y-79077035D01*
X124360734Y-79104440D01*
X124356558Y-79157589D01*
X124351143Y-79207363D01*
X124348047Y-79230552D01*
X124344735Y-79252376D01*
X124341236Y-79272662D01*
X124337583Y-79291236D01*
X124333805Y-79307926D01*
X124329934Y-79322556D01*
X124326002Y-79334954D01*
X124322038Y-79344947D01*
X124311905Y-79363497D01*
X124303873Y-79379450D01*
X124298161Y-79392785D01*
X124294985Y-79403486D01*
X124294416Y-79407842D01*
X124294562Y-79411532D01*
X124295451Y-79414554D01*
X124297110Y-79416905D01*
X124299565Y-79418584D01*
X124302845Y-79419587D01*
X124306975Y-79419913D01*
X124311984Y-79419559D01*
X124324745Y-79416803D01*
X124341345Y-79411299D01*
X124362000Y-79403030D01*
X124386927Y-79391976D01*
X124450469Y-79361442D01*
X124533705Y-79319547D01*
X124558851Y-79306457D01*
X124583463Y-79292617D01*
X124607505Y-79278070D01*
X124630940Y-79262860D01*
X124653729Y-79247029D01*
X124675836Y-79230622D01*
X124697224Y-79213681D01*
X124717855Y-79196251D01*
X124737693Y-79178374D01*
X124756699Y-79160094D01*
X124774838Y-79141454D01*
X124792071Y-79122498D01*
X124808361Y-79103269D01*
X124823672Y-79083811D01*
X124837965Y-79064167D01*
X124851205Y-79044380D01*
X124873478Y-79009953D01*
X124895837Y-78978118D01*
X124918271Y-78948888D01*
X124940767Y-78922275D01*
X124963312Y-78898291D01*
X124974599Y-78887289D01*
X124985895Y-78876948D01*
X124997196Y-78867272D01*
X125008502Y-78858260D01*
X125019811Y-78849915D01*
X125031122Y-78842238D01*
X125042433Y-78835231D01*
X125053742Y-78828895D01*
X125065048Y-78823233D01*
X125076349Y-78818244D01*
X125087644Y-78813931D01*
X125098932Y-78810296D01*
X125110210Y-78807340D01*
X125121477Y-78805064D01*
X125132732Y-78803471D01*
X125143973Y-78802561D01*
X125155198Y-78802337D01*
X125166406Y-78802799D01*
X125177596Y-78803949D01*
X125188766Y-78805790D01*
X125199914Y-78808322D01*
X125211038Y-78811547D01*
X125218228Y-78814417D01*
X125225497Y-78818239D01*
X125232825Y-78822970D01*
X125240192Y-78828571D01*
X125254961Y-78842214D01*
X125269644Y-78858841D01*
X125284078Y-78878121D01*
X125298103Y-78899727D01*
X125311557Y-78923330D01*
X125324280Y-78948601D01*
X125336110Y-78975211D01*
X125346886Y-79002832D01*
X125356446Y-79031135D01*
X125364629Y-79059792D01*
X125371275Y-79088473D01*
X125376221Y-79116851D01*
X125379307Y-79144596D01*
X125380372Y-79171380D01*
X125380909Y-79178956D01*
X125382489Y-79187338D01*
X125385060Y-79196439D01*
X125388574Y-79206173D01*
X125392981Y-79216452D01*
X125398231Y-79227190D01*
X125404275Y-79238301D01*
X125411063Y-79249697D01*
X125418546Y-79261291D01*
X125426674Y-79272996D01*
X125435397Y-79284727D01*
X125444665Y-79296396D01*
X125454430Y-79307915D01*
X125464641Y-79319199D01*
X125475250Y-79330161D01*
X125486205Y-79340713D01*
X125497020Y-79351140D01*
X125507237Y-79361771D01*
X125516857Y-79372587D01*
X125525876Y-79383568D01*
X125534294Y-79394694D01*
X125542109Y-79405947D01*
X125549319Y-79417306D01*
X125555923Y-79428753D01*
X125561919Y-79440269D01*
X125567306Y-79451833D01*
X125572082Y-79463427D01*
X125576246Y-79475031D01*
X125579796Y-79486625D01*
X125582730Y-79498191D01*
X125585048Y-79509709D01*
X125586747Y-79521159D01*
X125587826Y-79532523D01*
X125588283Y-79543780D01*
X125588117Y-79554912D01*
X125587326Y-79565898D01*
X125585908Y-79576721D01*
X125583863Y-79587360D01*
X125581189Y-79597795D01*
X125577883Y-79608009D01*
X125573945Y-79617980D01*
X125569373Y-79627690D01*
X125564166Y-79637120D01*
X125558321Y-79646249D01*
X125551837Y-79655059D01*
X125544713Y-79663531D01*
X125536948Y-79671644D01*
X125528539Y-79679380D01*
X125520325Y-79684834D01*
X125510059Y-79690071D01*
X125497871Y-79695072D01*
X125483890Y-79699819D01*
X125468248Y-79704293D01*
X125451073Y-79708476D01*
X125432498Y-79712348D01*
X125412651Y-79715892D01*
X125369664Y-79721920D01*
X125323156Y-79726410D01*
X125274166Y-79729212D01*
X125223738Y-79730180D01*
X125151168Y-79731991D01*
X125116778Y-79734505D01*
X125082914Y-79738316D01*
X125049026Y-79743590D01*
X125014560Y-79750495D01*
X124978967Y-79759198D01*
X124941693Y-79769867D01*
X124902186Y-79782670D01*
X124859895Y-79797773D01*
X124814268Y-79815344D01*
X124764752Y-79835550D01*
X124651850Y-79884540D01*
X124516771Y-79946080D01*
X124430078Y-79986157D01*
X124352259Y-80022421D01*
X124282860Y-80055125D01*
X124221430Y-80084523D01*
X124167516Y-80110871D01*
X124120666Y-80134422D01*
X124099747Y-80145228D01*
X124080425Y-80155431D01*
X124062642Y-80165061D01*
X124046342Y-80174151D01*
X124031469Y-80182732D01*
X124017965Y-80190837D01*
X124005774Y-80198497D01*
X123994840Y-80205744D01*
X123985105Y-80212609D01*
X123976514Y-80219125D01*
X123969010Y-80225323D01*
X123962536Y-80231235D01*
X123957035Y-80236892D01*
X123952452Y-80242328D01*
X123948728Y-80247572D01*
X123945809Y-80252658D01*
X123943637Y-80257616D01*
X123942156Y-80262479D01*
X123941308Y-80267279D01*
X123941038Y-80272047D01*
X123943038Y-80275400D01*
X123948901Y-80280621D01*
X123971399Y-80296190D01*
X124006895Y-80317811D01*
X124053751Y-80344542D01*
X124110330Y-80375441D01*
X124174996Y-80409564D01*
X124246111Y-80445969D01*
X124322038Y-80483713D01*
X124376956Y-80509378D01*
X124427607Y-80532463D01*
X124474290Y-80553067D01*
X124517301Y-80571290D01*
X124556939Y-80587231D01*
X124593501Y-80600990D01*
X124627285Y-80612665D01*
X124658588Y-80622355D01*
X124687709Y-80630160D01*
X124714945Y-80636179D01*
X124740593Y-80640512D01*
X124764951Y-80643257D01*
X124788317Y-80644514D01*
X124810988Y-80644382D01*
X124833263Y-80642959D01*
X124855438Y-80640347D01*
X124872560Y-80637852D01*
X124889771Y-80635916D01*
X124907036Y-80634527D01*
X124924321Y-80633674D01*
X124941590Y-80633345D01*
X124958809Y-80633529D01*
X124975942Y-80634213D01*
X124992956Y-80635386D01*
X125009814Y-80637036D01*
X125026482Y-80639153D01*
X125042926Y-80641724D01*
X125059110Y-80644737D01*
X125074999Y-80648181D01*
X125090559Y-80652045D01*
X125105755Y-80656317D01*
X125120551Y-80660984D01*
X125134913Y-80666036D01*
X125148807Y-80671461D01*
X125162196Y-80677247D01*
X125175047Y-80683383D01*
X125187324Y-80689856D01*
X125198993Y-80696656D01*
X125210018Y-80703771D01*
X125220365Y-80711189D01*
X125229999Y-80718898D01*
X125238885Y-80726887D01*
X125246988Y-80735144D01*
X125254273Y-80743658D01*
X125260706Y-80752417D01*
X125266251Y-80761409D01*
X125270873Y-80770623D01*
X125274538Y-80780047D01*
X125277405Y-80789667D01*
X125279665Y-80799467D01*
X125281329Y-80809424D01*
X125282410Y-80819519D01*
X125282920Y-80829732D01*
X125282873Y-80840043D01*
X125282279Y-80850431D01*
X125281153Y-80860877D01*
X125279505Y-80871360D01*
X125277350Y-80881860D01*
X125274697Y-80892356D01*
X125271562Y-80902830D01*
X125267955Y-80913260D01*
X125263889Y-80923627D01*
X125259376Y-80933909D01*
X125254430Y-80944088D01*
X125249062Y-80954143D01*
X125243284Y-80964054D01*
X125237110Y-80973800D01*
X125230551Y-80983362D01*
X125223620Y-80992720D01*
X125216330Y-81001852D01*
X125208692Y-81010740D01*
X125200720Y-81019362D01*
X125192424Y-81027699D01*
X125183819Y-81035731D01*
X125174916Y-81043438D01*
X125165728Y-81050798D01*
X125156267Y-81057793D01*
X125146546Y-81064401D01*
X125136577Y-81070604D01*
X125126372Y-81076380D01*
X125117747Y-81081579D01*
X125109364Y-81087608D01*
X125101266Y-81094407D01*
X125093497Y-81101912D01*
X125086100Y-81110063D01*
X125079119Y-81118796D01*
X125072596Y-81128050D01*
X125066576Y-81137763D01*
X125061101Y-81147873D01*
X125056216Y-81158318D01*
X125051963Y-81169036D01*
X125048386Y-81179964D01*
X125045528Y-81191042D01*
X125043433Y-81202206D01*
X125042144Y-81213395D01*
X125041705Y-81224547D01*
X125041508Y-81238446D01*
X125040924Y-81252347D01*
X125038629Y-81280068D01*
X125034896Y-81307528D01*
X125029799Y-81334547D01*
X125023412Y-81360947D01*
X125015809Y-81386546D01*
X125007065Y-81411166D01*
X124997255Y-81434626D01*
X124986453Y-81456746D01*
X124980703Y-81467248D01*
X124974732Y-81477348D01*
X124968551Y-81487022D01*
X124962169Y-81496250D01*
X124955594Y-81505008D01*
X124948836Y-81513273D01*
X124941905Y-81521024D01*
X124934809Y-81528238D01*
X124927558Y-81534892D01*
X124920162Y-81540964D01*
X124912629Y-81546431D01*
X124904969Y-81551271D01*
X124897191Y-81555462D01*
X124889305Y-81558980D01*
X124880379Y-81561748D01*
X124871080Y-81563713D01*
X124861430Y-81564888D01*
X124851453Y-81565289D01*
X124841172Y-81564930D01*
X124830611Y-81563826D01*
X124819792Y-81561992D01*
X124808740Y-81559443D01*
X124797476Y-81556193D01*
X124786025Y-81552257D01*
X124774409Y-81547650D01*
X124762653Y-81542386D01*
X124738809Y-81529947D01*
X124714680Y-81515059D01*
X124690452Y-81497840D01*
X124666311Y-81478406D01*
X124642443Y-81456877D01*
X124619033Y-81433369D01*
X124596269Y-81408001D01*
X124574335Y-81380891D01*
X124553419Y-81352155D01*
X124533705Y-81321913D01*
X124523746Y-81306444D01*
X124511381Y-81290230D01*
X124496684Y-81273321D01*
X124479730Y-81255768D01*
X124460593Y-81237619D01*
X124439348Y-81218924D01*
X124416069Y-81199734D01*
X124390830Y-81180097D01*
X124363706Y-81160063D01*
X124334772Y-81139682D01*
X124271768Y-81098076D01*
X124202414Y-81055676D01*
X124127305Y-81012880D01*
X123792872Y-80835080D01*
X123644705Y-80949380D01*
X123606811Y-80977569D01*
X123569158Y-81003446D01*
X123531493Y-81027077D01*
X123493562Y-81048532D01*
X123455109Y-81067879D01*
X123415882Y-81085186D01*
X123375625Y-81100520D01*
X123334084Y-81113951D01*
X123291006Y-81125546D01*
X123246135Y-81135374D01*
X123199218Y-81143502D01*
X123150000Y-81150000D01*
X123098228Y-81154935D01*
X123043646Y-81158376D01*
X122986001Y-81160390D01*
X122925038Y-81161047D01*
X122865518Y-81160439D01*
X122809043Y-81158566D01*
X122755384Y-81155354D01*
X122704310Y-81150728D01*
X122655592Y-81144613D01*
X122609002Y-81136936D01*
X122564309Y-81127622D01*
X122521284Y-81116597D01*
X122479698Y-81103785D01*
X122439321Y-81089113D01*
X122399924Y-81072506D01*
X122361277Y-81053890D01*
X122323152Y-81033191D01*
X122285317Y-81010333D01*
X122247545Y-80985243D01*
X122209605Y-80957847D01*
X122069905Y-80852013D01*
X121769338Y-80995947D01*
X121728629Y-81016262D01*
X121690517Y-81036031D01*
X121654824Y-81055403D01*
X121621370Y-81074528D01*
X121589975Y-81093553D01*
X121560458Y-81112628D01*
X121532641Y-81131901D01*
X121506342Y-81151522D01*
X121481384Y-81171638D01*
X121457585Y-81192400D01*
X121434765Y-81213955D01*
X121412746Y-81236453D01*
X121391347Y-81260042D01*
X121370388Y-81284872D01*
X121349690Y-81311090D01*
X121329072Y-81338847D01*
X121304998Y-81370905D01*
X121281935Y-81400445D01*
X121259802Y-81427530D01*
X121238518Y-81452221D01*
X121218004Y-81474580D01*
X121198177Y-81494670D01*
X121178959Y-81512552D01*
X121160268Y-81528288D01*
X121142023Y-81541941D01*
X121133042Y-81548006D01*
X121124144Y-81553573D01*
X121115316Y-81558650D01*
X121106550Y-81563244D01*
X121097835Y-81567365D01*
X121089161Y-81571019D01*
X121080518Y-81574213D01*
X121071896Y-81576957D01*
X121063284Y-81579258D01*
X121054674Y-81581122D01*
X121046054Y-81582559D01*
X121037415Y-81583576D01*
X121028746Y-81584180D01*
X121020038Y-81584380D01*
X121012848Y-81583976D01*
X121005579Y-81582783D01*
X120998251Y-81580833D01*
X120990885Y-81578154D01*
X120983499Y-81574778D01*
X120976115Y-81570734D01*
X120968753Y-81566054D01*
X120961433Y-81560766D01*
X120946999Y-81548491D01*
X120932974Y-81534151D01*
X120919519Y-81517987D01*
X120906797Y-81500243D01*
X120894967Y-81481158D01*
X120884191Y-81460977D01*
X120874631Y-81439939D01*
X120866448Y-81418288D01*
X120859802Y-81396264D01*
X120854856Y-81374111D01*
X120851770Y-81352069D01*
X120850974Y-81341165D01*
X120850705Y-81330380D01*
X120850162Y-81315804D01*
X120848547Y-81300689D01*
X120845877Y-81285090D01*
X120842172Y-81269063D01*
X120837450Y-81252664D01*
X120831729Y-81235949D01*
X120825029Y-81218973D01*
X120817367Y-81201793D01*
X120808763Y-81184463D01*
X120799235Y-81167041D01*
X120788802Y-81149582D01*
X120777482Y-81132141D01*
X120765293Y-81114774D01*
X120752255Y-81097538D01*
X120738386Y-81080488D01*
X120723705Y-81063680D01*
X120702819Y-81039001D01*
X120683812Y-81014977D01*
X120666679Y-80991618D01*
X120651416Y-80968934D01*
X120638016Y-80946936D01*
X120626474Y-80925633D01*
X120616784Y-80905035D01*
X120608942Y-80885152D01*
X120602941Y-80865996D01*
X120598777Y-80847574D01*
X120598107Y-80842495D01*
X120730091Y-80842495D01*
X120730700Y-80850533D01*
X120732642Y-80859182D01*
X120735903Y-80868462D01*
X120740469Y-80878391D01*
X120746327Y-80888989D01*
X120753462Y-80900275D01*
X120761861Y-80912269D01*
X120771509Y-80924990D01*
X120782393Y-80938457D01*
X120807812Y-80967709D01*
X120838005Y-81000180D01*
X120849154Y-81012757D01*
X120860321Y-81026580D01*
X120871426Y-81041507D01*
X120882389Y-81057396D01*
X120893128Y-81074103D01*
X120903564Y-81091486D01*
X120913615Y-81109402D01*
X120923201Y-81127709D01*
X120932241Y-81146264D01*
X120940655Y-81164924D01*
X120948362Y-81183547D01*
X120955282Y-81201991D01*
X120961333Y-81220112D01*
X120966435Y-81237767D01*
X120970509Y-81254815D01*
X120973472Y-81271113D01*
X120976093Y-81286825D01*
X120979160Y-81302152D01*
X120982625Y-81317008D01*
X120986436Y-81331306D01*
X120990546Y-81344959D01*
X120994903Y-81357880D01*
X120999459Y-81369983D01*
X121004163Y-81381180D01*
X121008967Y-81391385D01*
X121013821Y-81400511D01*
X121016250Y-81404643D01*
X121018674Y-81408472D01*
X121021085Y-81411987D01*
X121023478Y-81415179D01*
X121025846Y-81418036D01*
X121028183Y-81420547D01*
X121030482Y-81422702D01*
X121032738Y-81424489D01*
X121034945Y-81425898D01*
X121037096Y-81426918D01*
X121039184Y-81427538D01*
X121041205Y-81427747D01*
X121043733Y-81427898D01*
X121046548Y-81427566D01*
X121049639Y-81426764D01*
X121052996Y-81425506D01*
X121060460Y-81421673D01*
X121068854Y-81416171D01*
X121078092Y-81409107D01*
X121088086Y-81400586D01*
X121098750Y-81390712D01*
X121109997Y-81379593D01*
X121121740Y-81367332D01*
X121133892Y-81354035D01*
X121146367Y-81339809D01*
X121159077Y-81324758D01*
X121184857Y-81292602D01*
X121210538Y-81258413D01*
X121227812Y-81235538D01*
X121246331Y-81212930D01*
X121266154Y-81190557D01*
X121287334Y-81168389D01*
X121309928Y-81146394D01*
X121333991Y-81124542D01*
X121359580Y-81102802D01*
X121386751Y-81081143D01*
X121415558Y-81059532D01*
X121446059Y-81037941D01*
X121478308Y-81016337D01*
X121512362Y-80994690D01*
X121548276Y-80972968D01*
X121586106Y-80951141D01*
X121625908Y-80929178D01*
X121667738Y-80907047D01*
X121732793Y-80871254D01*
X121793680Y-80837395D01*
X121849011Y-80806216D01*
X121897397Y-80778459D01*
X121937448Y-80754870D01*
X121967776Y-80736192D01*
X121978859Y-80728927D01*
X121986991Y-80723169D01*
X121991998Y-80719012D01*
X121993275Y-80717562D01*
X121993705Y-80716547D01*
X121993509Y-80714424D01*
X121992928Y-80711272D01*
X121990662Y-80702127D01*
X121987008Y-80689609D01*
X121982063Y-80674213D01*
X121975928Y-80656437D01*
X121968702Y-80636775D01*
X121960483Y-80615724D01*
X121951372Y-80593780D01*
X121947261Y-80582778D01*
X121942897Y-80572043D01*
X121938321Y-80561642D01*
X121933578Y-80551645D01*
X121928712Y-80542119D01*
X121923764Y-80533132D01*
X121918779Y-80524754D01*
X121913801Y-80517051D01*
X121908872Y-80510092D01*
X121906440Y-80506913D01*
X121904036Y-80503946D01*
X121901667Y-80501198D01*
X121899337Y-80498680D01*
X121897052Y-80496398D01*
X121894817Y-80494363D01*
X121892638Y-80492581D01*
X121890521Y-80491063D01*
X121888470Y-80489815D01*
X121886491Y-80488848D01*
X121884590Y-80488169D01*
X121882771Y-80487787D01*
X121881041Y-80487710D01*
X121879405Y-80487947D01*
X121874022Y-80488726D01*
X121865911Y-80491006D01*
X121842099Y-80499721D01*
X121809158Y-80513396D01*
X121768280Y-80531338D01*
X121667474Y-80577243D01*
X121549205Y-80631880D01*
X121465638Y-80670889D01*
X121427380Y-80687635D01*
X121391050Y-80702656D01*
X121356333Y-80716040D01*
X121322912Y-80727874D01*
X121290470Y-80738244D01*
X121258693Y-80747238D01*
X121227262Y-80754942D01*
X121195862Y-80761443D01*
X121164177Y-80766828D01*
X121131891Y-80771183D01*
X121098687Y-80774596D01*
X121064249Y-80777153D01*
X121028260Y-80778941D01*
X120990405Y-80780047D01*
X120937255Y-80780519D01*
X120890442Y-80782039D01*
X120849855Y-80784763D01*
X120831862Y-80786624D01*
X120815383Y-80788844D01*
X120800405Y-80791442D01*
X120786914Y-80794439D01*
X120774895Y-80797852D01*
X120764335Y-80801701D01*
X120755220Y-80806006D01*
X120747536Y-80810787D01*
X120741269Y-80816062D01*
X120736405Y-80821851D01*
X120732930Y-80828173D01*
X120730830Y-80835048D01*
X120730091Y-80842495D01*
X120598107Y-80842495D01*
X120596444Y-80829899D01*
X120595936Y-80812979D01*
X120597248Y-80796825D01*
X120600375Y-80781447D01*
X120605311Y-80766855D01*
X120612051Y-80753059D01*
X120620589Y-80740070D01*
X120630920Y-80727896D01*
X120643038Y-80716549D01*
X120656939Y-80706038D01*
X120672616Y-80696374D01*
X120690065Y-80687566D01*
X120709279Y-80679624D01*
X120730253Y-80672560D01*
X120752983Y-80666382D01*
X120777462Y-80661101D01*
X120803685Y-80656727D01*
X120831647Y-80653270D01*
X120861342Y-80650740D01*
X120892764Y-80649147D01*
X120925910Y-80648502D01*
X120960772Y-80648814D01*
X120996310Y-80649193D01*
X121030167Y-80648673D01*
X121062747Y-80647148D01*
X121094452Y-80644514D01*
X121125687Y-80640664D01*
X121156853Y-80635493D01*
X121188354Y-80628896D01*
X121220593Y-80620768D01*
X121253972Y-80611002D01*
X121288896Y-80599493D01*
X121325767Y-80586137D01*
X121364989Y-80570828D01*
X121452095Y-80533926D01*
X121553438Y-80487947D01*
X121589523Y-80470501D01*
X121624628Y-80453154D01*
X121658567Y-80436006D01*
X121691154Y-80419155D01*
X121722203Y-80402701D01*
X121751529Y-80386744D01*
X121778944Y-80371381D01*
X121804263Y-80356713D01*
X121827301Y-80342839D01*
X121847870Y-80329858D01*
X121865785Y-80317869D01*
X121880860Y-80306972D01*
X121892909Y-80297265D01*
X121897741Y-80292889D01*
X121901746Y-80288848D01*
X121904901Y-80285154D01*
X121907184Y-80281820D01*
X121908571Y-80278858D01*
X121909038Y-80276280D01*
X121906403Y-80270254D01*
X121898670Y-80261802D01*
X121886100Y-80251082D01*
X121868954Y-80238246D01*
X121821974Y-80206852D01*
X121759813Y-80168859D01*
X121684556Y-80125509D01*
X121598285Y-80078041D01*
X121503085Y-80027696D01*
X121401038Y-79975713D01*
X121245546Y-79897967D01*
X121179712Y-79865869D01*
X121120712Y-79837932D01*
X121067715Y-79813889D01*
X121019890Y-79793473D01*
X120976405Y-79776419D01*
X120936430Y-79762459D01*
X120899134Y-79751327D01*
X120863686Y-79742756D01*
X120829255Y-79736479D01*
X120795010Y-79732230D01*
X120760120Y-79729743D01*
X120723755Y-79728749D01*
X120685082Y-79728984D01*
X120643272Y-79730180D01*
X120592902Y-79731016D01*
X120546500Y-79730320D01*
X120524757Y-79729385D01*
X120503969Y-79728050D01*
X120484123Y-79726310D01*
X120465207Y-79724161D01*
X120447209Y-79721595D01*
X120430117Y-79718609D01*
X120413917Y-79715197D01*
X120398598Y-79711353D01*
X120384147Y-79707072D01*
X120370552Y-79702348D01*
X120357801Y-79697176D01*
X120345880Y-79691551D01*
X120334778Y-79685466D01*
X120324482Y-79678918D01*
X120314980Y-79671900D01*
X120306259Y-79664406D01*
X120298307Y-79656432D01*
X120291111Y-79647972D01*
X120284660Y-79639021D01*
X120278940Y-79629572D01*
X120273940Y-79619622D01*
X120269647Y-79609163D01*
X120266048Y-79598192D01*
X120263132Y-79586701D01*
X120260885Y-79574687D01*
X120259295Y-79562144D01*
X120258350Y-79549065D01*
X120258038Y-79535447D01*
X120258239Y-79531472D01*
X120393122Y-79531472D01*
X120393411Y-79539461D01*
X120395121Y-79546774D01*
X120398268Y-79553438D01*
X120402865Y-79559483D01*
X120408928Y-79564935D01*
X120416472Y-79569823D01*
X120425511Y-79574175D01*
X120436060Y-79578018D01*
X120448134Y-79581381D01*
X120461747Y-79584291D01*
X120476915Y-79586776D01*
X120511971Y-79590583D01*
X120553421Y-79593027D01*
X120601382Y-79594329D01*
X120655972Y-79594713D01*
X120741134Y-79596218D01*
X120779685Y-79598453D01*
X120816574Y-79601989D01*
X120852569Y-79607064D01*
X120888441Y-79613912D01*
X120924958Y-79622770D01*
X120962888Y-79633872D01*
X121003002Y-79647454D01*
X121046067Y-79663753D01*
X121092853Y-79683004D01*
X121144128Y-79705441D01*
X121263224Y-79760822D01*
X121409505Y-79831780D01*
X121497984Y-79874244D01*
X121576399Y-79911138D01*
X121645202Y-79942452D01*
X121704846Y-79968173D01*
X121731375Y-79978931D01*
X121755784Y-79988287D01*
X121778129Y-79996238D01*
X121798467Y-80002783D01*
X121816855Y-80007921D01*
X121833350Y-80011649D01*
X121848007Y-80013966D01*
X121860884Y-80014872D01*
X121872037Y-80014363D01*
X121881523Y-80012439D01*
X121889398Y-80009097D01*
X121892749Y-80006895D01*
X121895718Y-80004338D01*
X121898313Y-80001426D01*
X121900541Y-79998158D01*
X121903923Y-79990557D01*
X121905921Y-79981532D01*
X121906591Y-79971083D01*
X121905990Y-79959207D01*
X121904174Y-79945904D01*
X121901199Y-79931171D01*
X121897124Y-79915008D01*
X121892003Y-79897412D01*
X121885895Y-79878382D01*
X121870938Y-79836013D01*
X121863616Y-79820167D01*
X121854228Y-79804296D01*
X121842596Y-79788277D01*
X121828539Y-79771984D01*
X121811877Y-79755295D01*
X121792432Y-79738084D01*
X121770022Y-79720229D01*
X121744468Y-79701605D01*
X121717068Y-79683087D01*
X121973507Y-79683087D01*
X121973528Y-79684807D01*
X121973754Y-79686995D01*
X121974187Y-79689658D01*
X121974832Y-79692800D01*
X121975692Y-79696428D01*
X121976772Y-79700547D01*
X121983486Y-79725244D01*
X121990795Y-79763187D01*
X121998501Y-79812540D01*
X122006405Y-79871467D01*
X122014309Y-79938134D01*
X122022015Y-80010704D01*
X122036038Y-80166213D01*
X122041632Y-80240184D01*
X122047448Y-80306930D01*
X122053712Y-80367066D01*
X122060645Y-80421206D01*
X122068470Y-80469962D01*
X122072788Y-80492514D01*
X122077413Y-80513950D01*
X122082372Y-80534348D01*
X122087694Y-80553783D01*
X122093407Y-80572334D01*
X122099538Y-80590076D01*
X122106116Y-80607086D01*
X122113169Y-80623441D01*
X122120723Y-80639218D01*
X122128808Y-80654494D01*
X122137451Y-80669344D01*
X122146680Y-80683847D01*
X122156523Y-80698078D01*
X122167007Y-80712115D01*
X122178162Y-80726034D01*
X122190014Y-80739912D01*
X122215922Y-80767851D01*
X122244956Y-80796547D01*
X122277338Y-80826613D01*
X122307169Y-80852662D01*
X122337986Y-80876851D01*
X122369882Y-80899204D01*
X122402949Y-80919747D01*
X122437282Y-80938503D01*
X122472973Y-80955499D01*
X122510115Y-80970758D01*
X122548801Y-80984305D01*
X122589124Y-80996166D01*
X122631177Y-81006365D01*
X122675054Y-81014927D01*
X122720846Y-81021876D01*
X122768648Y-81027238D01*
X122818552Y-81031037D01*
X122870651Y-81033299D01*
X122925038Y-81034047D01*
X122979426Y-81033299D01*
X123031525Y-81031037D01*
X123081429Y-81027238D01*
X123129231Y-81021876D01*
X123175023Y-81014927D01*
X123218899Y-81006365D01*
X123260953Y-80996166D01*
X123301276Y-80984305D01*
X123339962Y-80970758D01*
X123377104Y-80955499D01*
X123412795Y-80938503D01*
X123447127Y-80919747D01*
X123480195Y-80899204D01*
X123512091Y-80876851D01*
X123542908Y-80852662D01*
X123572738Y-80826613D01*
X123606007Y-80795379D01*
X123636081Y-80764858D01*
X123663142Y-80734572D01*
X123685896Y-80705902D01*
X123860886Y-80705902D01*
X123861518Y-80710444D01*
X123862824Y-80714016D01*
X123864839Y-80716547D01*
X123874537Y-80723169D01*
X123896390Y-80736192D01*
X123971201Y-80778459D01*
X124078556Y-80837395D01*
X124207738Y-80907047D01*
X124250864Y-80930523D01*
X124291405Y-80953374D01*
X124329452Y-80975666D01*
X124365099Y-80997468D01*
X124398440Y-81018849D01*
X124429567Y-81039876D01*
X124458573Y-81060618D01*
X124485551Y-81081143D01*
X124510594Y-81101519D01*
X124533796Y-81121814D01*
X124555249Y-81142097D01*
X124575046Y-81162436D01*
X124593281Y-81182899D01*
X124610045Y-81203554D01*
X124625434Y-81224469D01*
X124639538Y-81245713D01*
X124649991Y-81262316D01*
X124660655Y-81278720D01*
X124671443Y-81294826D01*
X124682269Y-81310536D01*
X124693044Y-81325750D01*
X124703683Y-81340368D01*
X124714099Y-81354292D01*
X124724205Y-81367422D01*
X124733914Y-81379659D01*
X124743139Y-81390903D01*
X124751794Y-81401057D01*
X124759792Y-81410020D01*
X124767045Y-81417692D01*
X124773467Y-81423976D01*
X124778972Y-81428772D01*
X124783472Y-81431980D01*
X124788690Y-81434652D01*
X124794015Y-81436340D01*
X124799428Y-81437078D01*
X124804911Y-81436900D01*
X124810448Y-81435837D01*
X124816019Y-81433924D01*
X124821607Y-81431194D01*
X124827194Y-81427680D01*
X124832763Y-81423417D01*
X124838295Y-81418436D01*
X124849179Y-81406456D01*
X124859704Y-81392008D01*
X124869726Y-81375359D01*
X124879103Y-81356775D01*
X124887693Y-81336523D01*
X124895352Y-81314870D01*
X124901939Y-81292082D01*
X124907310Y-81268425D01*
X124911323Y-81244167D01*
X124913836Y-81219574D01*
X124914705Y-81194913D01*
X124915341Y-81183371D01*
X124917210Y-81171035D01*
X124920258Y-81158004D01*
X124924428Y-81144378D01*
X124929665Y-81130256D01*
X124935913Y-81115737D01*
X124943116Y-81100920D01*
X124951218Y-81085905D01*
X124960163Y-81070791D01*
X124969896Y-81055676D01*
X124980360Y-81040661D01*
X124991500Y-81025845D01*
X125003261Y-81011326D01*
X125015586Y-80997203D01*
X125028419Y-80983577D01*
X125041705Y-80970547D01*
X125054148Y-80958556D01*
X125066038Y-80946453D01*
X125077321Y-80934326D01*
X125087941Y-80922260D01*
X125097841Y-80910344D01*
X125106966Y-80898663D01*
X125115260Y-80887304D01*
X125122667Y-80876355D01*
X125129132Y-80865902D01*
X125134599Y-80856032D01*
X125139011Y-80846831D01*
X125140804Y-80842509D01*
X125142313Y-80838387D01*
X125143530Y-80834476D01*
X125144449Y-80830787D01*
X125145063Y-80827330D01*
X125145364Y-80824116D01*
X125145346Y-80821157D01*
X125145001Y-80818463D01*
X125144323Y-80816045D01*
X125143305Y-80813913D01*
X125139706Y-80810743D01*
X125133764Y-80807596D01*
X125125613Y-80804500D01*
X125115392Y-80801478D01*
X125103235Y-80798555D01*
X125089281Y-80795756D01*
X125056522Y-80790630D01*
X125018207Y-80786297D01*
X124975427Y-80782957D01*
X124929274Y-80780807D01*
X124880839Y-80780047D01*
X124845915Y-80779638D01*
X124812386Y-80778368D01*
X124779961Y-80776168D01*
X124748348Y-80772969D01*
X124717257Y-80768704D01*
X124686395Y-80763303D01*
X124655470Y-80756700D01*
X124624193Y-80748826D01*
X124592270Y-80739612D01*
X124559411Y-80728990D01*
X124525324Y-80716893D01*
X124489718Y-80703251D01*
X124452301Y-80687997D01*
X124412782Y-80671063D01*
X124326272Y-80631880D01*
X124263607Y-80602420D01*
X124203571Y-80574796D01*
X124147603Y-80549652D01*
X124097142Y-80527634D01*
X124053627Y-80509386D01*
X124018495Y-80495553D01*
X124004523Y-80490494D01*
X123993186Y-80486781D01*
X123984665Y-80484494D01*
X123979138Y-80483713D01*
X123975386Y-80484321D01*
X123971297Y-80486096D01*
X123966905Y-80488963D01*
X123962246Y-80492850D01*
X123952266Y-80503387D01*
X123941634Y-80517117D01*
X123930630Y-80533452D01*
X123919533Y-80551802D01*
X123908622Y-80571579D01*
X123898176Y-80592192D01*
X123888474Y-80613054D01*
X123879796Y-80633575D01*
X123872419Y-80653165D01*
X123866624Y-80671237D01*
X123862690Y-80687200D01*
X123860895Y-80700465D01*
X123860886Y-80705902D01*
X123685896Y-80705902D01*
X123687369Y-80704045D01*
X123708942Y-80672798D01*
X123728041Y-80640355D01*
X123744845Y-80606237D01*
X123759534Y-80569968D01*
X123772289Y-80531069D01*
X123783289Y-80489063D01*
X123792714Y-80443473D01*
X123800743Y-80393821D01*
X123807557Y-80339630D01*
X123813336Y-80280423D01*
X123818259Y-80215720D01*
X123822505Y-80145047D01*
X123827640Y-80070732D01*
X123833419Y-79998203D01*
X123836273Y-79966850D01*
X123944213Y-79966850D01*
X123945066Y-79977025D01*
X123947264Y-79985823D01*
X123950864Y-79993241D01*
X123955921Y-79999278D01*
X123962491Y-80003931D01*
X123970630Y-80007201D01*
X123980394Y-80009084D01*
X123991838Y-80009580D01*
X124005019Y-80008687D01*
X124019992Y-80006403D01*
X124055537Y-79997657D01*
X124098920Y-79983330D01*
X124150588Y-79963410D01*
X124210988Y-79937884D01*
X124280565Y-79906740D01*
X124449038Y-79827547D01*
X124594625Y-79759201D01*
X124657398Y-79730604D01*
X124714415Y-79705441D01*
X124766373Y-79683504D01*
X124813965Y-79664580D01*
X124857886Y-79648459D01*
X124898830Y-79634930D01*
X124937492Y-79623782D01*
X124974567Y-79614805D01*
X125010749Y-79607787D01*
X125046732Y-79602519D01*
X125083212Y-79598788D01*
X125120882Y-79596384D01*
X125160437Y-79595096D01*
X125202572Y-79594713D01*
X125255073Y-79594151D01*
X125301510Y-79592398D01*
X125322481Y-79591044D01*
X125341968Y-79589356D01*
X125359983Y-79587319D01*
X125376535Y-79584924D01*
X125391637Y-79582156D01*
X125405298Y-79579004D01*
X125417531Y-79575455D01*
X125428344Y-79571496D01*
X125437750Y-79567116D01*
X125445759Y-79562302D01*
X125452382Y-79557041D01*
X125457630Y-79551322D01*
X125461514Y-79545131D01*
X125464044Y-79538456D01*
X125465232Y-79531286D01*
X125465088Y-79523606D01*
X125463623Y-79515406D01*
X125460848Y-79506673D01*
X125456774Y-79497394D01*
X125451412Y-79487557D01*
X125444773Y-79477149D01*
X125436866Y-79466159D01*
X125427704Y-79454573D01*
X125417298Y-79442379D01*
X125405657Y-79429566D01*
X125392793Y-79416120D01*
X125363438Y-79387280D01*
X125352337Y-79376286D01*
X125341304Y-79364022D01*
X125330408Y-79350603D01*
X125319716Y-79336149D01*
X125309297Y-79320778D01*
X125299219Y-79304606D01*
X125289551Y-79287752D01*
X125280359Y-79270334D01*
X125271714Y-79252470D01*
X125263682Y-79234276D01*
X125256333Y-79215872D01*
X125249734Y-79197375D01*
X125243953Y-79178903D01*
X125239060Y-79160573D01*
X125235121Y-79142504D01*
X125232205Y-79124813D01*
X125228064Y-79101372D01*
X125223580Y-79079469D01*
X125218761Y-79059102D01*
X125213610Y-79040270D01*
X125208134Y-79022974D01*
X125202337Y-79007211D01*
X125196226Y-78992982D01*
X125189806Y-78980284D01*
X125183081Y-78969119D01*
X125176059Y-78959485D01*
X125168743Y-78951381D01*
X125161140Y-78944806D01*
X125153254Y-78939759D01*
X125145092Y-78936241D01*
X125136659Y-78934249D01*
X125127959Y-78933784D01*
X125118999Y-78934844D01*
X125109785Y-78937429D01*
X125100320Y-78941538D01*
X125090612Y-78947170D01*
X125080664Y-78954325D01*
X125070484Y-78963001D01*
X125060075Y-78973198D01*
X125049444Y-78984915D01*
X125038596Y-78998151D01*
X125027536Y-79012906D01*
X125016271Y-79029179D01*
X125004804Y-79046968D01*
X124993142Y-79066274D01*
X124981290Y-79087095D01*
X124969254Y-79109430D01*
X124957038Y-79133280D01*
X124942728Y-79158533D01*
X124928083Y-79182112D01*
X124912669Y-79204327D01*
X124896052Y-79225487D01*
X124877798Y-79245903D01*
X124857473Y-79265886D01*
X124834642Y-79285744D01*
X124808872Y-79305788D01*
X124779728Y-79326329D01*
X124746777Y-79347675D01*
X124709585Y-79370138D01*
X124667717Y-79394027D01*
X124568217Y-79447324D01*
X124444805Y-79510047D01*
X124387625Y-79539287D01*
X124335028Y-79566767D01*
X124286833Y-79592609D01*
X124242862Y-79616938D01*
X124202934Y-79639879D01*
X124166869Y-79661554D01*
X124134487Y-79682088D01*
X124105609Y-79701605D01*
X124080055Y-79720229D01*
X124068469Y-79729245D01*
X124057645Y-79738084D01*
X124047563Y-79746762D01*
X124038199Y-79755295D01*
X124029532Y-79763697D01*
X124021538Y-79771984D01*
X124014195Y-79780172D01*
X124007481Y-79788277D01*
X124001373Y-79796313D01*
X123995848Y-79804296D01*
X123990885Y-79812243D01*
X123986461Y-79820167D01*
X123982553Y-79828086D01*
X123979138Y-79836013D01*
X123964231Y-79876939D01*
X123953143Y-79912395D01*
X123946322Y-79942369D01*
X123944213Y-79966850D01*
X123836273Y-79966850D01*
X123839695Y-79929246D01*
X123846318Y-79865647D01*
X123853139Y-79809191D01*
X123860010Y-79761665D01*
X123866781Y-79724855D01*
X123870084Y-79711027D01*
X123873305Y-79700547D01*
X123875245Y-79692800D01*
X123876323Y-79686995D01*
X123876570Y-79683087D01*
X123876392Y-79681831D01*
X123876017Y-79681034D01*
X123875450Y-79680689D01*
X123874695Y-79680791D01*
X123872635Y-79682315D01*
X123869869Y-79685564D01*
X123866426Y-79690492D01*
X123862338Y-79697059D01*
X123857637Y-79705218D01*
X123846516Y-79726145D01*
X123833312Y-79752926D01*
X123818272Y-79785213D01*
X123809500Y-79803440D01*
X123800685Y-79823073D01*
X123783148Y-79865845D01*
X123766107Y-79912089D01*
X123750009Y-79960367D01*
X123735300Y-80009241D01*
X123722426Y-80057271D01*
X123711835Y-80103019D01*
X123703972Y-80145047D01*
X123697482Y-80186673D01*
X123690552Y-80224455D01*
X123682940Y-80258714D01*
X123674405Y-80289774D01*
X123669715Y-80304205D01*
X123664703Y-80317956D01*
X123659339Y-80331069D01*
X123653593Y-80343583D01*
X123647435Y-80355540D01*
X123640834Y-80366978D01*
X123633761Y-80377940D01*
X123626184Y-80388463D01*
X123618074Y-80398590D01*
X123609401Y-80408361D01*
X123600133Y-80417815D01*
X123590242Y-80426993D01*
X123579697Y-80435936D01*
X123568467Y-80444683D01*
X123556522Y-80453275D01*
X123543833Y-80461753D01*
X123516098Y-80478525D01*
X123485021Y-80495322D01*
X123450359Y-80512466D01*
X123411872Y-80530280D01*
X123365125Y-80548883D01*
X123312736Y-80565006D01*
X123255509Y-80578649D01*
X123194252Y-80589811D01*
X123129770Y-80598493D01*
X123062870Y-80604694D01*
X122994357Y-80608415D01*
X122925038Y-80609655D01*
X122855720Y-80608415D01*
X122787207Y-80604694D01*
X122720307Y-80598493D01*
X122655825Y-80589811D01*
X122594568Y-80578649D01*
X122537341Y-80565006D01*
X122484952Y-80548883D01*
X122438205Y-80530280D01*
X122399717Y-80512466D01*
X122365056Y-80495322D01*
X122333979Y-80478525D01*
X122306244Y-80461753D01*
X122281610Y-80444683D01*
X122270380Y-80435936D01*
X122259834Y-80426993D01*
X122249943Y-80417815D01*
X122240676Y-80408361D01*
X122232002Y-80398590D01*
X122223893Y-80388463D01*
X122216316Y-80377940D01*
X122209242Y-80366978D01*
X122202641Y-80355540D01*
X122196483Y-80343583D01*
X122190738Y-80331069D01*
X122185374Y-80317956D01*
X122175672Y-80289774D01*
X122167136Y-80258714D01*
X122159524Y-80224455D01*
X122152595Y-80186673D01*
X122146105Y-80145047D01*
X122142543Y-80124588D01*
X122138242Y-80103019D01*
X122127650Y-80057271D01*
X122114777Y-80009241D01*
X122100068Y-79960367D01*
X122083969Y-79912089D01*
X122066929Y-79865845D01*
X122049392Y-79823073D01*
X122040577Y-79803440D01*
X122031805Y-79785213D01*
X122024071Y-79768403D01*
X122016765Y-79752926D01*
X122009918Y-79738826D01*
X122003561Y-79726145D01*
X122003182Y-79725417D01*
X122112768Y-79725417D01*
X122113490Y-79738641D01*
X122116067Y-79756696D01*
X122120516Y-79779898D01*
X122126857Y-79808563D01*
X122145287Y-79883547D01*
X122171505Y-79984180D01*
X122207125Y-80122805D01*
X122235005Y-80224819D01*
X122246229Y-80262313D01*
X122255742Y-80290915D01*
X122263617Y-80310711D01*
X122266964Y-80317334D01*
X122269930Y-80321788D01*
X122272524Y-80324085D01*
X122274755Y-80324234D01*
X122276632Y-80322246D01*
X122278165Y-80318134D01*
X122279217Y-80310741D01*
X122336669Y-80310741D01*
X122336764Y-80314358D01*
X122337023Y-80318154D01*
X122337448Y-80322127D01*
X122338802Y-80330603D01*
X122340838Y-80339780D01*
X122341321Y-80343363D01*
X122341971Y-80346965D01*
X122342782Y-80350579D01*
X122343749Y-80354200D01*
X122344864Y-80357820D01*
X122346122Y-80361435D01*
X122347516Y-80365036D01*
X122349040Y-80368620D01*
X122352455Y-80375706D01*
X122356316Y-80382643D01*
X122360575Y-80389381D01*
X122365180Y-80395872D01*
X122370083Y-80402065D01*
X122375234Y-80407910D01*
X122380584Y-80413359D01*
X122386082Y-80418361D01*
X122391680Y-80422867D01*
X122397327Y-80426828D01*
X122400154Y-80428588D01*
X122402974Y-80430193D01*
X122405782Y-80431637D01*
X122408572Y-80432913D01*
X122412081Y-80434005D01*
X122415465Y-80434899D01*
X122418722Y-80435596D01*
X122421850Y-80436097D01*
X122424848Y-80436402D01*
X122427715Y-80436513D01*
X122430448Y-80436430D01*
X122433046Y-80436154D01*
X122435507Y-80435686D01*
X122437831Y-80435027D01*
X122440015Y-80434177D01*
X122442058Y-80433137D01*
X122443958Y-80431907D01*
X122445715Y-80430490D01*
X122447325Y-80428884D01*
X122448788Y-80427092D01*
X122450103Y-80425114D01*
X122451267Y-80422951D01*
X122452279Y-80420603D01*
X122453137Y-80418072D01*
X122453841Y-80415357D01*
X122454388Y-80412461D01*
X122454777Y-80409383D01*
X122455006Y-80406124D01*
X122455074Y-80402686D01*
X122454979Y-80399068D01*
X122454720Y-80395273D01*
X122454671Y-80394813D01*
X122501705Y-80394813D01*
X122501948Y-80403584D01*
X122502656Y-80412392D01*
X122503798Y-80421175D01*
X122505343Y-80429871D01*
X122507260Y-80438418D01*
X122509518Y-80446754D01*
X122512087Y-80454818D01*
X122514934Y-80462547D01*
X122518030Y-80469879D01*
X122521342Y-80476752D01*
X122524841Y-80483104D01*
X122528494Y-80488873D01*
X122532272Y-80493997D01*
X122534197Y-80496298D01*
X122536142Y-80498414D01*
X122538103Y-80500338D01*
X122540075Y-80502062D01*
X122542055Y-80503579D01*
X122544038Y-80504880D01*
X122546395Y-80506307D01*
X122548700Y-80507418D01*
X122550952Y-80508219D01*
X122553150Y-80508716D01*
X122555292Y-80508916D01*
X122557377Y-80508824D01*
X122559403Y-80508447D01*
X122561369Y-80507790D01*
X122563272Y-80506861D01*
X122565112Y-80505665D01*
X122566887Y-80504209D01*
X122568595Y-80502499D01*
X122570235Y-80500540D01*
X122571805Y-80498340D01*
X122574730Y-80493238D01*
X122577357Y-80487244D01*
X122579674Y-80480406D01*
X122580349Y-80477827D01*
X122653576Y-80477827D01*
X122653650Y-80481693D01*
X122653874Y-80485403D01*
X122654246Y-80488957D01*
X122654767Y-80492354D01*
X122655436Y-80495592D01*
X122656255Y-80498672D01*
X122657222Y-80501592D01*
X122658338Y-80504351D01*
X122659603Y-80506949D01*
X122661017Y-80509385D01*
X122662580Y-80511659D01*
X122664292Y-80513769D01*
X122666152Y-80515714D01*
X122668161Y-80517494D01*
X122670319Y-80519109D01*
X122672626Y-80520557D01*
X122675082Y-80521837D01*
X122677686Y-80522949D01*
X122680439Y-80523893D01*
X122683342Y-80524666D01*
X122686393Y-80525269D01*
X122689592Y-80525701D01*
X122692941Y-80525960D01*
X122696438Y-80526047D01*
X122699588Y-80525936D01*
X122702685Y-80525608D01*
X122705726Y-80525067D01*
X122708708Y-80524319D01*
X122711629Y-80523369D01*
X122714484Y-80522224D01*
X122717271Y-80520888D01*
X122719986Y-80519366D01*
X122722627Y-80517665D01*
X122725191Y-80515789D01*
X122727674Y-80513744D01*
X122730073Y-80511536D01*
X122732386Y-80509170D01*
X122734609Y-80506651D01*
X122738772Y-80501176D01*
X122742538Y-80495156D01*
X122745882Y-80488633D01*
X122748780Y-80481652D01*
X122751207Y-80474255D01*
X122753064Y-80466780D01*
X122798038Y-80466780D01*
X122798318Y-80478662D01*
X122799137Y-80489705D01*
X122800463Y-80499912D01*
X122802264Y-80509287D01*
X122804508Y-80517834D01*
X122807163Y-80525558D01*
X122810199Y-80532461D01*
X122813583Y-80538548D01*
X122817283Y-80543823D01*
X122821267Y-80548289D01*
X122825504Y-80551951D01*
X122829962Y-80554812D01*
X122834609Y-80556876D01*
X122839414Y-80558147D01*
X122844344Y-80558629D01*
X122849368Y-80558326D01*
X122854453Y-80557241D01*
X122859569Y-80555379D01*
X122864684Y-80552744D01*
X122869765Y-80549338D01*
X122874781Y-80545167D01*
X122879701Y-80540234D01*
X122884491Y-80534543D01*
X122889121Y-80528097D01*
X122893559Y-80520901D01*
X122897773Y-80512959D01*
X122901731Y-80504274D01*
X122905401Y-80494851D01*
X122908752Y-80484692D01*
X122911752Y-80473803D01*
X122914288Y-80462547D01*
X122967372Y-80462547D01*
X122967433Y-80468065D01*
X122967615Y-80473502D01*
X122967912Y-80478853D01*
X122968322Y-80484110D01*
X122968841Y-80489269D01*
X122969465Y-80494322D01*
X122970189Y-80499263D01*
X122971010Y-80504086D01*
X122971924Y-80508786D01*
X122972927Y-80513355D01*
X122974015Y-80517788D01*
X122975185Y-80522078D01*
X122976432Y-80526219D01*
X122977753Y-80530206D01*
X122979144Y-80534031D01*
X122980601Y-80537688D01*
X122982119Y-80541172D01*
X122983696Y-80544477D01*
X122985327Y-80547595D01*
X122987009Y-80550521D01*
X122988737Y-80553248D01*
X122990507Y-80555771D01*
X122992317Y-80558083D01*
X122994161Y-80560178D01*
X122996036Y-80562050D01*
X122997938Y-80563692D01*
X122999864Y-80565098D01*
X123001809Y-80566263D01*
X123003769Y-80567180D01*
X123005741Y-80567842D01*
X123007721Y-80568245D01*
X123009705Y-80568380D01*
X123012061Y-80568245D01*
X123014366Y-80567842D01*
X123016618Y-80567180D01*
X123018817Y-80566263D01*
X123020959Y-80565098D01*
X123023044Y-80563692D01*
X123025070Y-80562050D01*
X123027035Y-80560178D01*
X123030779Y-80555771D01*
X123034262Y-80550521D01*
X123037472Y-80544477D01*
X123040397Y-80537688D01*
X123043024Y-80530206D01*
X123045341Y-80522078D01*
X123047336Y-80513355D01*
X123048996Y-80504086D01*
X123050308Y-80494322D01*
X123051261Y-80484110D01*
X123051842Y-80473502D01*
X123052038Y-80462547D01*
X123051989Y-80457029D01*
X123051842Y-80451591D01*
X123051599Y-80446241D01*
X123051261Y-80440983D01*
X123050830Y-80435825D01*
X123050308Y-80430772D01*
X123049696Y-80425831D01*
X123048996Y-80421007D01*
X123048208Y-80416308D01*
X123047336Y-80411738D01*
X123046924Y-80409831D01*
X123100992Y-80409831D01*
X123101028Y-80413433D01*
X123101228Y-80417123D01*
X123101595Y-80420895D01*
X123102131Y-80424749D01*
X123102839Y-80428680D01*
X123105041Y-80438328D01*
X123107658Y-80447427D01*
X123110658Y-80455973D01*
X123114009Y-80463961D01*
X123117679Y-80471387D01*
X123121637Y-80478249D01*
X123125851Y-80484542D01*
X123130289Y-80490262D01*
X123134919Y-80495405D01*
X123139710Y-80499968D01*
X123144629Y-80503946D01*
X123149645Y-80507336D01*
X123154726Y-80510133D01*
X123159841Y-80512335D01*
X123164957Y-80513936D01*
X123170043Y-80514934D01*
X123175066Y-80515324D01*
X123179996Y-80515103D01*
X123184801Y-80514266D01*
X123189448Y-80512809D01*
X123193906Y-80510730D01*
X123198143Y-80508023D01*
X123202128Y-80504685D01*
X123205827Y-80500713D01*
X123209211Y-80496102D01*
X123212247Y-80490848D01*
X123214902Y-80484947D01*
X123217147Y-80478397D01*
X123218947Y-80471192D01*
X123220273Y-80463329D01*
X123221092Y-80454804D01*
X123221372Y-80445613D01*
X123221297Y-80440889D01*
X123221076Y-80436243D01*
X123220709Y-80431682D01*
X123220198Y-80427208D01*
X123219785Y-80424447D01*
X123263705Y-80424447D01*
X123263754Y-80429940D01*
X123263901Y-80435303D01*
X123264144Y-80440529D01*
X123264482Y-80445613D01*
X123264913Y-80450548D01*
X123265435Y-80455328D01*
X123266047Y-80459947D01*
X123266748Y-80464399D01*
X123267535Y-80468677D01*
X123268408Y-80472774D01*
X123269364Y-80476686D01*
X123270402Y-80480406D01*
X123271521Y-80483927D01*
X123272719Y-80487244D01*
X123273995Y-80490350D01*
X123275347Y-80493238D01*
X123276773Y-80495904D01*
X123278272Y-80498340D01*
X123279842Y-80500540D01*
X123281482Y-80502499D01*
X123283190Y-80504209D01*
X123284965Y-80505665D01*
X123286805Y-80506861D01*
X123288708Y-80507790D01*
X123290674Y-80508447D01*
X123292700Y-80508824D01*
X123294784Y-80508916D01*
X123296927Y-80508716D01*
X123299125Y-80508219D01*
X123301377Y-80507418D01*
X123303682Y-80506307D01*
X123306038Y-80504880D01*
X123308394Y-80503579D01*
X123310699Y-80502062D01*
X123315150Y-80498414D01*
X123319377Y-80493997D01*
X123323368Y-80488873D01*
X123327112Y-80483104D01*
X123330595Y-80476752D01*
X123333805Y-80469879D01*
X123336730Y-80462547D01*
X123339357Y-80454818D01*
X123341674Y-80446754D01*
X123343669Y-80438418D01*
X123345329Y-80429871D01*
X123346642Y-80421175D01*
X123347595Y-80412392D01*
X123348175Y-80403584D01*
X123348372Y-80394813D01*
X123348322Y-80390858D01*
X123348175Y-80386934D01*
X123347932Y-80383047D01*
X123347595Y-80379203D01*
X123347164Y-80375409D01*
X123346642Y-80371671D01*
X123346030Y-80367994D01*
X123345329Y-80364386D01*
X123344542Y-80360853D01*
X123343669Y-80357400D01*
X123342713Y-80354034D01*
X123341740Y-80350967D01*
X123433458Y-80350967D01*
X123433639Y-80358643D01*
X123434097Y-80366238D01*
X123434828Y-80373710D01*
X123435827Y-80381014D01*
X123437090Y-80388107D01*
X123438611Y-80394946D01*
X123440387Y-80401487D01*
X123442412Y-80407687D01*
X123444683Y-80413503D01*
X123447194Y-80418891D01*
X123449940Y-80423807D01*
X123452917Y-80428209D01*
X123456121Y-80432053D01*
X123459546Y-80435295D01*
X123463189Y-80437892D01*
X123467043Y-80439801D01*
X123471106Y-80440978D01*
X123475372Y-80441380D01*
X123477728Y-80441245D01*
X123480033Y-80440843D01*
X123482285Y-80440180D01*
X123484483Y-80439264D01*
X123486625Y-80438099D01*
X123488710Y-80436692D01*
X123490736Y-80435050D01*
X123492702Y-80433178D01*
X123496445Y-80428771D01*
X123499928Y-80423521D01*
X123503138Y-80417477D01*
X123506063Y-80410688D01*
X123508691Y-80403206D01*
X123511008Y-80395078D01*
X123513002Y-80386355D01*
X123514662Y-80377086D01*
X123515975Y-80367321D01*
X123516928Y-80357110D01*
X123517509Y-80346502D01*
X123517705Y-80335547D01*
X123517599Y-80316041D01*
X123517250Y-80298761D01*
X123516617Y-80283652D01*
X123516179Y-80276894D01*
X123515654Y-80270657D01*
X123515037Y-80264936D01*
X123514320Y-80259722D01*
X123513500Y-80255008D01*
X123512570Y-80250789D01*
X123511526Y-80247056D01*
X123510362Y-80243803D01*
X123509072Y-80241023D01*
X123507651Y-80238709D01*
X123506093Y-80236854D01*
X123504394Y-80235450D01*
X123503490Y-80234916D01*
X123502548Y-80234492D01*
X123501568Y-80234177D01*
X123500549Y-80233971D01*
X123498391Y-80233882D01*
X123496070Y-80234216D01*
X123493580Y-80234968D01*
X123490916Y-80236129D01*
X123488072Y-80237694D01*
X123485043Y-80239655D01*
X123481822Y-80242005D01*
X123478406Y-80244736D01*
X123474789Y-80247844D01*
X123470964Y-80251319D01*
X123462672Y-80259346D01*
X123458479Y-80263593D01*
X123454629Y-80268367D01*
X123451117Y-80273625D01*
X123447938Y-80279323D01*
X123445088Y-80285417D01*
X123442561Y-80291865D01*
X123440355Y-80298624D01*
X123438462Y-80305649D01*
X123436880Y-80312897D01*
X123435604Y-80320325D01*
X123434628Y-80327889D01*
X123433948Y-80335547D01*
X123433560Y-80343254D01*
X123433458Y-80350967D01*
X123341740Y-80350967D01*
X123341674Y-80350760D01*
X123340555Y-80347586D01*
X123339357Y-80344518D01*
X123338082Y-80341561D01*
X123336730Y-80338722D01*
X123335304Y-80336007D01*
X123333805Y-80333422D01*
X123332235Y-80330973D01*
X123330595Y-80328668D01*
X123328887Y-80326511D01*
X123327112Y-80324509D01*
X123325272Y-80322668D01*
X123323368Y-80320995D01*
X123321403Y-80319495D01*
X123319377Y-80318175D01*
X123317292Y-80317041D01*
X123315150Y-80316100D01*
X123312952Y-80315357D01*
X123310699Y-80314818D01*
X123308394Y-80314491D01*
X123306038Y-80314380D01*
X123304055Y-80314528D01*
X123302075Y-80314965D01*
X123300103Y-80315685D01*
X123298142Y-80316679D01*
X123296197Y-80317939D01*
X123294272Y-80319459D01*
X123290494Y-80323244D01*
X123286841Y-80327971D01*
X123283342Y-80333579D01*
X123280030Y-80340005D01*
X123276934Y-80347188D01*
X123274087Y-80355066D01*
X123271518Y-80363576D01*
X123269260Y-80372657D01*
X123267343Y-80382246D01*
X123265798Y-80392281D01*
X123264656Y-80402701D01*
X123263948Y-80413444D01*
X123263705Y-80424447D01*
X123219785Y-80424447D01*
X123219544Y-80422828D01*
X123218749Y-80418545D01*
X123217814Y-80414365D01*
X123216741Y-80410291D01*
X123215532Y-80406330D01*
X123214189Y-80402484D01*
X123212711Y-80398760D01*
X123211103Y-80395161D01*
X123209363Y-80391692D01*
X123207496Y-80388358D01*
X123205501Y-80385163D01*
X123203380Y-80382113D01*
X123201135Y-80379212D01*
X123198768Y-80376464D01*
X123196280Y-80373874D01*
X123193673Y-80371447D01*
X123190948Y-80369188D01*
X123188107Y-80367100D01*
X123185150Y-80365189D01*
X123182081Y-80363460D01*
X123178900Y-80361917D01*
X123175609Y-80360564D01*
X123172210Y-80359407D01*
X123168703Y-80358450D01*
X123165091Y-80357697D01*
X123161375Y-80357153D01*
X123157557Y-80356824D01*
X123153638Y-80356713D01*
X123150117Y-80356799D01*
X123146696Y-80357056D01*
X123143380Y-80357481D01*
X123140169Y-80358069D01*
X123137068Y-80358819D01*
X123134077Y-80359727D01*
X123131199Y-80360790D01*
X123128437Y-80362005D01*
X123125792Y-80363369D01*
X123123268Y-80364878D01*
X123120866Y-80366530D01*
X123118589Y-80368322D01*
X123116439Y-80370250D01*
X123114419Y-80372311D01*
X123112530Y-80374503D01*
X123110776Y-80376822D01*
X123109158Y-80379264D01*
X123107678Y-80381828D01*
X123106340Y-80384509D01*
X123105145Y-80387306D01*
X123104096Y-80390214D01*
X123103195Y-80393230D01*
X123102444Y-80396352D01*
X123101846Y-80399576D01*
X123101403Y-80402899D01*
X123101118Y-80406319D01*
X123100992Y-80409831D01*
X123046924Y-80409831D01*
X123046379Y-80407306D01*
X123045341Y-80403015D01*
X123044222Y-80398874D01*
X123043024Y-80394888D01*
X123041748Y-80391063D01*
X123040397Y-80387405D01*
X123038971Y-80383921D01*
X123037472Y-80380617D01*
X123035901Y-80377499D01*
X123034262Y-80374573D01*
X123032553Y-80371845D01*
X123030779Y-80369322D01*
X123028939Y-80367010D01*
X123027035Y-80364915D01*
X123025070Y-80363044D01*
X123023044Y-80361401D01*
X123020959Y-80359995D01*
X123018817Y-80358830D01*
X123016618Y-80357913D01*
X123014366Y-80357251D01*
X123012061Y-80356849D01*
X123009705Y-80356713D01*
X123007721Y-80356849D01*
X123005741Y-80357251D01*
X123003769Y-80357913D01*
X123001809Y-80358830D01*
X122999864Y-80359995D01*
X122997938Y-80361401D01*
X122994161Y-80364915D01*
X122990507Y-80369322D01*
X122987009Y-80374573D01*
X122983696Y-80380617D01*
X122980601Y-80387405D01*
X122977753Y-80394888D01*
X122975185Y-80403015D01*
X122972927Y-80411738D01*
X122971010Y-80421007D01*
X122969465Y-80430772D01*
X122968322Y-80440983D01*
X122967615Y-80451591D01*
X122967372Y-80462547D01*
X122914288Y-80462547D01*
X122914369Y-80462186D01*
X122916572Y-80449847D01*
X122917291Y-80443993D01*
X122917861Y-80438336D01*
X122918283Y-80432877D01*
X122918556Y-80427613D01*
X122918680Y-80422545D01*
X122918655Y-80417672D01*
X122918482Y-80412992D01*
X122918159Y-80408505D01*
X122917688Y-80404211D01*
X122917068Y-80400108D01*
X122916299Y-80396196D01*
X122915381Y-80392473D01*
X122914314Y-80388940D01*
X122913099Y-80385595D01*
X122911735Y-80382438D01*
X122910222Y-80379467D01*
X122908560Y-80376683D01*
X122906749Y-80374084D01*
X122904790Y-80371669D01*
X122902681Y-80369438D01*
X122900424Y-80367390D01*
X122898018Y-80365524D01*
X122895463Y-80363839D01*
X122892759Y-80362336D01*
X122889907Y-80361012D01*
X122886905Y-80359866D01*
X122883755Y-80358900D01*
X122880456Y-80358111D01*
X122877008Y-80357498D01*
X122873412Y-80357061D01*
X122869666Y-80356800D01*
X122865772Y-80356713D01*
X122861480Y-80356825D01*
X122857337Y-80357159D01*
X122853341Y-80357714D01*
X122849492Y-80358491D01*
X122845788Y-80359488D01*
X122842229Y-80360704D01*
X122838814Y-80362138D01*
X122835543Y-80363791D01*
X122832414Y-80365660D01*
X122829428Y-80367746D01*
X122826582Y-80370047D01*
X122823877Y-80372563D01*
X122821311Y-80375293D01*
X122818884Y-80378236D01*
X122816594Y-80381392D01*
X122814443Y-80384759D01*
X122810547Y-80392125D01*
X122807191Y-80400328D01*
X122804369Y-80409362D01*
X122802073Y-80419221D01*
X122800299Y-80429899D01*
X122799039Y-80441388D01*
X122798288Y-80453684D01*
X122798038Y-80466780D01*
X122753064Y-80466780D01*
X122753138Y-80466486D01*
X122754547Y-80458388D01*
X122755411Y-80450005D01*
X122755705Y-80441380D01*
X122755656Y-80437040D01*
X122755510Y-80432755D01*
X122755269Y-80428531D01*
X122754936Y-80424372D01*
X122754513Y-80420285D01*
X122754003Y-80416275D01*
X122753407Y-80412346D01*
X122752728Y-80408506D01*
X122751969Y-80404758D01*
X122751132Y-80401109D01*
X122750218Y-80397563D01*
X122749231Y-80394127D01*
X122748173Y-80390806D01*
X122747045Y-80387604D01*
X122745851Y-80384529D01*
X122744593Y-80381584D01*
X122743272Y-80378776D01*
X122741892Y-80376109D01*
X122740454Y-80373590D01*
X122738962Y-80371224D01*
X122737417Y-80369016D01*
X122735821Y-80366971D01*
X122734177Y-80365095D01*
X122732488Y-80363394D01*
X122730755Y-80361872D01*
X122728981Y-80360536D01*
X122727168Y-80359391D01*
X122725319Y-80358441D01*
X122723436Y-80357693D01*
X122721521Y-80357152D01*
X122719577Y-80356824D01*
X122717605Y-80356713D01*
X122715609Y-80356824D01*
X122713591Y-80357152D01*
X122711554Y-80357693D01*
X122709502Y-80358441D01*
X122707438Y-80359391D01*
X122705364Y-80360536D01*
X122701201Y-80363394D01*
X122697038Y-80366971D01*
X122692900Y-80371224D01*
X122688811Y-80376109D01*
X122684797Y-80381584D01*
X122680882Y-80387604D01*
X122677091Y-80394127D01*
X122673449Y-80401109D01*
X122669980Y-80408506D01*
X122666710Y-80416275D01*
X122663663Y-80424372D01*
X122660864Y-80432755D01*
X122658338Y-80441380D01*
X122657222Y-80446465D01*
X122656255Y-80451400D01*
X122655436Y-80456185D01*
X122654766Y-80460819D01*
X122654246Y-80465301D01*
X122653874Y-80469630D01*
X122653650Y-80473805D01*
X122653576Y-80477827D01*
X122580349Y-80477827D01*
X122581669Y-80472774D01*
X122583329Y-80464399D01*
X122584642Y-80455328D01*
X122585595Y-80445613D01*
X122586175Y-80435303D01*
X122586372Y-80424447D01*
X122586175Y-80413444D01*
X122585595Y-80402701D01*
X122584642Y-80392281D01*
X122583329Y-80382246D01*
X122582542Y-80377391D01*
X122581669Y-80372657D01*
X122580713Y-80368049D01*
X122579674Y-80363576D01*
X122578555Y-80359246D01*
X122577357Y-80355066D01*
X122576082Y-80351044D01*
X122574730Y-80347188D01*
X122573304Y-80343506D01*
X122571805Y-80340005D01*
X122570235Y-80336694D01*
X122568595Y-80333579D01*
X122566887Y-80330669D01*
X122565112Y-80327971D01*
X122563272Y-80325493D01*
X122561369Y-80323244D01*
X122559403Y-80321230D01*
X122557377Y-80319459D01*
X122555292Y-80317939D01*
X122553150Y-80316679D01*
X122550952Y-80315685D01*
X122548700Y-80314965D01*
X122546395Y-80314528D01*
X122544038Y-80314380D01*
X122542055Y-80314491D01*
X122540075Y-80314818D01*
X122538103Y-80315357D01*
X122536142Y-80316100D01*
X122534197Y-80317041D01*
X122532272Y-80318175D01*
X122528494Y-80320995D01*
X122524841Y-80324509D01*
X122521342Y-80328668D01*
X122518030Y-80333422D01*
X122514934Y-80338722D01*
X122512087Y-80344518D01*
X122509518Y-80350760D01*
X122507260Y-80357400D01*
X122505343Y-80364386D01*
X122503798Y-80371671D01*
X122502656Y-80379203D01*
X122501948Y-80386934D01*
X122501705Y-80394813D01*
X122454671Y-80394813D01*
X122454295Y-80391299D01*
X122452941Y-80382823D01*
X122450905Y-80373647D01*
X122450422Y-80370064D01*
X122449772Y-80366462D01*
X122448961Y-80362847D01*
X122447995Y-80359227D01*
X122446879Y-80355606D01*
X122445622Y-80351992D01*
X122444227Y-80348390D01*
X122442703Y-80344807D01*
X122439288Y-80337721D01*
X122435427Y-80330784D01*
X122431169Y-80324046D01*
X122426563Y-80317555D01*
X122421660Y-80311362D01*
X122416509Y-80305516D01*
X122411160Y-80300068D01*
X122405661Y-80295065D01*
X122400064Y-80290559D01*
X122394417Y-80286599D01*
X122391590Y-80284839D01*
X122388769Y-80283234D01*
X122385961Y-80281790D01*
X122383172Y-80280513D01*
X122379662Y-80279422D01*
X122376278Y-80278528D01*
X122373021Y-80277831D01*
X122369893Y-80277330D01*
X122366895Y-80277025D01*
X122364029Y-80276914D01*
X122361296Y-80276996D01*
X122358698Y-80277272D01*
X122356236Y-80277740D01*
X122353913Y-80278400D01*
X122351728Y-80279250D01*
X122349685Y-80280290D01*
X122347785Y-80281519D01*
X122346029Y-80282937D01*
X122344418Y-80284542D01*
X122342955Y-80286334D01*
X122341641Y-80288312D01*
X122340477Y-80290476D01*
X122339465Y-80292823D01*
X122338606Y-80295355D01*
X122337902Y-80298069D01*
X122337355Y-80300966D01*
X122336966Y-80304044D01*
X122336737Y-80307302D01*
X122336669Y-80310741D01*
X122279217Y-80310741D01*
X122280236Y-80303575D01*
X122281043Y-80280646D01*
X122280658Y-80249431D01*
X122279157Y-80210018D01*
X122273105Y-80106947D01*
X122272475Y-80098480D01*
X122332372Y-80098480D01*
X122332446Y-80103204D01*
X122332667Y-80107850D01*
X122333034Y-80112412D01*
X122333546Y-80116885D01*
X122334200Y-80121265D01*
X122334995Y-80125548D01*
X122335929Y-80129728D01*
X122337002Y-80133802D01*
X122338211Y-80137764D01*
X122339555Y-80141609D01*
X122341032Y-80145334D01*
X122342641Y-80148933D01*
X122344380Y-80152401D01*
X122346248Y-80155735D01*
X122348243Y-80158930D01*
X122350363Y-80161980D01*
X122352608Y-80164881D01*
X122354975Y-80167629D01*
X122357463Y-80170219D01*
X122360070Y-80172646D01*
X122362796Y-80174906D01*
X122365637Y-80176993D01*
X122368593Y-80178904D01*
X122371662Y-80180633D01*
X122374843Y-80182176D01*
X122378134Y-80183529D01*
X122381534Y-80184686D01*
X122385040Y-80185644D01*
X122388652Y-80186396D01*
X122392368Y-80186940D01*
X122396186Y-80187269D01*
X122400105Y-80187380D01*
X122403627Y-80187294D01*
X122407047Y-80187037D01*
X122410364Y-80186613D01*
X122413574Y-80186024D01*
X122416676Y-80185274D01*
X122419667Y-80184366D01*
X122422544Y-80183303D01*
X122425307Y-80182088D01*
X122427951Y-80180725D01*
X122430475Y-80179215D01*
X122432877Y-80177563D01*
X122435154Y-80175771D01*
X122437304Y-80173843D01*
X122439324Y-80171782D01*
X122441213Y-80169590D01*
X122442968Y-80167272D01*
X122443669Y-80166213D01*
X122501705Y-80166213D01*
X122501766Y-80171731D01*
X122501948Y-80177169D01*
X122502246Y-80182519D01*
X122502656Y-80187777D01*
X122503174Y-80192935D01*
X122503798Y-80197988D01*
X122504522Y-80202929D01*
X122505343Y-80207753D01*
X122506257Y-80212452D01*
X122507260Y-80217021D01*
X122508349Y-80221454D01*
X122509518Y-80225744D01*
X122510766Y-80229886D01*
X122512087Y-80233872D01*
X122513478Y-80237697D01*
X122514934Y-80241355D01*
X122516453Y-80244839D01*
X122518030Y-80248143D01*
X122519661Y-80251261D01*
X122521342Y-80254187D01*
X122523070Y-80256915D01*
X122524841Y-80259437D01*
X122526650Y-80261750D01*
X122528494Y-80263844D01*
X122530369Y-80265716D01*
X122532272Y-80267358D01*
X122534197Y-80268765D01*
X122536142Y-80269930D01*
X122538103Y-80270847D01*
X122540075Y-80271509D01*
X122542055Y-80271911D01*
X122544038Y-80272047D01*
X122546395Y-80271911D01*
X122548700Y-80271509D01*
X122550952Y-80270847D01*
X122553150Y-80269930D01*
X122555292Y-80268765D01*
X122557377Y-80267358D01*
X122559403Y-80265716D01*
X122561369Y-80263844D01*
X122565112Y-80259437D01*
X122568595Y-80254187D01*
X122571805Y-80248143D01*
X122574730Y-80241355D01*
X122577357Y-80233872D01*
X122579674Y-80225744D01*
X122581669Y-80217021D01*
X122583329Y-80207753D01*
X122584642Y-80197988D01*
X122585595Y-80187777D01*
X122586175Y-80177169D01*
X122586372Y-80166213D01*
X122671038Y-80166213D01*
X122671100Y-80171731D01*
X122671281Y-80177169D01*
X122671579Y-80182519D01*
X122671989Y-80187777D01*
X122672508Y-80192935D01*
X122673131Y-80197988D01*
X122673855Y-80202929D01*
X122674676Y-80207753D01*
X122675590Y-80212452D01*
X122676594Y-80217021D01*
X122677682Y-80221454D01*
X122678852Y-80225744D01*
X122680099Y-80229886D01*
X122681420Y-80233872D01*
X122682811Y-80237697D01*
X122684268Y-80241355D01*
X122685786Y-80244839D01*
X122687363Y-80248143D01*
X122688994Y-80251261D01*
X122690675Y-80254187D01*
X122692403Y-80256915D01*
X122694174Y-80259437D01*
X122695983Y-80261750D01*
X122697827Y-80263844D01*
X122699703Y-80265716D01*
X122701605Y-80267358D01*
X122703531Y-80268765D01*
X122705476Y-80269930D01*
X122707436Y-80270847D01*
X122709408Y-80271509D01*
X122711388Y-80271911D01*
X122713372Y-80272047D01*
X122715728Y-80271911D01*
X122718033Y-80271509D01*
X122720285Y-80270847D01*
X122722483Y-80269930D01*
X122724626Y-80268765D01*
X122726710Y-80267358D01*
X122728736Y-80265716D01*
X122730702Y-80263844D01*
X122734445Y-80259437D01*
X122737928Y-80254187D01*
X122741138Y-80248143D01*
X122744063Y-80241355D01*
X122746691Y-80233872D01*
X122749008Y-80225744D01*
X122751002Y-80217021D01*
X122752662Y-80207753D01*
X122753975Y-80197988D01*
X122754928Y-80187777D01*
X122754949Y-80187380D01*
X122798038Y-80187380D01*
X122798238Y-80203453D01*
X122798488Y-80211044D01*
X122798840Y-80218336D01*
X122799295Y-80225331D01*
X122799852Y-80232028D01*
X122800514Y-80238428D01*
X122801280Y-80244530D01*
X122802151Y-80250334D01*
X122803129Y-80255841D01*
X122804213Y-80261050D01*
X122805405Y-80265961D01*
X122806706Y-80270575D01*
X122808116Y-80274891D01*
X122809637Y-80278909D01*
X122811268Y-80282630D01*
X122813010Y-80286053D01*
X122814865Y-80289178D01*
X122816834Y-80292006D01*
X122818916Y-80294536D01*
X122821113Y-80296769D01*
X122823425Y-80298703D01*
X122825854Y-80300341D01*
X122828399Y-80301680D01*
X122831063Y-80302722D01*
X122833845Y-80303466D01*
X122836747Y-80303912D01*
X122839768Y-80304061D01*
X122842911Y-80303912D01*
X122846175Y-80303466D01*
X122849562Y-80302722D01*
X122853072Y-80301680D01*
X122855452Y-80300763D01*
X122857828Y-80299606D01*
X122862547Y-80296595D01*
X122867192Y-80292704D01*
X122871725Y-80287988D01*
X122876109Y-80282503D01*
X122880307Y-80276305D01*
X122884282Y-80269449D01*
X122887997Y-80261992D01*
X122891413Y-80253990D01*
X122894495Y-80245497D01*
X122897205Y-80236571D01*
X122899506Y-80227266D01*
X122901360Y-80217639D01*
X122902731Y-80207745D01*
X122903580Y-80197640D01*
X122903872Y-80187380D01*
X122967372Y-80187380D01*
X122967433Y-80193704D01*
X122967615Y-80199968D01*
X122968322Y-80212284D01*
X122969465Y-80224252D01*
X122971010Y-80235799D01*
X122972927Y-80246849D01*
X122975185Y-80257329D01*
X122977753Y-80267164D01*
X122979144Y-80271817D01*
X122980601Y-80276280D01*
X122982119Y-80280545D01*
X122983696Y-80284602D01*
X122985327Y-80288442D01*
X122987009Y-80292056D01*
X122988737Y-80295434D01*
X122990507Y-80298567D01*
X122992317Y-80301446D01*
X122994161Y-80304061D01*
X122996036Y-80306404D01*
X122997938Y-80308464D01*
X122999864Y-80310233D01*
X123001809Y-80311701D01*
X123003769Y-80312859D01*
X123005741Y-80313698D01*
X123007721Y-80314208D01*
X123009705Y-80314380D01*
X123012061Y-80314208D01*
X123014366Y-80313698D01*
X123016618Y-80312859D01*
X123018817Y-80311701D01*
X123020959Y-80310233D01*
X123023044Y-80308464D01*
X123027035Y-80304061D01*
X123030779Y-80298567D01*
X123034262Y-80292056D01*
X123037472Y-80284602D01*
X123040397Y-80276280D01*
X123043024Y-80267164D01*
X123045341Y-80257329D01*
X123047336Y-80246849D01*
X123048996Y-80235799D01*
X123050308Y-80224252D01*
X123051261Y-80212284D01*
X123051842Y-80199968D01*
X123052038Y-80187380D01*
X123051842Y-80174094D01*
X123051654Y-80169934D01*
X123092759Y-80169934D01*
X123093033Y-80177558D01*
X123093662Y-80185149D01*
X123094640Y-80192670D01*
X123095959Y-80200080D01*
X123097614Y-80207341D01*
X123099596Y-80214415D01*
X123101900Y-80221262D01*
X123104517Y-80227845D01*
X123107441Y-80234123D01*
X123110665Y-80240059D01*
X123114183Y-80245613D01*
X123117986Y-80250748D01*
X123122068Y-80255423D01*
X123126422Y-80259601D01*
X123131042Y-80263242D01*
X123135920Y-80266308D01*
X123141048Y-80268761D01*
X123146421Y-80270560D01*
X123152031Y-80271669D01*
X123157872Y-80272047D01*
X123161033Y-80271936D01*
X123164166Y-80271608D01*
X123167264Y-80271070D01*
X123170324Y-80270327D01*
X123173340Y-80269385D01*
X123176308Y-80268251D01*
X123179223Y-80266932D01*
X123182081Y-80265432D01*
X123184877Y-80263759D01*
X123187606Y-80261918D01*
X123190264Y-80259916D01*
X123192846Y-80257759D01*
X123195348Y-80255453D01*
X123197764Y-80253005D01*
X123202322Y-80247705D01*
X123206483Y-80241909D01*
X123210210Y-80235666D01*
X123213465Y-80229027D01*
X123216212Y-80222040D01*
X123218414Y-80214756D01*
X123220032Y-80207224D01*
X123220611Y-80203380D01*
X123221031Y-80199493D01*
X123221286Y-80195568D01*
X123221372Y-80191613D01*
X123221212Y-80183380D01*
X123220742Y-80175357D01*
X123219973Y-80167555D01*
X123219785Y-80166213D01*
X123263705Y-80166213D01*
X123263766Y-80171731D01*
X123263948Y-80177169D01*
X123264246Y-80182519D01*
X123264656Y-80187777D01*
X123265175Y-80192935D01*
X123265798Y-80197988D01*
X123266522Y-80202929D01*
X123267343Y-80207753D01*
X123268257Y-80212452D01*
X123269260Y-80217021D01*
X123270349Y-80221454D01*
X123271518Y-80225744D01*
X123272766Y-80229886D01*
X123274087Y-80233872D01*
X123275478Y-80237697D01*
X123276934Y-80241355D01*
X123278453Y-80244839D01*
X123280030Y-80248143D01*
X123281661Y-80251261D01*
X123283342Y-80254187D01*
X123285070Y-80256915D01*
X123286841Y-80259437D01*
X123288650Y-80261750D01*
X123290494Y-80263844D01*
X123292369Y-80265716D01*
X123294272Y-80267358D01*
X123296197Y-80268765D01*
X123298142Y-80269930D01*
X123300103Y-80270847D01*
X123302075Y-80271509D01*
X123304055Y-80271911D01*
X123306038Y-80272047D01*
X123308394Y-80271911D01*
X123310699Y-80271509D01*
X123312952Y-80270847D01*
X123315150Y-80269930D01*
X123317292Y-80268765D01*
X123319377Y-80267358D01*
X123321403Y-80265716D01*
X123323368Y-80263844D01*
X123327112Y-80259437D01*
X123330595Y-80254187D01*
X123333805Y-80248143D01*
X123336730Y-80241355D01*
X123339357Y-80233872D01*
X123341674Y-80225744D01*
X123343669Y-80217021D01*
X123345329Y-80207753D01*
X123346642Y-80197988D01*
X123347595Y-80187777D01*
X123348175Y-80177169D01*
X123348372Y-80166213D01*
X123348322Y-80160695D01*
X123348175Y-80155258D01*
X123347932Y-80149907D01*
X123347595Y-80144650D01*
X123347164Y-80139491D01*
X123346642Y-80134438D01*
X123346030Y-80129497D01*
X123345329Y-80124674D01*
X123344542Y-80119974D01*
X123343669Y-80115405D01*
X123342713Y-80110972D01*
X123341674Y-80106682D01*
X123340602Y-80102713D01*
X123433038Y-80102713D01*
X123433100Y-80107053D01*
X123433281Y-80111338D01*
X123433579Y-80115563D01*
X123433989Y-80119721D01*
X123434508Y-80123808D01*
X123435131Y-80127819D01*
X123435855Y-80131747D01*
X123436676Y-80135588D01*
X123437590Y-80139335D01*
X123438594Y-80142985D01*
X123439682Y-80146530D01*
X123440852Y-80149966D01*
X123442099Y-80153288D01*
X123443420Y-80156489D01*
X123444811Y-80159564D01*
X123446267Y-80162509D01*
X123447786Y-80165317D01*
X123449363Y-80167984D01*
X123450994Y-80170503D01*
X123452675Y-80172869D01*
X123454403Y-80175077D01*
X123456174Y-80177122D01*
X123457983Y-80178998D01*
X123459827Y-80180699D01*
X123461703Y-80182221D01*
X123463605Y-80183557D01*
X123465531Y-80184703D01*
X123467475Y-80185652D01*
X123469436Y-80186400D01*
X123471408Y-80186941D01*
X123473388Y-80187269D01*
X123475372Y-80187380D01*
X123477728Y-80187269D01*
X123480033Y-80186941D01*
X123482285Y-80186400D01*
X123484483Y-80185652D01*
X123486625Y-80184703D01*
X123488710Y-80183557D01*
X123490736Y-80182221D01*
X123492702Y-80180699D01*
X123494605Y-80178998D01*
X123496445Y-80177122D01*
X123496630Y-80176897D01*
X123567517Y-80176897D01*
X123568505Y-80208547D01*
X123573020Y-80260703D01*
X123575258Y-80280394D01*
X123577633Y-80295595D01*
X123580256Y-80306132D01*
X123581696Y-80309598D01*
X123583239Y-80311833D01*
X123584900Y-80312816D01*
X123586693Y-80312524D01*
X123588632Y-80310936D01*
X123590730Y-80308030D01*
X123595461Y-80298178D01*
X123600999Y-80282795D01*
X123607455Y-80261707D01*
X123614939Y-80234740D01*
X123633444Y-80162476D01*
X123657405Y-80064613D01*
X123671056Y-80000931D01*
X123683268Y-79940921D01*
X123693794Y-79885871D01*
X123702384Y-79837072D01*
X123708792Y-79795813D01*
X123711100Y-79778415D01*
X123712769Y-79763385D01*
X123713769Y-79750886D01*
X123714067Y-79741077D01*
X123713634Y-79734122D01*
X123713134Y-79731764D01*
X123712438Y-79730180D01*
X123707892Y-79727383D01*
X123703008Y-79726855D01*
X123697821Y-79728483D01*
X123692363Y-79732156D01*
X123686670Y-79737760D01*
X123680775Y-79745184D01*
X123668517Y-79765039D01*
X123655863Y-79790822D01*
X123643084Y-79821635D01*
X123630455Y-79856577D01*
X123618247Y-79894751D01*
X123606733Y-79935256D01*
X123596187Y-79977193D01*
X123586881Y-80019664D01*
X123579088Y-80061769D01*
X123573082Y-80102609D01*
X123569134Y-80141285D01*
X123567517Y-80176897D01*
X123496630Y-80176897D01*
X123499928Y-80172869D01*
X123503138Y-80167984D01*
X123506063Y-80162509D01*
X123508691Y-80156489D01*
X123511008Y-80149966D01*
X123513002Y-80142985D01*
X123514662Y-80135588D01*
X123515975Y-80127819D01*
X123516928Y-80119721D01*
X123517509Y-80111338D01*
X123517705Y-80102713D01*
X123517656Y-80098373D01*
X123517509Y-80094089D01*
X123517265Y-80089864D01*
X123516928Y-80085706D01*
X123516497Y-80081618D01*
X123515975Y-80077608D01*
X123515363Y-80073680D01*
X123514662Y-80069839D01*
X123513875Y-80066091D01*
X123513002Y-80062442D01*
X123512046Y-80058896D01*
X123511008Y-80055460D01*
X123509889Y-80052139D01*
X123508691Y-80048938D01*
X123507415Y-80045862D01*
X123506063Y-80042917D01*
X123504637Y-80040109D01*
X123503138Y-80037443D01*
X123501568Y-80034924D01*
X123499928Y-80032557D01*
X123498220Y-80030349D01*
X123496445Y-80028304D01*
X123494605Y-80026429D01*
X123492702Y-80024727D01*
X123490736Y-80023206D01*
X123488710Y-80021870D01*
X123486625Y-80020724D01*
X123484483Y-80019775D01*
X123482285Y-80019027D01*
X123480033Y-80018486D01*
X123477728Y-80018157D01*
X123475372Y-80018047D01*
X123473388Y-80018157D01*
X123471408Y-80018486D01*
X123469436Y-80019027D01*
X123467475Y-80019775D01*
X123465531Y-80020724D01*
X123463605Y-80021870D01*
X123459827Y-80024727D01*
X123456174Y-80028304D01*
X123452675Y-80032557D01*
X123449363Y-80037443D01*
X123446267Y-80042917D01*
X123443420Y-80048938D01*
X123440852Y-80055460D01*
X123438594Y-80062442D01*
X123436676Y-80069839D01*
X123435131Y-80077608D01*
X123433989Y-80085706D01*
X123433281Y-80094089D01*
X123433038Y-80102713D01*
X123340602Y-80102713D01*
X123340555Y-80102541D01*
X123339357Y-80098554D01*
X123338082Y-80094729D01*
X123336730Y-80091072D01*
X123335304Y-80087588D01*
X123333805Y-80084283D01*
X123332235Y-80081165D01*
X123330595Y-80078239D01*
X123328887Y-80075512D01*
X123327112Y-80072989D01*
X123325272Y-80070677D01*
X123323368Y-80068582D01*
X123321403Y-80066710D01*
X123319377Y-80065068D01*
X123317292Y-80063662D01*
X123315150Y-80062497D01*
X123312952Y-80061580D01*
X123310699Y-80060918D01*
X123308394Y-80060515D01*
X123306038Y-80060380D01*
X123304055Y-80060515D01*
X123302075Y-80060918D01*
X123300103Y-80061580D01*
X123298142Y-80062497D01*
X123296197Y-80063662D01*
X123294272Y-80065068D01*
X123290494Y-80068582D01*
X123286841Y-80072989D01*
X123283342Y-80078239D01*
X123280030Y-80084283D01*
X123276934Y-80091072D01*
X123274087Y-80098554D01*
X123271518Y-80106682D01*
X123269260Y-80115405D01*
X123267343Y-80124674D01*
X123265798Y-80134438D01*
X123264656Y-80144650D01*
X123263948Y-80155258D01*
X123263705Y-80166213D01*
X123219785Y-80166213D01*
X123218916Y-80159987D01*
X123217583Y-80152664D01*
X123215986Y-80145597D01*
X123214136Y-80138799D01*
X123212045Y-80132280D01*
X123209725Y-80126053D01*
X123207187Y-80120129D01*
X123204442Y-80114520D01*
X123201503Y-80109237D01*
X123198381Y-80104292D01*
X123195088Y-80099696D01*
X123191635Y-80095462D01*
X123188034Y-80091601D01*
X123184297Y-80088124D01*
X123180435Y-80085043D01*
X123176459Y-80082370D01*
X123172383Y-80080116D01*
X123168216Y-80078293D01*
X123163971Y-80076913D01*
X123159659Y-80075987D01*
X123155292Y-80075527D01*
X123150882Y-80075545D01*
X123146440Y-80076051D01*
X123141978Y-80077059D01*
X123137507Y-80078578D01*
X123133040Y-80080622D01*
X123128587Y-80083201D01*
X123124160Y-80086328D01*
X123119772Y-80090013D01*
X123115231Y-80095005D01*
X123111130Y-80100429D01*
X123107462Y-80106247D01*
X123104219Y-80112420D01*
X123101395Y-80118909D01*
X123098982Y-80125676D01*
X123096974Y-80132682D01*
X123095364Y-80139887D01*
X123094144Y-80147254D01*
X123093308Y-80154743D01*
X123092849Y-80162316D01*
X123092759Y-80169934D01*
X123051654Y-80169934D01*
X123051261Y-80161261D01*
X123050308Y-80148936D01*
X123048996Y-80137175D01*
X123047336Y-80126035D01*
X123046379Y-80120715D01*
X123045341Y-80115570D01*
X123044222Y-80110609D01*
X123043024Y-80105838D01*
X123041748Y-80101263D01*
X123040397Y-80096893D01*
X123038971Y-80092733D01*
X123037472Y-80088791D01*
X123035901Y-80085074D01*
X123034262Y-80081588D01*
X123032553Y-80078341D01*
X123030779Y-80075340D01*
X123028939Y-80072592D01*
X123027035Y-80070104D01*
X123025070Y-80067882D01*
X123023044Y-80065933D01*
X123020959Y-80064266D01*
X123018817Y-80062885D01*
X123016618Y-80061800D01*
X123014366Y-80061016D01*
X123012061Y-80060540D01*
X123009705Y-80060380D01*
X123007721Y-80060540D01*
X123005741Y-80061016D01*
X123003769Y-80061800D01*
X123001809Y-80062885D01*
X122997938Y-80065933D01*
X122994161Y-80070104D01*
X122990507Y-80075340D01*
X122987009Y-80081588D01*
X122983696Y-80088791D01*
X122980601Y-80096893D01*
X122977753Y-80105838D01*
X122975185Y-80115570D01*
X122972927Y-80126035D01*
X122971010Y-80137175D01*
X122969465Y-80148936D01*
X122968322Y-80161261D01*
X122967615Y-80174094D01*
X122967372Y-80187380D01*
X122903872Y-80187380D01*
X122903798Y-80182234D01*
X122903580Y-80177119D01*
X122903223Y-80172041D01*
X122902731Y-80167007D01*
X122902108Y-80162022D01*
X122901360Y-80157093D01*
X122900491Y-80152227D01*
X122899506Y-80147428D01*
X122897205Y-80138060D01*
X122894495Y-80129039D01*
X122891413Y-80120416D01*
X122887997Y-80112238D01*
X122884282Y-80104557D01*
X122880307Y-80097422D01*
X122876109Y-80090881D01*
X122873938Y-80087850D01*
X122871725Y-80084986D01*
X122869475Y-80082296D01*
X122867192Y-80079785D01*
X122864881Y-80077461D01*
X122862547Y-80075329D01*
X122860195Y-80073395D01*
X122857828Y-80071666D01*
X122855452Y-80070148D01*
X122853072Y-80068846D01*
X122846175Y-80067806D01*
X122842911Y-80067697D01*
X122839768Y-80067863D01*
X122836747Y-80068305D01*
X122833845Y-80069023D01*
X122831063Y-80070020D01*
X122828399Y-80071294D01*
X122825854Y-80072848D01*
X122823425Y-80074681D01*
X122821113Y-80076795D01*
X122818916Y-80079190D01*
X122816834Y-80081868D01*
X122814865Y-80084828D01*
X122811268Y-80091601D01*
X122808116Y-80099514D01*
X122805405Y-80108575D01*
X122803129Y-80118790D01*
X122801280Y-80130164D01*
X122799852Y-80142704D01*
X122798840Y-80156415D01*
X122798238Y-80171305D01*
X122798038Y-80187380D01*
X122754949Y-80187380D01*
X122755509Y-80177169D01*
X122755705Y-80166213D01*
X122755656Y-80160695D01*
X122755509Y-80155258D01*
X122755265Y-80149907D01*
X122754928Y-80144650D01*
X122754497Y-80139491D01*
X122753975Y-80134438D01*
X122753363Y-80129497D01*
X122752662Y-80124674D01*
X122751875Y-80119974D01*
X122751002Y-80115405D01*
X122750046Y-80110972D01*
X122749008Y-80106682D01*
X122747889Y-80102541D01*
X122746691Y-80098554D01*
X122745415Y-80094729D01*
X122744063Y-80091072D01*
X122742637Y-80087588D01*
X122741138Y-80084283D01*
X122739568Y-80081165D01*
X122737928Y-80078239D01*
X122736220Y-80075512D01*
X122734445Y-80072989D01*
X122732605Y-80070677D01*
X122730702Y-80068582D01*
X122728736Y-80066710D01*
X122726710Y-80065068D01*
X122724626Y-80063662D01*
X122722483Y-80062497D01*
X122720285Y-80061580D01*
X122718033Y-80060918D01*
X122715728Y-80060515D01*
X122713372Y-80060380D01*
X122711388Y-80060515D01*
X122709408Y-80060918D01*
X122707436Y-80061580D01*
X122705476Y-80062497D01*
X122703531Y-80063662D01*
X122701605Y-80065068D01*
X122697827Y-80068582D01*
X122694174Y-80072989D01*
X122690675Y-80078239D01*
X122687363Y-80084283D01*
X122684268Y-80091072D01*
X122681420Y-80098554D01*
X122678852Y-80106682D01*
X122676594Y-80115405D01*
X122674676Y-80124674D01*
X122673131Y-80134438D01*
X122671989Y-80144650D01*
X122671281Y-80155258D01*
X122671038Y-80166213D01*
X122586372Y-80166213D01*
X122586322Y-80160695D01*
X122586175Y-80155258D01*
X122585932Y-80149907D01*
X122585595Y-80144650D01*
X122585164Y-80139491D01*
X122584642Y-80134438D01*
X122584029Y-80129497D01*
X122583329Y-80124674D01*
X122582542Y-80119974D01*
X122581669Y-80115405D01*
X122580713Y-80110972D01*
X122579674Y-80106682D01*
X122578555Y-80102541D01*
X122577357Y-80098554D01*
X122576082Y-80094729D01*
X122574730Y-80091072D01*
X122573304Y-80087588D01*
X122571805Y-80084283D01*
X122570235Y-80081165D01*
X122568595Y-80078239D01*
X122566887Y-80075512D01*
X122565112Y-80072989D01*
X122563272Y-80070677D01*
X122561369Y-80068582D01*
X122559403Y-80066710D01*
X122557377Y-80065068D01*
X122555292Y-80063662D01*
X122553150Y-80062497D01*
X122550952Y-80061580D01*
X122548700Y-80060918D01*
X122546395Y-80060515D01*
X122544038Y-80060380D01*
X122542055Y-80060515D01*
X122540075Y-80060918D01*
X122538103Y-80061580D01*
X122536142Y-80062497D01*
X122534197Y-80063662D01*
X122532272Y-80065068D01*
X122528494Y-80068582D01*
X122524841Y-80072989D01*
X122521342Y-80078239D01*
X122518030Y-80084283D01*
X122514934Y-80091072D01*
X122512087Y-80098554D01*
X122509518Y-80106682D01*
X122507260Y-80115405D01*
X122505343Y-80124674D01*
X122503798Y-80134438D01*
X122502656Y-80144650D01*
X122501948Y-80155258D01*
X122501705Y-80166213D01*
X122443669Y-80166213D01*
X122444586Y-80164829D01*
X122446065Y-80162265D01*
X122447403Y-80159584D01*
X122448598Y-80156788D01*
X122449647Y-80153880D01*
X122450548Y-80150863D01*
X122451299Y-80147742D01*
X122451897Y-80144518D01*
X122452340Y-80141194D01*
X122452626Y-80137775D01*
X122452752Y-80134262D01*
X122452716Y-80130660D01*
X122452515Y-80126971D01*
X122452148Y-80123198D01*
X122451612Y-80119344D01*
X122450905Y-80115413D01*
X122448703Y-80105765D01*
X122446086Y-80096666D01*
X122443086Y-80088121D01*
X122439735Y-80080133D01*
X122436064Y-80072706D01*
X122432106Y-80065844D01*
X122427892Y-80059552D01*
X122423454Y-80053832D01*
X122418824Y-80048688D01*
X122414034Y-80044126D01*
X122409115Y-80040148D01*
X122404099Y-80036758D01*
X122399017Y-80033960D01*
X122393903Y-80031759D01*
X122388787Y-80030157D01*
X122383701Y-80029159D01*
X122378677Y-80028769D01*
X122373747Y-80028991D01*
X122368942Y-80029828D01*
X122364295Y-80031284D01*
X122359837Y-80033364D01*
X122355600Y-80036070D01*
X122351616Y-80039408D01*
X122347916Y-80043380D01*
X122344532Y-80047992D01*
X122341497Y-80053245D01*
X122338841Y-80059146D01*
X122336597Y-80065696D01*
X122334796Y-80072901D01*
X122333470Y-80080764D01*
X122332652Y-80089289D01*
X122332372Y-80098480D01*
X122272475Y-80098480D01*
X122270522Y-80072258D01*
X122267524Y-80039585D01*
X122264092Y-80008860D01*
X122260207Y-79980013D01*
X122255850Y-79952977D01*
X122251004Y-79927683D01*
X122245649Y-79904064D01*
X122239768Y-79882051D01*
X122233340Y-79861576D01*
X122226348Y-79842570D01*
X122218774Y-79824966D01*
X122210597Y-79808695D01*
X122201801Y-79793689D01*
X122192366Y-79779880D01*
X122182273Y-79767200D01*
X122171505Y-79755580D01*
X122146328Y-79729808D01*
X122136317Y-79720689D01*
X122128047Y-79714503D01*
X122121539Y-79711567D01*
X122118951Y-79711416D01*
X122116811Y-79712196D01*
X122115120Y-79713947D01*
X122113881Y-79716708D01*
X122112768Y-79725417D01*
X122003182Y-79725417D01*
X121997724Y-79714928D01*
X121992440Y-79705218D01*
X121987738Y-79697059D01*
X121983651Y-79690492D01*
X121981847Y-79687821D01*
X121980208Y-79685564D01*
X121978738Y-79683727D01*
X121977441Y-79682315D01*
X121976321Y-79681335D01*
X121975382Y-79680791D01*
X121974981Y-79680684D01*
X121974626Y-79680689D01*
X121974319Y-79680805D01*
X121974060Y-79681034D01*
X121973685Y-79681831D01*
X121973507Y-79683087D01*
X121717068Y-79683087D01*
X121715590Y-79682088D01*
X121683208Y-79661554D01*
X121647143Y-79639879D01*
X121607215Y-79616938D01*
X121515049Y-79566767D01*
X121405272Y-79510047D01*
X121345201Y-79480103D01*
X121290228Y-79452070D01*
X121240091Y-79425773D01*
X121194531Y-79401038D01*
X121153287Y-79377693D01*
X121116099Y-79355563D01*
X121082705Y-79334475D01*
X121052847Y-79314255D01*
X121026262Y-79294730D01*
X121014116Y-79285173D01*
X121002692Y-79275725D01*
X120991955Y-79266364D01*
X120981874Y-79257068D01*
X120972417Y-79247815D01*
X120963550Y-79238584D01*
X120955241Y-79229353D01*
X120947458Y-79220101D01*
X120940167Y-79210805D01*
X120933338Y-79201443D01*
X120926936Y-79191995D01*
X120920929Y-79182439D01*
X120909972Y-79162913D01*
X120902641Y-79148640D01*
X120894981Y-79134454D01*
X120887061Y-79120442D01*
X120878949Y-79106689D01*
X120870713Y-79093285D01*
X120862421Y-79080314D01*
X120854141Y-79067864D01*
X120845943Y-79056022D01*
X120837892Y-79044874D01*
X120830059Y-79034508D01*
X120822511Y-79025010D01*
X120815317Y-79016466D01*
X120808544Y-79008965D01*
X120802261Y-79002592D01*
X120796537Y-78997435D01*
X120791438Y-78993580D01*
X120782435Y-78987539D01*
X120773681Y-78982115D01*
X120765181Y-78977303D01*
X120756935Y-78973100D01*
X120748947Y-78969501D01*
X120741218Y-78966503D01*
X120733752Y-78964101D01*
X120726549Y-78962293D01*
X120719614Y-78961074D01*
X120712947Y-78960440D01*
X120706552Y-78960387D01*
X120700430Y-78960912D01*
X120694584Y-78962011D01*
X120689017Y-78963679D01*
X120683730Y-78965913D01*
X120678726Y-78968709D01*
X120674007Y-78972063D01*
X120669576Y-78975972D01*
X120665435Y-78980431D01*
X120661586Y-78985436D01*
X120658031Y-78990984D01*
X120654774Y-78997070D01*
X120651815Y-79003692D01*
X120649159Y-79010844D01*
X120646806Y-79018524D01*
X120644759Y-79026726D01*
X120643021Y-79035448D01*
X120641593Y-79044686D01*
X120640479Y-79054435D01*
X120639680Y-79064692D01*
X120639199Y-79075453D01*
X120639038Y-79086713D01*
X120638496Y-79101289D01*
X120636880Y-79116405D01*
X120634211Y-79132004D01*
X120630506Y-79148031D01*
X120625783Y-79164429D01*
X120620063Y-79181145D01*
X120613362Y-79198120D01*
X120605701Y-79215301D01*
X120597097Y-79232630D01*
X120587569Y-79250052D01*
X120577135Y-79267512D01*
X120565815Y-79284952D01*
X120553626Y-79302319D01*
X120540589Y-79319555D01*
X120526720Y-79336605D01*
X120512038Y-79353414D01*
X120479564Y-79391005D01*
X120452069Y-79424553D01*
X120429671Y-79454282D01*
X120412489Y-79480413D01*
X120405890Y-79492200D01*
X120400639Y-79503172D01*
X120396751Y-79513356D01*
X120394241Y-79522780D01*
X120393122Y-79531472D01*
X120258239Y-79531472D01*
X120258575Y-79524796D01*
X120260147Y-79513544D01*
X120262699Y-79501784D01*
X120266174Y-79489608D01*
X120270518Y-79477109D01*
X120275674Y-79464381D01*
X120281587Y-79451517D01*
X120288201Y-79438609D01*
X120295459Y-79425751D01*
X120303307Y-79413036D01*
X120311688Y-79400556D01*
X120320546Y-79388405D01*
X120329826Y-79376675D01*
X120339472Y-79365460D01*
X120349428Y-79354853D01*
X120359638Y-79344947D01*
X120370739Y-79333953D01*
X120381772Y-79321688D01*
X120392669Y-79308270D01*
X120403361Y-79293816D01*
X120413780Y-79278444D01*
X120423858Y-79262273D01*
X120433526Y-79245419D01*
X120442718Y-79228001D01*
X120451363Y-79210136D01*
X120459395Y-79191943D01*
X120466744Y-79173539D01*
X120473343Y-79155042D01*
X120479124Y-79136570D01*
X120484017Y-79118240D01*
X120487956Y-79100171D01*
X120490872Y-79082480D01*
X120494305Y-79064486D01*
X120498245Y-79047025D01*
X120502678Y-79030108D01*
X120507590Y-79013746D01*
X120512967Y-78997952D01*
X120518796Y-78982737D01*
X120525061Y-78968113D01*
X120531750Y-78954091D01*
X120538848Y-78940683D01*
X120546341Y-78927900D01*
X120554216Y-78915755D01*
X120562458Y-78904258D01*
X120571054Y-78893422D01*
X120579989Y-78883258D01*
X120589249Y-78873778D01*
X120598822Y-78864992D01*
X120608692Y-78856914D01*
X120618845Y-78849555D01*
X120629269Y-78842925D01*
X120639948Y-78837038D01*
X120650869Y-78831903D01*
X120662018Y-78827534D01*
X120673381Y-78823942D01*
X120684944Y-78821138D01*
X120696692Y-78819134D01*
X120708613Y-78817941D01*
X120720693Y-78817572D01*
X120732916Y-78818037D01*
X120745269Y-78819349D01*
X120757739Y-78821519D01*
X120770311Y-78824559D01*
X120782972Y-78828480D01*
X120792278Y-78833276D01*
X120802650Y-78839659D01*
X120813965Y-78847530D01*
X120826099Y-78856790D01*
X120838927Y-78867341D01*
X120852326Y-78879082D01*
X120866171Y-78891914D01*
X120880338Y-78905738D01*
X120894704Y-78920456D01*
X120909145Y-78935967D01*
X120923536Y-78952173D01*
X120937753Y-78968974D01*
X120951673Y-78986271D01*
X120965170Y-79003965D01*
X120978123Y-79021957D01*
X120990405Y-79040147D01*
X121006680Y-79062126D01*
X121023767Y-79083621D01*
X121041686Y-79104645D01*
X121060453Y-79125210D01*
X121080090Y-79145329D01*
X121100612Y-79165013D01*
X121122040Y-79184276D01*
X121144393Y-79203130D01*
X121167687Y-79221587D01*
X121191943Y-79239659D01*
X121217179Y-79257359D01*
X121243413Y-79274700D01*
X121270664Y-79291693D01*
X121298950Y-79308352D01*
X121328291Y-79324687D01*
X121358705Y-79340713D01*
X121608472Y-79467713D01*
X121540738Y-79311080D01*
X121533844Y-79291691D01*
X121527451Y-79271657D01*
X121521567Y-79251028D01*
X121516198Y-79229853D01*
X121511350Y-79208182D01*
X121507029Y-79186064D01*
X121503241Y-79163550D01*
X121499992Y-79140688D01*
X121497290Y-79117529D01*
X121495139Y-79094122D01*
X121493546Y-79070516D01*
X121492518Y-79046761D01*
X121492060Y-79022907D01*
X121492179Y-78999004D01*
X121492881Y-78975100D01*
X121494172Y-78951247D01*
X121496304Y-78927142D01*
X121497934Y-78904060D01*
X121499055Y-78882032D01*
X121499662Y-78861090D01*
X121499748Y-78841264D01*
X121499306Y-78822585D01*
X121498332Y-78805084D01*
X121496818Y-78788792D01*
X121494758Y-78773741D01*
X121492146Y-78759961D01*
X121488976Y-78747483D01*
X121487180Y-78741743D01*
X121485242Y-78736339D01*
X121483161Y-78731276D01*
X121480937Y-78726559D01*
X121478569Y-78722190D01*
X121476056Y-78718174D01*
X121473397Y-78714514D01*
X121470592Y-78711215D01*
X121467639Y-78708280D01*
X121464538Y-78705713D01*
X121458450Y-78699685D01*
X121451351Y-78691219D01*
X121434442Y-78667547D01*
X121414458Y-78635839D01*
X121392043Y-78597234D01*
X121367841Y-78552875D01*
X121342499Y-78503902D01*
X121316661Y-78451457D01*
X121290972Y-78396680D01*
X121263291Y-78330733D01*
X121238989Y-78261809D01*
X121218074Y-78190404D01*
X121200550Y-78117015D01*
X121186425Y-78042138D01*
X121175704Y-77966269D01*
X121168394Y-77889904D01*
X121164501Y-77813538D01*
X121164389Y-77795547D01*
X121299438Y-77795547D01*
X121299747Y-77838562D01*
X121300720Y-77878923D01*
X121302424Y-77916953D01*
X121304928Y-77952974D01*
X121308301Y-77987308D01*
X121312610Y-78020277D01*
X121317923Y-78052205D01*
X121324309Y-78083413D01*
X121331836Y-78114225D01*
X121340573Y-78144962D01*
X121350587Y-78175947D01*
X121361946Y-78207503D01*
X121374720Y-78239952D01*
X121388975Y-78273616D01*
X121404781Y-78308818D01*
X121422205Y-78345880D01*
X121461545Y-78425652D01*
X121477662Y-78457724D01*
X121491658Y-78484786D01*
X121503719Y-78506986D01*
X121514032Y-78524474D01*
X121518591Y-78531497D01*
X121522782Y-78537397D01*
X121526629Y-78542194D01*
X121530155Y-78545905D01*
X121533383Y-78548550D01*
X121536338Y-78550147D01*
X121539041Y-78550714D01*
X121540305Y-78550617D01*
X121541516Y-78550271D01*
X121543786Y-78548835D01*
X121545875Y-78546426D01*
X121547806Y-78543062D01*
X121549602Y-78538761D01*
X121551286Y-78533543D01*
X121552882Y-78527425D01*
X121555902Y-78512567D01*
X121558848Y-78494336D01*
X121561905Y-78472880D01*
X121563101Y-78458731D01*
X121563534Y-78441841D01*
X121562236Y-78400781D01*
X121558259Y-78351585D01*
X121551851Y-78296138D01*
X121543260Y-78236326D01*
X121532735Y-78174033D01*
X121520523Y-78111145D01*
X121506872Y-78049547D01*
X121497146Y-78007493D01*
X121488599Y-77968510D01*
X121481217Y-77932391D01*
X121474989Y-77898933D01*
X121469902Y-77867930D01*
X121465944Y-77839178D01*
X121463102Y-77812473D01*
X121461363Y-77787609D01*
X121460716Y-77764383D01*
X121461148Y-77742589D01*
X121462647Y-77722022D01*
X121465200Y-77702479D01*
X121468794Y-77683755D01*
X121473418Y-77665644D01*
X121479059Y-77647943D01*
X121485705Y-77630447D01*
X121497460Y-77601522D01*
X121508906Y-77578241D01*
X121520028Y-77560590D01*
X121525465Y-77553873D01*
X121530816Y-77548558D01*
X121536081Y-77544645D01*
X121541257Y-77542132D01*
X121546343Y-77541017D01*
X121551338Y-77541299D01*
X121556240Y-77542976D01*
X121561047Y-77546047D01*
X121565758Y-77550510D01*
X121570372Y-77556363D01*
X121574886Y-77563606D01*
X121579299Y-77572236D01*
X121587818Y-77593653D01*
X121595914Y-77620601D01*
X121603577Y-77653068D01*
X121610793Y-77691042D01*
X121617550Y-77734511D01*
X121623836Y-77783461D01*
X121629638Y-77837880D01*
X121641148Y-77951320D01*
X121655038Y-78072301D01*
X121680438Y-78278147D01*
X121683269Y-78298544D01*
X121685424Y-78321472D01*
X121687781Y-78373926D01*
X121687657Y-78433523D01*
X121685201Y-78498280D01*
X121680562Y-78566212D01*
X121673890Y-78635334D01*
X121665332Y-78703663D01*
X121655038Y-78769213D01*
X121642270Y-78849658D01*
X121632665Y-78923027D01*
X121626408Y-78989786D01*
X121624593Y-79020832D01*
X121623685Y-79050399D01*
X121623708Y-79078547D01*
X121624684Y-79105332D01*
X121626636Y-79130814D01*
X121629589Y-79155050D01*
X121633565Y-79178099D01*
X121638587Y-79200018D01*
X121644679Y-79220866D01*
X121651863Y-79240701D01*
X121660164Y-79259581D01*
X121669605Y-79277564D01*
X121680208Y-79294708D01*
X121691997Y-79311072D01*
X121704996Y-79326713D01*
X121719227Y-79341690D01*
X121734713Y-79356061D01*
X121751479Y-79369884D01*
X121769547Y-79383216D01*
X121788940Y-79396118D01*
X121809682Y-79408645D01*
X121831797Y-79420857D01*
X121855306Y-79432812D01*
X121880234Y-79444567D01*
X121934438Y-79467713D01*
X121979148Y-79487071D01*
X122022636Y-79508476D01*
X122064672Y-79531691D01*
X122105028Y-79556481D01*
X122143475Y-79582611D01*
X122179781Y-79609844D01*
X122213719Y-79637946D01*
X122245059Y-79666680D01*
X122273571Y-79695811D01*
X122299026Y-79725103D01*
X122321194Y-79754321D01*
X122330974Y-79768828D01*
X122339846Y-79783229D01*
X122347782Y-79797493D01*
X122354753Y-79811591D01*
X122360730Y-79825494D01*
X122365684Y-79839172D01*
X122369588Y-79852596D01*
X122372412Y-79865736D01*
X122374127Y-79878562D01*
X122374705Y-79891047D01*
X122376095Y-79908519D01*
X122380468Y-79924459D01*
X122388127Y-79938923D01*
X122399377Y-79951967D01*
X122414522Y-79963647D01*
X122433864Y-79974018D01*
X122457709Y-79983137D01*
X122486359Y-79991059D01*
X122520119Y-79997840D01*
X122559293Y-80003536D01*
X122604185Y-80008202D01*
X122655097Y-80011895D01*
X122712335Y-80014670D01*
X122776202Y-80016583D01*
X122925038Y-80018047D01*
X123008522Y-80017772D01*
X123083119Y-80016839D01*
X123149369Y-80015089D01*
X123179532Y-80013856D01*
X123207812Y-80012358D01*
X123234274Y-80010575D01*
X123258987Y-80008486D01*
X123282018Y-80006072D01*
X123303434Y-80003313D01*
X123323303Y-80000187D01*
X123341692Y-79996675D01*
X123358669Y-79992757D01*
X123374301Y-79988413D01*
X123388655Y-79983623D01*
X123401800Y-79978365D01*
X123413802Y-79972621D01*
X123424729Y-79966370D01*
X123434648Y-79959592D01*
X123443627Y-79952267D01*
X123451733Y-79944374D01*
X123459034Y-79935893D01*
X123465597Y-79926805D01*
X123471489Y-79917089D01*
X123476778Y-79906725D01*
X123481532Y-79895693D01*
X123485817Y-79883973D01*
X123489702Y-79871544D01*
X123493253Y-79858386D01*
X123496538Y-79844480D01*
X123503856Y-79818854D01*
X123514596Y-79792870D01*
X123528611Y-79766661D01*
X123545751Y-79740366D01*
X123565867Y-79714121D01*
X123588812Y-79688062D01*
X123614435Y-79662325D01*
X123642588Y-79637047D01*
X123673123Y-79612364D01*
X123705890Y-79588413D01*
X123740740Y-79565330D01*
X123777526Y-79543252D01*
X123816097Y-79522315D01*
X123856306Y-79502655D01*
X123898002Y-79484409D01*
X123941038Y-79467713D01*
X123994398Y-79446578D01*
X124041886Y-79424040D01*
X124083681Y-79399494D01*
X124119963Y-79372331D01*
X124136093Y-79357578D01*
X124150912Y-79341943D01*
X124164443Y-79325350D01*
X124176708Y-79307723D01*
X124187729Y-79288986D01*
X124197530Y-79269063D01*
X124206133Y-79247878D01*
X124213559Y-79225355D01*
X124224975Y-79175991D01*
X124231956Y-79120365D01*
X124234684Y-79057867D01*
X124233337Y-78987891D01*
X124228096Y-78909829D01*
X124219140Y-78823073D01*
X124206650Y-78727014D01*
X124190805Y-78621047D01*
X124178527Y-78535793D01*
X124173922Y-78497696D01*
X124170366Y-78462098D01*
X124167876Y-78428609D01*
X124166472Y-78396837D01*
X124166171Y-78366392D01*
X124166993Y-78336884D01*
X124168955Y-78307922D01*
X124172077Y-78279114D01*
X124176378Y-78250071D01*
X124181875Y-78220401D01*
X124188588Y-78189715D01*
X124196535Y-78157621D01*
X124205734Y-78123728D01*
X124216205Y-78087647D01*
X124229872Y-78037475D01*
X124242200Y-77986311D01*
X124253040Y-77935544D01*
X124262243Y-77886563D01*
X124269659Y-77840757D01*
X124275141Y-77799515D01*
X124278539Y-77764227D01*
X124279411Y-77749249D01*
X124279705Y-77736280D01*
X124276837Y-77699496D01*
X124274620Y-77666835D01*
X124273110Y-77638156D01*
X124272638Y-77625264D01*
X124272363Y-77613315D01*
X124272293Y-77602289D01*
X124272434Y-77592170D01*
X124272794Y-77582939D01*
X124273380Y-77574578D01*
X124274198Y-77567070D01*
X124275256Y-77560397D01*
X124276560Y-77554541D01*
X124278118Y-77549484D01*
X124279936Y-77545209D01*
X124282021Y-77541696D01*
X124283166Y-77540221D01*
X124284381Y-77538930D01*
X124285666Y-77537821D01*
X124287022Y-77536892D01*
X124288451Y-77536140D01*
X124289952Y-77535563D01*
X124291527Y-77535160D01*
X124293177Y-77534927D01*
X124294902Y-77534863D01*
X124296704Y-77534965D01*
X124300541Y-77535660D01*
X124304694Y-77536993D01*
X124309170Y-77538947D01*
X124313976Y-77541505D01*
X124319120Y-77544647D01*
X124324607Y-77548357D01*
X124330446Y-77552617D01*
X124336643Y-77557408D01*
X124343205Y-77562713D01*
X124357343Y-77576949D01*
X124369589Y-77594248D01*
X124379938Y-77614599D01*
X124388383Y-77637987D01*
X124394918Y-77664402D01*
X124399537Y-77693831D01*
X124402233Y-77726261D01*
X124403001Y-77761680D01*
X124401834Y-77800075D01*
X124398726Y-77841435D01*
X124393671Y-77885747D01*
X124386663Y-77932998D01*
X124377695Y-77983175D01*
X124366761Y-78036268D01*
X124353856Y-78092262D01*
X124338972Y-78151147D01*
X124331431Y-78182900D01*
X124324684Y-78213084D01*
X124318731Y-78241718D01*
X124313572Y-78268820D01*
X124309206Y-78294409D01*
X124305634Y-78318504D01*
X124302856Y-78341123D01*
X124300872Y-78362284D01*
X124299681Y-78382007D01*
X124299284Y-78400310D01*
X124299681Y-78417211D01*
X124300872Y-78432729D01*
X124302856Y-78446884D01*
X124305634Y-78459692D01*
X124309206Y-78471174D01*
X124313572Y-78481347D01*
X124319838Y-78491503D01*
X124325999Y-78499694D01*
X124329069Y-78503027D01*
X124332147Y-78505838D01*
X124335246Y-78508118D01*
X124338376Y-78509855D01*
X124341550Y-78511041D01*
X124344779Y-78511665D01*
X124348075Y-78511717D01*
X124351449Y-78511187D01*
X124354912Y-78510064D01*
X124358478Y-78508339D01*
X124362156Y-78506002D01*
X124365959Y-78503042D01*
X124369899Y-78499450D01*
X124373987Y-78495216D01*
X124382653Y-78484778D01*
X124392051Y-78471649D01*
X124402273Y-78455748D01*
X124413414Y-78436995D01*
X124425565Y-78415308D01*
X124438820Y-78390608D01*
X124453272Y-78362813D01*
X124477179Y-78311487D01*
X124498086Y-78254822D01*
X124515966Y-78193531D01*
X124530795Y-78128326D01*
X124542548Y-78059922D01*
X124551201Y-77989031D01*
X124556728Y-77916367D01*
X124559105Y-77842642D01*
X124558307Y-77768570D01*
X124554310Y-77694864D01*
X124547087Y-77622237D01*
X124536616Y-77551402D01*
X124522870Y-77483073D01*
X124505825Y-77417961D01*
X124485456Y-77356782D01*
X124461739Y-77300246D01*
X124435662Y-77247678D01*
X124406713Y-77196406D01*
X124375000Y-77146535D01*
X124340625Y-77098171D01*
X124303696Y-77051419D01*
X124264318Y-77006385D01*
X124222595Y-76963175D01*
X124178634Y-76921892D01*
X124132540Y-76882644D01*
X124084418Y-76845535D01*
X124034373Y-76810671D01*
X123982512Y-76778158D01*
X123928939Y-76748099D01*
X123873760Y-76720602D01*
X123817080Y-76695772D01*
X123759005Y-76673713D01*
X123689770Y-76651746D01*
X123611525Y-76631917D01*
X123525578Y-76614284D01*
X123433237Y-76598902D01*
X123335811Y-76585827D01*
X123234609Y-76575115D01*
X123130939Y-76566821D01*
X123026109Y-76561001D01*
X122921428Y-76557711D01*
X122818205Y-76557007D01*
X122717747Y-76558945D01*
X122621363Y-76563580D01*
X122530362Y-76570969D01*
X122446052Y-76581167D01*
X122369741Y-76594230D01*
X122302738Y-76610213D01*
X122180501Y-76647617D01*
X122066201Y-76689969D01*
X121959838Y-76737257D01*
X121909634Y-76762748D01*
X121861413Y-76789469D01*
X121815177Y-76817417D01*
X121770926Y-76846592D01*
X121728659Y-76876991D01*
X121688376Y-76908614D01*
X121650077Y-76941458D01*
X121613763Y-76975522D01*
X121579434Y-77010805D01*
X121547088Y-77047305D01*
X121516727Y-77085020D01*
X121488351Y-77123949D01*
X121461959Y-77164091D01*
X121437551Y-77205443D01*
X121415127Y-77248005D01*
X121394688Y-77291774D01*
X121376234Y-77336749D01*
X121359763Y-77382929D01*
X121345277Y-77430312D01*
X121332776Y-77478896D01*
X121322259Y-77528680D01*
X121313726Y-77579663D01*
X121307177Y-77631843D01*
X121302613Y-77685217D01*
X121300034Y-77739786D01*
X121299438Y-77795547D01*
X121164389Y-77795547D01*
X121164031Y-77737669D01*
X121166990Y-77662792D01*
X121173384Y-77589403D01*
X121183220Y-77517999D01*
X121196504Y-77449075D01*
X121213242Y-77383127D01*
X121233440Y-77320653D01*
X121257105Y-77262147D01*
X121292790Y-77190054D01*
X121331643Y-77121372D01*
X121373758Y-77056038D01*
X121419228Y-76993991D01*
X121468146Y-76935169D01*
X121520605Y-76879509D01*
X121576698Y-76826950D01*
X121636517Y-76777430D01*
X121700157Y-76730886D01*
X121767709Y-76687257D01*
X121839268Y-76646480D01*
X121914925Y-76608493D01*
X121994775Y-76573236D01*
X122078909Y-76540644D01*
X122167422Y-76510658D01*
X122260405Y-76483213D01*
X122329056Y-76467229D01*
X122408572Y-76454159D01*
X122497414Y-76443941D01*
X122594045Y-76436514D01*
X122696926Y-76431816D01*
X122804521Y-76429784D01*
X122915290Y-76430357D01*
G37*
D10*
X223400000Y-73500000D02*
G75*
G02*
X224900000Y-75000000I0J-1500000D01*
G01*
X224900000Y-125000000D02*
G75*
G02*
X223400000Y-126500000I-1500000J0D01*
G01*
D11*
G36*
X122874238Y-79302613D02*
G01*
X122875822Y-79362150D01*
X122876010Y-79390142D01*
X122875793Y-79416955D01*
X122875166Y-79442592D01*
X122874127Y-79467059D01*
X122872672Y-79490358D01*
X122870799Y-79512494D01*
X122868504Y-79533470D01*
X122865784Y-79553290D01*
X122862636Y-79571959D01*
X122859058Y-79589479D01*
X122855045Y-79605856D01*
X122850595Y-79621092D01*
X122845705Y-79635192D01*
X122840372Y-79648159D01*
X122834592Y-79659998D01*
X122828362Y-79670712D01*
X122821680Y-79680305D01*
X122814542Y-79688781D01*
X122806945Y-79696144D01*
X122798886Y-79702398D01*
X122790362Y-79707546D01*
X122781370Y-79711593D01*
X122771906Y-79714542D01*
X122761968Y-79716398D01*
X122751553Y-79717163D01*
X122740657Y-79716843D01*
X122729277Y-79715441D01*
X122717411Y-79712960D01*
X122705054Y-79709405D01*
X122692205Y-79704780D01*
X122681959Y-79699739D01*
X122672641Y-79692634D01*
X122664240Y-79683581D01*
X122656743Y-79672699D01*
X122650135Y-79660106D01*
X122644403Y-79645918D01*
X122639535Y-79630255D01*
X122635518Y-79613234D01*
X122629981Y-79575589D01*
X122627688Y-79533925D01*
X122628532Y-79489186D01*
X122632409Y-79442313D01*
X122639213Y-79394250D01*
X122648838Y-79345939D01*
X122661180Y-79298322D01*
X122676132Y-79252342D01*
X122693589Y-79208943D01*
X122713446Y-79169065D01*
X122724242Y-79150741D01*
X122735598Y-79133652D01*
X122747501Y-79117914D01*
X122759939Y-79103646D01*
X122861538Y-78993580D01*
X122874238Y-79302613D01*
G37*
D10*
X223400000Y-126500000D02*
X88400000Y-126500000D01*
D12*
G36*
X188734344Y-123593000D02*
G01*
X188276681Y-123593000D01*
X187495006Y-122128642D01*
X187495006Y-123593000D01*
X187059766Y-123593000D01*
X187059766Y-121459294D01*
X187627337Y-121459294D01*
X188299103Y-122681558D01*
X188299103Y-121459294D01*
X188734344Y-121459294D01*
X188734344Y-123593000D01*
G37*
G36*
X189613618Y-123593000D02*
G01*
X189168265Y-123593000D01*
X189168265Y-121984514D01*
X189613618Y-121984514D01*
X189613618Y-123593000D01*
G37*
G36*
X189625928Y-121721904D02*
G01*
X189155956Y-121721904D01*
X189155956Y-121327989D01*
X189625928Y-121327989D01*
X189625928Y-121721904D01*
G37*
G36*
X191479877Y-123593000D02*
G01*
X190960666Y-123593000D01*
X190663911Y-123111890D01*
X190359682Y-123593000D01*
X189850143Y-123593000D01*
X190397930Y-122789270D01*
X189858935Y-121984514D01*
X190378147Y-121984514D01*
X190670066Y-122457417D01*
X190962864Y-121984514D01*
X191473722Y-121984514D01*
X190933408Y-122776447D01*
X191479877Y-123593000D01*
G37*
G36*
X192158237Y-123593000D02*
G01*
X191712885Y-123593000D01*
X191712885Y-121984514D01*
X192158237Y-121984514D01*
X192158237Y-123593000D01*
G37*
G36*
X192170547Y-121721904D02*
G01*
X191700575Y-121721904D01*
X191700575Y-121327989D01*
X192170547Y-121327989D01*
X192170547Y-121721904D01*
G37*
G36*
X193362222Y-121923720D02*
G01*
X193455814Y-121938296D01*
X193557273Y-121968614D01*
X193646892Y-122012924D01*
X193724671Y-122071228D01*
X193769947Y-122117870D01*
X193827917Y-122198455D01*
X193873894Y-122291338D01*
X193907876Y-122396519D01*
X193929865Y-122513997D01*
X193939027Y-122621290D01*
X193940526Y-122689765D01*
X193940526Y-122870822D01*
X192921448Y-122870822D01*
X192935377Y-122979672D01*
X192970188Y-123082535D01*
X193025348Y-123166364D01*
X193045865Y-123187801D01*
X193127867Y-123245683D01*
X193219730Y-123279448D01*
X193315750Y-123294884D01*
X193382627Y-123297563D01*
X193478610Y-123290169D01*
X193572516Y-123267987D01*
X193656081Y-123234988D01*
X193740461Y-123190877D01*
X193817463Y-123140267D01*
X193864909Y-123100606D01*
X193914588Y-123100606D01*
X193914588Y-123522731D01*
X193831122Y-123559958D01*
X193741563Y-123593898D01*
X193655353Y-123620024D01*
X193630143Y-123626339D01*
X193534934Y-123644736D01*
X193442610Y-123654834D01*
X193344791Y-123658620D01*
X193334706Y-123658652D01*
X193233240Y-123655174D01*
X193137886Y-123644739D01*
X193048647Y-123627348D01*
X192945695Y-123595828D01*
X192852296Y-123553437D01*
X192768449Y-123500178D01*
X192694155Y-123436049D01*
X192630069Y-123361877D01*
X192576844Y-123278490D01*
X192534482Y-123185885D01*
X192502982Y-123084065D01*
X192482344Y-122973028D01*
X192472568Y-122852774D01*
X192471699Y-122802092D01*
X192476840Y-122678959D01*
X192490747Y-122575386D01*
X192920129Y-122575386D01*
X193497812Y-122575386D01*
X193484651Y-122467887D01*
X193443860Y-122373933D01*
X193428349Y-122354322D01*
X193350902Y-122300940D01*
X193257839Y-122281112D01*
X193224357Y-122279950D01*
X193134445Y-122289831D01*
X193045643Y-122326338D01*
X193012892Y-122350219D01*
X192954456Y-122427902D01*
X192925059Y-122529046D01*
X192920129Y-122575386D01*
X192490747Y-122575386D01*
X192492264Y-122564090D01*
X192517970Y-122457486D01*
X192553959Y-122359146D01*
X192600230Y-122269072D01*
X192656784Y-122187262D01*
X192682285Y-122156852D01*
X192752041Y-122088290D01*
X192829417Y-122031349D01*
X192914415Y-121986028D01*
X193007032Y-121952329D01*
X193107271Y-121930250D01*
X193215130Y-121919791D01*
X193260408Y-121918861D01*
X193362222Y-121923720D01*
G37*
G36*
X195762060Y-121921001D02*
G01*
X195867257Y-121929694D01*
X195962172Y-121945074D01*
X196062497Y-121972356D01*
X196148015Y-122009268D01*
X196218726Y-122055808D01*
X196292585Y-122134027D01*
X196345341Y-122231736D01*
X196374193Y-122333220D01*
X196386887Y-122449627D01*
X196387547Y-122485627D01*
X196387547Y-123593000D01*
X195946151Y-123593000D01*
X195946151Y-123421175D01*
X195873110Y-123484332D01*
X195856905Y-123498111D01*
X195780985Y-123554371D01*
X195757107Y-123568380D01*
X195673164Y-123612578D01*
X195620819Y-123633519D01*
X195532484Y-123654504D01*
X195466507Y-123658652D01*
X195371600Y-123649676D01*
X195284717Y-123622748D01*
X195196564Y-123570996D01*
X195135020Y-123515037D01*
X195076549Y-123438005D01*
X195030737Y-123339464D01*
X195006069Y-123228347D01*
X195001371Y-123147281D01*
X195004618Y-123095477D01*
X195453757Y-123095477D01*
X195461231Y-123179081D01*
X195498161Y-123240630D01*
X195566304Y-123283715D01*
X195655230Y-123296901D01*
X195689842Y-123297563D01*
X195778307Y-123283647D01*
X195825251Y-123265250D01*
X195904832Y-123217044D01*
X195946151Y-123180620D01*
X195946151Y-122837996D01*
X195858277Y-122847636D01*
X195770161Y-122859276D01*
X195750512Y-122862103D01*
X195663115Y-122877655D01*
X195590924Y-122898006D01*
X195511216Y-122945793D01*
X195488928Y-122970840D01*
X195454994Y-123067497D01*
X195453757Y-123095477D01*
X195004618Y-123095477D01*
X195007982Y-123041814D01*
X195030528Y-122940610D01*
X195069075Y-122854922D01*
X195128158Y-122776687D01*
X195203192Y-122712012D01*
X195262076Y-122676429D01*
X195345315Y-122639153D01*
X195440060Y-122609390D01*
X195535168Y-122589028D01*
X195568942Y-122583593D01*
X195661239Y-122570642D01*
X195755239Y-122559486D01*
X195850942Y-122550125D01*
X195948349Y-122542560D01*
X195948349Y-122533327D01*
X195932822Y-122431285D01*
X195876317Y-122349938D01*
X195854267Y-122334831D01*
X195763453Y-122299298D01*
X195673551Y-122284291D01*
X195577735Y-122279950D01*
X195485682Y-122288500D01*
X195396460Y-122311569D01*
X195342529Y-122331754D01*
X195258840Y-122367217D01*
X195174358Y-122405850D01*
X195163597Y-122411255D01*
X195122711Y-122411255D01*
X195122711Y-122002979D01*
X195215144Y-121978359D01*
X195304322Y-121959053D01*
X195351762Y-121949636D01*
X195441317Y-121934760D01*
X195530943Y-121924752D01*
X195620638Y-121919613D01*
X195670498Y-121918861D01*
X195762060Y-121921001D01*
G37*
G36*
X197233408Y-123593000D02*
G01*
X196788056Y-123593000D01*
X196788056Y-121327989D01*
X197233408Y-121327989D01*
X197233408Y-123593000D01*
G37*
G36*
X198304921Y-121921001D02*
G01*
X198410118Y-121929694D01*
X198505033Y-121945074D01*
X198605358Y-121972356D01*
X198690876Y-122009268D01*
X198761587Y-122055808D01*
X198835446Y-122134027D01*
X198888203Y-122231736D01*
X198917054Y-122333220D01*
X198929748Y-122449627D01*
X198930408Y-122485627D01*
X198930408Y-123593000D01*
X198489012Y-123593000D01*
X198489012Y-123421175D01*
X198415971Y-123484332D01*
X198399766Y-123498111D01*
X198323846Y-123554371D01*
X198299968Y-123568380D01*
X198216025Y-123612578D01*
X198163681Y-123633519D01*
X198075345Y-123654504D01*
X198009368Y-123658652D01*
X197914461Y-123649676D01*
X197827578Y-123622748D01*
X197739425Y-123570996D01*
X197677882Y-123515037D01*
X197619410Y-123438005D01*
X197573598Y-123339464D01*
X197548931Y-123228347D01*
X197544232Y-123147281D01*
X197547480Y-123095477D01*
X197996618Y-123095477D01*
X198004092Y-123179081D01*
X198041022Y-123240630D01*
X198109166Y-123283715D01*
X198198091Y-123296901D01*
X198232704Y-123297563D01*
X198321169Y-123283647D01*
X198368112Y-123265250D01*
X198447693Y-123217044D01*
X198489012Y-123180620D01*
X198489012Y-122837996D01*
X198401138Y-122847636D01*
X198313022Y-122859276D01*
X198293374Y-122862103D01*
X198205976Y-122877655D01*
X198133785Y-122898006D01*
X198054077Y-122945793D01*
X198031789Y-122970840D01*
X197997855Y-123067497D01*
X197996618Y-123095477D01*
X197547480Y-123095477D01*
X197550844Y-123041814D01*
X197573390Y-122940610D01*
X197611936Y-122854922D01*
X197671019Y-122776687D01*
X197746053Y-122712012D01*
X197804937Y-122676429D01*
X197888176Y-122639153D01*
X197982921Y-122609390D01*
X198078029Y-122589028D01*
X198111803Y-122583593D01*
X198204100Y-122570642D01*
X198298100Y-122559486D01*
X198393803Y-122550125D01*
X198491210Y-122542560D01*
X198491210Y-122533327D01*
X198475683Y-122431285D01*
X198419178Y-122349938D01*
X198397128Y-122334831D01*
X198306314Y-122299298D01*
X198216412Y-122284291D01*
X198120596Y-122279950D01*
X198028543Y-122288500D01*
X197939321Y-122311569D01*
X197885390Y-122331754D01*
X197801701Y-122367217D01*
X197717219Y-122405850D01*
X197706458Y-122411255D01*
X197665572Y-122411255D01*
X197665572Y-122002979D01*
X197758005Y-121978359D01*
X197847184Y-121959053D01*
X197894623Y-121949636D01*
X197984179Y-121934760D01*
X198073804Y-121924752D01*
X198163499Y-121919613D01*
X198213360Y-121918861D01*
X198304921Y-121921001D01*
G37*
G36*
X200337686Y-122509734D02*
G01*
X200298119Y-122509734D01*
X200210157Y-122485635D01*
X200206235Y-122485114D01*
X200118005Y-122477196D01*
X200101601Y-122476907D01*
X200011805Y-122480498D01*
X199933220Y-122491269D01*
X199842682Y-122514585D01*
X199776270Y-122538457D01*
X199776270Y-123593000D01*
X199330917Y-123593000D01*
X199330917Y-121984514D01*
X199776270Y-121984514D01*
X199776270Y-122222504D01*
X199847491Y-122155281D01*
X199921834Y-122094905D01*
X200004386Y-122043042D01*
X200032138Y-122030163D01*
X200117823Y-122000607D01*
X200209477Y-121985227D01*
X200232613Y-121984514D01*
X200285369Y-121986053D01*
X200337686Y-121990669D01*
X200337686Y-122509734D01*
G37*
G36*
X201940603Y-122442542D02*
G01*
X201940603Y-123593000D01*
X201493053Y-123593000D01*
X201493053Y-122782089D01*
X201491990Y-122678788D01*
X201488217Y-122580515D01*
X201472180Y-122476969D01*
X201460959Y-122445107D01*
X201396063Y-122371211D01*
X201393255Y-122369709D01*
X201305465Y-122347109D01*
X201267079Y-122345602D01*
X201178671Y-122360391D01*
X201139584Y-122376890D01*
X201057062Y-122423248D01*
X201028356Y-122442542D01*
X201028356Y-123593000D01*
X200583004Y-123593000D01*
X200583004Y-121984514D01*
X201028356Y-121984514D01*
X201028356Y-122143516D01*
X201099127Y-122081987D01*
X201174794Y-122024718D01*
X201248175Y-121978359D01*
X201337247Y-121939837D01*
X201426037Y-121921708D01*
X201480743Y-121918861D01*
X201571253Y-121927346D01*
X201661340Y-121955957D01*
X201722983Y-121990669D01*
X201795358Y-122054045D01*
X201854874Y-122136463D01*
X201887407Y-122201988D01*
X201961994Y-122132055D01*
X202035398Y-122071129D01*
X202115572Y-122013998D01*
X202147233Y-121994259D01*
X202233355Y-121951332D01*
X202325885Y-121924825D01*
X202394309Y-121918861D01*
X202487612Y-121926445D01*
X202581571Y-121953686D01*
X202662011Y-122000737D01*
X202728932Y-122067600D01*
X202736346Y-122077351D01*
X202787509Y-122165026D01*
X202824054Y-122270076D01*
X202844039Y-122376248D01*
X202852833Y-122495723D01*
X202853290Y-122532302D01*
X202853290Y-123593000D01*
X202405739Y-123593000D01*
X202405739Y-122782089D01*
X202404773Y-122677909D01*
X202401343Y-122580002D01*
X202385938Y-122476929D01*
X202374965Y-122445107D01*
X202310973Y-122371211D01*
X202308140Y-122369709D01*
X202218536Y-122347109D01*
X202179326Y-122345602D01*
X202090337Y-122360501D01*
X202070296Y-122368170D01*
X201986138Y-122412800D01*
X201940603Y-122442542D01*
G37*
G36*
X204832536Y-123658652D02*
G01*
X204743510Y-123655414D01*
X204648084Y-123644032D01*
X204557667Y-123624453D01*
X204500170Y-123606848D01*
X204410251Y-123569332D01*
X204327888Y-123520896D01*
X204253081Y-123461540D01*
X204239026Y-123448359D01*
X204175141Y-123375900D01*
X204120874Y-123292522D01*
X204076223Y-123198225D01*
X204068447Y-123178055D01*
X204036453Y-123070655D01*
X204017790Y-122964658D01*
X204008725Y-122849817D01*
X204007777Y-122795937D01*
X204011816Y-122684700D01*
X204023934Y-122581285D01*
X204047222Y-122474292D01*
X204072404Y-122397919D01*
X204118093Y-122298703D01*
X204173829Y-122210707D01*
X204239612Y-122133931D01*
X204253974Y-122119922D01*
X204327664Y-122060306D01*
X204408053Y-122011610D01*
X204495139Y-121973833D01*
X204513360Y-121967588D01*
X204606482Y-121941892D01*
X204701751Y-121925713D01*
X204799167Y-121919052D01*
X204818907Y-121918861D01*
X204913937Y-121923043D01*
X205003771Y-121935589D01*
X205080931Y-121954252D01*
X205168659Y-121983440D01*
X205251813Y-122018686D01*
X205304706Y-122045550D01*
X205304706Y-122476907D01*
X205241838Y-122476907D01*
X205179410Y-122427668D01*
X205099551Y-122377801D01*
X205089724Y-122372787D01*
X205004136Y-122337549D01*
X204978056Y-122329702D01*
X204890294Y-122314776D01*
X204837372Y-122312776D01*
X204743720Y-122323081D01*
X204654917Y-122358705D01*
X204582171Y-122419773D01*
X204563478Y-122443055D01*
X204512937Y-122533275D01*
X204483455Y-122630062D01*
X204469135Y-122741617D01*
X204467637Y-122795937D01*
X204473765Y-122904161D01*
X204495307Y-123009360D01*
X204537433Y-123105691D01*
X204565676Y-123145742D01*
X204635254Y-123208493D01*
X204720889Y-123248003D01*
X204811689Y-123263691D01*
X204844846Y-123264737D01*
X204934027Y-123258895D01*
X204996081Y-123246272D01*
X205081369Y-123216285D01*
X205108189Y-123202675D01*
X205182048Y-123152410D01*
X205241838Y-123100606D01*
X205304706Y-123100606D01*
X205304706Y-123535554D01*
X205217811Y-123577586D01*
X205127868Y-123611999D01*
X205085327Y-123625313D01*
X204996198Y-123645629D01*
X204908522Y-123656015D01*
X204832536Y-123658652D01*
G37*
G36*
X206036702Y-123593000D02*
G01*
X205591350Y-123593000D01*
X205591350Y-121327989D01*
X206036702Y-121327989D01*
X206036702Y-123593000D01*
G37*
G36*
X207198608Y-121922508D02*
G01*
X207301734Y-121937322D01*
X207396788Y-121963531D01*
X207483771Y-122001135D01*
X207562683Y-122050134D01*
X207646722Y-122123975D01*
X207672152Y-122152235D01*
X207739685Y-122245737D01*
X207793245Y-122351212D01*
X207827205Y-122448255D01*
X207851462Y-122553611D01*
X207866017Y-122667283D01*
X207870868Y-122789270D01*
X207865995Y-122911391D01*
X207851377Y-123025148D01*
X207827012Y-123130540D01*
X207792901Y-123227567D01*
X207739104Y-123332958D01*
X207671273Y-123426304D01*
X207590737Y-123505266D01*
X207514934Y-123558588D01*
X207431231Y-123600565D01*
X207339629Y-123631197D01*
X207240126Y-123650483D01*
X207132724Y-123658425D01*
X207110296Y-123658652D01*
X207001441Y-123652979D01*
X206900464Y-123635962D01*
X206807365Y-123607599D01*
X206722145Y-123567891D01*
X206644802Y-123516838D01*
X206562391Y-123440599D01*
X206549759Y-123426304D01*
X206481928Y-123332958D01*
X206428130Y-123227567D01*
X206394020Y-123130540D01*
X206369655Y-123025148D01*
X206355036Y-122911391D01*
X206350286Y-122792347D01*
X206811343Y-122792347D01*
X206814826Y-122896441D01*
X206827500Y-123001823D01*
X206832445Y-123027260D01*
X206862306Y-123126869D01*
X206893995Y-123187288D01*
X206962001Y-123256146D01*
X206988517Y-123271405D01*
X207075868Y-123295494D01*
X207114253Y-123297563D01*
X207202043Y-123284003D01*
X207229877Y-123273457D01*
X207305547Y-123214953D01*
X207323080Y-123191391D01*
X207368899Y-123102313D01*
X207388147Y-123039057D01*
X207404303Y-122932756D01*
X207409500Y-122821272D01*
X207409689Y-122792347D01*
X207406536Y-122689733D01*
X207394887Y-122586790D01*
X207387267Y-122548202D01*
X207356974Y-122449495D01*
X207325718Y-122390226D01*
X207257217Y-122319829D01*
X207230317Y-122305083D01*
X207142032Y-122281521D01*
X207110296Y-122279950D01*
X207021929Y-122291490D01*
X206995990Y-122300466D01*
X206920514Y-122357881D01*
X206900150Y-122383045D01*
X206854069Y-122476777D01*
X206835523Y-122540508D01*
X206818167Y-122645657D01*
X206811721Y-122755201D01*
X206811343Y-122792347D01*
X206350286Y-122792347D01*
X206350163Y-122789270D01*
X206355069Y-122666434D01*
X206369784Y-122552139D01*
X206394310Y-122446384D01*
X206428646Y-122349169D01*
X206482798Y-122243784D01*
X206551078Y-122150697D01*
X206631954Y-122071909D01*
X206707804Y-122018704D01*
X206791339Y-121976820D01*
X206882560Y-121946256D01*
X206981465Y-121927012D01*
X207088056Y-121919088D01*
X207110296Y-121918861D01*
X207198608Y-121922508D01*
G37*
G36*
X208903576Y-123658652D02*
G01*
X208814549Y-123655414D01*
X208719124Y-123644032D01*
X208628707Y-123624453D01*
X208571210Y-123606848D01*
X208481291Y-123569332D01*
X208398927Y-123520896D01*
X208324120Y-123461540D01*
X208310066Y-123448359D01*
X208246181Y-123375900D01*
X208191913Y-123292522D01*
X208147263Y-123198225D01*
X208139487Y-123178055D01*
X208107493Y-123070655D01*
X208088830Y-122964658D01*
X208079765Y-122849817D01*
X208078817Y-122795937D01*
X208082856Y-122684700D01*
X208094973Y-122581285D01*
X208118262Y-122474292D01*
X208143443Y-122397919D01*
X208189133Y-122298703D01*
X208244869Y-122210707D01*
X208310651Y-122133931D01*
X208325013Y-122119922D01*
X208398704Y-122060306D01*
X208479093Y-122011610D01*
X208566178Y-121973833D01*
X208584399Y-121967588D01*
X208677522Y-121941892D01*
X208772791Y-121925713D01*
X208870206Y-121919052D01*
X208889947Y-121918861D01*
X208984977Y-121923043D01*
X209074811Y-121935589D01*
X209151971Y-121954252D01*
X209239699Y-121983440D01*
X209322852Y-122018686D01*
X209375746Y-122045550D01*
X209375746Y-122476907D01*
X209312878Y-122476907D01*
X209250450Y-122427668D01*
X209170591Y-122377801D01*
X209160764Y-122372787D01*
X209075176Y-122337549D01*
X209049096Y-122329702D01*
X208961334Y-122314776D01*
X208908412Y-122312776D01*
X208814760Y-122323081D01*
X208725957Y-122358705D01*
X208653211Y-122419773D01*
X208634518Y-122443055D01*
X208583977Y-122533275D01*
X208554495Y-122630062D01*
X208540175Y-122741617D01*
X208538677Y-122795937D01*
X208544805Y-122904161D01*
X208566346Y-123009360D01*
X208608472Y-123105691D01*
X208636716Y-123145742D01*
X208706294Y-123208493D01*
X208791929Y-123248003D01*
X208882729Y-123263691D01*
X208915886Y-123264737D01*
X209005067Y-123258895D01*
X209067121Y-123246272D01*
X209152408Y-123216285D01*
X209179228Y-123202675D01*
X209253087Y-123152410D01*
X209312878Y-123100606D01*
X209375746Y-123100606D01*
X209375746Y-123535554D01*
X209288850Y-123577586D01*
X209198907Y-123611999D01*
X209156367Y-123625313D01*
X209067238Y-123645629D01*
X208979561Y-123656015D01*
X208903576Y-123658652D01*
G37*
G36*
X211136493Y-123593000D02*
G01*
X210618161Y-123593000D01*
X210228642Y-122892364D01*
X210107742Y-123062651D01*
X210107742Y-123593000D01*
X209662390Y-123593000D01*
X209662390Y-121327989D01*
X210107742Y-121327989D01*
X210107742Y-122694894D01*
X210587386Y-121984514D01*
X211100443Y-121984514D01*
X210601015Y-122677968D01*
X211136493Y-123593000D01*
G37*
D13*
G36*
X97913348Y-121281632D02*
G01*
X98027192Y-121292531D01*
X98144688Y-121315887D01*
X98153538Y-121318339D01*
X98267237Y-121359436D01*
X98367580Y-121418409D01*
X98384982Y-121432059D01*
X98467139Y-121514564D01*
X98527107Y-121613189D01*
X98563762Y-121730719D01*
X98575789Y-121851349D01*
X98575980Y-121869937D01*
X98567806Y-121993963D01*
X98543284Y-122113982D01*
X98502414Y-122229993D01*
X98492278Y-122252715D01*
X98433162Y-122360975D01*
X98360440Y-122460077D01*
X98274114Y-122550019D01*
X98255216Y-122566909D01*
X98160990Y-122639437D01*
X98060180Y-122699487D01*
X97952788Y-122747057D01*
X97930519Y-122755073D01*
X97811277Y-122787531D01*
X97691577Y-122806465D01*
X97575328Y-122815120D01*
X97497965Y-122816623D01*
X97155293Y-122816623D01*
X96951374Y-123717000D01*
X96635666Y-123717000D01*
X96894740Y-122554013D01*
X97213715Y-122554013D01*
X97495157Y-122554013D01*
X97617742Y-122549718D01*
X97734210Y-122535238D01*
X97809741Y-122517669D01*
X97920181Y-122473517D01*
X98015562Y-122410302D01*
X98027142Y-122400433D01*
X98110980Y-122312853D01*
X98177420Y-122209058D01*
X98187805Y-122187062D01*
X98225707Y-122070129D01*
X98240146Y-121950301D01*
X98240610Y-121923280D01*
X98225443Y-121802380D01*
X98213646Y-121765011D01*
X98150174Y-121663177D01*
X98129944Y-121644843D01*
X98030085Y-121585903D01*
X97969281Y-121565709D01*
X97855540Y-121546498D01*
X97738062Y-121541113D01*
X97728848Y-121541089D01*
X97436734Y-121541089D01*
X97213715Y-122554013D01*
X96894740Y-122554013D01*
X97178886Y-121278479D01*
X97798506Y-121278479D01*
X97913348Y-121281632D01*
G37*
G36*
X99686618Y-121844965D02*
G01*
X99809015Y-121858822D01*
X99929609Y-121887160D01*
X100040684Y-121934981D01*
X100061831Y-121947900D01*
X100148630Y-122026714D01*
X100203280Y-122129800D01*
X100225784Y-122257157D01*
X100226427Y-122285541D01*
X100219124Y-122379916D01*
X100202833Y-122474292D01*
X99926448Y-123717000D01*
X99630963Y-123717000D01*
X99675341Y-123520628D01*
X99576972Y-123583844D01*
X99559057Y-123595660D01*
X99456809Y-123655908D01*
X99409630Y-123678898D01*
X99301754Y-123718969D01*
X99229867Y-123735757D01*
X99115660Y-123750394D01*
X99000669Y-123754515D01*
X98888711Y-123744639D01*
X98778904Y-123710498D01*
X98675859Y-123644778D01*
X98659120Y-123629658D01*
X98584600Y-123534745D01*
X98541013Y-123421685D01*
X98528230Y-123303154D01*
X98533152Y-123233399D01*
X98842254Y-123233399D01*
X98872536Y-123347796D01*
X98919776Y-123397530D01*
X99026243Y-123441896D01*
X99140179Y-123454167D01*
X99160209Y-123454390D01*
X99277889Y-123444425D01*
X99387998Y-123417538D01*
X99452885Y-123394013D01*
X99562191Y-123345268D01*
X99665967Y-123289599D01*
X99732079Y-123248639D01*
X99847240Y-122779107D01*
X99729024Y-122784602D01*
X99604174Y-122793412D01*
X99487944Y-122805004D01*
X99415247Y-122814278D01*
X99303642Y-122832745D01*
X99186515Y-122861102D01*
X99102909Y-122889896D01*
X98996411Y-122943785D01*
X98908541Y-123023545D01*
X98854941Y-123131490D01*
X98842254Y-123233399D01*
X98533152Y-123233399D01*
X98537227Y-123175648D01*
X98564218Y-123061308D01*
X98614691Y-122950741D01*
X98620359Y-122941480D01*
X98694571Y-122846296D01*
X98789760Y-122763857D01*
X98894497Y-122699972D01*
X99000758Y-122652522D01*
X99118573Y-122613048D01*
X99232996Y-122584655D01*
X99324804Y-122567495D01*
X99438515Y-122550829D01*
X99558946Y-122537249D01*
X99686097Y-122526755D01*
X99800432Y-122520215D01*
X99899483Y-122516497D01*
X99915212Y-122435604D01*
X99921392Y-122365262D01*
X99898166Y-122248062D01*
X99891057Y-122235129D01*
X99806231Y-122155408D01*
X99695143Y-122117902D01*
X99677027Y-122114962D01*
X99563922Y-122104705D01*
X99515240Y-122103824D01*
X99399849Y-122112144D01*
X99282143Y-122134593D01*
X99208520Y-122154236D01*
X99097974Y-122188756D01*
X98987012Y-122229194D01*
X98929326Y-122253887D01*
X98913597Y-122253887D01*
X98972020Y-121932073D01*
X99082827Y-121904669D01*
X99193396Y-121882000D01*
X99235484Y-121874041D01*
X99353483Y-121855352D01*
X99468031Y-121844420D01*
X99569169Y-121841214D01*
X99686618Y-121844965D01*
G37*
G36*
X101919005Y-123717000D02*
G01*
X101621835Y-123717000D01*
X101664528Y-123524145D01*
X101569135Y-123589688D01*
X101463619Y-123653996D01*
X101357130Y-123705324D01*
X101341517Y-123711138D01*
X101230276Y-123740790D01*
X101110863Y-123753837D01*
X101075244Y-123754515D01*
X100956748Y-123744367D01*
X100838968Y-123708689D01*
X100737629Y-123647324D01*
X100679204Y-123592143D01*
X100608600Y-123489170D01*
X100565239Y-123378097D01*
X100540136Y-123248633D01*
X100533147Y-123120265D01*
X100535739Y-123052268D01*
X100844361Y-123052268D01*
X100854119Y-123175662D01*
X100890811Y-123293629D01*
X100926939Y-123351221D01*
X101019472Y-123421747D01*
X101130279Y-123450763D01*
X101196584Y-123454390D01*
X101314046Y-123441487D01*
X101424851Y-123406399D01*
X101467913Y-123386979D01*
X101568556Y-123334359D01*
X101670810Y-123272704D01*
X101722951Y-123237502D01*
X101956643Y-122211682D01*
X101851875Y-122163762D01*
X101748792Y-122130203D01*
X101636795Y-122109620D01*
X101531392Y-122103824D01*
X101413343Y-122115118D01*
X101305249Y-122148997D01*
X101238715Y-122184131D01*
X101140220Y-122258772D01*
X101059998Y-122345189D01*
X101017944Y-122403364D01*
X100960619Y-122505579D01*
X100914195Y-122622303D01*
X100889302Y-122708179D01*
X100863715Y-122828972D01*
X100848750Y-122947133D01*
X100844361Y-123052268D01*
X100535739Y-123052268D01*
X100538062Y-122991342D01*
X100552808Y-122866009D01*
X100577385Y-122744266D01*
X100611793Y-122626113D01*
X100654943Y-122513090D01*
X100705185Y-122407321D01*
X100770185Y-122297001D01*
X100826946Y-122217544D01*
X100906334Y-122125648D01*
X100993453Y-122045158D01*
X101088304Y-121976075D01*
X101144340Y-121942624D01*
X101249357Y-121893603D01*
X101357751Y-121860625D01*
X101469523Y-121843690D01*
X101533077Y-121841214D01*
X101651768Y-121847273D01*
X101769631Y-121867211D01*
X101792048Y-121872868D01*
X101899714Y-121908563D01*
X102006940Y-121961118D01*
X102013381Y-121964899D01*
X102190334Y-121128416D01*
X102487505Y-121128416D01*
X101919005Y-123717000D01*
G37*
G36*
X103732172Y-121848507D02*
G01*
X103843252Y-121870386D01*
X103953743Y-121913251D01*
X104057061Y-121984245D01*
X104067170Y-121993622D01*
X104144291Y-122088805D01*
X104196172Y-122203556D01*
X104221100Y-122321983D01*
X104226709Y-122420949D01*
X104217111Y-122542542D01*
X104213227Y-122573943D01*
X104194304Y-122694400D01*
X104169972Y-122816623D01*
X102869501Y-122816623D01*
X102856018Y-122910412D01*
X102852086Y-122995995D01*
X102862840Y-123118401D01*
X102900012Y-123236027D01*
X102963737Y-123334304D01*
X102988032Y-123360014D01*
X103084079Y-123429566D01*
X103202290Y-123473358D01*
X103327629Y-123490746D01*
X103373398Y-123491905D01*
X103494251Y-123483732D01*
X103606076Y-123462116D01*
X103719767Y-123426991D01*
X103731238Y-123422736D01*
X103840584Y-123377787D01*
X103947431Y-123324377D01*
X104040205Y-123266811D01*
X104057620Y-123266811D01*
X103993018Y-123600349D01*
X103887282Y-123640058D01*
X103850331Y-123654278D01*
X103741895Y-123689669D01*
X103689668Y-123703517D01*
X103575561Y-123729712D01*
X103515523Y-123741033D01*
X103399777Y-123752922D01*
X103326210Y-123754515D01*
X103194219Y-123748271D01*
X103073366Y-123729538D01*
X102963652Y-123698317D01*
X102849730Y-123646109D01*
X102750969Y-123576902D01*
X102669762Y-123491314D01*
X102608500Y-123389962D01*
X102567184Y-123272846D01*
X102545814Y-123139967D01*
X102542557Y-123056958D01*
X102547341Y-122934180D01*
X102561692Y-122815853D01*
X102593085Y-122674205D01*
X102634439Y-122554013D01*
X102912194Y-122554013D01*
X103919989Y-122554013D01*
X103930662Y-122484843D01*
X103934033Y-122423294D01*
X103916292Y-122304155D01*
X103852567Y-122199045D01*
X103841343Y-122188235D01*
X103739333Y-122130532D01*
X103617835Y-122106792D01*
X103545296Y-122103824D01*
X103423216Y-122113608D01*
X103309134Y-122142959D01*
X103203050Y-122191877D01*
X103147571Y-122227509D01*
X103058773Y-122303341D01*
X102980851Y-122402282D01*
X102924763Y-122516680D01*
X102912194Y-122554013D01*
X102634439Y-122554013D01*
X102639428Y-122539512D01*
X102700719Y-122411774D01*
X102776960Y-122290991D01*
X102848715Y-122199372D01*
X102927669Y-122115429D01*
X103032754Y-122026239D01*
X103144944Y-121954538D01*
X103264239Y-121900324D01*
X103390637Y-121863599D01*
X103524140Y-121844362D01*
X103607651Y-121841214D01*
X103732172Y-121848507D01*
G37*
G36*
X105833339Y-122216371D02*
G01*
X105817609Y-122216371D01*
X105706487Y-122188791D01*
X105699640Y-122187648D01*
X105587078Y-122178993D01*
X105568189Y-122178856D01*
X105447699Y-122190368D01*
X105337300Y-122221431D01*
X105273265Y-122248612D01*
X105165381Y-122304885D01*
X105060815Y-122369072D01*
X104992948Y-122416260D01*
X104708698Y-123717000D01*
X104408719Y-123717000D01*
X104811500Y-121878730D01*
X105111479Y-121878730D01*
X105051371Y-122150719D01*
X105152417Y-122080084D01*
X105256526Y-122014633D01*
X105360319Y-121959312D01*
X105407526Y-121938521D01*
X105515410Y-121902086D01*
X105628540Y-121881591D01*
X105687843Y-121878730D01*
X105800195Y-121883420D01*
X105901311Y-121899247D01*
X105833339Y-122216371D01*
G37*
G36*
X107021830Y-121848507D02*
G01*
X107132910Y-121870386D01*
X107243401Y-121913251D01*
X107346719Y-121984245D01*
X107356828Y-121993622D01*
X107433949Y-122088805D01*
X107485830Y-122203556D01*
X107510758Y-122321983D01*
X107516367Y-122420949D01*
X107506769Y-122542542D01*
X107502885Y-122573943D01*
X107483962Y-122694400D01*
X107459630Y-122816623D01*
X106159159Y-122816623D01*
X106145676Y-122910412D01*
X106141744Y-122995995D01*
X106152498Y-123118401D01*
X106189670Y-123236027D01*
X106253395Y-123334304D01*
X106277690Y-123360014D01*
X106373737Y-123429566D01*
X106491948Y-123473358D01*
X106617287Y-123490746D01*
X106663056Y-123491905D01*
X106783909Y-123483732D01*
X106895734Y-123462116D01*
X107009425Y-123426991D01*
X107020896Y-123422736D01*
X107130242Y-123377787D01*
X107237089Y-123324377D01*
X107329863Y-123266811D01*
X107347278Y-123266811D01*
X107282676Y-123600349D01*
X107176940Y-123640058D01*
X107139989Y-123654278D01*
X107031553Y-123689669D01*
X106979326Y-123703517D01*
X106865219Y-123729712D01*
X106805181Y-123741033D01*
X106689435Y-123752922D01*
X106615868Y-123754515D01*
X106483877Y-123748271D01*
X106363024Y-123729538D01*
X106253310Y-123698317D01*
X106139388Y-123646109D01*
X106040628Y-123576902D01*
X105959420Y-123491314D01*
X105898158Y-123389962D01*
X105856842Y-123272846D01*
X105835472Y-123139967D01*
X105832215Y-123056958D01*
X105836999Y-122934180D01*
X105851350Y-122815853D01*
X105882743Y-122674205D01*
X105924097Y-122554013D01*
X106201852Y-122554013D01*
X107209647Y-122554013D01*
X107220321Y-122484843D01*
X107223691Y-122423294D01*
X107205950Y-122304155D01*
X107142225Y-122199045D01*
X107131001Y-122188235D01*
X107028991Y-122130532D01*
X106907493Y-122106792D01*
X106834954Y-122103824D01*
X106712874Y-122113608D01*
X106598792Y-122142959D01*
X106492708Y-122191877D01*
X106437229Y-122227509D01*
X106348431Y-122303341D01*
X106270509Y-122402282D01*
X106214421Y-122516680D01*
X106201852Y-122554013D01*
X105924097Y-122554013D01*
X105929086Y-122539512D01*
X105990377Y-122411774D01*
X106066618Y-122290991D01*
X106138374Y-122199372D01*
X106217327Y-122115429D01*
X106322413Y-122026239D01*
X106434602Y-121954538D01*
X106553897Y-121900324D01*
X106680295Y-121863599D01*
X106813798Y-121844362D01*
X106897309Y-121841214D01*
X107021830Y-121848507D01*
G37*
G36*
X110303251Y-121878730D02*
G01*
X109483646Y-123717000D01*
X109205575Y-123717000D01*
X109028621Y-122296678D01*
X108300020Y-123717000D01*
X108025321Y-123717000D01*
X107914654Y-121878730D01*
X108218004Y-121878730D01*
X108264068Y-123300810D01*
X108984242Y-121878730D01*
X109231978Y-121878730D01*
X109404438Y-123300810D01*
X109992037Y-121878730D01*
X110303251Y-121878730D01*
G37*
G36*
X110882986Y-123754515D02*
G01*
X110763810Y-123749592D01*
X110642094Y-123732805D01*
X110530202Y-123704103D01*
X110420685Y-123664783D01*
X110311088Y-123616201D01*
X110270108Y-123594487D01*
X110336395Y-123266811D01*
X110352124Y-123266811D01*
X110438073Y-123331877D01*
X110538946Y-123390138D01*
X110573457Y-123406323D01*
X110679975Y-123448193D01*
X110743108Y-123466699D01*
X110854811Y-123487081D01*
X110947588Y-123491905D01*
X111065393Y-123485460D01*
X111178359Y-123463181D01*
X111289008Y-123415439D01*
X111297002Y-123410426D01*
X111383406Y-123324546D01*
X111421423Y-123209493D01*
X111423398Y-123171263D01*
X111383625Y-123060395D01*
X111358234Y-123038200D01*
X111255318Y-122986451D01*
X111172292Y-122961996D01*
X111060996Y-122937309D01*
X111024549Y-122929756D01*
X110910532Y-122903129D01*
X110849842Y-122886965D01*
X110734131Y-122844209D01*
X110633791Y-122784610D01*
X110576266Y-122731040D01*
X110512961Y-122625501D01*
X110488845Y-122509103D01*
X110488070Y-122481912D01*
X110501412Y-122358667D01*
X110541437Y-122243336D01*
X110603475Y-122142915D01*
X110682090Y-122056393D01*
X110701538Y-122038758D01*
X110800553Y-121968217D01*
X110902196Y-121917933D01*
X110958824Y-121896316D01*
X111070625Y-121864945D01*
X111190525Y-121846595D01*
X111306552Y-121841214D01*
X111424864Y-121846902D01*
X111543017Y-121863966D01*
X111621699Y-121881661D01*
X111731531Y-121914634D01*
X111839101Y-121959770D01*
X111878422Y-121981312D01*
X111815505Y-122291403D01*
X111799214Y-122291403D01*
X111722815Y-122239819D01*
X111621203Y-122185702D01*
X111592487Y-122172994D01*
X111482878Y-122137024D01*
X111433510Y-122124927D01*
X111317384Y-122106792D01*
X111244759Y-122103824D01*
X111128710Y-122111839D01*
X111017656Y-122139167D01*
X110923995Y-122185890D01*
X110839895Y-122269142D01*
X110802051Y-122383739D01*
X110800969Y-122409812D01*
X110837657Y-122521023D01*
X110861078Y-122546392D01*
X110960790Y-122605377D01*
X111044211Y-122631975D01*
X111153991Y-122657994D01*
X111205997Y-122668905D01*
X111319977Y-122693664D01*
X111370031Y-122705834D01*
X111485182Y-122744377D01*
X111586272Y-122800802D01*
X111645293Y-122852966D01*
X111708655Y-122949810D01*
X111736534Y-123065952D01*
X111737983Y-123102680D01*
X111725269Y-123219544D01*
X111687128Y-123333833D01*
X111680122Y-123348877D01*
X111615048Y-123454158D01*
X111533821Y-123540102D01*
X111513841Y-123556972D01*
X111414768Y-123625927D01*
X111309490Y-123677557D01*
X111241950Y-123702345D01*
X111127554Y-123732047D01*
X111015377Y-123748351D01*
X110895411Y-123754464D01*
X110882986Y-123754515D01*
G37*
G36*
X113628862Y-123717000D02*
G01*
X113268775Y-123717000D01*
X112704769Y-122909240D01*
X112448607Y-123124955D01*
X112319403Y-123717000D01*
X112018862Y-123717000D01*
X112587923Y-121128416D01*
X112887903Y-121128416D01*
X112521636Y-122801968D01*
X113556395Y-121878730D01*
X113946256Y-121878730D01*
X112940146Y-122747453D01*
X113628862Y-123717000D01*
G37*
G36*
X114763614Y-121240963D02*
G01*
X114692271Y-121578605D01*
X114357463Y-121578605D01*
X114428806Y-121240963D01*
X114763614Y-121240963D01*
G37*
G36*
X114605760Y-121878730D02*
G01*
X114197923Y-123717000D01*
X113900753Y-123717000D01*
X114308590Y-121878730D01*
X114605760Y-121878730D01*
G37*
D14*
G36*
X119729772Y-82872473D02*
G01*
X119729772Y-81997107D01*
X119592508Y-81997107D01*
X119592508Y-81934581D01*
X120001126Y-81934581D01*
X120001126Y-81997107D01*
X119863862Y-81997107D01*
X119863862Y-82387896D01*
X120323283Y-82387896D01*
X120323283Y-81997107D01*
X120186018Y-81997107D01*
X120186018Y-81934581D01*
X120594636Y-81934581D01*
X120594636Y-81997107D01*
X120457372Y-81997107D01*
X120457372Y-82872473D01*
X120594636Y-82872473D01*
X120594636Y-82935000D01*
X120186018Y-82935000D01*
X120186018Y-82872473D01*
X120323283Y-82872473D01*
X120323283Y-82450422D01*
X119863862Y-82450422D01*
X119863862Y-82872473D01*
X120001126Y-82872473D01*
X120001126Y-82935000D01*
X119592508Y-82935000D01*
X119592508Y-82872473D01*
X119729772Y-82872473D01*
G37*
G36*
X121157372Y-82732034D02*
G01*
X121160059Y-82732034D01*
X121435564Y-81997107D01*
X121298300Y-81997107D01*
X121298300Y-81934581D01*
X121625830Y-81934581D01*
X121625830Y-81997107D01*
X121502243Y-81997107D01*
X121144915Y-82950631D01*
X121090694Y-82950631D01*
X120755592Y-81997107D01*
X120619549Y-81997107D01*
X120619549Y-81934581D01*
X121041845Y-81934581D01*
X121041845Y-81997107D01*
X120898963Y-81997107D01*
X121157372Y-82732034D01*
G37*
G36*
X122472017Y-81935792D02*
G01*
X122526874Y-81940264D01*
X122577430Y-81948033D01*
X122629943Y-81960948D01*
X122654092Y-81969019D01*
X122703931Y-81990709D01*
X122747936Y-82017036D01*
X122786106Y-82047999D01*
X122804790Y-82067205D01*
X122837185Y-82109518D01*
X122863236Y-82157078D01*
X122881258Y-82204369D01*
X122886123Y-82221078D01*
X122897929Y-82273473D01*
X122905180Y-82322902D01*
X122909378Y-82375017D01*
X122910547Y-82422822D01*
X122909136Y-82475129D01*
X122904904Y-82526871D01*
X122901999Y-82550561D01*
X122892916Y-82600753D01*
X122879562Y-82648929D01*
X122871957Y-82670484D01*
X122852233Y-82715194D01*
X122825492Y-82760368D01*
X122814560Y-82775753D01*
X122782123Y-82812909D01*
X122743156Y-82845793D01*
X122722969Y-82859528D01*
X122678215Y-82883926D01*
X122631941Y-82902489D01*
X122590345Y-82914972D01*
X122539779Y-82925533D01*
X122490028Y-82931694D01*
X122436258Y-82934687D01*
X122411070Y-82935000D01*
X122006604Y-82935000D01*
X122006604Y-82872473D01*
X122143869Y-82872473D01*
X122277958Y-82872473D01*
X122402278Y-82872473D01*
X122452897Y-82871206D01*
X122504443Y-82866752D01*
X122555009Y-82858041D01*
X122577644Y-82852201D01*
X122625913Y-82832704D01*
X122665938Y-82804620D01*
X122688042Y-82781127D01*
X122715050Y-82737976D01*
X122733833Y-82689550D01*
X122744950Y-82643618D01*
X122752979Y-82591213D01*
X122757910Y-82538533D01*
X122760521Y-82487730D01*
X122761543Y-82432532D01*
X122761559Y-82424288D01*
X122760838Y-82371634D01*
X122758674Y-82322484D01*
X122756430Y-82291664D01*
X122750259Y-82241355D01*
X122739912Y-82192951D01*
X122737379Y-82183953D01*
X122719813Y-82137055D01*
X122699277Y-82101399D01*
X122665451Y-82063938D01*
X122636751Y-82043269D01*
X122591718Y-82021924D01*
X122544427Y-82008586D01*
X122493290Y-82000739D01*
X122443579Y-81997511D01*
X122416688Y-81997107D01*
X122277958Y-81997107D01*
X122277958Y-82872473D01*
X122143869Y-82872473D01*
X122143869Y-81997107D01*
X122006604Y-81997107D01*
X122006604Y-81934581D01*
X122421573Y-81934581D01*
X122472017Y-81935792D01*
G37*
G36*
X123373002Y-82343758D02*
G01*
X123411245Y-82350771D01*
X123458094Y-82370207D01*
X123475725Y-82383011D01*
X123507055Y-82423135D01*
X123515537Y-82443094D01*
X123526399Y-82490853D01*
X123528970Y-82535907D01*
X123528481Y-82581580D01*
X123527840Y-82632551D01*
X123527504Y-82651189D01*
X123526863Y-82701724D01*
X123526527Y-82728614D01*
X123526307Y-82777961D01*
X123526283Y-82797491D01*
X123527429Y-82847245D01*
X123527504Y-82848538D01*
X123534343Y-82881266D01*
X123550952Y-82898607D01*
X123581971Y-82903736D01*
X123627156Y-82899584D01*
X123627156Y-82935000D01*
X123578328Y-82941571D01*
X123573666Y-82941838D01*
X123534587Y-82943304D01*
X123485477Y-82940322D01*
X123474504Y-82938419D01*
X123436890Y-82924253D01*
X123417107Y-82901782D01*
X123409535Y-82872473D01*
X123406116Y-82872473D01*
X123372987Y-82910017D01*
X123364839Y-82917170D01*
X123323191Y-82943911D01*
X123318677Y-82945990D01*
X123271155Y-82961082D01*
X123269584Y-82961378D01*
X123220857Y-82966258D01*
X123219270Y-82966263D01*
X123170288Y-82961778D01*
X123144287Y-82954783D01*
X123100598Y-82932206D01*
X123088600Y-82922299D01*
X123059180Y-82883006D01*
X123054406Y-82872473D01*
X123043243Y-82823482D01*
X123042682Y-82808482D01*
X123043964Y-82799689D01*
X123171154Y-82799689D01*
X123178187Y-82850144D01*
X123193380Y-82877847D01*
X123236428Y-82902118D01*
X123254929Y-82903736D01*
X123302557Y-82894944D01*
X123346528Y-82871141D01*
X123352382Y-82866367D01*
X123384099Y-82827853D01*
X123391217Y-82814344D01*
X123405001Y-82765402D01*
X123406848Y-82734476D01*
X123406848Y-82669263D01*
X123354664Y-82671759D01*
X123304028Y-82677276D01*
X123285704Y-82680498D01*
X123238410Y-82693813D01*
X123214385Y-82705900D01*
X123181140Y-82743023D01*
X123179947Y-82745956D01*
X123171231Y-82794070D01*
X123171154Y-82799689D01*
X123043964Y-82799689D01*
X123050101Y-82757610D01*
X123072358Y-82714080D01*
X123109452Y-82677891D01*
X123136472Y-82660959D01*
X123181466Y-82641000D01*
X123234385Y-82625576D01*
X123286051Y-82615965D01*
X123343539Y-82609685D01*
X123395893Y-82606997D01*
X123406848Y-82606737D01*
X123407550Y-82557636D01*
X123407581Y-82554713D01*
X123408070Y-82509040D01*
X123401597Y-82459214D01*
X123382180Y-82426974D01*
X123335687Y-82406298D01*
X123301091Y-82403527D01*
X123251762Y-82407565D01*
X123234657Y-82411343D01*
X123189391Y-82430505D01*
X123187030Y-82432103D01*
X123211210Y-82463611D01*
X123219270Y-82496339D01*
X123200708Y-82541769D01*
X123153882Y-82559772D01*
X123149905Y-82559842D01*
X123123038Y-82555690D01*
X123100324Y-82542745D01*
X123084936Y-82520275D01*
X123079075Y-82488768D01*
X123090855Y-82440496D01*
X123094462Y-82433813D01*
X123127980Y-82395942D01*
X123140624Y-82386674D01*
X123184702Y-82363967D01*
X123216828Y-82353457D01*
X123266348Y-82344115D01*
X123315989Y-82341050D01*
X123323562Y-82341001D01*
X123373002Y-82343758D01*
G37*
G36*
X123919514Y-82872473D02*
G01*
X124012327Y-82872473D01*
X124012327Y-82935000D01*
X123692857Y-82935000D01*
X123692857Y-82872473D01*
X123795927Y-82872473D01*
X123795927Y-82419159D01*
X123692857Y-82419159D01*
X123692857Y-82356632D01*
X123919514Y-82356632D01*
X123919514Y-82457260D01*
X123922201Y-82457260D01*
X123950471Y-82413109D01*
X123986128Y-82378962D01*
X123997672Y-82371043D01*
X124044535Y-82350506D01*
X124092964Y-82342057D01*
X124120038Y-82341001D01*
X124169125Y-82344710D01*
X124218784Y-82359319D01*
X124259989Y-82387896D01*
X124288119Y-82428734D01*
X124302499Y-82476126D01*
X124306151Y-82521985D01*
X124306151Y-82872473D01*
X124405802Y-82872473D01*
X124405802Y-82935000D01*
X124089751Y-82935000D01*
X124089751Y-82872473D01*
X124182564Y-82872473D01*
X124182564Y-82505376D01*
X124174527Y-82455308D01*
X124157163Y-82428440D01*
X124112423Y-82405960D01*
X124085599Y-82403527D01*
X124035820Y-82411495D01*
X124020387Y-82417693D01*
X123979583Y-82447735D01*
X123967874Y-82461657D01*
X123943622Y-82505392D01*
X123932459Y-82537861D01*
X123922750Y-82588358D01*
X123919565Y-82639656D01*
X123919514Y-82647526D01*
X123919514Y-82872473D01*
G37*
G36*
X125085285Y-82345886D02*
G01*
X125105557Y-82358831D01*
X125117037Y-82376660D01*
X125120945Y-82396933D01*
X125106779Y-82434057D01*
X125067456Y-82450422D01*
X125029842Y-82437477D01*
X125006883Y-82398886D01*
X124981238Y-82412320D01*
X124957546Y-82430394D01*
X124981865Y-82474473D01*
X124988565Y-82493164D01*
X124998262Y-82541241D01*
X124999312Y-82564239D01*
X124994057Y-82615252D01*
X124982703Y-82652899D01*
X124959502Y-82696837D01*
X124934832Y-82726416D01*
X124894981Y-82757491D01*
X124857895Y-82775997D01*
X124809230Y-82789736D01*
X124757728Y-82794298D01*
X124754092Y-82794316D01*
X124705377Y-82790595D01*
X124678621Y-82784790D01*
X124632775Y-82767312D01*
X124616828Y-82758412D01*
X124592016Y-82801560D01*
X124590205Y-82805795D01*
X124581168Y-82847805D01*
X124600708Y-82887861D01*
X124648232Y-82902977D01*
X124667630Y-82903736D01*
X124698893Y-82903736D01*
X124747823Y-82903736D01*
X124751405Y-82903736D01*
X124801094Y-82903736D01*
X124808070Y-82903736D01*
X124851056Y-82903736D01*
X124900683Y-82906080D01*
X124940694Y-82912041D01*
X124989180Y-82927884D01*
X125010547Y-82940129D01*
X125045992Y-82975003D01*
X125056220Y-82992152D01*
X125070866Y-83041305D01*
X125072829Y-83072508D01*
X125068107Y-83121675D01*
X125052569Y-83169167D01*
X125048160Y-83178021D01*
X125020687Y-83218926D01*
X124984519Y-83253713D01*
X124979040Y-83257889D01*
X124937179Y-83283748D01*
X124888960Y-83303623D01*
X124874015Y-83308203D01*
X124822748Y-83319588D01*
X124772132Y-83324947D01*
X124741147Y-83325788D01*
X124692208Y-83323611D01*
X124641851Y-83315690D01*
X124629528Y-83312599D01*
X124582488Y-83296432D01*
X124548195Y-83278161D01*
X124510246Y-83245606D01*
X124497881Y-83228824D01*
X124481385Y-83182127D01*
X124480784Y-83170938D01*
X124492565Y-83121998D01*
X124496172Y-83115251D01*
X124528457Y-83076874D01*
X124543310Y-83064937D01*
X124565781Y-83076172D01*
X124586541Y-83090582D01*
X124569200Y-83125020D01*
X124563827Y-83157749D01*
X124577504Y-83203178D01*
X124614564Y-83235549D01*
X124616095Y-83236395D01*
X124662308Y-83253710D01*
X124674713Y-83256423D01*
X124724731Y-83262594D01*
X124749451Y-83263262D01*
X124798853Y-83260525D01*
X124848614Y-83250806D01*
X124895709Y-83232859D01*
X124922375Y-83216612D01*
X124958341Y-83181452D01*
X124968293Y-83165565D01*
X124983409Y-83117020D01*
X124984169Y-83102306D01*
X124973422Y-83056877D01*
X124943624Y-83029766D01*
X124897951Y-83016577D01*
X124847862Y-83013211D01*
X124840066Y-83013157D01*
X124790784Y-83013157D01*
X124789019Y-83013157D01*
X124739714Y-83013157D01*
X124734797Y-83013157D01*
X124688146Y-83013157D01*
X124659326Y-83013157D01*
X124610556Y-83008539D01*
X124591671Y-83003387D01*
X124547498Y-82979704D01*
X124543799Y-82976521D01*
X124515467Y-82935488D01*
X124506195Y-82886621D01*
X124506186Y-82884930D01*
X124513233Y-82834726D01*
X124522550Y-82807505D01*
X124545987Y-82764341D01*
X124576283Y-82725683D01*
X124546881Y-82686243D01*
X124532320Y-82655586D01*
X124519676Y-82606587D01*
X124517176Y-82571078D01*
X124517324Y-82569612D01*
X124644183Y-82569612D01*
X124646186Y-82620350D01*
X124649312Y-82645572D01*
X124665027Y-82691923D01*
X124667386Y-82695642D01*
X124702313Y-82723485D01*
X124750939Y-82731716D01*
X124757023Y-82731789D01*
X124805490Y-82725530D01*
X124812710Y-82722997D01*
X124848126Y-82694420D01*
X124865612Y-82648692D01*
X124866688Y-82642885D01*
X124871757Y-82592636D01*
X124872306Y-82565216D01*
X124870302Y-82514993D01*
X124867176Y-82489989D01*
X124850905Y-82442562D01*
X124849347Y-82440163D01*
X124814908Y-82412320D01*
X124765922Y-82403604D01*
X124759710Y-82403527D01*
X124711178Y-82409787D01*
X124704022Y-82412320D01*
X124668607Y-82440896D01*
X124650678Y-82486341D01*
X124649556Y-82492187D01*
X124644707Y-82542426D01*
X124644183Y-82569612D01*
X124517324Y-82569612D01*
X124522354Y-82519944D01*
X124533541Y-82482418D01*
X124556862Y-82438677D01*
X124581412Y-82409145D01*
X124621143Y-82377872D01*
X124658349Y-82359319D01*
X124707197Y-82345580D01*
X124758760Y-82341019D01*
X124762396Y-82341001D01*
X124813016Y-82344970D01*
X124857895Y-82356877D01*
X124903563Y-82379658D01*
X124929947Y-82400108D01*
X124967316Y-82367135D01*
X125001266Y-82347595D01*
X125030819Y-82341001D01*
X125055732Y-82341001D01*
X125085285Y-82345886D01*
G37*
G36*
X125519196Y-82345208D02*
G01*
X125568061Y-82359054D01*
X125577190Y-82362983D01*
X125621704Y-82389300D01*
X125659012Y-82424288D01*
X125687176Y-82464534D01*
X125708471Y-82511543D01*
X125710791Y-82518321D01*
X125723594Y-82568036D01*
X125729706Y-82617884D01*
X125730575Y-82638000D01*
X125316339Y-82638000D01*
X125315606Y-82652655D01*
X125315606Y-82656807D01*
X125317021Y-82706324D01*
X125322338Y-82756137D01*
X125327574Y-82782103D01*
X125344052Y-82829588D01*
X125361036Y-82857330D01*
X125399920Y-82888874D01*
X125412571Y-82893967D01*
X125461206Y-82903126D01*
X125479005Y-82903736D01*
X125529284Y-82898668D01*
X125542508Y-82895432D01*
X125587295Y-82875488D01*
X125596486Y-82869054D01*
X125631747Y-82832589D01*
X125638740Y-82822159D01*
X125660464Y-82776654D01*
X125668049Y-82752306D01*
X125695404Y-82757191D01*
X125721538Y-82765006D01*
X125705908Y-82816329D01*
X125683748Y-82860387D01*
X125651467Y-82900821D01*
X125636297Y-82914483D01*
X125593087Y-82941789D01*
X125542531Y-82958981D01*
X125490749Y-82965807D01*
X125472166Y-82966263D01*
X125422272Y-82962828D01*
X125373026Y-82951355D01*
X125348579Y-82941838D01*
X125304267Y-82917101D01*
X125266220Y-82885632D01*
X125256500Y-82875404D01*
X125226787Y-82835767D01*
X125203900Y-82790801D01*
X125198614Y-82776974D01*
X125185090Y-82726465D01*
X125179313Y-82677135D01*
X125178830Y-82657540D01*
X125182216Y-82605922D01*
X125188492Y-82575474D01*
X125319758Y-82575474D01*
X125591601Y-82575474D01*
X125587250Y-82524104D01*
X125579633Y-82488279D01*
X125559007Y-82443579D01*
X125553010Y-82436011D01*
X125514420Y-82410366D01*
X125465327Y-82403527D01*
X125415882Y-82410396D01*
X125412815Y-82411343D01*
X125370306Y-82437488D01*
X125369096Y-82438698D01*
X125341230Y-82481170D01*
X125337100Y-82491210D01*
X125324372Y-82539582D01*
X125319758Y-82575474D01*
X125188492Y-82575474D01*
X125192374Y-82556642D01*
X125199347Y-82534685D01*
X125220832Y-82486934D01*
X125248955Y-82444980D01*
X125258209Y-82434057D01*
X125294447Y-82400024D01*
X125336481Y-82372722D01*
X125349556Y-82366158D01*
X125398576Y-82348961D01*
X125448449Y-82341615D01*
X125468747Y-82341001D01*
X125519196Y-82345208D01*
G37*
G36*
X126169968Y-82935000D02*
G01*
X125833401Y-82935000D01*
X125833401Y-82872473D01*
X125936472Y-82872473D01*
X125936472Y-82419159D01*
X125833401Y-82419159D01*
X125833401Y-82356632D01*
X126060059Y-82356632D01*
X126060059Y-82461901D01*
X126062745Y-82461901D01*
X126088845Y-82419105D01*
X126093276Y-82413541D01*
X126128137Y-82379133D01*
X126133576Y-82374951D01*
X126177153Y-82350922D01*
X126180226Y-82349794D01*
X126228709Y-82341009D01*
X126230296Y-82341001D01*
X126278161Y-82352466D01*
X126298195Y-82367623D01*
X126322438Y-82412436D01*
X126325062Y-82438454D01*
X126312540Y-82487320D01*
X126304546Y-82497316D01*
X126259105Y-82517993D01*
X126251056Y-82518321D01*
X126203131Y-82502987D01*
X126198300Y-82498293D01*
X126180297Y-82451940D01*
X126180226Y-82448224D01*
X126186332Y-82413785D01*
X126142361Y-82438255D01*
X126136507Y-82443094D01*
X126104211Y-82480649D01*
X126096451Y-82493408D01*
X126076406Y-82539554D01*
X126069584Y-82563506D01*
X126061631Y-82613882D01*
X126060059Y-82651922D01*
X126060059Y-82872473D01*
X126169968Y-82872473D01*
X126169968Y-82935000D01*
G37*
D15*
X142850000Y-93828000D03*
X142850000Y-95828000D03*
D16*
X182590000Y-104928000D03*
X177510000Y-104928000D03*
D17*
X135500000Y-108850000D03*
X134700000Y-108850000D03*
X133900000Y-108850000D03*
X133100000Y-108850000D03*
X132300000Y-108850000D03*
X131500000Y-108850000D03*
X130700000Y-108850000D03*
X129900000Y-108850000D03*
X129100000Y-108850000D03*
X128300000Y-108850000D03*
X127500000Y-108850000D03*
D18*
X125000000Y-111350000D03*
X125000000Y-112150000D03*
X125000000Y-112950000D03*
X125000000Y-113750000D03*
X125000000Y-114550000D03*
X125000000Y-115350000D03*
X125000000Y-116150000D03*
X125000000Y-116950000D03*
X125000000Y-117750000D03*
X125000000Y-118550000D03*
X125000000Y-119350000D03*
D17*
X127500000Y-121850000D03*
X128300000Y-121850000D03*
X129100000Y-121850000D03*
X129900000Y-121850000D03*
X130700000Y-121850000D03*
X131500000Y-121850000D03*
X132300000Y-121850000D03*
X133100000Y-121850000D03*
X133900000Y-121850000D03*
X134700000Y-121850000D03*
X135500000Y-121850000D03*
D18*
X138000000Y-119350000D03*
X138000000Y-118550000D03*
X138000000Y-117750000D03*
X138000000Y-116950000D03*
X138000000Y-116150000D03*
X138000000Y-115350000D03*
X138000000Y-114550000D03*
X138000000Y-113750000D03*
X138000000Y-112950000D03*
X138000000Y-112150000D03*
X138000000Y-111350000D03*
D19*
X188537500Y-80878000D03*
X186462500Y-80878000D03*
D20*
X102000000Y-82137500D03*
X102000000Y-76862500D03*
D15*
X162050000Y-93828000D03*
X162050000Y-95828000D03*
D21*
X107450000Y-87375000D03*
X107450000Y-85375000D03*
D22*
X166410000Y-93728000D03*
X164490000Y-93728000D03*
X165450000Y-95828000D03*
D23*
X94450000Y-82000000D03*
X94450000Y-82650000D03*
X94450000Y-83300000D03*
X96450000Y-83300000D03*
X96450000Y-82650000D03*
X96450000Y-82000000D03*
D24*
X104750000Y-90125000D03*
X104750000Y-90775000D03*
X104750000Y-91425000D03*
X104750000Y-92075000D03*
X109150000Y-92075000D03*
X109150000Y-91425000D03*
X109150000Y-90775000D03*
X109150000Y-90125000D03*
D25*
X88600000Y-122400000D03*
X89302944Y-120702944D03*
X89302944Y-124097056D03*
X91000000Y-120000000D03*
D26*
X91000000Y-122400000D03*
D25*
X91000000Y-124800000D03*
X92697056Y-120702944D03*
X92697056Y-124097056D03*
X93400000Y-122400000D03*
D27*
X165100000Y-121687500D03*
X165100000Y-119612500D03*
D15*
X100950000Y-93828000D03*
X100950000Y-95828000D03*
D16*
X218133000Y-102134000D03*
X212418000Y-100864000D03*
X210894000Y-102134000D03*
X210005000Y-103912000D03*
X210894000Y-107849000D03*
X212418000Y-108992000D03*
X214450000Y-109500000D03*
X216482000Y-108992000D03*
X218006000Y-107722000D03*
X218895000Y-103912000D03*
X210005000Y-105944000D03*
X218895000Y-105944000D03*
X216482000Y-100864000D03*
D28*
X106165000Y-118505000D03*
D29*
X201550000Y-87275000D03*
X201550000Y-87925000D03*
X201550000Y-88575000D03*
X201550000Y-89225000D03*
X204050000Y-89225000D03*
X204050000Y-88575000D03*
X204050000Y-87925000D03*
X204050000Y-87275000D03*
D22*
X147350000Y-93728000D03*
X145430000Y-93728000D03*
X146390000Y-95828000D03*
D21*
X211875000Y-80375000D03*
X211875000Y-78375000D03*
D15*
X112950000Y-93828000D03*
X112950000Y-95828000D03*
D30*
X204300000Y-78340500D03*
X204300000Y-80415500D03*
D16*
X128810000Y-104928000D03*
X133890000Y-104928000D03*
X150133000Y-102134000D03*
X144418000Y-100864000D03*
X142894000Y-102134000D03*
X142005000Y-103912000D03*
X142894000Y-107849000D03*
X144418000Y-108992000D03*
X146450000Y-109500000D03*
X148482000Y-108992000D03*
X150006000Y-107722000D03*
X150895000Y-103912000D03*
X142005000Y-105944000D03*
X150895000Y-105944000D03*
X148482000Y-100864000D03*
D31*
X216825000Y-87750000D03*
X214825000Y-87750000D03*
D15*
X217750000Y-93828000D03*
X217750000Y-95828000D03*
D30*
X93550000Y-86112500D03*
X93550000Y-88187500D03*
D16*
X120133000Y-102134000D03*
X114418000Y-100864000D03*
X112894000Y-102134000D03*
X112005000Y-103912000D03*
X112894000Y-107849000D03*
X114418000Y-108992000D03*
X116450000Y-109500000D03*
X118482000Y-108992000D03*
X120006000Y-107722000D03*
X120895000Y-103912000D03*
X112005000Y-105944000D03*
X120895000Y-105944000D03*
X118482000Y-100864000D03*
D22*
X215310000Y-93728000D03*
X213390000Y-93728000D03*
X214350000Y-95828000D03*
D28*
X102625000Y-118475000D03*
D32*
X196911000Y-81265000D03*
D33*
X194625000Y-87815000D03*
D32*
X192339000Y-81265000D03*
D15*
X191850000Y-93828000D03*
X191850000Y-95828000D03*
X198950000Y-93828000D03*
X198950000Y-95828000D03*
D22*
X117410000Y-93728000D03*
X115490000Y-93728000D03*
X116450000Y-95828000D03*
D15*
X93950000Y-93828000D03*
X93950000Y-95828000D03*
D22*
X196410000Y-93728000D03*
X194490000Y-93728000D03*
X195450000Y-95828000D03*
D34*
X160345000Y-114466000D03*
X159075000Y-114466000D03*
X157805000Y-114466000D03*
X156535000Y-114466000D03*
X155265000Y-114466000D03*
X153995000Y-114466000D03*
X152725000Y-114466000D03*
X151455000Y-114466000D03*
X151455000Y-121590000D03*
X152725000Y-121590000D03*
X153995000Y-121590000D03*
X155265000Y-121590000D03*
X156535000Y-121590000D03*
X157805000Y-121590000D03*
X159075000Y-121590000D03*
X160345000Y-121590000D03*
D25*
X218400000Y-122400000D03*
X219102944Y-120702944D03*
X219102944Y-124097056D03*
X220800000Y-120000000D03*
D26*
X220800000Y-122400000D03*
D25*
X220800000Y-124800000D03*
X222497056Y-120702944D03*
X222497056Y-124097056D03*
X223200000Y-122400000D03*
D15*
X168750000Y-93828000D03*
X168750000Y-95828000D03*
D35*
X201462500Y-83875000D03*
X203537500Y-83875000D03*
D21*
X91125000Y-84375000D03*
X91125000Y-82375000D03*
D31*
X209650000Y-84275000D03*
X207650000Y-84275000D03*
D36*
X157800000Y-91278000D03*
X152800000Y-91278000D03*
X157800000Y-76778000D03*
X152800000Y-76778000D03*
X155300000Y-76778000D03*
D37*
X160900000Y-84278000D03*
X149700000Y-84278000D03*
D28*
X109585000Y-118535000D03*
D25*
X88600000Y-77600000D03*
X89302944Y-75902944D03*
X89302944Y-79297056D03*
X91000000Y-75200000D03*
D26*
X91000000Y-77600000D03*
D25*
X91000000Y-80000000D03*
X92697056Y-75902944D03*
X92697056Y-79297056D03*
X93400000Y-77600000D03*
D16*
X101133000Y-102134000D03*
X95418000Y-100864000D03*
X93894000Y-102134000D03*
X93005000Y-103912000D03*
X93894000Y-107849000D03*
X95418000Y-108992000D03*
X97450000Y-109500000D03*
X99482000Y-108992000D03*
X101006000Y-107722000D03*
X101895000Y-103912000D03*
X93005000Y-105944000D03*
X101895000Y-105944000D03*
X99482000Y-100864000D03*
D15*
X119850000Y-93828000D03*
X119850000Y-95828000D03*
D35*
X219212500Y-90275000D03*
X221287500Y-90275000D03*
D15*
X210950000Y-93828000D03*
X210950000Y-95828000D03*
D19*
X209812500Y-90900000D03*
X207737500Y-90900000D03*
D20*
X110025000Y-82137500D03*
X110025000Y-76862500D03*
D38*
X207750000Y-87625000D03*
X209750000Y-87625000D03*
D39*
X100250000Y-86525000D03*
X103350000Y-86525000D03*
D16*
X199133000Y-102134000D03*
X193418000Y-100864000D03*
X191894000Y-102134000D03*
X191005000Y-103912000D03*
X191894000Y-107849000D03*
X193418000Y-108992000D03*
X195450000Y-109500000D03*
X197482000Y-108992000D03*
X199006000Y-107722000D03*
X199895000Y-103912000D03*
X191005000Y-105944000D03*
X199895000Y-105944000D03*
X197482000Y-100864000D03*
X169133000Y-102134000D03*
X163418000Y-100864000D03*
X161894000Y-102134000D03*
X161005000Y-103912000D03*
X161894000Y-107849000D03*
X163418000Y-108992000D03*
X165450000Y-109500000D03*
X167482000Y-108992000D03*
X169006000Y-107722000D03*
X169895000Y-103912000D03*
X161005000Y-105944000D03*
X169895000Y-105944000D03*
X167482000Y-100864000D03*
D27*
X146500000Y-121687500D03*
X146500000Y-119612500D03*
D28*
X99095000Y-118475000D03*
D40*
X138050000Y-85490000D03*
X139275000Y-85490000D03*
D27*
X200850000Y-80415500D03*
X200850000Y-78340500D03*
D28*
X95435000Y-118455000D03*
D41*
X116350000Y-81955000D03*
X116350000Y-77655000D03*
D22*
X98310000Y-93728000D03*
X96390000Y-93728000D03*
X97350000Y-95828000D03*
D25*
X218400000Y-77600000D03*
X219102944Y-75902944D03*
X219102944Y-79297056D03*
X220800000Y-75200000D03*
D26*
X220800000Y-77600000D03*
D25*
X220800000Y-80000000D03*
X222497056Y-75902944D03*
X222497056Y-79297056D03*
X223200000Y-77600000D03*
D17*
X184450000Y-108850000D03*
X183650000Y-108850000D03*
X182850000Y-108850000D03*
X182050000Y-108850000D03*
X181250000Y-108850000D03*
X180450000Y-108850000D03*
X179650000Y-108850000D03*
X178850000Y-108850000D03*
X178050000Y-108850000D03*
X177250000Y-108850000D03*
X176450000Y-108850000D03*
D18*
X173950000Y-111350000D03*
X173950000Y-112150000D03*
X173950000Y-112950000D03*
X173950000Y-113750000D03*
X173950000Y-114550000D03*
X173950000Y-115350000D03*
X173950000Y-116150000D03*
X173950000Y-116950000D03*
X173950000Y-117750000D03*
X173950000Y-118550000D03*
X173950000Y-119350000D03*
D17*
X176450000Y-121850000D03*
X177250000Y-121850000D03*
X178050000Y-121850000D03*
X178850000Y-121850000D03*
X179650000Y-121850000D03*
X180450000Y-121850000D03*
X181250000Y-121850000D03*
X182050000Y-121850000D03*
X182850000Y-121850000D03*
X183650000Y-121850000D03*
X184450000Y-121850000D03*
D18*
X186950000Y-119350000D03*
X186950000Y-118550000D03*
X186950000Y-117750000D03*
X186950000Y-116950000D03*
X186950000Y-116150000D03*
X186950000Y-115350000D03*
X186950000Y-114550000D03*
X186950000Y-113750000D03*
X186950000Y-112950000D03*
X186950000Y-112150000D03*
X186950000Y-111350000D03*
D42*
X112600000Y-86595000D03*
X112600000Y-87865000D03*
X112600000Y-89135000D03*
X112600000Y-90405000D03*
D43*
X118300000Y-90425000D03*
X118300000Y-89135000D03*
X118300000Y-87865000D03*
X118300000Y-86575000D03*
D44*
X115900000Y-88500000D03*
D45*
X188100000Y-93825000D03*
X188100000Y-91775000D03*
D35*
X98687500Y-90350000D03*
X100762500Y-90350000D03*
D21*
X149650000Y-95828000D03*
X149650000Y-93828000D03*
D46*
X92325000Y-91400000D03*
X90575000Y-91400000D03*
D47*
X171050000Y-83848000D03*
D48*
X168510000Y-83848000D03*
X165970000Y-83848000D03*
D49*
X221700000Y-84428000D03*
D50*
X219200000Y-84428000D03*
X216700000Y-84428000D03*
D51*
X96800000Y-87428000D03*
X90300000Y-87428000D03*
D52*
X139750000Y-76628000D03*
X139750000Y-81628000D03*
D53*
X208960000Y-79893000D03*
X214740000Y-79893000D03*
D54*
X207530000Y-76213000D03*
D55*
X207530000Y-80393000D03*
D54*
X216170000Y-76213000D03*
D55*
X216170000Y-80393000D03*
M02*
