M48
; DRILL file {KiCad 8.0.0} date 2024-11-14T18:35:41+0100
; FORMAT={-:-/ absolute / metric / decimal}
; #@! TF.CreationDate,2024-11-14T18:35:41+01:00
; #@! TF.GenerationSoftware,Kicad,Pcbnew,8.0.0
; #@! TF.FileFunction,Plated,1,2,PTH
FMAT,2
METRIC
; #@! TA.AperFunction,Plated,PTH,ComponentDrill
T1C0.200
; #@! TA.AperFunction,Plated,PTH,ViaDrill
T2C0.300
; #@! TA.AperFunction,Plated,PTH,ComponentDrill
T3C0.500
; #@! TA.AperFunction,Plated,PTH,ComponentDrill
T4C0.600
; #@! TA.AperFunction,Plated,PTH,ComponentDrill
T5C0.762
; #@! TA.AperFunction,Plated,PTH,ComponentDrill
T6C0.900
; #@! TA.AperFunction,Plated,PTH,ComponentDrill
T7C0.950
; #@! TA.AperFunction,Plated,PTH,ComponentDrill
T8C1.000
; #@! TA.AperFunction,Plated,PTH,ComponentDrill
T9C1.200
; #@! TA.AperFunction,Plated,PTH,ComponentDrill
T10C3.183
; #@! TA.AperFunction,Plated,PTH,ComponentDrill
T11C3.200
%
G90
G05
T1
X182.6Y-88.228
X182.6Y-89.628
X183.3Y-87.528
X183.3Y-88.928
X183.3Y-90.328
X184.0Y-88.228
X184.0Y-89.628
X184.7Y-87.528
X184.7Y-88.928
X184.7Y-90.328
X185.4Y-88.228
X185.4Y-89.628
T2
X88.05Y-81.15
X88.05Y-86.6
X88.05Y-92.5
X88.05Y-97.85
X88.05Y-104.0
X88.05Y-109.7
X88.05Y-114.65
X88.05Y-119.45
X89.55Y-92.475
X90.85Y-97.65
X91.3Y-100.3
X91.85Y-88.25
X92.7Y-83.275
X94.45Y-74.725
X94.825Y-85.25
X94.9Y-91.6
X95.025Y-125.15
X95.85Y-84.325
X96.625Y-79.075
X96.775Y-85.4
X96.85Y-76.875
X97.4Y-99.75
X97.4Y-106.575
X97.45Y-88.8
X97.55Y-81.95
X98.325Y-78.15
X98.7Y-102.65
X99.25Y-115.675
X99.325Y-84.45
X100.125Y-87.9
X101.525Y-125.15
X101.95Y-74.725
X102.575Y-116.325
X102.725Y-87.975
X102.8Y-91.875
X103.35Y-79.375
X104.525Y-87.6
X104.525Y-88.85
X105.275Y-83.825
X105.95Y-76.8
X106.175Y-115.575
X106.75Y-91.4
X106.825Y-92.45
X107.0Y-90.175
X107.05Y-95.95
X107.725Y-125.15
X107.925Y-89.225
X109.0Y-74.725
X109.15Y-89.225
X109.95Y-98.65
X110.05Y-79.525
X110.825Y-88.7
X111.45Y-84.7
X113.725Y-125.15
X113.95Y-77.85
X114.225Y-92.55
X114.85Y-83.9
X116.3Y-74.825
X116.4Y-100.1
X116.5Y-106.575
X117.7Y-102.75
X117.95Y-95.6
X118.25Y-76.6
X118.25Y-77.4
X118.25Y-84.9
X119.925Y-125.15
X121.425Y-89.825
X122.75Y-94.678
X122.8Y-98.2
X122.825Y-93.25
X123.275Y-85.75
X123.6Y-74.825
X124.15Y-87.65
X125.1Y-121.0
X125.275Y-110.1
X126.175Y-125.15
X127.5Y-98.2
X127.5Y-119.75
X128.35Y-91.05
X128.55Y-87.65
X129.4Y-95.75
X129.525Y-119.55
X129.925Y-88.975
X130.55Y-74.825
X130.55Y-87.678
X130.55Y-89.7
X130.9Y-113.3
X130.9Y-114.1
X131.05Y-87.128
X131.19Y-85.5
X131.4Y-94.9
X131.45Y-116.45
X131.85Y-113.3
X131.85Y-114.1
X132.15Y-85.46
X132.16Y-84.69
X132.175Y-78.875
X132.175Y-79.8
X132.2Y-75.95
X132.2Y-76.95
X132.2Y-77.95
X133.05Y-83.9
X133.05Y-84.69
X133.05Y-85.54
X133.05Y-125.15
X133.29Y-76.95
X133.3Y-76.0
X133.3Y-77.95
X133.325Y-78.9
X133.4Y-95.75
X133.9Y-117.15
X133.92Y-83.09
X133.94Y-84.73
X133.94Y-85.52
X133.98Y-83.9
X134.3Y-76.0
X134.3Y-76.95
X134.3Y-77.95
X134.375Y-90.6
X134.678Y-117.95
X134.86Y-83.94
X134.87Y-84.74
X134.9Y-85.5
X135.4Y-98.3
X135.45Y-118.75
X135.66Y-83.93
X135.68Y-84.77
X135.7Y-85.52
X136.25Y-107.375
X137.49Y-83.97
X137.5Y-74.725
X137.7Y-121.2
X137.85Y-109.5
X138.1Y-104.9
X138.1Y-107.8
X138.45Y-81.1
X138.45Y-82.05
X138.45Y-83.0
X138.45Y-83.95
X139.0Y-125.15
X139.45Y-90.55
X139.75Y-83.2
X139.75Y-83.94
X141.05Y-80.75
X141.05Y-81.65
X141.05Y-82.5
X141.06Y-83.49
X141.49Y-85.49
X141.94Y-81.65
X141.95Y-80.75
X141.96Y-82.49
X142.0Y-84.27
X142.01Y-83.45
X142.2Y-85.49
X142.5Y-98.3
X142.85Y-84.24
X142.88Y-83.39
X142.9Y-80.75
X142.9Y-81.6
X142.9Y-85.5
X142.91Y-82.45
X143.79Y-82.48
X143.85Y-80.75
X143.88Y-81.58
X143.9Y-74.775
X144.2Y-75.95
X144.2Y-76.95
X144.2Y-77.95
X144.79Y-81.59
X144.8Y-80.75
X145.125Y-91.025
X145.45Y-85.6
X146.5Y-100.05
X146.5Y-106.725
X147.4Y-125.15
X148.1Y-103.6
X148.2Y-78.228
X149.05Y-122.2
X149.55Y-97.75
X149.73Y-114.66
X149.85Y-120.028
X150.3Y-74.75
X151.65Y-116.7
X152.3Y-93.928
X152.35Y-97.728
X152.729Y-118.296
X152.9Y-100.8
X153.35Y-84.3
X154.0Y-93.978
X154.0Y-97.728
X154.0Y-112.578
X154.15Y-117.85
X155.25Y-123.05
X155.45Y-80.328
X155.9Y-112.55
X155.9Y-125.15
X155.95Y-94.928
X156.35Y-74.725
X156.5Y-120.0
X156.55Y-123.05
X157.325Y-85.65
X157.8Y-97.778
X157.8Y-112.578
X157.85Y-117.45
X157.86Y-93.97
X159.05Y-100.8
X159.351Y-91.776
X159.376Y-92.901
X159.4Y-94.028
X159.4Y-97.778
X159.65Y-117.3
X161.75Y-116.728
X162.25Y-97.9
X162.45Y-122.8
X162.55Y-115.1
X163.15Y-119.2
X163.675Y-76.75
X164.15Y-125.15
X165.05Y-80.0
X165.4Y-106.8
X165.55Y-92.65
X165.55Y-99.85
X167.0Y-103.8
X167.25Y-96.4
X167.29Y-85.13
X167.75Y-80.525
X169.775Y-122.825
X170.1Y-98.7
X171.84Y-80.525
X172.3Y-97.575
X172.4Y-125.15
X173.6Y-102.2
X174.1Y-121.45
X174.819Y-106.781
X174.975Y-109.425
X175.36Y-84.14
X175.62Y-80.525
X175.675Y-96.725
X176.025Y-83.2
X176.775Y-87.8
X177.375Y-119.575
X178.025Y-87.15
X179.275Y-82.525
X179.65Y-125.2
X180.0Y-113.2
X180.0Y-114.0
X180.45Y-116.45
X180.5Y-80.525
X180.6Y-88.478
X180.9Y-113.2
X180.9Y-114.0
X181.5Y-89.528
X182.85Y-117.1
X183.135Y-92.213
X183.687Y-118.697
X183.7Y-84.65
X184.4Y-94.378
X184.45Y-117.075
X184.8Y-80.525
X185.1Y-92.9
X185.6Y-125.15
X185.65Y-95.09
X186.05Y-109.95
X186.475Y-121.75
X187.2Y-96.5
X187.2Y-97.3
X188.1Y-96.5
X188.1Y-97.3
X188.2Y-89.5
X188.22Y-95.16
X189.1Y-86.95
X189.5Y-82.675
X189.65Y-93.878
X191.25Y-80.2
X191.25Y-98.9
X192.55Y-125.15
X192.625Y-92.625
X192.8Y-99.25
X193.15Y-92.0
X193.15Y-93.55
X193.9Y-79.2
X194.075Y-80.35
X195.5Y-106.625
X195.525Y-98.775
X196.8Y-98.775
X197.0Y-103.6
X198.125Y-79.4
X198.35Y-88.65
X198.45Y-125.15
X198.55Y-83.575
X200.025Y-83.7
X200.25Y-86.95
X200.275Y-87.7
X200.55Y-90.75
X201.025Y-96.925
X202.175Y-85.075
X202.35Y-79.3
X202.662Y-88.462
X202.8Y-86.475
X203.175Y-102.425
X204.55Y-125.15
X205.075Y-90.75
X205.075Y-100.2
X205.125Y-81.42
X205.225Y-93.3
X205.3Y-76.45
X205.925Y-86.3
X207.15Y-114.625
X207.925Y-82.8
X208.175Y-77.9
X208.55Y-86.525
X209.15Y-74.875
X209.5Y-97.925
X210.6Y-79.6
X211.1Y-125.15
X211.2Y-82.878
X211.25Y-114.6
X212.0Y-89.05
X213.0Y-86.6
X213.35Y-83.55
X213.4Y-98.925
X214.425Y-98.225
X214.5Y-106.35
X214.55Y-90.475
X214.7Y-74.875
X215.4Y-90.475
X215.55Y-98.9
X216.05Y-103.5
X217.3Y-125.15
X219.025Y-98.625
X219.35Y-94.375
X219.65Y-86.45
X220.6Y-92.1
X222.025Y-93.9
X222.05Y-102.275
X222.25Y-92.178
X223.55Y-92.45
X223.55Y-98.15
X223.55Y-103.5
X223.55Y-109.1
X223.55Y-113.85
X223.55Y-118.55
T3
X88.6Y-77.6
X88.6Y-122.4
X89.303Y-75.903
X89.303Y-79.297
X89.303Y-120.703
X89.303Y-124.097
X91.0Y-75.2
X91.0Y-80.0
X91.0Y-120.0
X91.0Y-124.8
X92.697Y-75.903
X92.697Y-79.297
X92.697Y-120.703
X92.697Y-124.097
X93.4Y-77.6
X93.4Y-122.4
X218.4Y-77.6
X218.4Y-122.4
X219.103Y-75.903
X219.103Y-79.297
X219.103Y-120.703
X219.103Y-124.097
X220.8Y-75.2
X220.8Y-80.0
X220.8Y-120.0
X220.8Y-124.8
X222.497Y-75.903
X222.497Y-79.297
X222.497Y-120.703
X222.497Y-124.097
X223.2Y-77.6
X223.2Y-122.4
T5
X93.005Y-103.912
X93.005Y-105.944
X93.894Y-102.134
X93.894Y-107.849
X95.418Y-100.864
X95.418Y-108.992
X97.45Y-109.5
X99.482Y-100.864
X99.482Y-108.992
X101.006Y-107.722
X101.133Y-102.134
X101.895Y-103.912
X101.895Y-105.944
X112.005Y-103.912
X112.005Y-105.944
X112.894Y-102.134
X112.894Y-107.849
X114.418Y-100.864
X114.418Y-108.992
X116.45Y-109.5
X118.482Y-100.864
X118.482Y-108.992
X120.006Y-107.722
X120.133Y-102.134
X120.895Y-103.912
X120.895Y-105.944
X128.81Y-104.928
X133.89Y-104.928
X142.005Y-103.912
X142.005Y-105.944
X142.894Y-102.134
X142.894Y-107.849
X144.418Y-100.864
X144.418Y-108.992
X146.45Y-109.5
X148.482Y-100.864
X148.482Y-108.992
X150.006Y-107.722
X150.133Y-102.134
X150.895Y-103.912
X150.895Y-105.944
X161.005Y-103.912
X161.005Y-105.944
X161.894Y-102.134
X161.894Y-107.849
X163.418Y-100.864
X163.418Y-108.992
X165.45Y-109.5
X167.482Y-100.864
X167.482Y-108.992
X169.006Y-107.722
X169.133Y-102.134
X169.895Y-103.912
X169.895Y-105.944
X177.51Y-104.928
X182.59Y-104.928
X191.005Y-103.912
X191.005Y-105.944
X191.894Y-102.134
X191.894Y-107.849
X193.418Y-100.864
X193.418Y-108.992
X195.45Y-109.5
X197.482Y-100.864
X197.482Y-108.992
X199.006Y-107.722
X199.133Y-102.134
X199.895Y-103.912
X199.895Y-105.944
X210.005Y-103.912
X210.005Y-105.944
X210.894Y-102.134
X210.894Y-107.849
X212.418Y-100.864
X212.418Y-108.992
X214.45Y-109.5
X216.482Y-100.864
X216.482Y-108.992
X218.006Y-107.722
X218.133Y-102.134
X218.895Y-103.912
X218.895Y-105.944
T6
X90.3Y-87.428
X96.8Y-87.428
T7
X216.7Y-84.428
X219.2Y-84.428
X221.7Y-84.428
T8
X165.97Y-83.848
X168.51Y-83.848
X171.05Y-83.848
T9
X152.8Y-76.778
X152.8Y-91.278
X155.3Y-76.778
X157.8Y-76.778
X157.8Y-91.278
T10
X149.7Y-84.278
X160.9Y-84.278
T11
X91.0Y-77.6
X91.0Y-122.4
X220.8Y-77.6
X220.8Y-122.4
T4
X207.53Y-75.813G85X207.53Y-76.613
G05
X207.53Y-79.843G85X207.53Y-80.943
G05
X216.17Y-75.813G85X216.17Y-76.613
G05
X216.17Y-79.843G85X216.17Y-80.943
G05
M30
