%TF.GenerationSoftware,KiCad,Pcbnew,8.0.6*%
%TF.CreationDate,2024-10-16T19:54:22+02:00*%
%TF.ProjectId,nixie_alarm_main_board,6e697869-655f-4616-9c61-726d5f6d6169,rev?*%
%TF.SameCoordinates,Original*%
%TF.FileFunction,Paste,Bot*%
%TF.FilePolarity,Positive*%
%FSLAX46Y46*%
G04 Gerber Fmt 4.6, Leading zero omitted, Abs format (unit mm)*
G04 Created by KiCad (PCBNEW 8.0.6) date 2024-10-16 19:54:22*
%MOMM*%
%LPD*%
G01*
G04 APERTURE LIST*
G04 Aperture macros list*
%AMRoundRect*
0 Rectangle with rounded corners*
0 $1 Rounding radius*
0 $2 $3 $4 $5 $6 $7 $8 $9 X,Y pos of 4 corners*
0 Add a 4 corners polygon primitive as box body*
4,1,4,$2,$3,$4,$5,$6,$7,$8,$9,$2,$3,0*
0 Add four circle primitives for the rounded corners*
1,1,$1+$1,$2,$3*
1,1,$1+$1,$4,$5*
1,1,$1+$1,$6,$7*
1,1,$1+$1,$8,$9*
0 Add four rect primitives between the rounded corners*
20,1,$1+$1,$2,$3,$4,$5,0*
20,1,$1+$1,$4,$5,$6,$7,0*
20,1,$1+$1,$6,$7,$8,$9,0*
20,1,$1+$1,$8,$9,$2,$3,0*%
G04 Aperture macros list end*
%ADD10RoundRect,0.250000X-0.475000X0.337500X-0.475000X-0.337500X0.475000X-0.337500X0.475000X0.337500X0*%
%ADD11R,0.400000X0.450000*%
%ADD12R,0.500000X0.450000*%
%ADD13RoundRect,0.250000X0.450000X-0.350000X0.450000X0.350000X-0.450000X0.350000X-0.450000X-0.350000X0*%
%ADD14RoundRect,0.250000X-0.450000X0.350000X-0.450000X-0.350000X0.450000X-0.350000X0.450000X0.350000X0*%
%ADD15RoundRect,0.250000X0.337500X0.475000X-0.337500X0.475000X-0.337500X-0.475000X0.337500X-0.475000X0*%
%ADD16R,2.900000X5.400000*%
%ADD17R,0.250000X0.750000*%
%ADD18R,2.300000X2.500000*%
%ADD19R,1.250000X4.700000*%
%ADD20RoundRect,0.250000X0.350000X0.450000X-0.350000X0.450000X-0.350000X-0.450000X0.350000X-0.450000X0*%
%ADD21RoundRect,0.250000X0.475000X-0.337500X0.475000X0.337500X-0.475000X0.337500X-0.475000X-0.337500X0*%
%ADD22RoundRect,0.250000X-0.350000X-0.450000X0.350000X-0.450000X0.350000X0.450000X-0.350000X0.450000X0*%
%ADD23RoundRect,0.250000X-0.337500X-0.475000X0.337500X-0.475000X0.337500X0.475000X-0.337500X0.475000X0*%
%ADD24RoundRect,0.250000X-0.400000X-0.625000X0.400000X-0.625000X0.400000X0.625000X-0.400000X0.625000X0*%
%ADD25R,1.800000X1.700000*%
%ADD26R,2.100000X1.800000*%
%ADD27R,1.700000X1.800000*%
%ADD28R,0.900000X0.900000*%
%ADD29R,1.500000X0.900000*%
%ADD30R,0.900000X1.500000*%
%ADD31RoundRect,0.150000X-0.150000X-0.425000X0.150000X-0.425000X0.150000X0.425000X-0.150000X0.425000X0*%
%ADD32RoundRect,0.075000X-0.075000X-0.500000X0.075000X-0.500000X0.075000X0.500000X-0.075000X0.500000X0*%
%ADD33O,1.000000X1.800000*%
%ADD34O,1.000000X2.100000*%
G04 APERTURE END LIST*
D10*
%TO.C,C18*%
X197000000Y-81240500D03*
X197000000Y-83315500D03*
%TD*%
D11*
%TO.C,Q1*%
X91300000Y-96303000D03*
X90500000Y-96303000D03*
D12*
X90900000Y-95153000D03*
%TD*%
D10*
%TO.C,C4*%
X153900000Y-85890500D03*
X153900000Y-87965500D03*
%TD*%
D13*
%TO.C,R35*%
X93950000Y-96778000D03*
X93950000Y-94778000D03*
%TD*%
D10*
%TO.C,C10*%
X105950000Y-85062500D03*
X105950000Y-87137500D03*
%TD*%
D14*
%TO.C,R28*%
X146350000Y-96728000D03*
X146350000Y-98728000D03*
%TD*%
D15*
%TO.C,C13*%
X110637500Y-89328000D03*
X108562500Y-89328000D03*
%TD*%
D16*
%TO.C,L2*%
X128150000Y-80878000D03*
X118250000Y-80878000D03*
%TD*%
D10*
%TO.C,C22*%
X136450000Y-90640500D03*
X136450000Y-92715500D03*
%TD*%
D17*
%TO.C,D1*%
X211340000Y-83500000D03*
X211840000Y-83500000D03*
X212340000Y-83500000D03*
X212840000Y-83500000D03*
X213340000Y-83500000D03*
X213340000Y-84500000D03*
X212840000Y-84500000D03*
X212340000Y-84500000D03*
X211840000Y-84500000D03*
X211340000Y-84500000D03*
%TD*%
D18*
%TO.C,C20*%
X133150000Y-92678000D03*
X126950000Y-92678000D03*
%TD*%
D19*
%TO.C,L1*%
X204905000Y-93990000D03*
X201655000Y-93990000D03*
%TD*%
D20*
%TO.C,R16*%
X187700000Y-103128000D03*
X185700000Y-103128000D03*
%TD*%
D14*
%TO.C,R8*%
X157050000Y-85928000D03*
X157050000Y-87928000D03*
%TD*%
D13*
%TO.C,R18*%
X152850000Y-81278000D03*
X152850000Y-79278000D03*
%TD*%
D17*
%TO.C,D3*%
X169150000Y-86460000D03*
X169650000Y-86460000D03*
X170150000Y-86460000D03*
X170650000Y-86460000D03*
X171150000Y-86460000D03*
X171150000Y-87460000D03*
X170650000Y-87460000D03*
X170150000Y-87460000D03*
X169650000Y-87460000D03*
X169150000Y-87460000D03*
%TD*%
D21*
%TO.C,C19*%
X193700000Y-83315500D03*
X193700000Y-81240500D03*
%TD*%
D22*
%TO.C,R14*%
X108600000Y-91828000D03*
X110600000Y-91828000D03*
%TD*%
D10*
%TO.C,C1*%
X203600000Y-86562500D03*
X203600000Y-88637500D03*
%TD*%
D14*
%TO.C,R27*%
X131450000Y-96628000D03*
X131450000Y-98628000D03*
%TD*%
D22*
%TO.C,R23*%
X206450000Y-100628000D03*
X208450000Y-100628000D03*
%TD*%
D23*
%TO.C,C9*%
X179612500Y-123628000D03*
X181687500Y-123628000D03*
%TD*%
D24*
%TO.C,R15*%
X185150000Y-105828000D03*
X188250000Y-105828000D03*
%TD*%
D13*
%TO.C,R7*%
X155450000Y-83978000D03*
X155450000Y-81978000D03*
%TD*%
%TO.C,R44*%
X103050000Y-87130000D03*
X103050000Y-85130000D03*
%TD*%
D20*
%TO.C,R22*%
X203050000Y-100628000D03*
X201050000Y-100628000D03*
%TD*%
D15*
%TO.C,C15*%
X162337500Y-76700000D03*
X160262500Y-76700000D03*
%TD*%
D13*
%TO.C,R21*%
X180050000Y-107828000D03*
X180050000Y-105828000D03*
%TD*%
D10*
%TO.C,C29*%
X206800000Y-86562500D03*
X206800000Y-88637500D03*
%TD*%
D23*
%TO.C,C14*%
X148162500Y-79678000D03*
X150237500Y-79678000D03*
%TD*%
D14*
%TO.C,R17*%
X157850000Y-79278000D03*
X157850000Y-81278000D03*
%TD*%
D22*
%TO.C,R20*%
X159950000Y-79750000D03*
X161950000Y-79750000D03*
%TD*%
D15*
%TO.C,C8*%
X132087500Y-123628000D03*
X130012500Y-123628000D03*
%TD*%
D14*
%TO.C,R25*%
X165450000Y-96528000D03*
X165450000Y-98528000D03*
%TD*%
%TO.C,R31*%
X116420000Y-96640000D03*
X116420000Y-98640000D03*
%TD*%
D20*
%TO.C,R19*%
X150250000Y-76778000D03*
X148250000Y-76778000D03*
%TD*%
D25*
%TO.C,J1*%
X139750000Y-85478000D03*
D26*
X136350000Y-82128000D03*
D25*
X137500000Y-85478000D03*
D27*
X142350000Y-76978000D03*
X136150000Y-76978000D03*
%TD*%
D13*
%TO.C,R11*%
X96600000Y-80000000D03*
X96600000Y-78000000D03*
%TD*%
D14*
%TO.C,R33*%
X97350000Y-96728000D03*
X97350000Y-98728000D03*
%TD*%
D18*
%TO.C,C21*%
X139750000Y-92678000D03*
X145950000Y-92678000D03*
%TD*%
D28*
%TO.C,U1*%
X185400000Y-90328000D03*
X185400000Y-88928000D03*
X185400000Y-87528000D03*
X184000000Y-90328000D03*
X184000000Y-88928000D03*
X184000000Y-87528000D03*
X182600000Y-90328000D03*
X182600000Y-88928000D03*
X182600000Y-87528000D03*
D29*
X191250000Y-81208000D03*
X191250000Y-82478000D03*
X191250000Y-83748000D03*
X191250000Y-85018000D03*
X191250000Y-86288000D03*
X191250000Y-87558000D03*
X191250000Y-88828000D03*
X191250000Y-90098000D03*
X191250000Y-91368000D03*
X191250000Y-92638000D03*
X191250000Y-93908000D03*
X191250000Y-95178000D03*
X191250000Y-96448000D03*
X191250000Y-97718000D03*
D30*
X189485000Y-98968000D03*
X188215000Y-98968000D03*
X186945000Y-98968000D03*
X185675000Y-98968000D03*
X184405000Y-98968000D03*
X183135000Y-98968000D03*
X181865000Y-98968000D03*
X180595000Y-98968000D03*
X179325000Y-98968000D03*
X178055000Y-98968000D03*
X176785000Y-98968000D03*
X175515000Y-98968000D03*
D29*
X173750000Y-97718000D03*
X173750000Y-96448000D03*
X173750000Y-95178000D03*
X173750000Y-93908000D03*
X173750000Y-92638000D03*
X173750000Y-91368000D03*
X173750000Y-90098000D03*
X173750000Y-88828000D03*
X173750000Y-87558000D03*
X173750000Y-86288000D03*
X173750000Y-85018000D03*
X173750000Y-83748000D03*
X173750000Y-82478000D03*
X173750000Y-81208000D03*
%TD*%
D31*
%TO.C,J3*%
X208650000Y-80968000D03*
X209450000Y-80968000D03*
D32*
X210600000Y-80968000D03*
X211600000Y-80968000D03*
X212100000Y-80968000D03*
X213100000Y-80968000D03*
D31*
X214250000Y-80968000D03*
X215050000Y-80968000D03*
X215050000Y-80968000D03*
X214250000Y-80968000D03*
D32*
X213600000Y-80968000D03*
X212600000Y-80968000D03*
X211100000Y-80968000D03*
X210100000Y-80968000D03*
D31*
X209450000Y-80968000D03*
X208650000Y-80968000D03*
D33*
X207530000Y-76213000D03*
D34*
X207530000Y-80393000D03*
D33*
X216170000Y-76213000D03*
D34*
X216170000Y-80393000D03*
%TD*%
M02*
