%TF.GenerationSoftware,KiCad,Pcbnew,8.0.6*%
%TF.CreationDate,2024-10-16T19:54:22+02:00*%
%TF.ProjectId,nixie_alarm_main_board,6e697869-655f-4616-9c61-726d5f6d6169,rev?*%
%TF.SameCoordinates,Original*%
%TF.FileFunction,Profile,NP*%
%FSLAX46Y46*%
G04 Gerber Fmt 4.6, Leading zero omitted, Abs format (unit mm)*
G04 Created by KiCad (PCBNEW 8.0.6) date 2024-10-16 19:54:22*
%MOMM*%
%LPD*%
G01*
G04 APERTURE LIST*
%TA.AperFunction,Profile*%
%ADD10C,0.050000*%
%TD*%
%ADD11C,0.150000*%
G04 APERTURE END LIST*
D10*
X87900000Y-126500000D02*
G75*
G02*
X86900000Y-125500000I0J1000000D01*
G01*
X86900000Y-74500000D02*
G75*
G02*
X87900000Y-73500000I1000000J0D01*
G01*
X223900000Y-126500000D02*
X87900000Y-126500000D01*
X224900000Y-125500000D02*
G75*
G02*
X223900000Y-126500000I-1000000J0D01*
G01*
X87900000Y-73500000D02*
X223900000Y-73500000D01*
X116069891Y-73612100D02*
X116069891Y-73612094D01*
X223900000Y-73500000D02*
G75*
G02*
X224900000Y-74500000I0J-1000000D01*
G01*
X86900000Y-125500000D02*
X86900000Y-74500000D01*
X224900000Y-74500000D02*
X224900000Y-125500000D01*
D11*
X232404819Y-104095237D02*
X232404819Y-104571427D01*
X232404819Y-104571427D02*
X232881009Y-104619046D01*
X232881009Y-104619046D02*
X232833390Y-104571427D01*
X232833390Y-104571427D02*
X232785771Y-104476189D01*
X232785771Y-104476189D02*
X232785771Y-104238094D01*
X232785771Y-104238094D02*
X232833390Y-104142856D01*
X232833390Y-104142856D02*
X232881009Y-104095237D01*
X232881009Y-104095237D02*
X232976247Y-104047618D01*
X232976247Y-104047618D02*
X233214342Y-104047618D01*
X233214342Y-104047618D02*
X233309580Y-104095237D01*
X233309580Y-104095237D02*
X233357200Y-104142856D01*
X233357200Y-104142856D02*
X233404819Y-104238094D01*
X233404819Y-104238094D02*
X233404819Y-104476189D01*
X233404819Y-104476189D02*
X233357200Y-104571427D01*
X233357200Y-104571427D02*
X233309580Y-104619046D01*
X232404819Y-103714284D02*
X232404819Y-103095237D01*
X232404819Y-103095237D02*
X232785771Y-103428570D01*
X232785771Y-103428570D02*
X232785771Y-103285713D01*
X232785771Y-103285713D02*
X232833390Y-103190475D01*
X232833390Y-103190475D02*
X232881009Y-103142856D01*
X232881009Y-103142856D02*
X232976247Y-103095237D01*
X232976247Y-103095237D02*
X233214342Y-103095237D01*
X233214342Y-103095237D02*
X233309580Y-103142856D01*
X233309580Y-103142856D02*
X233357200Y-103190475D01*
X233357200Y-103190475D02*
X233404819Y-103285713D01*
X233404819Y-103285713D02*
X233404819Y-103571427D01*
X233404819Y-103571427D02*
X233357200Y-103666665D01*
X233357200Y-103666665D02*
X233309580Y-103714284D01*
X233357200Y-102619046D02*
X233404819Y-102619046D01*
X233404819Y-102619046D02*
X233500057Y-102666665D01*
X233500057Y-102666665D02*
X233547676Y-102714284D01*
X232404819Y-101999999D02*
X232404819Y-101904761D01*
X232404819Y-101904761D02*
X232452438Y-101809523D01*
X232452438Y-101809523D02*
X232500057Y-101761904D01*
X232500057Y-101761904D02*
X232595295Y-101714285D01*
X232595295Y-101714285D02*
X232785771Y-101666666D01*
X232785771Y-101666666D02*
X233023866Y-101666666D01*
X233023866Y-101666666D02*
X233214342Y-101714285D01*
X233214342Y-101714285D02*
X233309580Y-101761904D01*
X233309580Y-101761904D02*
X233357200Y-101809523D01*
X233357200Y-101809523D02*
X233404819Y-101904761D01*
X233404819Y-101904761D02*
X233404819Y-101999999D01*
X233404819Y-101999999D02*
X233357200Y-102095237D01*
X233357200Y-102095237D02*
X233309580Y-102142856D01*
X233309580Y-102142856D02*
X233214342Y-102190475D01*
X233214342Y-102190475D02*
X233023866Y-102238094D01*
X233023866Y-102238094D02*
X232785771Y-102238094D01*
X232785771Y-102238094D02*
X232595295Y-102190475D01*
X232595295Y-102190475D02*
X232500057Y-102142856D01*
X232500057Y-102142856D02*
X232452438Y-102095237D01*
X232452438Y-102095237D02*
X232404819Y-101999999D01*
X232404819Y-101047618D02*
X232404819Y-100952380D01*
X232404819Y-100952380D02*
X232452438Y-100857142D01*
X232452438Y-100857142D02*
X232500057Y-100809523D01*
X232500057Y-100809523D02*
X232595295Y-100761904D01*
X232595295Y-100761904D02*
X232785771Y-100714285D01*
X232785771Y-100714285D02*
X233023866Y-100714285D01*
X233023866Y-100714285D02*
X233214342Y-100761904D01*
X233214342Y-100761904D02*
X233309580Y-100809523D01*
X233309580Y-100809523D02*
X233357200Y-100857142D01*
X233357200Y-100857142D02*
X233404819Y-100952380D01*
X233404819Y-100952380D02*
X233404819Y-101047618D01*
X233404819Y-101047618D02*
X233357200Y-101142856D01*
X233357200Y-101142856D02*
X233309580Y-101190475D01*
X233309580Y-101190475D02*
X233214342Y-101238094D01*
X233214342Y-101238094D02*
X233023866Y-101285713D01*
X233023866Y-101285713D02*
X232785771Y-101285713D01*
X232785771Y-101285713D02*
X232595295Y-101238094D01*
X232595295Y-101238094D02*
X232500057Y-101190475D01*
X232500057Y-101190475D02*
X232452438Y-101142856D01*
X232452438Y-101142856D02*
X232404819Y-101047618D01*
X232404819Y-100095237D02*
X232404819Y-99999999D01*
X232404819Y-99999999D02*
X232452438Y-99904761D01*
X232452438Y-99904761D02*
X232500057Y-99857142D01*
X232500057Y-99857142D02*
X232595295Y-99809523D01*
X232595295Y-99809523D02*
X232785771Y-99761904D01*
X232785771Y-99761904D02*
X233023866Y-99761904D01*
X233023866Y-99761904D02*
X233214342Y-99809523D01*
X233214342Y-99809523D02*
X233309580Y-99857142D01*
X233309580Y-99857142D02*
X233357200Y-99904761D01*
X233357200Y-99904761D02*
X233404819Y-99999999D01*
X233404819Y-99999999D02*
X233404819Y-100095237D01*
X233404819Y-100095237D02*
X233357200Y-100190475D01*
X233357200Y-100190475D02*
X233309580Y-100238094D01*
X233309580Y-100238094D02*
X233214342Y-100285713D01*
X233214342Y-100285713D02*
X233023866Y-100333332D01*
X233023866Y-100333332D02*
X232785771Y-100333332D01*
X232785771Y-100333332D02*
X232595295Y-100285713D01*
X232595295Y-100285713D02*
X232500057Y-100238094D01*
X232500057Y-100238094D02*
X232452438Y-100190475D01*
X232452438Y-100190475D02*
X232404819Y-100095237D01*
X232404819Y-99142856D02*
X232404819Y-99047618D01*
X232404819Y-99047618D02*
X232452438Y-98952380D01*
X232452438Y-98952380D02*
X232500057Y-98904761D01*
X232500057Y-98904761D02*
X232595295Y-98857142D01*
X232595295Y-98857142D02*
X232785771Y-98809523D01*
X232785771Y-98809523D02*
X233023866Y-98809523D01*
X233023866Y-98809523D02*
X233214342Y-98857142D01*
X233214342Y-98857142D02*
X233309580Y-98904761D01*
X233309580Y-98904761D02*
X233357200Y-98952380D01*
X233357200Y-98952380D02*
X233404819Y-99047618D01*
X233404819Y-99047618D02*
X233404819Y-99142856D01*
X233404819Y-99142856D02*
X233357200Y-99238094D01*
X233357200Y-99238094D02*
X233309580Y-99285713D01*
X233309580Y-99285713D02*
X233214342Y-99333332D01*
X233214342Y-99333332D02*
X233023866Y-99380951D01*
X233023866Y-99380951D02*
X232785771Y-99380951D01*
X232785771Y-99380951D02*
X232595295Y-99333332D01*
X232595295Y-99333332D02*
X232500057Y-99285713D01*
X232500057Y-99285713D02*
X232452438Y-99238094D01*
X232452438Y-99238094D02*
X232404819Y-99142856D01*
X233404819Y-97619046D02*
X232738152Y-97619046D01*
X232833390Y-97619046D02*
X232785771Y-97571427D01*
X232785771Y-97571427D02*
X232738152Y-97476189D01*
X232738152Y-97476189D02*
X232738152Y-97333332D01*
X232738152Y-97333332D02*
X232785771Y-97238094D01*
X232785771Y-97238094D02*
X232881009Y-97190475D01*
X232881009Y-97190475D02*
X233404819Y-97190475D01*
X232881009Y-97190475D02*
X232785771Y-97142856D01*
X232785771Y-97142856D02*
X232738152Y-97047618D01*
X232738152Y-97047618D02*
X232738152Y-96904761D01*
X232738152Y-96904761D02*
X232785771Y-96809522D01*
X232785771Y-96809522D02*
X232881009Y-96761903D01*
X232881009Y-96761903D02*
X233404819Y-96761903D01*
X233404819Y-96285713D02*
X232738152Y-96285713D01*
X232833390Y-96285713D02*
X232785771Y-96238094D01*
X232785771Y-96238094D02*
X232738152Y-96142856D01*
X232738152Y-96142856D02*
X232738152Y-95999999D01*
X232738152Y-95999999D02*
X232785771Y-95904761D01*
X232785771Y-95904761D02*
X232881009Y-95857142D01*
X232881009Y-95857142D02*
X233404819Y-95857142D01*
X232881009Y-95857142D02*
X232785771Y-95809523D01*
X232785771Y-95809523D02*
X232738152Y-95714285D01*
X232738152Y-95714285D02*
X232738152Y-95571428D01*
X232738152Y-95571428D02*
X232785771Y-95476189D01*
X232785771Y-95476189D02*
X232881009Y-95428570D01*
X232881009Y-95428570D02*
X233404819Y-95428570D01*
D10*
X225400000Y-73500000D02*
X234686420Y-73500000D01*
X225400000Y-126500000D02*
X234686420Y-126500000D01*
X234100000Y-73500000D02*
X234100000Y-126500000D01*
X234100000Y-73500000D02*
X234100000Y-126500000D01*
X234100000Y-73500000D02*
X234686421Y-74626504D01*
X234100000Y-73500000D02*
X233513579Y-74626504D01*
X234100000Y-126500000D02*
X233513579Y-125373496D01*
X234100000Y-126500000D02*
X234686421Y-125373496D01*
D11*
X151376190Y-64604819D02*
X150804762Y-64604819D01*
X151090476Y-64604819D02*
X151090476Y-63604819D01*
X151090476Y-63604819D02*
X150995238Y-63747676D01*
X150995238Y-63747676D02*
X150900000Y-63842914D01*
X150900000Y-63842914D02*
X150804762Y-63890533D01*
X151709524Y-63604819D02*
X152328571Y-63604819D01*
X152328571Y-63604819D02*
X151995238Y-63985771D01*
X151995238Y-63985771D02*
X152138095Y-63985771D01*
X152138095Y-63985771D02*
X152233333Y-64033390D01*
X152233333Y-64033390D02*
X152280952Y-64081009D01*
X152280952Y-64081009D02*
X152328571Y-64176247D01*
X152328571Y-64176247D02*
X152328571Y-64414342D01*
X152328571Y-64414342D02*
X152280952Y-64509580D01*
X152280952Y-64509580D02*
X152233333Y-64557200D01*
X152233333Y-64557200D02*
X152138095Y-64604819D01*
X152138095Y-64604819D02*
X151852381Y-64604819D01*
X151852381Y-64604819D02*
X151757143Y-64557200D01*
X151757143Y-64557200D02*
X151709524Y-64509580D01*
X152900000Y-64033390D02*
X152804762Y-63985771D01*
X152804762Y-63985771D02*
X152757143Y-63938152D01*
X152757143Y-63938152D02*
X152709524Y-63842914D01*
X152709524Y-63842914D02*
X152709524Y-63795295D01*
X152709524Y-63795295D02*
X152757143Y-63700057D01*
X152757143Y-63700057D02*
X152804762Y-63652438D01*
X152804762Y-63652438D02*
X152900000Y-63604819D01*
X152900000Y-63604819D02*
X153090476Y-63604819D01*
X153090476Y-63604819D02*
X153185714Y-63652438D01*
X153185714Y-63652438D02*
X153233333Y-63700057D01*
X153233333Y-63700057D02*
X153280952Y-63795295D01*
X153280952Y-63795295D02*
X153280952Y-63842914D01*
X153280952Y-63842914D02*
X153233333Y-63938152D01*
X153233333Y-63938152D02*
X153185714Y-63985771D01*
X153185714Y-63985771D02*
X153090476Y-64033390D01*
X153090476Y-64033390D02*
X152900000Y-64033390D01*
X152900000Y-64033390D02*
X152804762Y-64081009D01*
X152804762Y-64081009D02*
X152757143Y-64128628D01*
X152757143Y-64128628D02*
X152709524Y-64223866D01*
X152709524Y-64223866D02*
X152709524Y-64414342D01*
X152709524Y-64414342D02*
X152757143Y-64509580D01*
X152757143Y-64509580D02*
X152804762Y-64557200D01*
X152804762Y-64557200D02*
X152900000Y-64604819D01*
X152900000Y-64604819D02*
X153090476Y-64604819D01*
X153090476Y-64604819D02*
X153185714Y-64557200D01*
X153185714Y-64557200D02*
X153233333Y-64509580D01*
X153233333Y-64509580D02*
X153280952Y-64414342D01*
X153280952Y-64414342D02*
X153280952Y-64223866D01*
X153280952Y-64223866D02*
X153233333Y-64128628D01*
X153233333Y-64128628D02*
X153185714Y-64081009D01*
X153185714Y-64081009D02*
X153090476Y-64033390D01*
X153757143Y-64557200D02*
X153757143Y-64604819D01*
X153757143Y-64604819D02*
X153709524Y-64700057D01*
X153709524Y-64700057D02*
X153661905Y-64747676D01*
X154376190Y-63604819D02*
X154471428Y-63604819D01*
X154471428Y-63604819D02*
X154566666Y-63652438D01*
X154566666Y-63652438D02*
X154614285Y-63700057D01*
X154614285Y-63700057D02*
X154661904Y-63795295D01*
X154661904Y-63795295D02*
X154709523Y-63985771D01*
X154709523Y-63985771D02*
X154709523Y-64223866D01*
X154709523Y-64223866D02*
X154661904Y-64414342D01*
X154661904Y-64414342D02*
X154614285Y-64509580D01*
X154614285Y-64509580D02*
X154566666Y-64557200D01*
X154566666Y-64557200D02*
X154471428Y-64604819D01*
X154471428Y-64604819D02*
X154376190Y-64604819D01*
X154376190Y-64604819D02*
X154280952Y-64557200D01*
X154280952Y-64557200D02*
X154233333Y-64509580D01*
X154233333Y-64509580D02*
X154185714Y-64414342D01*
X154185714Y-64414342D02*
X154138095Y-64223866D01*
X154138095Y-64223866D02*
X154138095Y-63985771D01*
X154138095Y-63985771D02*
X154185714Y-63795295D01*
X154185714Y-63795295D02*
X154233333Y-63700057D01*
X154233333Y-63700057D02*
X154280952Y-63652438D01*
X154280952Y-63652438D02*
X154376190Y-63604819D01*
X155328571Y-63604819D02*
X155423809Y-63604819D01*
X155423809Y-63604819D02*
X155519047Y-63652438D01*
X155519047Y-63652438D02*
X155566666Y-63700057D01*
X155566666Y-63700057D02*
X155614285Y-63795295D01*
X155614285Y-63795295D02*
X155661904Y-63985771D01*
X155661904Y-63985771D02*
X155661904Y-64223866D01*
X155661904Y-64223866D02*
X155614285Y-64414342D01*
X155614285Y-64414342D02*
X155566666Y-64509580D01*
X155566666Y-64509580D02*
X155519047Y-64557200D01*
X155519047Y-64557200D02*
X155423809Y-64604819D01*
X155423809Y-64604819D02*
X155328571Y-64604819D01*
X155328571Y-64604819D02*
X155233333Y-64557200D01*
X155233333Y-64557200D02*
X155185714Y-64509580D01*
X155185714Y-64509580D02*
X155138095Y-64414342D01*
X155138095Y-64414342D02*
X155090476Y-64223866D01*
X155090476Y-64223866D02*
X155090476Y-63985771D01*
X155090476Y-63985771D02*
X155138095Y-63795295D01*
X155138095Y-63795295D02*
X155185714Y-63700057D01*
X155185714Y-63700057D02*
X155233333Y-63652438D01*
X155233333Y-63652438D02*
X155328571Y-63604819D01*
X156280952Y-63604819D02*
X156376190Y-63604819D01*
X156376190Y-63604819D02*
X156471428Y-63652438D01*
X156471428Y-63652438D02*
X156519047Y-63700057D01*
X156519047Y-63700057D02*
X156566666Y-63795295D01*
X156566666Y-63795295D02*
X156614285Y-63985771D01*
X156614285Y-63985771D02*
X156614285Y-64223866D01*
X156614285Y-64223866D02*
X156566666Y-64414342D01*
X156566666Y-64414342D02*
X156519047Y-64509580D01*
X156519047Y-64509580D02*
X156471428Y-64557200D01*
X156471428Y-64557200D02*
X156376190Y-64604819D01*
X156376190Y-64604819D02*
X156280952Y-64604819D01*
X156280952Y-64604819D02*
X156185714Y-64557200D01*
X156185714Y-64557200D02*
X156138095Y-64509580D01*
X156138095Y-64509580D02*
X156090476Y-64414342D01*
X156090476Y-64414342D02*
X156042857Y-64223866D01*
X156042857Y-64223866D02*
X156042857Y-63985771D01*
X156042857Y-63985771D02*
X156090476Y-63795295D01*
X156090476Y-63795295D02*
X156138095Y-63700057D01*
X156138095Y-63700057D02*
X156185714Y-63652438D01*
X156185714Y-63652438D02*
X156280952Y-63604819D01*
X157233333Y-63604819D02*
X157328571Y-63604819D01*
X157328571Y-63604819D02*
X157423809Y-63652438D01*
X157423809Y-63652438D02*
X157471428Y-63700057D01*
X157471428Y-63700057D02*
X157519047Y-63795295D01*
X157519047Y-63795295D02*
X157566666Y-63985771D01*
X157566666Y-63985771D02*
X157566666Y-64223866D01*
X157566666Y-64223866D02*
X157519047Y-64414342D01*
X157519047Y-64414342D02*
X157471428Y-64509580D01*
X157471428Y-64509580D02*
X157423809Y-64557200D01*
X157423809Y-64557200D02*
X157328571Y-64604819D01*
X157328571Y-64604819D02*
X157233333Y-64604819D01*
X157233333Y-64604819D02*
X157138095Y-64557200D01*
X157138095Y-64557200D02*
X157090476Y-64509580D01*
X157090476Y-64509580D02*
X157042857Y-64414342D01*
X157042857Y-64414342D02*
X156995238Y-64223866D01*
X156995238Y-64223866D02*
X156995238Y-63985771D01*
X156995238Y-63985771D02*
X157042857Y-63795295D01*
X157042857Y-63795295D02*
X157090476Y-63700057D01*
X157090476Y-63700057D02*
X157138095Y-63652438D01*
X157138095Y-63652438D02*
X157233333Y-63604819D01*
X158757143Y-64604819D02*
X158757143Y-63938152D01*
X158757143Y-64033390D02*
X158804762Y-63985771D01*
X158804762Y-63985771D02*
X158900000Y-63938152D01*
X158900000Y-63938152D02*
X159042857Y-63938152D01*
X159042857Y-63938152D02*
X159138095Y-63985771D01*
X159138095Y-63985771D02*
X159185714Y-64081009D01*
X159185714Y-64081009D02*
X159185714Y-64604819D01*
X159185714Y-64081009D02*
X159233333Y-63985771D01*
X159233333Y-63985771D02*
X159328571Y-63938152D01*
X159328571Y-63938152D02*
X159471428Y-63938152D01*
X159471428Y-63938152D02*
X159566667Y-63985771D01*
X159566667Y-63985771D02*
X159614286Y-64081009D01*
X159614286Y-64081009D02*
X159614286Y-64604819D01*
X160090476Y-64604819D02*
X160090476Y-63938152D01*
X160090476Y-64033390D02*
X160138095Y-63985771D01*
X160138095Y-63985771D02*
X160233333Y-63938152D01*
X160233333Y-63938152D02*
X160376190Y-63938152D01*
X160376190Y-63938152D02*
X160471428Y-63985771D01*
X160471428Y-63985771D02*
X160519047Y-64081009D01*
X160519047Y-64081009D02*
X160519047Y-64604819D01*
X160519047Y-64081009D02*
X160566666Y-63985771D01*
X160566666Y-63985771D02*
X160661904Y-63938152D01*
X160661904Y-63938152D02*
X160804761Y-63938152D01*
X160804761Y-63938152D02*
X160900000Y-63985771D01*
X160900000Y-63985771D02*
X160947619Y-64081009D01*
X160947619Y-64081009D02*
X160947619Y-64604819D01*
D10*
X86900000Y-73000000D02*
X86900000Y-64713580D01*
X224900000Y-73000000D02*
X224900000Y-64713580D01*
X86900000Y-65300000D02*
X224900000Y-65300000D01*
X86900000Y-65300000D02*
X224900000Y-65300000D01*
X86900000Y-65300000D02*
X88026504Y-64713579D01*
X86900000Y-65300000D02*
X88026504Y-65886421D01*
X224900000Y-65300000D02*
X223773496Y-65886421D01*
X224900000Y-65300000D02*
X223773496Y-64713579D01*
M02*
