%TF.GenerationSoftware,KiCad,Pcbnew,8.0.6*%
%TF.CreationDate,2024-10-16T19:54:22+02:00*%
%TF.ProjectId,nixie_alarm_main_board,6e697869-655f-4616-9c61-726d5f6d6169,rev?*%
%TF.SameCoordinates,Original*%
%TF.FileFunction,Legend,Top*%
%TF.FilePolarity,Positive*%
%FSLAX46Y46*%
G04 Gerber Fmt 4.6, Leading zero omitted, Abs format (unit mm)*
G04 Created by KiCad (PCBNEW 8.0.6) date 2024-10-16 19:54:22*
%MOMM*%
%LPD*%
G01*
G04 APERTURE LIST*
%ADD10C,1.000000*%
%ADD11C,0.100000*%
%ADD12C,0.150000*%
%ADD13C,0.254000*%
%ADD14C,0.120000*%
%ADD15C,0.200000*%
%ADD16C,0.400000*%
G04 APERTURE END LIST*
D10*
X2147483646Y2147483548D02*
G75*
G02*
X2147483420Y2147483548I-99J0D01*
G01*
X2147483420Y2147483548D02*
G75*
G02*
X2147483646Y2147483548I127J0D01*
G01*
X2147483646Y2147483548D02*
G75*
G02*
X2147483420Y2147483548I-99J0D01*
G01*
X2147483420Y2147483548D02*
G75*
G02*
X2147483646Y2147483548I127J0D01*
G01*
X2147483646Y2147483548D02*
G75*
G02*
X2147483420Y2147483548I-99J0D01*
G01*
X2147483420Y2147483548D02*
G75*
G02*
X2147483646Y2147483548I127J0D01*
G01*
X2147483646Y2147483548D02*
G75*
G02*
X2147483420Y2147483548I-99J0D01*
G01*
X2147483420Y2147483548D02*
G75*
G02*
X2147483646Y2147483548I127J0D01*
G01*
X2147483646Y2147483548D02*
G75*
G02*
X2147483420Y2147483548I-99J0D01*
G01*
X2147483420Y2147483548D02*
G75*
G02*
X2147483646Y2147483548I127J0D01*
G01*
X2147483646Y2147483548D02*
G75*
G02*
X2147483420Y2147483548I-99J0D01*
G01*
X2147483420Y2147483548D02*
G75*
G02*
X2147483646Y2147483548I127J0D01*
G01*
X2147483646Y2147483548D02*
G75*
G02*
X2147483420Y2147483548I-99J0D01*
G01*
X2147483420Y2147483548D02*
G75*
G02*
X2147483646Y2147483548I127J0D01*
G01*
X2147483646Y2147483548D02*
G75*
G02*
X2147483420Y2147483548I-99J0D01*
G01*
X2147483420Y2147483548D02*
G75*
G02*
X2147483646Y2147483548I127J0D01*
G01*
X2147483646Y2147483548D02*
G75*
G02*
X2147483420Y2147483548I-99J0D01*
G01*
X2147483420Y2147483548D02*
G75*
G02*
X2147483646Y2147483548I127J0D01*
G01*
X2147483646Y2147483548D02*
G75*
G02*
X2147483420Y2147483548I-99J0D01*
G01*
X2147483420Y2147483548D02*
G75*
G02*
X2147483646Y2147483548I127J0D01*
G01*
X2147483646Y2147483548D02*
G75*
G02*
X2147483420Y2147483548I-99J0D01*
G01*
X2147483420Y2147483548D02*
G75*
G02*
X2147483646Y2147483548I127J0D01*
G01*
X2147483646Y2147483548D02*
G75*
G02*
X2147483420Y2147483548I-99J0D01*
G01*
X2147483420Y2147483548D02*
G75*
G02*
X2147483646Y2147483548I127J0D01*
G01*
X2147483646Y2147483548D02*
G75*
G02*
X2147483420Y2147483548I-99J0D01*
G01*
X2147483420Y2147483548D02*
G75*
G02*
X2147483646Y2147483548I127J0D01*
G01*
X2147483646Y2147483548D02*
G75*
G02*
X2147483420Y2147483548I-99J0D01*
G01*
X2147483420Y2147483548D02*
G75*
G02*
X2147483646Y2147483548I127J0D01*
G01*
X2147483646Y2147483548D02*
G75*
G02*
X2147483420Y2147483548I-99J0D01*
G01*
X2147483420Y2147483548D02*
G75*
G02*
X2147483646Y2147483548I127J0D01*
G01*
X2147483646Y2147483548D02*
G75*
G02*
X2147483420Y2147483548I-99J0D01*
G01*
X2147483420Y2147483548D02*
G75*
G02*
X2147483646Y2147483548I127J0D01*
G01*
X2147483646Y2147483548D02*
G75*
G02*
X2147483420Y2147483548I-99J0D01*
G01*
X2147483420Y2147483548D02*
G75*
G02*
X2147483646Y2147483548I127J0D01*
G01*
X2147483646Y2147483548D02*
G75*
G02*
X2147483420Y2147483548I-99J0D01*
G01*
X2147483420Y2147483548D02*
G75*
G02*
X2147483646Y2147483548I127J0D01*
G01*
X2147483646Y2147483548D02*
G75*
G02*
X2147483420Y2147483548I-99J0D01*
G01*
X2147483420Y2147483548D02*
G75*
G02*
X2147483646Y2147483548I127J0D01*
G01*
X2147483646Y2147483548D02*
G75*
G02*
X2147483420Y2147483548I-99J0D01*
G01*
X2147483420Y2147483548D02*
G75*
G02*
X2147483646Y2147483548I127J0D01*
G01*
X2147483646Y2147483548D02*
G75*
G02*
X2147483420Y2147483548I-99J0D01*
G01*
X2147483420Y2147483548D02*
G75*
G02*
X2147483646Y2147483548I127J0D01*
G01*
X2147483646Y2147483548D02*
G75*
G02*
X2147483420Y2147483548I-99J0D01*
G01*
X2147483420Y2147483548D02*
G75*
G02*
X2147483646Y2147483548I127J0D01*
G01*
X2147483646Y2147483548D02*
G75*
G02*
X2147483420Y2147483548I-99J0D01*
G01*
X2147483420Y2147483548D02*
G75*
G02*
X2147483646Y2147483548I127J0D01*
G01*
X2147483646Y2147483548D02*
G75*
G02*
X2147483420Y2147483548I-99J0D01*
G01*
X2147483420Y2147483548D02*
G75*
G02*
X2147483646Y2147483548I127J0D01*
G01*
X2147483646Y2147483548D02*
G75*
G02*
X2147483420Y2147483548I-99J0D01*
G01*
X2147483420Y2147483548D02*
G75*
G02*
X2147483646Y2147483548I127J0D01*
G01*
X2147483646Y2147483548D02*
G75*
G02*
X2147483420Y2147483548I-99J0D01*
G01*
X2147483420Y2147483548D02*
G75*
G02*
X2147483646Y2147483548I127J0D01*
G01*
X2147483646Y2147483548D02*
G75*
G02*
X2147483420Y2147483548I-99J0D01*
G01*
X2147483420Y2147483548D02*
G75*
G02*
X2147483646Y2147483548I127J0D01*
G01*
X2147483646Y2147483548D02*
G75*
G02*
X2147483420Y2147483548I-99J0D01*
G01*
X2147483420Y2147483548D02*
G75*
G02*
X2147483646Y2147483548I127J0D01*
G01*
X2147483646Y2147483548D02*
G75*
G02*
X2147483420Y2147483548I-99J0D01*
G01*
X2147483420Y2147483548D02*
G75*
G02*
X2147483646Y2147483548I127J0D01*
G01*
X2147483646Y2147483548D02*
G75*
G02*
X2147483420Y2147483548I-99J0D01*
G01*
X2147483420Y2147483548D02*
G75*
G02*
X2147483646Y2147483548I127J0D01*
G01*
X2147483646Y2147483548D02*
G75*
G02*
X2147483420Y2147483548I-99J0D01*
G01*
X2147483420Y2147483548D02*
G75*
G02*
X2147483646Y2147483548I127J0D01*
G01*
X2147483646Y2147483548D02*
G75*
G02*
X2147483420Y2147483548I-99J0D01*
G01*
X2147483420Y2147483548D02*
G75*
G02*
X2147483646Y2147483548I127J0D01*
G01*
X2147483646Y2147483548D02*
G75*
G02*
X2147483420Y2147483548I-99J0D01*
G01*
X2147483420Y2147483548D02*
G75*
G02*
X2147483646Y2147483548I127J0D01*
G01*
X2147483646Y2147483548D02*
G75*
G02*
X2147483420Y2147483548I-99J0D01*
G01*
X2147483420Y2147483548D02*
G75*
G02*
X2147483646Y2147483548I127J0D01*
G01*
X2147483646Y2147483548D02*
G75*
G02*
X2147483420Y2147483548I-99J0D01*
G01*
X2147483420Y2147483548D02*
G75*
G02*
X2147483646Y2147483548I127J0D01*
G01*
X2147483646Y2147483548D02*
G75*
G02*
X2147483420Y2147483548I-99J0D01*
G01*
X2147483420Y2147483548D02*
G75*
G02*
X2147483646Y2147483548I127J0D01*
G01*
X2147483646Y2147483548D02*
G75*
G02*
X2147483420Y2147483548I-99J0D01*
G01*
X2147483420Y2147483548D02*
G75*
G02*
X2147483646Y2147483548I127J0D01*
G01*
X2147483646Y2147483548D02*
G75*
G02*
X2147483420Y2147483548I-99J0D01*
G01*
X2147483420Y2147483548D02*
G75*
G02*
X2147483646Y2147483548I127J0D01*
G01*
X2147483646Y2147483548D02*
G75*
G02*
X2147483420Y2147483548I-99J0D01*
G01*
X2147483420Y2147483548D02*
G75*
G02*
X2147483646Y2147483548I127J0D01*
G01*
X2147483646Y2147483548D02*
G75*
G02*
X2147483420Y2147483548I-99J0D01*
G01*
X2147483420Y2147483548D02*
G75*
G02*
X2147483646Y2147483548I127J0D01*
G01*
X2147483646Y2147483548D02*
G75*
G02*
X2147483420Y2147483548I-99J0D01*
G01*
X2147483420Y2147483548D02*
G75*
G02*
X2147483646Y2147483548I127J0D01*
G01*
X2147483646Y2147483548D02*
G75*
G02*
X2147483420Y2147483548I-99J0D01*
G01*
X2147483420Y2147483548D02*
G75*
G02*
X2147483646Y2147483548I127J0D01*
G01*
X2147483646Y2147483548D02*
G75*
G02*
X2147483420Y2147483548I-99J0D01*
G01*
X2147483420Y2147483548D02*
G75*
G02*
X2147483646Y2147483548I127J0D01*
G01*
X2147483646Y2147483548D02*
G75*
G02*
X2147483420Y2147483548I-99J0D01*
G01*
X2147483420Y2147483548D02*
G75*
G02*
X2147483646Y2147483548I127J0D01*
G01*
X2147483646Y2147483548D02*
G75*
G02*
X2147483420Y2147483548I-99J0D01*
G01*
X2147483420Y2147483548D02*
G75*
G02*
X2147483646Y2147483548I127J0D01*
G01*
X2147483646Y2147483548D02*
G75*
G02*
X2147483420Y2147483548I-99J0D01*
G01*
X2147483420Y2147483548D02*
G75*
G02*
X2147483646Y2147483548I127J0D01*
G01*
X2147483646Y2147483548D02*
G75*
G02*
X2147483420Y2147483548I-99J0D01*
G01*
X2147483420Y2147483548D02*
G75*
G02*
X2147483646Y2147483548I127J0D01*
G01*
X2147483646Y2147483548D02*
G75*
G02*
X2147483420Y2147483548I-99J0D01*
G01*
X2147483420Y2147483548D02*
G75*
G02*
X2147483646Y2147483548I127J0D01*
G01*
X2147483646Y2147483548D02*
G75*
G02*
X2147483420Y2147483548I-99J0D01*
G01*
X2147483420Y2147483548D02*
G75*
G02*
X2147483646Y2147483548I127J0D01*
G01*
X2147483646Y2147483548D02*
G75*
G02*
X2147483420Y2147483548I-99J0D01*
G01*
X2147483420Y2147483548D02*
G75*
G02*
X2147483646Y2147483548I127J0D01*
G01*
X2147483646Y2147483548D02*
G75*
G02*
X2147483420Y2147483548I-99J0D01*
G01*
X2147483420Y2147483548D02*
G75*
G02*
X2147483646Y2147483548I127J0D01*
G01*
X2147483646Y2147483548D02*
G75*
G02*
X2147483420Y2147483548I-99J0D01*
G01*
X2147483420Y2147483548D02*
G75*
G02*
X2147483646Y2147483548I127J0D01*
G01*
X2147483646Y2147483548D02*
G75*
G02*
X2147483420Y2147483548I-99J0D01*
G01*
X2147483420Y2147483548D02*
G75*
G02*
X2147483646Y2147483548I127J0D01*
G01*
X2147483646Y2147483548D02*
G75*
G02*
X2147483420Y2147483548I-99J0D01*
G01*
X2147483420Y2147483548D02*
G75*
G02*
X2147483646Y2147483548I127J0D01*
G01*
X2147483646Y2147483548D02*
G75*
G02*
X2147483420Y2147483548I-99J0D01*
G01*
X2147483420Y2147483548D02*
G75*
G02*
X2147483646Y2147483548I127J0D01*
G01*
X2147483646Y2147483548D02*
G75*
G02*
X2147483420Y2147483548I-99J0D01*
G01*
X2147483420Y2147483548D02*
G75*
G02*
X2147483646Y2147483548I127J0D01*
G01*
X2147483646Y2147483548D02*
G75*
G02*
X2147483420Y2147483548I-99J0D01*
G01*
X2147483420Y2147483548D02*
G75*
G02*
X2147483646Y2147483548I127J0D01*
G01*
X2147483646Y2147483548D02*
G75*
G02*
X2147483420Y2147483548I-99J0D01*
G01*
X2147483420Y2147483548D02*
G75*
G02*
X2147483646Y2147483548I127J0D01*
G01*
X2147483646Y2147483548D02*
G75*
G02*
X2147483420Y2147483548I-99J0D01*
G01*
X2147483420Y2147483548D02*
G75*
G02*
X2147483646Y2147483548I127J0D01*
G01*
X2147483646Y2147483548D02*
G75*
G02*
X2147483420Y2147483548I-99J0D01*
G01*
X2147483420Y2147483548D02*
G75*
G02*
X2147483646Y2147483548I127J0D01*
G01*
X2147483646Y2147483548D02*
G75*
G02*
X2147483420Y2147483548I-99J0D01*
G01*
X2147483420Y2147483548D02*
G75*
G02*
X2147483646Y2147483548I127J0D01*
G01*
X2147483646Y2147483548D02*
G75*
G02*
X2147483420Y2147483548I-99J0D01*
G01*
X2147483420Y2147483548D02*
G75*
G02*
X2147483646Y2147483548I127J0D01*
G01*
X2147483646Y2147483548D02*
G75*
G02*
X2147483420Y2147483548I-99J0D01*
G01*
X2147483420Y2147483548D02*
G75*
G02*
X2147483646Y2147483548I127J0D01*
G01*
X2147483646Y2147483548D02*
G75*
G02*
X2147483420Y2147483548I-99J0D01*
G01*
X2147483420Y2147483548D02*
G75*
G02*
X2147483646Y2147483548I127J0D01*
G01*
X2147483646Y2147483548D02*
G75*
G02*
X2147483420Y2147483548I-99J0D01*
G01*
X2147483420Y2147483548D02*
G75*
G02*
X2147483646Y2147483548I127J0D01*
G01*
X2147483646Y2147483548D02*
G75*
G02*
X2147483420Y2147483548I-99J0D01*
G01*
X2147483420Y2147483548D02*
G75*
G02*
X2147483646Y2147483548I127J0D01*
G01*
X2147483646Y2147483548D02*
G75*
G02*
X2147483420Y2147483548I-99J0D01*
G01*
X2147483420Y2147483548D02*
G75*
G02*
X2147483646Y2147483548I127J0D01*
G01*
X2147483646Y2147483548D02*
G75*
G02*
X2147483420Y2147483548I-99J0D01*
G01*
X2147483420Y2147483548D02*
G75*
G02*
X2147483646Y2147483548I127J0D01*
G01*
X2147483646Y2147483548D02*
G75*
G02*
X2147483420Y2147483548I-99J0D01*
G01*
X2147483420Y2147483548D02*
G75*
G02*
X2147483646Y2147483548I127J0D01*
G01*
X2147483646Y2147483548D02*
G75*
G02*
X2147483420Y2147483548I-99J0D01*
G01*
X2147483420Y2147483548D02*
G75*
G02*
X2147483646Y2147483548I127J0D01*
G01*
X2147483646Y2147483548D02*
G75*
G02*
X2147483420Y2147483548I-99J0D01*
G01*
X2147483420Y2147483548D02*
G75*
G02*
X2147483646Y2147483548I127J0D01*
G01*
X2147483646Y2147483548D02*
G75*
G02*
X2147483420Y2147483548I-99J0D01*
G01*
X2147483420Y2147483548D02*
G75*
G02*
X2147483646Y2147483548I127J0D01*
G01*
X2147483646Y2147483548D02*
G75*
G02*
X2147483420Y2147483548I-99J0D01*
G01*
X2147483420Y2147483548D02*
G75*
G02*
X2147483646Y2147483548I127J0D01*
G01*
X2147483646Y2147483548D02*
G75*
G02*
X2147483420Y2147483548I-99J0D01*
G01*
X2147483420Y2147483548D02*
G75*
G02*
X2147483646Y2147483548I127J0D01*
G01*
X2147483646Y2147483548D02*
G75*
G02*
X2147483420Y2147483548I-99J0D01*
G01*
X2147483420Y2147483548D02*
G75*
G02*
X2147483646Y2147483548I127J0D01*
G01*
X2147483646Y2147483548D02*
G75*
G02*
X2147483420Y2147483548I-99J0D01*
G01*
X2147483420Y2147483548D02*
G75*
G02*
X2147483646Y2147483548I127J0D01*
G01*
X2147483646Y2147483548D02*
G75*
G02*
X2147483420Y2147483548I-99J0D01*
G01*
X2147483420Y2147483548D02*
G75*
G02*
X2147483646Y2147483548I127J0D01*
G01*
X2147483646Y2147483548D02*
G75*
G02*
X2147483420Y2147483548I-99J0D01*
G01*
X2147483420Y2147483548D02*
G75*
G02*
X2147483646Y2147483548I127J0D01*
G01*
X2147483646Y2147483548D02*
G75*
G02*
X2147483420Y2147483548I-99J0D01*
G01*
X2147483420Y2147483548D02*
G75*
G02*
X2147483646Y2147483548I127J0D01*
G01*
X2147483646Y2147483548D02*
G75*
G02*
X2147483420Y2147483548I-99J0D01*
G01*
X2147483420Y2147483548D02*
G75*
G02*
X2147483646Y2147483548I127J0D01*
G01*
X2147483646Y2147483548D02*
G75*
G02*
X2147483420Y2147483548I-99J0D01*
G01*
X2147483420Y2147483548D02*
G75*
G02*
X2147483646Y2147483548I127J0D01*
G01*
X2147483646Y2147483548D02*
G75*
G02*
X2147483420Y2147483548I-99J0D01*
G01*
X2147483420Y2147483548D02*
G75*
G02*
X2147483646Y2147483548I127J0D01*
G01*
X2147483646Y2147483548D02*
G75*
G02*
X2147483420Y2147483548I-99J0D01*
G01*
X2147483420Y2147483548D02*
G75*
G02*
X2147483646Y2147483548I127J0D01*
G01*
X2147483646Y2147483548D02*
G75*
G02*
X2147483420Y2147483548I-99J0D01*
G01*
X2147483420Y2147483548D02*
G75*
G02*
X2147483646Y2147483548I127J0D01*
G01*
X2147483646Y2147483548D02*
G75*
G02*
X2147483420Y2147483548I-99J0D01*
G01*
X2147483420Y2147483548D02*
G75*
G02*
X2147483646Y2147483548I127J0D01*
G01*
X2147483646Y2147483548D02*
G75*
G02*
X2147483420Y2147483548I-99J0D01*
G01*
X2147483420Y2147483548D02*
G75*
G02*
X2147483646Y2147483548I127J0D01*
G01*
X2147483646Y2147483548D02*
G75*
G02*
X2147483420Y2147483548I-99J0D01*
G01*
X2147483420Y2147483548D02*
G75*
G02*
X2147483646Y2147483548I127J0D01*
G01*
X2147483646Y2147483548D02*
G75*
G02*
X2147483420Y2147483548I-99J0D01*
G01*
X2147483420Y2147483548D02*
G75*
G02*
X2147483646Y2147483548I127J0D01*
G01*
X2147483646Y2147483548D02*
G75*
G02*
X2147483420Y2147483548I-99J0D01*
G01*
X2147483420Y2147483548D02*
G75*
G02*
X2147483646Y2147483548I127J0D01*
G01*
X2147483646Y2147483548D02*
G75*
G02*
X2147483420Y2147483548I-99J0D01*
G01*
X2147483420Y2147483548D02*
G75*
G02*
X2147483646Y2147483548I127J0D01*
G01*
X2147483646Y2147483548D02*
G75*
G02*
X2147483420Y2147483548I-99J0D01*
G01*
X2147483420Y2147483548D02*
G75*
G02*
X2147483646Y2147483548I127J0D01*
G01*
X2147483646Y2147483548D02*
G75*
G02*
X2147483420Y2147483548I-99J0D01*
G01*
X2147483420Y2147483548D02*
G75*
G02*
X2147483646Y2147483548I127J0D01*
G01*
X2147483646Y2147483548D02*
G75*
G02*
X2147483420Y2147483548I-99J0D01*
G01*
X2147483420Y2147483548D02*
G75*
G02*
X2147483646Y2147483548I127J0D01*
G01*
X2147483646Y2147483548D02*
G75*
G02*
X2147483420Y2147483548I-99J0D01*
G01*
X2147483420Y2147483548D02*
G75*
G02*
X2147483646Y2147483548I127J0D01*
G01*
X2147483646Y2147483548D02*
G75*
G02*
X2147483420Y2147483548I-99J0D01*
G01*
X2147483420Y2147483548D02*
G75*
G02*
X2147483646Y2147483548I127J0D01*
G01*
X2147483646Y2147483548D02*
G75*
G02*
X2147483420Y2147483548I-99J0D01*
G01*
X2147483420Y2147483548D02*
G75*
G02*
X2147483646Y2147483548I127J0D01*
G01*
X2147483646Y2147483548D02*
G75*
G02*
X2147483420Y2147483548I-99J0D01*
G01*
X2147483420Y2147483548D02*
G75*
G02*
X2147483646Y2147483548I127J0D01*
G01*
X2147483646Y2147483548D02*
G75*
G02*
X2147483420Y2147483548I-99J0D01*
G01*
X2147483420Y2147483548D02*
G75*
G02*
X2147483646Y2147483548I127J0D01*
G01*
X2147483646Y2147483548D02*
G75*
G02*
X2147483420Y2147483548I-99J0D01*
G01*
X2147483420Y2147483548D02*
G75*
G02*
X2147483646Y2147483548I127J0D01*
G01*
X2147483646Y2147483548D02*
G75*
G02*
X2147483420Y2147483548I-99J0D01*
G01*
X2147483420Y2147483548D02*
G75*
G02*
X2147483646Y2147483548I127J0D01*
G01*
X2147483646Y2147483548D02*
G75*
G02*
X2147483420Y2147483548I-99J0D01*
G01*
X2147483420Y2147483548D02*
G75*
G02*
X2147483646Y2147483548I127J0D01*
G01*
X2147483646Y2147483548D02*
G75*
G02*
X2147483420Y2147483548I-99J0D01*
G01*
X2147483420Y2147483548D02*
G75*
G02*
X2147483646Y2147483548I127J0D01*
G01*
X2147483646Y2147483548D02*
G75*
G02*
X2147483420Y2147483548I-99J0D01*
G01*
X2147483420Y2147483548D02*
G75*
G02*
X2147483646Y2147483548I127J0D01*
G01*
X2147483646Y2147483548D02*
G75*
G02*
X2147483420Y2147483548I-99J0D01*
G01*
X2147483420Y2147483548D02*
G75*
G02*
X2147483646Y2147483548I127J0D01*
G01*
X2147483646Y2147483548D02*
G75*
G02*
X2147483420Y2147483548I-99J0D01*
G01*
X2147483420Y2147483548D02*
G75*
G02*
X2147483646Y2147483548I127J0D01*
G01*
X2147483646Y2147483548D02*
G75*
G02*
X2147483420Y2147483548I-99J0D01*
G01*
X2147483420Y2147483548D02*
G75*
G02*
X2147483646Y2147483548I127J0D01*
G01*
X2147483646Y2147483548D02*
G75*
G02*
X2147483420Y2147483548I-99J0D01*
G01*
X2147483420Y2147483548D02*
G75*
G02*
X2147483646Y2147483548I127J0D01*
G01*
X2147483646Y2147483548D02*
G75*
G02*
X2147483420Y2147483548I-99J0D01*
G01*
X2147483420Y2147483548D02*
G75*
G02*
X2147483646Y2147483548I127J0D01*
G01*
X2147483646Y2147483548D02*
G75*
G02*
X2147483420Y2147483548I-99J0D01*
G01*
X2147483420Y2147483548D02*
G75*
G02*
X2147483646Y2147483548I127J0D01*
G01*
X2147483646Y2147483548D02*
G75*
G02*
X2147483420Y2147483548I-99J0D01*
G01*
X2147483420Y2147483548D02*
G75*
G02*
X2147483646Y2147483548I127J0D01*
G01*
X2147483646Y2147483548D02*
G75*
G02*
X2147483420Y2147483548I-99J0D01*
G01*
X2147483420Y2147483548D02*
G75*
G02*
X2147483646Y2147483548I127J0D01*
G01*
X2147483646Y2147483548D02*
G75*
G02*
X2147483420Y2147483548I-99J0D01*
G01*
X2147483420Y2147483548D02*
G75*
G02*
X2147483646Y2147483548I127J0D01*
G01*
X2147483646Y2147483548D02*
G75*
G02*
X2147483420Y2147483548I-99J0D01*
G01*
X2147483420Y2147483548D02*
G75*
G02*
X2147483646Y2147483548I127J0D01*
G01*
X2147483646Y2147483548D02*
G75*
G02*
X2147483420Y2147483548I-99J0D01*
G01*
X2147483420Y2147483548D02*
G75*
G02*
X2147483646Y2147483548I127J0D01*
G01*
X2147483646Y2147483548D02*
G75*
G02*
X2147483420Y2147483548I-99J0D01*
G01*
X2147483420Y2147483548D02*
G75*
G02*
X2147483646Y2147483548I127J0D01*
G01*
X2147483646Y2147483548D02*
G75*
G02*
X2147483420Y2147483548I-99J0D01*
G01*
X2147483420Y2147483548D02*
G75*
G02*
X2147483646Y2147483548I127J0D01*
G01*
X2147483646Y2147483548D02*
G75*
G02*
X2147483420Y2147483548I-99J0D01*
G01*
X2147483420Y2147483548D02*
G75*
G02*
X2147483646Y2147483548I127J0D01*
G01*
X2147483646Y2147483548D02*
G75*
G02*
X2147483420Y2147483548I-99J0D01*
G01*
X2147483420Y2147483548D02*
G75*
G02*
X2147483646Y2147483548I127J0D01*
G01*
X2147483646Y2147483548D02*
G75*
G02*
X2147483420Y2147483548I-99J0D01*
G01*
X2147483420Y2147483548D02*
G75*
G02*
X2147483646Y2147483548I127J0D01*
G01*
X2147483646Y2147483548D02*
G75*
G02*
X2147483420Y2147483548I-99J0D01*
G01*
X2147483420Y2147483548D02*
G75*
G02*
X2147483646Y2147483548I127J0D01*
G01*
X2147483646Y2147483548D02*
G75*
G02*
X2147483420Y2147483548I-99J0D01*
G01*
X2147483420Y2147483548D02*
G75*
G02*
X2147483646Y2147483548I127J0D01*
G01*
X2147483646Y2147483548D02*
G75*
G02*
X2147483420Y2147483548I-99J0D01*
G01*
X2147483420Y2147483548D02*
G75*
G02*
X2147483646Y2147483548I127J0D01*
G01*
X2147483646Y2147483548D02*
G75*
G02*
X2147483420Y2147483548I-99J0D01*
G01*
X2147483420Y2147483548D02*
G75*
G02*
X2147483646Y2147483548I127J0D01*
G01*
X2147483646Y2147483548D02*
G75*
G02*
X2147483420Y2147483548I-99J0D01*
G01*
X2147483420Y2147483548D02*
G75*
G02*
X2147483646Y2147483548I127J0D01*
G01*
X2147483646Y2147483548D02*
G75*
G02*
X2147483420Y2147483548I-99J0D01*
G01*
X2147483420Y2147483548D02*
G75*
G02*
X2147483646Y2147483548I127J0D01*
G01*
X2147483646Y2147483548D02*
G75*
G02*
X2147483420Y2147483548I-99J0D01*
G01*
X2147483420Y2147483548D02*
G75*
G02*
X2147483646Y2147483548I127J0D01*
G01*
X2147483646Y2147483548D02*
G75*
G02*
X2147483420Y2147483548I-99J0D01*
G01*
X2147483420Y2147483548D02*
G75*
G02*
X2147483646Y2147483548I127J0D01*
G01*
X2147483646Y2147483548D02*
G75*
G02*
X2147483420Y2147483548I-99J0D01*
G01*
X2147483420Y2147483548D02*
G75*
G02*
X2147483646Y2147483548I127J0D01*
G01*
X2147483646Y2147483548D02*
G75*
G02*
X2147483420Y2147483548I-99J0D01*
G01*
X2147483420Y2147483548D02*
G75*
G02*
X2147483646Y2147483548I127J0D01*
G01*
X2147483646Y2147483548D02*
G75*
G02*
X2147483420Y2147483548I-99J0D01*
G01*
X2147483420Y2147483548D02*
G75*
G02*
X2147483646Y2147483548I127J0D01*
G01*
X2147483646Y2147483548D02*
G75*
G02*
X2147483420Y2147483548I-99J0D01*
G01*
X2147483420Y2147483548D02*
G75*
G02*
X2147483646Y2147483548I127J0D01*
G01*
X2147483646Y2147483548D02*
G75*
G02*
X2147483420Y2147483548I-99J0D01*
G01*
X2147483420Y2147483548D02*
G75*
G02*
X2147483646Y2147483548I127J0D01*
G01*
X2147483646Y2147483548D02*
G75*
G02*
X2147483420Y2147483548I-99J0D01*
G01*
X2147483420Y2147483548D02*
G75*
G02*
X2147483646Y2147483548I127J0D01*
G01*
X2147483646Y2147483548D02*
G75*
G02*
X2147483420Y2147483548I-99J0D01*
G01*
X2147483420Y2147483548D02*
G75*
G02*
X2147483646Y2147483548I127J0D01*
G01*
X2147483646Y2147483548D02*
G75*
G02*
X2147483420Y2147483548I-99J0D01*
G01*
X2147483420Y2147483548D02*
G75*
G02*
X2147483646Y2147483548I127J0D01*
G01*
X2147483646Y2147483548D02*
G75*
G02*
X2147483420Y2147483548I-99J0D01*
G01*
X2147483420Y2147483548D02*
G75*
G02*
X2147483646Y2147483548I127J0D01*
G01*
X2147483646Y2147483548D02*
G75*
G02*
X2147483420Y2147483548I-99J0D01*
G01*
X2147483420Y2147483548D02*
G75*
G02*
X2147483646Y2147483548I127J0D01*
G01*
X2147483646Y2147483548D02*
G75*
G02*
X2147483420Y2147483548I-99J0D01*
G01*
X2147483420Y2147483548D02*
G75*
G02*
X2147483646Y2147483548I127J0D01*
G01*
X2147483646Y2147483548D02*
G75*
G02*
X2147483420Y2147483548I-99J0D01*
G01*
X2147483420Y2147483548D02*
G75*
G02*
X2147483646Y2147483548I127J0D01*
G01*
X2147483646Y2147483548D02*
G75*
G02*
X2147483420Y2147483548I-99J0D01*
G01*
X2147483420Y2147483548D02*
G75*
G02*
X2147483646Y2147483548I127J0D01*
G01*
X2147483646Y2147483548D02*
G75*
G02*
X2147483420Y2147483548I-99J0D01*
G01*
X2147483420Y2147483548D02*
G75*
G02*
X2147483646Y2147483548I127J0D01*
G01*
X2147483646Y2147483548D02*
G75*
G02*
X2147483420Y2147483548I-99J0D01*
G01*
X2147483420Y2147483548D02*
G75*
G02*
X2147483646Y2147483548I127J0D01*
G01*
X2147483646Y2147483548D02*
G75*
G02*
X2147483420Y2147483548I-99J0D01*
G01*
X2147483420Y2147483548D02*
G75*
G02*
X2147483646Y2147483548I127J0D01*
G01*
X2147483646Y2147483548D02*
G75*
G02*
X2147483420Y2147483548I-99J0D01*
G01*
X2147483420Y2147483548D02*
G75*
G02*
X2147483646Y2147483548I127J0D01*
G01*
X2147483646Y2147483548D02*
G75*
G02*
X2147483420Y2147483548I-99J0D01*
G01*
X2147483420Y2147483548D02*
G75*
G02*
X2147483646Y2147483548I127J0D01*
G01*
X2147483646Y2147483548D02*
G75*
G02*
X2147483420Y2147483548I-99J0D01*
G01*
X2147483420Y2147483548D02*
G75*
G02*
X2147483646Y2147483548I127J0D01*
G01*
X2147483646Y2147483548D02*
G75*
G02*
X2147483420Y2147483548I-99J0D01*
G01*
X2147483420Y2147483548D02*
G75*
G02*
X2147483646Y2147483548I127J0D01*
G01*
X2147483646Y2147483548D02*
G75*
G02*
X2147483420Y2147483548I-99J0D01*
G01*
X2147483420Y2147483548D02*
G75*
G02*
X2147483646Y2147483548I127J0D01*
G01*
X2147483646Y2147483548D02*
G75*
G02*
X2147483420Y2147483548I-99J0D01*
G01*
X2147483420Y2147483548D02*
G75*
G02*
X2147483646Y2147483548I127J0D01*
G01*
X2147483646Y2147483548D02*
G75*
G02*
X2147483420Y2147483548I-99J0D01*
G01*
X2147483420Y2147483548D02*
G75*
G02*
X2147483646Y2147483548I127J0D01*
G01*
X2147483646Y2147483548D02*
G75*
G02*
X2147483420Y2147483548I-99J0D01*
G01*
X2147483420Y2147483548D02*
G75*
G02*
X2147483646Y2147483548I127J0D01*
G01*
X2147483646Y2147483548D02*
G75*
G02*
X2147483420Y2147483548I-99J0D01*
G01*
X2147483420Y2147483548D02*
G75*
G02*
X2147483646Y2147483548I127J0D01*
G01*
X2147483646Y2147483548D02*
G75*
G02*
X2147483420Y2147483548I-99J0D01*
G01*
X2147483420Y2147483548D02*
G75*
G02*
X2147483646Y2147483548I127J0D01*
G01*
X2147483646Y2147483548D02*
G75*
G02*
X2147483420Y2147483548I-99J0D01*
G01*
X2147483420Y2147483548D02*
G75*
G02*
X2147483646Y2147483548I127J0D01*
G01*
X2147483646Y2147483548D02*
G75*
G02*
X2147483420Y2147483548I-99J0D01*
G01*
X2147483420Y2147483548D02*
G75*
G02*
X2147483646Y2147483548I127J0D01*
G01*
X2147483646Y2147483548D02*
G75*
G02*
X2147483420Y2147483548I-99J0D01*
G01*
X2147483420Y2147483548D02*
G75*
G02*
X2147483646Y2147483548I127J0D01*
G01*
X2147483646Y2147483548D02*
G75*
G02*
X2147483420Y2147483548I-99J0D01*
G01*
X2147483420Y2147483548D02*
G75*
G02*
X2147483646Y2147483548I127J0D01*
G01*
X2147483646Y2147483548D02*
G75*
G02*
X2147483420Y2147483548I-99J0D01*
G01*
X2147483420Y2147483548D02*
G75*
G02*
X2147483646Y2147483548I127J0D01*
G01*
X2147483646Y2147483548D02*
G75*
G02*
X2147483420Y2147483548I-99J0D01*
G01*
X2147483420Y2147483548D02*
G75*
G02*
X2147483646Y2147483548I127J0D01*
G01*
X2147483646Y2147483548D02*
G75*
G02*
X2147483420Y2147483548I-99J0D01*
G01*
X2147483420Y2147483548D02*
G75*
G02*
X2147483646Y2147483548I127J0D01*
G01*
X2147483646Y2147483548D02*
G75*
G02*
X2147483420Y2147483548I-99J0D01*
G01*
X2147483420Y2147483548D02*
G75*
G02*
X2147483646Y2147483548I127J0D01*
G01*
X2147483646Y2147483548D02*
G75*
G02*
X2147483420Y2147483548I-99J0D01*
G01*
X2147483420Y2147483548D02*
G75*
G02*
X2147483646Y2147483548I127J0D01*
G01*
X2147483646Y2147483548D02*
G75*
G02*
X2147483420Y2147483548I-99J0D01*
G01*
X2147483420Y2147483548D02*
G75*
G02*
X2147483646Y2147483548I127J0D01*
G01*
X2147483646Y2147483548D02*
G75*
G02*
X2147483420Y2147483548I-99J0D01*
G01*
X2147483420Y2147483548D02*
G75*
G02*
X2147483646Y2147483548I127J0D01*
G01*
X2147483646Y2147483548D02*
G75*
G02*
X2147483420Y2147483548I-99J0D01*
G01*
X2147483420Y2147483548D02*
G75*
G02*
X2147483646Y2147483548I127J0D01*
G01*
X2147483646Y2147483548D02*
G75*
G02*
X2147483420Y2147483548I-99J0D01*
G01*
X2147483420Y2147483548D02*
G75*
G02*
X2147483646Y2147483548I127J0D01*
G01*
X2147483646Y2147483548D02*
G75*
G02*
X2147483420Y2147483548I-99J0D01*
G01*
X2147483420Y2147483548D02*
G75*
G02*
X2147483646Y2147483548I127J0D01*
G01*
X2147483646Y2147483548D02*
G75*
G02*
X2147483420Y2147483548I-99J0D01*
G01*
X2147483420Y2147483548D02*
G75*
G02*
X2147483646Y2147483548I127J0D01*
G01*
X2147483646Y2147483548D02*
G75*
G02*
X2147483420Y2147483548I-99J0D01*
G01*
X2147483420Y2147483548D02*
G75*
G02*
X2147483646Y2147483548I127J0D01*
G01*
X2147483646Y2147483548D02*
G75*
G02*
X2147483420Y2147483548I-99J0D01*
G01*
X2147483420Y2147483548D02*
G75*
G02*
X2147483646Y2147483548I127J0D01*
G01*
X2147483646Y2147483548D02*
G75*
G02*
X2147483420Y2147483548I-99J0D01*
G01*
X2147483420Y2147483548D02*
G75*
G02*
X2147483646Y2147483548I127J0D01*
G01*
X2147483646Y2147483548D02*
G75*
G02*
X2147483420Y2147483548I-99J0D01*
G01*
X2147483420Y2147483548D02*
G75*
G02*
X2147483646Y2147483548I127J0D01*
G01*
X2147483646Y2147483548D02*
G75*
G02*
X2147483420Y2147483548I-99J0D01*
G01*
X2147483420Y2147483548D02*
G75*
G02*
X2147483646Y2147483548I127J0D01*
G01*
X2147483646Y2147483548D02*
G75*
G02*
X2147483420Y2147483548I-99J0D01*
G01*
X2147483420Y2147483548D02*
G75*
G02*
X2147483646Y2147483548I127J0D01*
G01*
X2147483646Y2147483548D02*
G75*
G02*
X2147483420Y2147483548I-99J0D01*
G01*
X2147483420Y2147483548D02*
G75*
G02*
X2147483646Y2147483548I127J0D01*
G01*
X2147483646Y2147483548D02*
G75*
G02*
X2147483420Y2147483548I-99J0D01*
G01*
X2147483420Y2147483548D02*
G75*
G02*
X2147483646Y2147483548I127J0D01*
G01*
X2147483646Y2147483548D02*
G75*
G02*
X2147483420Y2147483548I-99J0D01*
G01*
X2147483420Y2147483548D02*
G75*
G02*
X2147483646Y2147483548I127J0D01*
G01*
X2147483646Y2147483548D02*
G75*
G02*
X2147483420Y2147483548I-99J0D01*
G01*
X2147483420Y2147483548D02*
G75*
G02*
X2147483646Y2147483548I127J0D01*
G01*
X2147483646Y2147483548D02*
G75*
G02*
X2147483420Y2147483548I-99J0D01*
G01*
X2147483420Y2147483548D02*
G75*
G02*
X2147483646Y2147483548I127J0D01*
G01*
X2147483646Y2147483548D02*
G75*
G02*
X2147483420Y2147483548I-99J0D01*
G01*
X2147483420Y2147483548D02*
G75*
G02*
X2147483646Y2147483548I127J0D01*
G01*
X2147483646Y2147483548D02*
G75*
G02*
X2147483420Y2147483548I-99J0D01*
G01*
X2147483420Y2147483548D02*
G75*
G02*
X2147483646Y2147483548I127J0D01*
G01*
X2147483646Y2147483548D02*
G75*
G02*
X2147483420Y2147483548I-99J0D01*
G01*
X2147483420Y2147483548D02*
G75*
G02*
X2147483646Y2147483548I127J0D01*
G01*
X2147483646Y2147483548D02*
G75*
G02*
X2147483420Y2147483548I-99J0D01*
G01*
X2147483420Y2147483548D02*
G75*
G02*
X2147483646Y2147483548I127J0D01*
G01*
X2147483646Y2147483548D02*
G75*
G02*
X2147483420Y2147483548I-99J0D01*
G01*
X2147483420Y2147483548D02*
G75*
G02*
X2147483646Y2147483548I127J0D01*
G01*
X2147483646Y2147483548D02*
G75*
G02*
X2147483420Y2147483548I-99J0D01*
G01*
X2147483420Y2147483548D02*
G75*
G02*
X2147483646Y2147483548I127J0D01*
G01*
X2147483646Y2147483548D02*
G75*
G02*
X2147483420Y2147483548I-99J0D01*
G01*
X2147483420Y2147483548D02*
G75*
G02*
X2147483646Y2147483548I127J0D01*
G01*
X2147483646Y2147483548D02*
G75*
G02*
X2147483420Y2147483548I-99J0D01*
G01*
X2147483420Y2147483548D02*
G75*
G02*
X2147483646Y2147483548I127J0D01*
G01*
X2147483646Y2147483548D02*
G75*
G02*
X2147483420Y2147483548I-99J0D01*
G01*
X2147483420Y2147483548D02*
G75*
G02*
X2147483646Y2147483548I127J0D01*
G01*
X2147483646Y2147483548D02*
G75*
G02*
X2147483420Y2147483548I-99J0D01*
G01*
X2147483420Y2147483548D02*
G75*
G02*
X2147483646Y2147483548I127J0D01*
G01*
X2147483646Y2147483548D02*
G75*
G02*
X2147483420Y2147483548I-99J0D01*
G01*
X2147483420Y2147483548D02*
G75*
G02*
X2147483646Y2147483548I127J0D01*
G01*
X2147483646Y2147483548D02*
G75*
G02*
X2147483420Y2147483548I-99J0D01*
G01*
X2147483420Y2147483548D02*
G75*
G02*
X2147483646Y2147483548I127J0D01*
G01*
X2147483646Y2147483548D02*
G75*
G02*
X2147483420Y2147483548I-99J0D01*
G01*
X2147483420Y2147483548D02*
G75*
G02*
X2147483646Y2147483548I127J0D01*
G01*
X2147483646Y2147483548D02*
G75*
G02*
X2147483420Y2147483548I-99J0D01*
G01*
X2147483420Y2147483548D02*
G75*
G02*
X2147483646Y2147483548I127J0D01*
G01*
X2147483646Y2147483548D02*
G75*
G02*
X2147483420Y2147483548I-99J0D01*
G01*
X2147483420Y2147483548D02*
G75*
G02*
X2147483646Y2147483548I127J0D01*
G01*
X2147483646Y2147483548D02*
G75*
G02*
X2147483420Y2147483548I-99J0D01*
G01*
X2147483420Y2147483548D02*
G75*
G02*
X2147483646Y2147483548I127J0D01*
G01*
X2147483646Y2147483548D02*
G75*
G02*
X2147483420Y2147483548I-99J0D01*
G01*
X2147483420Y2147483548D02*
G75*
G02*
X2147483646Y2147483548I127J0D01*
G01*
X2147483646Y2147483548D02*
G75*
G02*
X2147483420Y2147483548I-99J0D01*
G01*
X2147483420Y2147483548D02*
G75*
G02*
X2147483646Y2147483548I127J0D01*
G01*
X2147483646Y2147483548D02*
G75*
G02*
X2147483420Y2147483548I-99J0D01*
G01*
X2147483420Y2147483548D02*
G75*
G02*
X2147483646Y2147483548I127J0D01*
G01*
X2147483646Y2147483548D02*
G75*
G02*
X2147483420Y2147483548I-99J0D01*
G01*
X2147483420Y2147483548D02*
G75*
G02*
X2147483646Y2147483548I127J0D01*
G01*
X2147483646Y2147483548D02*
G75*
G02*
X2147483420Y2147483548I-99J0D01*
G01*
X2147483420Y2147483548D02*
G75*
G02*
X2147483646Y2147483548I127J0D01*
G01*
X2147483646Y2147483548D02*
G75*
G02*
X2147483420Y2147483548I-99J0D01*
G01*
X2147483420Y2147483548D02*
G75*
G02*
X2147483646Y2147483548I127J0D01*
G01*
X2147483646Y2147483548D02*
G75*
G02*
X2147483420Y2147483548I-99J0D01*
G01*
X2147483420Y2147483548D02*
G75*
G02*
X2147483646Y2147483548I127J0D01*
G01*
X2147483646Y2147483548D02*
G75*
G02*
X2147483420Y2147483548I-99J0D01*
G01*
X2147483420Y2147483548D02*
G75*
G02*
X2147483646Y2147483548I127J0D01*
G01*
X2147483646Y2147483548D02*
G75*
G02*
X2147483420Y2147483548I-99J0D01*
G01*
X2147483420Y2147483548D02*
G75*
G02*
X2147483646Y2147483548I127J0D01*
G01*
X2147483646Y2147483548D02*
G75*
G02*
X2147483420Y2147483548I-99J0D01*
G01*
X2147483420Y2147483548D02*
G75*
G02*
X2147483646Y2147483548I127J0D01*
G01*
X2147483646Y2147483548D02*
G75*
G02*
X2147483420Y2147483548I-99J0D01*
G01*
X2147483420Y2147483548D02*
G75*
G02*
X2147483646Y2147483548I127J0D01*
G01*
X2147483646Y2147483548D02*
G75*
G02*
X2147483420Y2147483548I-99J0D01*
G01*
X2147483420Y2147483548D02*
G75*
G02*
X2147483646Y2147483548I127J0D01*
G01*
X2147483646Y2147483548D02*
G75*
G02*
X2147483420Y2147483548I-99J0D01*
G01*
X2147483420Y2147483548D02*
G75*
G02*
X2147483646Y2147483548I127J0D01*
G01*
X2147483646Y2147483548D02*
G75*
G02*
X2147483420Y2147483548I-99J0D01*
G01*
X2147483420Y2147483548D02*
G75*
G02*
X2147483646Y2147483548I127J0D01*
G01*
X2147483646Y2147483548D02*
G75*
G02*
X2147483420Y2147483548I-99J0D01*
G01*
X2147483420Y2147483548D02*
G75*
G02*
X2147483646Y2147483548I127J0D01*
G01*
X2147483646Y2147483548D02*
G75*
G02*
X2147483420Y2147483548I-99J0D01*
G01*
X2147483420Y2147483548D02*
G75*
G02*
X2147483646Y2147483548I127J0D01*
G01*
X2147483646Y2147483548D02*
G75*
G02*
X2147483420Y2147483548I-99J0D01*
G01*
X2147483420Y2147483548D02*
G75*
G02*
X2147483646Y2147483548I127J0D01*
G01*
X2147483646Y2147483548D02*
G75*
G02*
X2147483420Y2147483548I-99J0D01*
G01*
X2147483420Y2147483548D02*
G75*
G02*
X2147483646Y2147483548I127J0D01*
G01*
X2147483646Y2147483548D02*
G75*
G02*
X2147483420Y2147483548I-99J0D01*
G01*
X2147483420Y2147483548D02*
G75*
G02*
X2147483646Y2147483548I127J0D01*
G01*
X2147483646Y2147483548D02*
G75*
G02*
X2147483420Y2147483548I-99J0D01*
G01*
X2147483420Y2147483548D02*
G75*
G02*
X2147483646Y2147483548I127J0D01*
G01*
X2147483646Y2147483548D02*
G75*
G02*
X2147483420Y2147483548I-99J0D01*
G01*
X2147483420Y2147483548D02*
G75*
G02*
X2147483646Y2147483548I127J0D01*
G01*
X2147483646Y2147483548D02*
G75*
G02*
X2147483420Y2147483548I-99J0D01*
G01*
X2147483420Y2147483548D02*
G75*
G02*
X2147483646Y2147483548I127J0D01*
G01*
X2147483646Y2147483548D02*
G75*
G02*
X2147483420Y2147483548I-99J0D01*
G01*
X2147483420Y2147483548D02*
G75*
G02*
X2147483646Y2147483548I127J0D01*
G01*
X2147483646Y2147483548D02*
G75*
G02*
X2147483420Y2147483548I-99J0D01*
G01*
X2147483420Y2147483548D02*
G75*
G02*
X2147483646Y2147483548I127J0D01*
G01*
X2147483646Y2147483548D02*
G75*
G02*
X2147483420Y2147483548I-99J0D01*
G01*
X2147483420Y2147483548D02*
G75*
G02*
X2147483646Y2147483548I127J0D01*
G01*
X2147483646Y2147483548D02*
G75*
G02*
X2147483420Y2147483548I-99J0D01*
G01*
X2147483420Y2147483548D02*
G75*
G02*
X2147483646Y2147483548I127J0D01*
G01*
X2147483646Y2147483548D02*
G75*
G02*
X2147483420Y2147483548I-99J0D01*
G01*
X2147483420Y2147483548D02*
G75*
G02*
X2147483646Y2147483548I127J0D01*
G01*
X2147483646Y2147483548D02*
G75*
G02*
X2147483420Y2147483548I-99J0D01*
G01*
X2147483420Y2147483548D02*
G75*
G02*
X2147483646Y2147483548I127J0D01*
G01*
X2147483646Y2147483548D02*
G75*
G02*
X2147483420Y2147483548I-99J0D01*
G01*
X2147483420Y2147483548D02*
G75*
G02*
X2147483646Y2147483548I127J0D01*
G01*
X2147483646Y2147483548D02*
G75*
G02*
X2147483420Y2147483548I-99J0D01*
G01*
X2147483420Y2147483548D02*
G75*
G02*
X2147483646Y2147483548I127J0D01*
G01*
X2147483646Y2147483548D02*
G75*
G02*
X2147483420Y2147483548I-99J0D01*
G01*
X2147483420Y2147483548D02*
G75*
G02*
X2147483646Y2147483548I127J0D01*
G01*
X2147483646Y2147483548D02*
G75*
G02*
X2147483420Y2147483548I-99J0D01*
G01*
X2147483420Y2147483548D02*
G75*
G02*
X2147483646Y2147483548I127J0D01*
G01*
X2147483646Y2147483548D02*
G75*
G02*
X2147483420Y2147483548I-99J0D01*
G01*
X2147483420Y2147483548D02*
G75*
G02*
X2147483646Y2147483548I127J0D01*
G01*
X2147483646Y2147483548D02*
G75*
G02*
X2147483420Y2147483548I-99J0D01*
G01*
X2147483420Y2147483548D02*
G75*
G02*
X2147483646Y2147483548I127J0D01*
G01*
X2147483646Y2147483548D02*
G75*
G02*
X2147483420Y2147483548I-99J0D01*
G01*
X2147483420Y2147483548D02*
G75*
G02*
X2147483646Y2147483548I127J0D01*
G01*
X2147483646Y2147483548D02*
G75*
G02*
X2147483420Y2147483548I-99J0D01*
G01*
X2147483420Y2147483548D02*
G75*
G02*
X2147483646Y2147483548I127J0D01*
G01*
X2147483646Y2147483548D02*
G75*
G02*
X2147483420Y2147483548I-99J0D01*
G01*
X2147483420Y2147483548D02*
G75*
G02*
X2147483646Y2147483548I127J0D01*
G01*
X2147483646Y2147483548D02*
G75*
G02*
X2147483420Y2147483548I-99J0D01*
G01*
X2147483420Y2147483548D02*
G75*
G02*
X2147483646Y2147483548I127J0D01*
G01*
X2147483646Y2147483548D02*
G75*
G02*
X2147483420Y2147483548I-99J0D01*
G01*
X2147483420Y2147483548D02*
G75*
G02*
X2147483646Y2147483548I127J0D01*
G01*
X2147483646Y2147483548D02*
G75*
G02*
X2147483420Y2147483548I-99J0D01*
G01*
X2147483420Y2147483548D02*
G75*
G02*
X2147483646Y2147483548I127J0D01*
G01*
X2147483646Y2147483548D02*
G75*
G02*
X2147483420Y2147483548I-99J0D01*
G01*
X2147483420Y2147483548D02*
G75*
G02*
X2147483646Y2147483548I127J0D01*
G01*
X2147483646Y2147483548D02*
G75*
G02*
X2147483420Y2147483548I-99J0D01*
G01*
X2147483420Y2147483548D02*
G75*
G02*
X2147483646Y2147483548I127J0D01*
G01*
X2147483646Y2147483548D02*
G75*
G02*
X2147483420Y2147483548I-99J0D01*
G01*
X2147483420Y2147483548D02*
G75*
G02*
X2147483646Y2147483548I127J0D01*
G01*
X2147483646Y2147483548D02*
G75*
G02*
X2147483420Y2147483548I-99J0D01*
G01*
X2147483420Y2147483548D02*
G75*
G02*
X2147483646Y2147483548I127J0D01*
G01*
X2147483646Y2147483548D02*
G75*
G02*
X2147483420Y2147483548I-99J0D01*
G01*
X2147483420Y2147483548D02*
G75*
G02*
X2147483646Y2147483548I127J0D01*
G01*
X2147483646Y2147483548D02*
G75*
G02*
X2147483420Y2147483548I-99J0D01*
G01*
X2147483420Y2147483548D02*
G75*
G02*
X2147483646Y2147483548I127J0D01*
G01*
X2147483646Y2147483548D02*
G75*
G02*
X2147483420Y2147483548I-99J0D01*
G01*
X2147483420Y2147483548D02*
G75*
G02*
X2147483646Y2147483548I127J0D01*
G01*
X2147483646Y2147483548D02*
G75*
G02*
X2147483420Y2147483548I-99J0D01*
G01*
X2147483420Y2147483548D02*
G75*
G02*
X2147483646Y2147483548I127J0D01*
G01*
X2147483646Y2147483548D02*
G75*
G02*
X2147483420Y2147483548I-99J0D01*
G01*
X2147483420Y2147483548D02*
G75*
G02*
X2147483646Y2147483548I127J0D01*
G01*
X2147483646Y2147483548D02*
G75*
G02*
X2147483420Y2147483548I-99J0D01*
G01*
X2147483420Y2147483548D02*
G75*
G02*
X2147483646Y2147483548I127J0D01*
G01*
X2147483646Y2147483548D02*
G75*
G02*
X2147483420Y2147483548I-99J0D01*
G01*
X2147483420Y2147483548D02*
G75*
G02*
X2147483646Y2147483548I127J0D01*
G01*
X2147483646Y2147483548D02*
G75*
G02*
X2147483420Y2147483548I-99J0D01*
G01*
X2147483420Y2147483548D02*
G75*
G02*
X2147483646Y2147483548I127J0D01*
G01*
X2147483646Y2147483548D02*
G75*
G02*
X2147483420Y2147483548I-99J0D01*
G01*
X2147483420Y2147483548D02*
G75*
G02*
X2147483646Y2147483548I127J0D01*
G01*
X2147483646Y2147483548D02*
G75*
G02*
X2147483420Y2147483548I-99J0D01*
G01*
X2147483420Y2147483548D02*
G75*
G02*
X2147483646Y2147483548I127J0D01*
G01*
X2147483646Y2147483548D02*
G75*
G02*
X2147483420Y2147483548I-99J0D01*
G01*
X2147483420Y2147483548D02*
G75*
G02*
X2147483646Y2147483548I127J0D01*
G01*
X2147483646Y2147483548D02*
G75*
G02*
X2147483420Y2147483548I-99J0D01*
G01*
X2147483420Y2147483548D02*
G75*
G02*
X2147483646Y2147483548I127J0D01*
G01*
X2147483646Y2147483548D02*
G75*
G02*
X2147483420Y2147483548I-99J0D01*
G01*
X2147483420Y2147483548D02*
G75*
G02*
X2147483646Y2147483548I127J0D01*
G01*
X2147483646Y2147483548D02*
G75*
G02*
X2147483420Y2147483548I-99J0D01*
G01*
X2147483420Y2147483548D02*
G75*
G02*
X2147483646Y2147483548I127J0D01*
G01*
X2147483646Y2147483548D02*
G75*
G02*
X2147483420Y2147483548I-99J0D01*
G01*
X2147483420Y2147483548D02*
G75*
G02*
X2147483646Y2147483548I127J0D01*
G01*
X2147483646Y2147483548D02*
G75*
G02*
X2147483420Y2147483548I-99J0D01*
G01*
X2147483420Y2147483548D02*
G75*
G02*
X2147483646Y2147483548I127J0D01*
G01*
X2147483646Y2147483548D02*
G75*
G02*
X2147483420Y2147483548I-99J0D01*
G01*
X2147483420Y2147483548D02*
G75*
G02*
X2147483646Y2147483548I127J0D01*
G01*
X2147483646Y2147483548D02*
G75*
G02*
X2147483420Y2147483548I-99J0D01*
G01*
X2147483420Y2147483548D02*
G75*
G02*
X2147483646Y2147483548I127J0D01*
G01*
X2147483646Y2147483548D02*
G75*
G02*
X2147483420Y2147483548I-99J0D01*
G01*
X2147483420Y2147483548D02*
G75*
G02*
X2147483646Y2147483548I127J0D01*
G01*
X2147483646Y2147483548D02*
G75*
G02*
X2147483420Y2147483548I-99J0D01*
G01*
X2147483420Y2147483548D02*
G75*
G02*
X2147483646Y2147483548I127J0D01*
G01*
X2147483646Y2147483548D02*
G75*
G02*
X2147483420Y2147483548I-99J0D01*
G01*
X2147483420Y2147483548D02*
G75*
G02*
X2147483646Y2147483548I127J0D01*
G01*
X2147483646Y2147483548D02*
G75*
G02*
X2147483420Y2147483548I-99J0D01*
G01*
X2147483420Y2147483548D02*
G75*
G02*
X2147483646Y2147483548I127J0D01*
G01*
X2147483646Y2147483548D02*
G75*
G02*
X2147483420Y2147483548I-99J0D01*
G01*
X2147483420Y2147483548D02*
G75*
G02*
X2147483646Y2147483548I127J0D01*
G01*
X2147483646Y2147483548D02*
G75*
G02*
X2147483420Y2147483548I-99J0D01*
G01*
X2147483420Y2147483548D02*
G75*
G02*
X2147483646Y2147483548I127J0D01*
G01*
X2147483646Y2147483548D02*
G75*
G02*
X2147483420Y2147483548I-99J0D01*
G01*
X2147483420Y2147483548D02*
G75*
G02*
X2147483646Y2147483548I127J0D01*
G01*
X2147483646Y2147483548D02*
G75*
G02*
X2147483420Y2147483548I-99J0D01*
G01*
X2147483420Y2147483548D02*
G75*
G02*
X2147483646Y2147483548I127J0D01*
G01*
X2147483646Y2147483548D02*
G75*
G02*
X2147483420Y2147483548I-99J0D01*
G01*
X2147483420Y2147483548D02*
G75*
G02*
X2147483646Y2147483548I127J0D01*
G01*
X2147483646Y2147483548D02*
G75*
G02*
X2147483420Y2147483548I-99J0D01*
G01*
X2147483420Y2147483548D02*
G75*
G02*
X2147483646Y2147483548I127J0D01*
G01*
X2147483646Y2147483548D02*
G75*
G02*
X2147483420Y2147483548I-99J0D01*
G01*
X2147483420Y2147483548D02*
G75*
G02*
X2147483646Y2147483548I127J0D01*
G01*
X2147483646Y2147483548D02*
G75*
G02*
X2147483420Y2147483548I-99J0D01*
G01*
X2147483420Y2147483548D02*
G75*
G02*
X2147483646Y2147483548I127J0D01*
G01*
X2147483646Y2147483548D02*
G75*
G02*
X2147483420Y2147483548I-99J0D01*
G01*
X2147483420Y2147483548D02*
G75*
G02*
X2147483646Y2147483548I127J0D01*
G01*
X2147483646Y2147483548D02*
G75*
G02*
X2147483420Y2147483548I-99J0D01*
G01*
X2147483420Y2147483548D02*
G75*
G02*
X2147483646Y2147483548I127J0D01*
G01*
X2147483646Y2147483548D02*
G75*
G02*
X2147483420Y2147483548I-99J0D01*
G01*
X2147483420Y2147483548D02*
G75*
G02*
X2147483646Y2147483548I127J0D01*
G01*
X2147483646Y2147483548D02*
G75*
G02*
X2147483420Y2147483548I-99J0D01*
G01*
X2147483420Y2147483548D02*
G75*
G02*
X2147483646Y2147483548I127J0D01*
G01*
X2147483646Y2147483548D02*
G75*
G02*
X2147483420Y2147483548I-99J0D01*
G01*
X2147483420Y2147483548D02*
G75*
G02*
X2147483646Y2147483548I127J0D01*
G01*
X2147483646Y2147483548D02*
G75*
G02*
X2147483420Y2147483548I-99J0D01*
G01*
X2147483420Y2147483548D02*
G75*
G02*
X2147483646Y2147483548I127J0D01*
G01*
X2147483646Y2147483548D02*
G75*
G02*
X2147483420Y2147483548I-99J0D01*
G01*
X2147483420Y2147483548D02*
G75*
G02*
X2147483646Y2147483548I127J0D01*
G01*
X2147483646Y2147483548D02*
G75*
G02*
X2147483420Y2147483548I-99J0D01*
G01*
X2147483420Y2147483548D02*
G75*
G02*
X2147483646Y2147483548I127J0D01*
G01*
X2147483646Y2147483548D02*
G75*
G02*
X2147483420Y2147483548I-99J0D01*
G01*
X2147483420Y2147483548D02*
G75*
G02*
X2147483646Y2147483548I127J0D01*
G01*
X2147483646Y2147483548D02*
G75*
G02*
X2147483420Y2147483548I-99J0D01*
G01*
X2147483420Y2147483548D02*
G75*
G02*
X2147483646Y2147483548I127J0D01*
G01*
X2147483646Y2147483548D02*
G75*
G02*
X2147483420Y2147483548I-99J0D01*
G01*
X2147483420Y2147483548D02*
G75*
G02*
X2147483646Y2147483548I127J0D01*
G01*
X2147483646Y2147483548D02*
G75*
G02*
X2147483420Y2147483548I-99J0D01*
G01*
X2147483420Y2147483548D02*
G75*
G02*
X2147483646Y2147483548I127J0D01*
G01*
X2147483646Y2147483548D02*
G75*
G02*
X2147483420Y2147483548I-99J0D01*
G01*
X2147483420Y2147483548D02*
G75*
G02*
X2147483646Y2147483548I127J0D01*
G01*
X2147483646Y2147483548D02*
G75*
G02*
X2147483420Y2147483548I-99J0D01*
G01*
X2147483420Y2147483548D02*
G75*
G02*
X2147483646Y2147483548I127J0D01*
G01*
X2147483646Y2147483548D02*
G75*
G02*
X2147483420Y2147483548I-99J0D01*
G01*
X2147483420Y2147483548D02*
G75*
G02*
X2147483646Y2147483548I127J0D01*
G01*
X2147483646Y2147483548D02*
G75*
G02*
X2147483420Y2147483548I-99J0D01*
G01*
X2147483420Y2147483548D02*
G75*
G02*
X2147483646Y2147483548I127J0D01*
G01*
X2147483646Y2147483548D02*
G75*
G02*
X2147483420Y2147483548I-99J0D01*
G01*
X2147483420Y2147483548D02*
G75*
G02*
X2147483646Y2147483548I127J0D01*
G01*
X2147483646Y2147483548D02*
G75*
G02*
X2147483420Y2147483548I-99J0D01*
G01*
X2147483420Y2147483548D02*
G75*
G02*
X2147483646Y2147483548I127J0D01*
G01*
X2147483646Y2147483548D02*
G75*
G02*
X2147483420Y2147483548I-99J0D01*
G01*
X2147483420Y2147483548D02*
G75*
G02*
X2147483646Y2147483548I127J0D01*
G01*
X2147483646Y2147483548D02*
G75*
G02*
X2147483420Y2147483548I-99J0D01*
G01*
X2147483420Y2147483548D02*
G75*
G02*
X2147483646Y2147483548I127J0D01*
G01*
X2147483646Y2147483548D02*
G75*
G02*
X2147483420Y2147483548I-99J0D01*
G01*
X2147483420Y2147483548D02*
G75*
G02*
X2147483646Y2147483548I127J0D01*
G01*
X2147483646Y2147483548D02*
G75*
G02*
X2147483420Y2147483548I-99J0D01*
G01*
X2147483420Y2147483548D02*
G75*
G02*
X2147483646Y2147483548I127J0D01*
G01*
X2147483646Y2147483548D02*
G75*
G02*
X2147483420Y2147483548I-99J0D01*
G01*
X2147483420Y2147483548D02*
G75*
G02*
X2147483646Y2147483548I127J0D01*
G01*
X2147483646Y2147483548D02*
G75*
G02*
X2147483420Y2147483548I-99J0D01*
G01*
X2147483420Y2147483548D02*
G75*
G02*
X2147483646Y2147483548I127J0D01*
G01*
X2147483646Y2147483548D02*
G75*
G02*
X2147483420Y2147483548I-99J0D01*
G01*
X2147483420Y2147483548D02*
G75*
G02*
X2147483646Y2147483548I127J0D01*
G01*
X2147483646Y2147483548D02*
G75*
G02*
X2147483420Y2147483548I-99J0D01*
G01*
X2147483420Y2147483548D02*
G75*
G02*
X2147483646Y2147483548I127J0D01*
G01*
X2147483646Y2147483548D02*
G75*
G02*
X2147483420Y2147483548I-99J0D01*
G01*
X2147483420Y2147483548D02*
G75*
G02*
X2147483646Y2147483548I127J0D01*
G01*
X2147483646Y2147483548D02*
G75*
G02*
X2147483420Y2147483548I-99J0D01*
G01*
X2147483420Y2147483548D02*
G75*
G02*
X2147483646Y2147483548I127J0D01*
G01*
X2147483646Y2147483548D02*
G75*
G02*
X2147483420Y2147483548I-99J0D01*
G01*
X2147483420Y2147483548D02*
G75*
G02*
X2147483646Y2147483548I127J0D01*
G01*
X2147483646Y2147483548D02*
G75*
G02*
X2147483420Y2147483548I-99J0D01*
G01*
X2147483420Y2147483548D02*
G75*
G02*
X2147483646Y2147483548I127J0D01*
G01*
X2147483646Y2147483548D02*
G75*
G02*
X2147483420Y2147483548I-99J0D01*
G01*
X2147483420Y2147483548D02*
G75*
G02*
X2147483646Y2147483548I127J0D01*
G01*
X2147483646Y2147483548D02*
G75*
G02*
X2147483420Y2147483548I-99J0D01*
G01*
X2147483420Y2147483548D02*
G75*
G02*
X2147483646Y2147483548I127J0D01*
G01*
X2147483646Y2147483548D02*
G75*
G02*
X2147483420Y2147483548I-99J0D01*
G01*
X2147483420Y2147483548D02*
G75*
G02*
X2147483646Y2147483548I127J0D01*
G01*
X2147483646Y2147483548D02*
G75*
G02*
X2147483420Y2147483548I-99J0D01*
G01*
X2147483420Y2147483548D02*
G75*
G02*
X2147483646Y2147483548I127J0D01*
G01*
X2147483646Y2147483548D02*
G75*
G02*
X2147483420Y2147483548I-99J0D01*
G01*
X2147483420Y2147483548D02*
G75*
G02*
X2147483646Y2147483548I127J0D01*
G01*
X2147483646Y2147483548D02*
G75*
G02*
X2147483420Y2147483548I-99J0D01*
G01*
X2147483420Y2147483548D02*
G75*
G02*
X2147483646Y2147483548I127J0D01*
G01*
X2147483646Y2147483548D02*
G75*
G02*
X2147483420Y2147483548I-99J0D01*
G01*
X2147483420Y2147483548D02*
G75*
G02*
X2147483646Y2147483548I127J0D01*
G01*
X2147483646Y2147483548D02*
G75*
G02*
X2147483420Y2147483548I-99J0D01*
G01*
X2147483420Y2147483548D02*
G75*
G02*
X2147483646Y2147483548I127J0D01*
G01*
X2147483646Y2147483548D02*
G75*
G02*
X2147483420Y2147483548I-99J0D01*
G01*
X2147483420Y2147483548D02*
G75*
G02*
X2147483646Y2147483548I127J0D01*
G01*
X2147483646Y2147483548D02*
G75*
G02*
X2147483420Y2147483548I-99J0D01*
G01*
X2147483420Y2147483548D02*
G75*
G02*
X2147483646Y2147483548I127J0D01*
G01*
X2147483646Y2147483548D02*
G75*
G02*
X2147483420Y2147483548I-99J0D01*
G01*
X2147483420Y2147483548D02*
G75*
G02*
X2147483646Y2147483548I127J0D01*
G01*
X2147483646Y2147483548D02*
G75*
G02*
X2147483420Y2147483548I-99J0D01*
G01*
X2147483420Y2147483548D02*
G75*
G02*
X2147483646Y2147483548I127J0D01*
G01*
X2147483646Y2147483548D02*
G75*
G02*
X2147483420Y2147483548I-99J0D01*
G01*
X2147483420Y2147483548D02*
G75*
G02*
X2147483646Y2147483548I127J0D01*
G01*
X2147483646Y2147483548D02*
G75*
G02*
X2147483420Y2147483548I-99J0D01*
G01*
X2147483420Y2147483548D02*
G75*
G02*
X2147483646Y2147483548I127J0D01*
G01*
X2147483646Y2147483548D02*
G75*
G02*
X2147483420Y2147483548I-99J0D01*
G01*
X2147483420Y2147483548D02*
G75*
G02*
X2147483646Y2147483548I127J0D01*
G01*
X2147483646Y2147483548D02*
G75*
G02*
X2147483420Y2147483548I-99J0D01*
G01*
X2147483420Y2147483548D02*
G75*
G02*
X2147483646Y2147483548I127J0D01*
G01*
X2147483646Y2147483548D02*
G75*
G02*
X2147483420Y2147483548I-99J0D01*
G01*
X2147483420Y2147483548D02*
G75*
G02*
X2147483646Y2147483548I127J0D01*
G01*
X2147483646Y2147483548D02*
G75*
G02*
X2147483420Y2147483548I-99J0D01*
G01*
X2147483420Y2147483548D02*
G75*
G02*
X2147483646Y2147483548I127J0D01*
G01*
X2147483646Y2147483548D02*
G75*
G02*
X2147483420Y2147483548I-99J0D01*
G01*
X2147483420Y2147483548D02*
G75*
G02*
X2147483646Y2147483548I127J0D01*
G01*
X2147483646Y2147483548D02*
G75*
G02*
X2147483420Y2147483548I-99J0D01*
G01*
X2147483420Y2147483548D02*
G75*
G02*
X2147483646Y2147483548I127J0D01*
G01*
X2147483646Y2147483548D02*
G75*
G02*
X2147483420Y2147483548I-99J0D01*
G01*
X2147483420Y2147483548D02*
G75*
G02*
X2147483646Y2147483548I127J0D01*
G01*
X2147483646Y2147483548D02*
G75*
G02*
X2147483420Y2147483548I-99J0D01*
G01*
X2147483420Y2147483548D02*
G75*
G02*
X2147483646Y2147483548I127J0D01*
G01*
X2147483646Y2147483548D02*
G75*
G02*
X2147483420Y2147483548I-99J0D01*
G01*
X2147483420Y2147483548D02*
G75*
G02*
X2147483646Y2147483548I127J0D01*
G01*
X2147483646Y2147483548D02*
G75*
G02*
X2147483420Y2147483548I-99J0D01*
G01*
X2147483420Y2147483548D02*
G75*
G02*
X2147483646Y2147483548I127J0D01*
G01*
X2147483646Y2147483548D02*
G75*
G02*
X2147483420Y2147483548I-99J0D01*
G01*
X2147483420Y2147483548D02*
G75*
G02*
X2147483646Y2147483548I127J0D01*
G01*
X2147483646Y2147483548D02*
G75*
G02*
X2147483420Y2147483548I-99J0D01*
G01*
X2147483420Y2147483548D02*
G75*
G02*
X2147483646Y2147483548I127J0D01*
G01*
X2147483646Y2147483548D02*
G75*
G02*
X2147483420Y2147483548I-99J0D01*
G01*
X2147483420Y2147483548D02*
G75*
G02*
X2147483646Y2147483548I127J0D01*
G01*
X2147483646Y2147483548D02*
G75*
G02*
X2147483420Y2147483548I-99J0D01*
G01*
X2147483420Y2147483548D02*
G75*
G02*
X2147483646Y2147483548I127J0D01*
G01*
X2147483646Y2147483548D02*
G75*
G02*
X2147483420Y2147483548I-99J0D01*
G01*
X2147483420Y2147483548D02*
G75*
G02*
X2147483646Y2147483548I127J0D01*
G01*
X2147483646Y2147483548D02*
G75*
G02*
X2147483420Y2147483548I-99J0D01*
G01*
X2147483420Y2147483548D02*
G75*
G02*
X2147483646Y2147483548I127J0D01*
G01*
X2147483646Y2147483548D02*
G75*
G02*
X2147483420Y2147483548I-99J0D01*
G01*
X2147483420Y2147483548D02*
G75*
G02*
X2147483646Y2147483548I127J0D01*
G01*
X2147483646Y2147483548D02*
G75*
G02*
X2147483420Y2147483548I-99J0D01*
G01*
X2147483420Y2147483548D02*
G75*
G02*
X2147483646Y2147483548I127J0D01*
G01*
X2147483646Y2147483548D02*
G75*
G02*
X2147483420Y2147483548I-99J0D01*
G01*
X2147483420Y2147483548D02*
G75*
G02*
X2147483646Y2147483548I127J0D01*
G01*
X2147483646Y2147483548D02*
G75*
G02*
X2147483420Y2147483548I-99J0D01*
G01*
X2147483420Y2147483548D02*
G75*
G02*
X2147483646Y2147483548I127J0D01*
G01*
X2147483646Y2147483548D02*
G75*
G02*
X2147483420Y2147483548I-99J0D01*
G01*
X2147483420Y2147483548D02*
G75*
G02*
X2147483646Y2147483548I127J0D01*
G01*
X2147483646Y2147483548D02*
G75*
G02*
X2147483420Y2147483548I-99J0D01*
G01*
X2147483420Y2147483548D02*
G75*
G02*
X2147483646Y2147483548I127J0D01*
G01*
X2147483646Y2147483548D02*
G75*
G02*
X2147483420Y2147483548I-99J0D01*
G01*
X2147483420Y2147483548D02*
G75*
G02*
X2147483646Y2147483548I127J0D01*
G01*
X2147483646Y2147483548D02*
G75*
G02*
X2147483420Y2147483548I-99J0D01*
G01*
X2147483420Y2147483548D02*
G75*
G02*
X2147483646Y2147483548I127J0D01*
G01*
X2147483646Y2147483548D02*
G75*
G02*
X2147483420Y2147483548I-99J0D01*
G01*
X2147483420Y2147483548D02*
G75*
G02*
X2147483646Y2147483548I127J0D01*
G01*
X2147483646Y2147483548D02*
G75*
G02*
X2147483420Y2147483548I-99J0D01*
G01*
X2147483420Y2147483548D02*
G75*
G02*
X2147483646Y2147483548I127J0D01*
G01*
X2147483646Y2147483548D02*
G75*
G02*
X2147483420Y2147483548I-99J0D01*
G01*
X2147483420Y2147483548D02*
G75*
G02*
X2147483646Y2147483548I127J0D01*
G01*
X2147483646Y2147483548D02*
G75*
G02*
X2147483420Y2147483548I-99J0D01*
G01*
X2147483420Y2147483548D02*
G75*
G02*
X2147483646Y2147483548I127J0D01*
G01*
X2147483646Y2147483548D02*
G75*
G02*
X2147483420Y2147483548I-99J0D01*
G01*
X2147483420Y2147483548D02*
G75*
G02*
X2147483646Y2147483548I127J0D01*
G01*
X2147483646Y2147483548D02*
G75*
G02*
X2147483420Y2147483548I-99J0D01*
G01*
X2147483420Y2147483548D02*
G75*
G02*
X2147483646Y2147483548I127J0D01*
G01*
X2147483646Y2147483548D02*
G75*
G02*
X2147483420Y2147483548I-99J0D01*
G01*
X2147483420Y2147483548D02*
G75*
G02*
X2147483646Y2147483548I127J0D01*
G01*
X2147483646Y2147483548D02*
G75*
G02*
X2147483420Y2147483548I-99J0D01*
G01*
X2147483420Y2147483548D02*
G75*
G02*
X2147483646Y2147483548I127J0D01*
G01*
X2147483646Y2147483548D02*
G75*
G02*
X2147483420Y2147483548I-99J0D01*
G01*
X2147483420Y2147483548D02*
G75*
G02*
X2147483646Y2147483548I127J0D01*
G01*
X2147483646Y2147483548D02*
G75*
G02*
X2147483420Y2147483548I-99J0D01*
G01*
X2147483420Y2147483548D02*
G75*
G02*
X2147483646Y2147483548I127J0D01*
G01*
X2147483646Y2147483548D02*
G75*
G02*
X2147483420Y2147483548I-99J0D01*
G01*
X2147483420Y2147483548D02*
G75*
G02*
X2147483646Y2147483548I127J0D01*
G01*
X2147483646Y2147483548D02*
G75*
G02*
X2147483420Y2147483548I-99J0D01*
G01*
X2147483420Y2147483548D02*
G75*
G02*
X2147483646Y2147483548I127J0D01*
G01*
X2147483646Y2147483548D02*
G75*
G02*
X2147483420Y2147483548I-99J0D01*
G01*
X2147483420Y2147483548D02*
G75*
G02*
X2147483646Y2147483548I127J0D01*
G01*
X2147483646Y2147483548D02*
G75*
G02*
X2147483420Y2147483548I-99J0D01*
G01*
X2147483420Y2147483548D02*
G75*
G02*
X2147483646Y2147483548I127J0D01*
G01*
X2147483646Y2147483548D02*
G75*
G02*
X2147483420Y2147483548I-99J0D01*
G01*
X2147483420Y2147483548D02*
G75*
G02*
X2147483646Y2147483548I127J0D01*
G01*
X2147483646Y2147483548D02*
G75*
G02*
X2147483420Y2147483548I-99J0D01*
G01*
X2147483420Y2147483548D02*
G75*
G02*
X2147483646Y2147483548I127J0D01*
G01*
X2147483646Y2147483548D02*
G75*
G02*
X2147483420Y2147483548I-99J0D01*
G01*
X2147483420Y2147483548D02*
G75*
G02*
X2147483646Y2147483548I127J0D01*
G01*
X2147483646Y2147483548D02*
G75*
G02*
X2147483420Y2147483548I-99J0D01*
G01*
X2147483420Y2147483548D02*
G75*
G02*
X2147483646Y2147483548I127J0D01*
G01*
X2147483646Y2147483548D02*
G75*
G02*
X2147483420Y2147483548I-99J0D01*
G01*
X2147483420Y2147483548D02*
G75*
G02*
X2147483646Y2147483548I127J0D01*
G01*
X2147483646Y2147483548D02*
G75*
G02*
X2147483420Y2147483548I-99J0D01*
G01*
X2147483420Y2147483548D02*
G75*
G02*
X2147483646Y2147483548I127J0D01*
G01*
X2147483646Y2147483548D02*
G75*
G02*
X2147483420Y2147483548I-99J0D01*
G01*
X2147483420Y2147483548D02*
G75*
G02*
X2147483646Y2147483548I127J0D01*
G01*
X2147483646Y2147483548D02*
G75*
G02*
X2147483420Y2147483548I-99J0D01*
G01*
X2147483420Y2147483548D02*
G75*
G02*
X2147483646Y2147483548I127J0D01*
G01*
X2147483646Y2147483548D02*
G75*
G02*
X2147483420Y2147483548I-99J0D01*
G01*
X2147483420Y2147483548D02*
G75*
G02*
X2147483646Y2147483548I127J0D01*
G01*
X2147483646Y2147483548D02*
G75*
G02*
X2147483420Y2147483548I-99J0D01*
G01*
X2147483420Y2147483548D02*
G75*
G02*
X2147483646Y2147483548I127J0D01*
G01*
X2147483646Y2147483548D02*
G75*
G02*
X2147483420Y2147483548I-99J0D01*
G01*
X2147483420Y2147483548D02*
G75*
G02*
X2147483646Y2147483548I127J0D01*
G01*
X2147483646Y2147483548D02*
G75*
G02*
X2147483420Y2147483548I-99J0D01*
G01*
X2147483420Y2147483548D02*
G75*
G02*
X2147483646Y2147483548I127J0D01*
G01*
X2147483646Y2147483548D02*
G75*
G02*
X2147483420Y2147483548I-99J0D01*
G01*
X2147483420Y2147483548D02*
G75*
G02*
X2147483646Y2147483548I127J0D01*
G01*
X2147483646Y2147483548D02*
G75*
G02*
X2147483420Y2147483548I-99J0D01*
G01*
X2147483420Y2147483548D02*
G75*
G02*
X2147483646Y2147483548I127J0D01*
G01*
X2147483646Y2147483548D02*
G75*
G02*
X2147483420Y2147483548I-99J0D01*
G01*
X2147483420Y2147483548D02*
G75*
G02*
X2147483646Y2147483548I127J0D01*
G01*
X2147483646Y2147483548D02*
G75*
G02*
X2147483420Y2147483548I-99J0D01*
G01*
X2147483420Y2147483548D02*
G75*
G02*
X2147483646Y2147483548I127J0D01*
G01*
X2147483646Y2147483548D02*
G75*
G02*
X2147483420Y2147483548I-99J0D01*
G01*
X2147483420Y2147483548D02*
G75*
G02*
X2147483646Y2147483548I127J0D01*
G01*
X2147483646Y2147483548D02*
G75*
G02*
X2147483420Y2147483548I-99J0D01*
G01*
X2147483420Y2147483548D02*
G75*
G02*
X2147483646Y2147483548I127J0D01*
G01*
X2147483646Y2147483548D02*
G75*
G02*
X2147483420Y2147483548I-99J0D01*
G01*
X2147483420Y2147483548D02*
G75*
G02*
X2147483646Y2147483548I127J0D01*
G01*
X2147483646Y2147483548D02*
G75*
G02*
X2147483420Y2147483548I-99J0D01*
G01*
X2147483420Y2147483548D02*
G75*
G02*
X2147483646Y2147483548I127J0D01*
G01*
X2147483646Y2147483548D02*
G75*
G02*
X2147483420Y2147483548I-99J0D01*
G01*
X2147483420Y2147483548D02*
G75*
G02*
X2147483646Y2147483548I127J0D01*
G01*
X2147483646Y2147483548D02*
G75*
G02*
X2147483420Y2147483548I-99J0D01*
G01*
X2147483420Y2147483548D02*
G75*
G02*
X2147483646Y2147483548I127J0D01*
G01*
X2147483646Y2147483548D02*
G75*
G02*
X2147483420Y2147483548I-99J0D01*
G01*
X2147483420Y2147483548D02*
G75*
G02*
X2147483646Y2147483548I127J0D01*
G01*
X2147483646Y2147483548D02*
G75*
G02*
X2147483420Y2147483548I-99J0D01*
G01*
X2147483420Y2147483548D02*
G75*
G02*
X2147483646Y2147483548I127J0D01*
G01*
X2147483646Y2147483548D02*
G75*
G02*
X2147483420Y2147483548I-99J0D01*
G01*
X2147483420Y2147483548D02*
G75*
G02*
X2147483646Y2147483548I127J0D01*
G01*
X2147483646Y2147483548D02*
G75*
G02*
X2147483420Y2147483548I-99J0D01*
G01*
X2147483420Y2147483548D02*
G75*
G02*
X2147483646Y2147483548I127J0D01*
G01*
X2147483646Y2147483548D02*
G75*
G02*
X2147483420Y2147483548I-99J0D01*
G01*
X2147483420Y2147483548D02*
G75*
G02*
X2147483646Y2147483548I127J0D01*
G01*
X2147483646Y2147483548D02*
G75*
G02*
X2147483420Y2147483548I-99J0D01*
G01*
X2147483420Y2147483548D02*
G75*
G02*
X2147483646Y2147483548I127J0D01*
G01*
X2147483646Y2147483548D02*
G75*
G02*
X2147483420Y2147483548I-99J0D01*
G01*
X2147483420Y2147483548D02*
G75*
G02*
X2147483646Y2147483548I127J0D01*
G01*
X2147483646Y2147483548D02*
G75*
G02*
X2147483420Y2147483548I-99J0D01*
G01*
X2147483420Y2147483548D02*
G75*
G02*
X2147483646Y2147483548I127J0D01*
G01*
X2147483646Y2147483548D02*
G75*
G02*
X2147483420Y2147483548I-99J0D01*
G01*
X2147483420Y2147483548D02*
G75*
G02*
X2147483646Y2147483548I127J0D01*
G01*
X2147483646Y2147483548D02*
G75*
G02*
X2147483420Y2147483548I-99J0D01*
G01*
X2147483420Y2147483548D02*
G75*
G02*
X2147483646Y2147483548I127J0D01*
G01*
X2147483646Y2147483548D02*
G75*
G02*
X2147483420Y2147483548I-99J0D01*
G01*
X2147483420Y2147483548D02*
G75*
G02*
X2147483646Y2147483548I127J0D01*
G01*
X2147483646Y2147483548D02*
G75*
G02*
X2147483420Y2147483548I-99J0D01*
G01*
X2147483420Y2147483548D02*
G75*
G02*
X2147483646Y2147483548I127J0D01*
G01*
X2147483646Y2147483548D02*
G75*
G02*
X2147483420Y2147483548I-99J0D01*
G01*
X2147483420Y2147483548D02*
G75*
G02*
X2147483646Y2147483548I127J0D01*
G01*
X2147483646Y2147483548D02*
G75*
G02*
X2147483420Y2147483548I-99J0D01*
G01*
X2147483420Y2147483548D02*
G75*
G02*
X2147483646Y2147483548I127J0D01*
G01*
X2147483646Y2147483548D02*
G75*
G02*
X2147483420Y2147483548I-99J0D01*
G01*
X2147483420Y2147483548D02*
G75*
G02*
X2147483646Y2147483548I127J0D01*
G01*
X2147483646Y2147483548D02*
G75*
G02*
X2147483420Y2147483548I-99J0D01*
G01*
X2147483420Y2147483548D02*
G75*
G02*
X2147483646Y2147483548I127J0D01*
G01*
X2147483646Y2147483548D02*
G75*
G02*
X2147483420Y2147483548I-99J0D01*
G01*
X2147483420Y2147483548D02*
G75*
G02*
X2147483646Y2147483548I127J0D01*
G01*
X2147483646Y2147483548D02*
G75*
G02*
X2147483420Y2147483548I-99J0D01*
G01*
X2147483420Y2147483548D02*
G75*
G02*
X2147483646Y2147483548I127J0D01*
G01*
X2147483646Y2147483548D02*
G75*
G02*
X2147483420Y2147483548I-99J0D01*
G01*
X2147483420Y2147483548D02*
G75*
G02*
X2147483646Y2147483548I127J0D01*
G01*
X2147483646Y2147483548D02*
G75*
G02*
X2147483420Y2147483548I-99J0D01*
G01*
X2147483420Y2147483548D02*
G75*
G02*
X2147483646Y2147483548I127J0D01*
G01*
X2147483646Y2147483548D02*
G75*
G02*
X2147483420Y2147483548I-99J0D01*
G01*
X2147483420Y2147483548D02*
G75*
G02*
X2147483646Y2147483548I127J0D01*
G01*
X2147483646Y2147483548D02*
G75*
G02*
X2147483420Y2147483548I-99J0D01*
G01*
X2147483420Y2147483548D02*
G75*
G02*
X2147483646Y2147483548I127J0D01*
G01*
X2147483646Y2147483548D02*
G75*
G02*
X2147483420Y2147483548I-99J0D01*
G01*
X2147483420Y2147483548D02*
G75*
G02*
X2147483646Y2147483548I127J0D01*
G01*
X2147483646Y2147483548D02*
G75*
G02*
X2147483420Y2147483548I-99J0D01*
G01*
X2147483420Y2147483548D02*
G75*
G02*
X2147483646Y2147483548I127J0D01*
G01*
X2147483646Y2147483548D02*
G75*
G02*
X2147483420Y2147483548I-99J0D01*
G01*
X2147483420Y2147483548D02*
G75*
G02*
X2147483646Y2147483548I127J0D01*
G01*
X2147483646Y2147483548D02*
G75*
G02*
X2147483420Y2147483548I-99J0D01*
G01*
X2147483420Y2147483548D02*
G75*
G02*
X2147483646Y2147483548I127J0D01*
G01*
X2147483646Y2147483548D02*
G75*
G02*
X2147483420Y2147483548I-99J0D01*
G01*
X2147483420Y2147483548D02*
G75*
G02*
X2147483646Y2147483548I127J0D01*
G01*
X2147483646Y2147483548D02*
G75*
G02*
X2147483420Y2147483548I-99J0D01*
G01*
X2147483420Y2147483548D02*
G75*
G02*
X2147483646Y2147483548I127J0D01*
G01*
X2147483646Y2147483548D02*
G75*
G02*
X2147483420Y2147483548I-99J0D01*
G01*
X2147483420Y2147483548D02*
G75*
G02*
X2147483646Y2147483548I127J0D01*
G01*
X2147483646Y2147483548D02*
G75*
G02*
X2147483420Y2147483548I-99J0D01*
G01*
X2147483420Y2147483548D02*
G75*
G02*
X2147483646Y2147483548I127J0D01*
G01*
X2147483646Y2147483548D02*
G75*
G02*
X2147483420Y2147483548I-99J0D01*
G01*
X2147483420Y2147483548D02*
G75*
G02*
X2147483646Y2147483548I127J0D01*
G01*
X2147483646Y2147483548D02*
G75*
G02*
X2147483420Y2147483548I-99J0D01*
G01*
X2147483420Y2147483548D02*
G75*
G02*
X2147483646Y2147483548I127J0D01*
G01*
X2147483646Y2147483548D02*
G75*
G02*
X2147483420Y2147483548I-99J0D01*
G01*
X2147483420Y2147483548D02*
G75*
G02*
X2147483646Y2147483548I127J0D01*
G01*
X2147483646Y2147483548D02*
G75*
G02*
X2147483420Y2147483548I-99J0D01*
G01*
X2147483420Y2147483548D02*
G75*
G02*
X2147483646Y2147483548I127J0D01*
G01*
X2147483646Y2147483548D02*
G75*
G02*
X2147483420Y2147483548I-99J0D01*
G01*
X2147483420Y2147483548D02*
G75*
G02*
X2147483646Y2147483548I127J0D01*
G01*
X2147483646Y2147483548D02*
G75*
G02*
X2147483420Y2147483548I-99J0D01*
G01*
X2147483420Y2147483548D02*
G75*
G02*
X2147483646Y2147483548I127J0D01*
G01*
X2147483646Y2147483548D02*
G75*
G02*
X2147483420Y2147483548I-99J0D01*
G01*
X2147483420Y2147483548D02*
G75*
G02*
X2147483646Y2147483548I127J0D01*
G01*
X2147483646Y2147483548D02*
G75*
G02*
X2147483420Y2147483548I-99J0D01*
G01*
X2147483420Y2147483548D02*
G75*
G02*
X2147483646Y2147483548I127J0D01*
G01*
X2147483646Y2147483548D02*
G75*
G02*
X2147483420Y2147483548I-99J0D01*
G01*
X2147483420Y2147483548D02*
G75*
G02*
X2147483646Y2147483548I127J0D01*
G01*
X2147483646Y2147483548D02*
G75*
G02*
X2147483420Y2147483548I-99J0D01*
G01*
X2147483420Y2147483548D02*
G75*
G02*
X2147483646Y2147483548I127J0D01*
G01*
X2147483646Y2147483548D02*
G75*
G02*
X2147483420Y2147483548I-99J0D01*
G01*
X2147483420Y2147483548D02*
G75*
G02*
X2147483646Y2147483548I127J0D01*
G01*
X2147483646Y2147483548D02*
G75*
G02*
X2147483420Y2147483548I-99J0D01*
G01*
X2147483420Y2147483548D02*
G75*
G02*
X2147483646Y2147483548I127J0D01*
G01*
X2147483646Y2147483548D02*
G75*
G02*
X2147483420Y2147483548I-99J0D01*
G01*
X2147483420Y2147483548D02*
G75*
G02*
X2147483646Y2147483548I127J0D01*
G01*
X2147483646Y2147483548D02*
G75*
G02*
X2147483420Y2147483548I-99J0D01*
G01*
X2147483420Y2147483548D02*
G75*
G02*
X2147483646Y2147483548I127J0D01*
G01*
X2147483646Y2147483548D02*
G75*
G02*
X2147483420Y2147483548I-99J0D01*
G01*
X2147483420Y2147483548D02*
G75*
G02*
X2147483646Y2147483548I127J0D01*
G01*
X2147483646Y2147483548D02*
G75*
G02*
X2147483420Y2147483548I-99J0D01*
G01*
X2147483420Y2147483548D02*
G75*
G02*
X2147483646Y2147483548I127J0D01*
G01*
X2147483646Y2147483548D02*
G75*
G02*
X2147483420Y2147483548I-99J0D01*
G01*
X2147483420Y2147483548D02*
G75*
G02*
X2147483646Y2147483548I127J0D01*
G01*
X2147483646Y2147483548D02*
G75*
G02*
X2147483420Y2147483548I-99J0D01*
G01*
X2147483420Y2147483548D02*
G75*
G02*
X2147483646Y2147483548I127J0D01*
G01*
X2147483646Y2147483548D02*
G75*
G02*
X2147483420Y2147483548I-99J0D01*
G01*
X2147483420Y2147483548D02*
G75*
G02*
X2147483646Y2147483548I127J0D01*
G01*
X2147483646Y2147483548D02*
G75*
G02*
X2147483420Y2147483548I-99J0D01*
G01*
X2147483420Y2147483548D02*
G75*
G02*
X2147483646Y2147483548I127J0D01*
G01*
X2147483646Y2147483548D02*
G75*
G02*
X2147483420Y2147483548I-99J0D01*
G01*
X2147483420Y2147483548D02*
G75*
G02*
X2147483646Y2147483548I127J0D01*
G01*
X2147483646Y2147483548D02*
G75*
G02*
X2147483420Y2147483548I-99J0D01*
G01*
X2147483420Y2147483548D02*
G75*
G02*
X2147483646Y2147483548I127J0D01*
G01*
X2147483646Y2147483548D02*
G75*
G02*
X2147483420Y2147483548I-99J0D01*
G01*
X2147483420Y2147483548D02*
G75*
G02*
X2147483646Y2147483548I127J0D01*
G01*
X2147483646Y2147483548D02*
G75*
G02*
X2147483420Y2147483548I-99J0D01*
G01*
X2147483420Y2147483548D02*
G75*
G02*
X2147483646Y2147483548I127J0D01*
G01*
X2147483646Y2147483548D02*
G75*
G02*
X2147483420Y2147483548I-99J0D01*
G01*
X2147483420Y2147483548D02*
G75*
G02*
X2147483646Y2147483548I127J0D01*
G01*
X2147483646Y2147483548D02*
G75*
G02*
X2147483420Y2147483548I-99J0D01*
G01*
X2147483420Y2147483548D02*
G75*
G02*
X2147483646Y2147483548I127J0D01*
G01*
X2147483646Y2147483548D02*
G75*
G02*
X2147483420Y2147483548I-99J0D01*
G01*
X2147483420Y2147483548D02*
G75*
G02*
X2147483646Y2147483548I127J0D01*
G01*
X2147483646Y2147483548D02*
G75*
G02*
X2147483420Y2147483548I-99J0D01*
G01*
X2147483420Y2147483548D02*
G75*
G02*
X2147483646Y2147483548I127J0D01*
G01*
X2147483646Y2147483548D02*
G75*
G02*
X2147483420Y2147483548I-99J0D01*
G01*
X2147483420Y2147483548D02*
G75*
G02*
X2147483646Y2147483548I127J0D01*
G01*
X2147483646Y2147483548D02*
G75*
G02*
X2147483420Y2147483548I-99J0D01*
G01*
X2147483420Y2147483548D02*
G75*
G02*
X2147483646Y2147483548I127J0D01*
G01*
X2147483646Y2147483548D02*
G75*
G02*
X2147483420Y2147483548I-99J0D01*
G01*
X2147483420Y2147483548D02*
G75*
G02*
X2147483646Y2147483548I127J0D01*
G01*
X2147483646Y2147483548D02*
G75*
G02*
X2147483420Y2147483548I-99J0D01*
G01*
X2147483420Y2147483548D02*
G75*
G02*
X2147483646Y2147483548I127J0D01*
G01*
X2147483646Y2147483548D02*
G75*
G02*
X2147483420Y2147483548I-99J0D01*
G01*
X2147483420Y2147483548D02*
G75*
G02*
X2147483646Y2147483548I127J0D01*
G01*
X2147483646Y2147483548D02*
G75*
G02*
X2147483420Y2147483548I-99J0D01*
G01*
X2147483420Y2147483548D02*
G75*
G02*
X2147483646Y2147483548I127J0D01*
G01*
X2147483646Y2147483548D02*
G75*
G02*
X2147483420Y2147483548I-99J0D01*
G01*
X2147483420Y2147483548D02*
G75*
G02*
X2147483646Y2147483548I127J0D01*
G01*
X2147483646Y2147483548D02*
G75*
G02*
X2147483420Y2147483548I-99J0D01*
G01*
X2147483420Y2147483548D02*
G75*
G02*
X2147483646Y2147483548I127J0D01*
G01*
X2147483646Y2147483548D02*
G75*
G02*
X2147483420Y2147483548I-99J0D01*
G01*
X2147483420Y2147483548D02*
G75*
G02*
X2147483646Y2147483548I127J0D01*
G01*
X2147483646Y2147483548D02*
G75*
G02*
X2147483420Y2147483548I-99J0D01*
G01*
X2147483420Y2147483548D02*
G75*
G02*
X2147483646Y2147483548I127J0D01*
G01*
X2147483646Y2147483548D02*
G75*
G02*
X2147483420Y2147483548I-99J0D01*
G01*
X2147483420Y2147483548D02*
G75*
G02*
X2147483646Y2147483548I127J0D01*
G01*
X2147483646Y2147483548D02*
G75*
G02*
X2147483420Y2147483548I-99J0D01*
G01*
X2147483420Y2147483548D02*
G75*
G02*
X2147483646Y2147483548I127J0D01*
G01*
X2147483646Y2147483548D02*
G75*
G02*
X2147483420Y2147483548I-99J0D01*
G01*
X2147483420Y2147483548D02*
G75*
G02*
X2147483646Y2147483548I127J0D01*
G01*
X2147483646Y2147483548D02*
G75*
G02*
X2147483420Y2147483548I-99J0D01*
G01*
X2147483420Y2147483548D02*
G75*
G02*
X2147483646Y2147483548I127J0D01*
G01*
X2147483646Y2147483548D02*
G75*
G02*
X2147483420Y2147483548I-99J0D01*
G01*
X2147483420Y2147483548D02*
G75*
G02*
X2147483646Y2147483548I127J0D01*
G01*
X2147483646Y2147483548D02*
G75*
G02*
X2147483420Y2147483548I-99J0D01*
G01*
X2147483420Y2147483548D02*
G75*
G02*
X2147483646Y2147483548I127J0D01*
G01*
X2147483646Y2147483548D02*
G75*
G02*
X2147483420Y2147483548I-99J0D01*
G01*
X2147483420Y2147483548D02*
G75*
G02*
X2147483646Y2147483548I127J0D01*
G01*
X2147483646Y2147483548D02*
G75*
G02*
X2147483420Y2147483548I-99J0D01*
G01*
X2147483420Y2147483548D02*
G75*
G02*
X2147483646Y2147483548I127J0D01*
G01*
X2147483646Y2147483548D02*
G75*
G02*
X2147483420Y2147483548I-99J0D01*
G01*
X2147483420Y2147483548D02*
G75*
G02*
X2147483646Y2147483548I127J0D01*
G01*
X2147483646Y2147483548D02*
G75*
G02*
X2147483420Y2147483548I-99J0D01*
G01*
X2147483420Y2147483548D02*
G75*
G02*
X2147483646Y2147483548I127J0D01*
G01*
X2147483646Y2147483548D02*
G75*
G02*
X2147483420Y2147483548I-99J0D01*
G01*
X2147483420Y2147483548D02*
G75*
G02*
X2147483646Y2147483548I127J0D01*
G01*
X2147483646Y2147483548D02*
G75*
G02*
X2147483420Y2147483548I-99J0D01*
G01*
X2147483420Y2147483548D02*
G75*
G02*
X2147483646Y2147483548I127J0D01*
G01*
X2147483646Y2147483548D02*
G75*
G02*
X2147483420Y2147483548I-99J0D01*
G01*
X2147483420Y2147483548D02*
G75*
G02*
X2147483646Y2147483548I127J0D01*
G01*
X2147483646Y2147483548D02*
G75*
G02*
X2147483420Y2147483548I-99J0D01*
G01*
X2147483420Y2147483548D02*
G75*
G02*
X2147483646Y2147483548I127J0D01*
G01*
X2147483646Y2147483548D02*
G75*
G02*
X2147483420Y2147483548I-99J0D01*
G01*
X2147483420Y2147483548D02*
G75*
G02*
X2147483646Y2147483548I127J0D01*
G01*
X2147483646Y2147483548D02*
G75*
G02*
X2147483420Y2147483548I-99J0D01*
G01*
X2147483420Y2147483548D02*
G75*
G02*
X2147483646Y2147483548I127J0D01*
G01*
X2147483646Y2147483548D02*
G75*
G02*
X2147483420Y2147483548I-99J0D01*
G01*
X2147483420Y2147483548D02*
G75*
G02*
X2147483646Y2147483548I127J0D01*
G01*
X2147483646Y2147483548D02*
G75*
G02*
X2147483420Y2147483548I-99J0D01*
G01*
X2147483420Y2147483548D02*
G75*
G02*
X2147483646Y2147483548I127J0D01*
G01*
X2147483646Y2147483548D02*
G75*
G02*
X2147483420Y2147483548I-99J0D01*
G01*
X2147483420Y2147483548D02*
G75*
G02*
X2147483646Y2147483548I127J0D01*
G01*
X2147483646Y2147483548D02*
G75*
G02*
X2147483420Y2147483548I-99J0D01*
G01*
X2147483420Y2147483548D02*
G75*
G02*
X2147483646Y2147483548I127J0D01*
G01*
X2147483646Y2147483548D02*
G75*
G02*
X2147483420Y2147483548I-99J0D01*
G01*
X2147483420Y2147483548D02*
G75*
G02*
X2147483646Y2147483548I127J0D01*
G01*
X2147483646Y2147483548D02*
G75*
G02*
X2147483420Y2147483548I-99J0D01*
G01*
X2147483420Y2147483548D02*
G75*
G02*
X2147483646Y2147483548I127J0D01*
G01*
X2147483646Y2147483548D02*
G75*
G02*
X2147483420Y2147483548I-99J0D01*
G01*
X2147483420Y2147483548D02*
G75*
G02*
X2147483646Y2147483548I127J0D01*
G01*
X2147483646Y2147483548D02*
G75*
G02*
X2147483420Y2147483548I-99J0D01*
G01*
X2147483420Y2147483548D02*
G75*
G02*
X2147483646Y2147483548I127J0D01*
G01*
X2147483646Y2147483548D02*
G75*
G02*
X2147483420Y2147483548I-99J0D01*
G01*
X2147483420Y2147483548D02*
G75*
G02*
X2147483646Y2147483548I127J0D01*
G01*
D11*
X216125312Y-82084990D02*
X216049122Y-82046895D01*
X216049122Y-82046895D02*
X215934836Y-82046895D01*
X215934836Y-82046895D02*
X215820550Y-82084990D01*
X215820550Y-82084990D02*
X215744360Y-82161180D01*
X215744360Y-82161180D02*
X215706265Y-82237371D01*
X215706265Y-82237371D02*
X215668169Y-82389752D01*
X215668169Y-82389752D02*
X215668169Y-82504038D01*
X215668169Y-82504038D02*
X215706265Y-82656419D01*
X215706265Y-82656419D02*
X215744360Y-82732609D01*
X215744360Y-82732609D02*
X215820550Y-82808800D01*
X215820550Y-82808800D02*
X215934836Y-82846895D01*
X215934836Y-82846895D02*
X216011027Y-82846895D01*
X216011027Y-82846895D02*
X216125312Y-82808800D01*
X216125312Y-82808800D02*
X216163408Y-82770704D01*
X216163408Y-82770704D02*
X216163408Y-82504038D01*
X216163408Y-82504038D02*
X216011027Y-82504038D01*
X216506265Y-82846895D02*
X216506265Y-82046895D01*
X216506265Y-82046895D02*
X216963408Y-82846895D01*
X216963408Y-82846895D02*
X216963408Y-82046895D01*
X217344360Y-82846895D02*
X217344360Y-82046895D01*
X217344360Y-82046895D02*
X217534836Y-82046895D01*
X217534836Y-82046895D02*
X217649122Y-82084990D01*
X217649122Y-82084990D02*
X217725312Y-82161180D01*
X217725312Y-82161180D02*
X217763407Y-82237371D01*
X217763407Y-82237371D02*
X217801503Y-82389752D01*
X217801503Y-82389752D02*
X217801503Y-82504038D01*
X217801503Y-82504038D02*
X217763407Y-82656419D01*
X217763407Y-82656419D02*
X217725312Y-82732609D01*
X217725312Y-82732609D02*
X217649122Y-82808800D01*
X217649122Y-82808800D02*
X217534836Y-82846895D01*
X217534836Y-82846895D02*
X217344360Y-82846895D01*
X106550000Y-122242800D02*
X107007143Y-122242800D01*
X106778571Y-122471371D02*
X106778571Y-122014228D01*
X107292857Y-122471371D02*
X107292857Y-121871371D01*
X107292857Y-122157085D02*
X107635714Y-122157085D01*
X107635714Y-122471371D02*
X107635714Y-121871371D01*
X107835713Y-121871371D02*
X108035713Y-122471371D01*
X108035713Y-122471371D02*
X108235713Y-121871371D01*
X168413408Y-82546895D02*
X168146741Y-82165942D01*
X167956265Y-82546895D02*
X167956265Y-81746895D01*
X167956265Y-81746895D02*
X168261027Y-81746895D01*
X168261027Y-81746895D02*
X168337217Y-81784990D01*
X168337217Y-81784990D02*
X168375312Y-81823085D01*
X168375312Y-81823085D02*
X168413408Y-81899276D01*
X168413408Y-81899276D02*
X168413408Y-82013561D01*
X168413408Y-82013561D02*
X168375312Y-82089752D01*
X168375312Y-82089752D02*
X168337217Y-82127847D01*
X168337217Y-82127847D02*
X168261027Y-82165942D01*
X168261027Y-82165942D02*
X167956265Y-82165942D01*
X168680074Y-81746895D02*
X169213408Y-82546895D01*
X169213408Y-81746895D02*
X168680074Y-82546895D01*
X99578571Y-122192800D02*
X100035714Y-122192800D01*
X99807142Y-122421371D02*
X99807142Y-121964228D01*
X100607142Y-121821371D02*
X100321428Y-121821371D01*
X100321428Y-121821371D02*
X100292856Y-122107085D01*
X100292856Y-122107085D02*
X100321428Y-122078514D01*
X100321428Y-122078514D02*
X100378571Y-122049942D01*
X100378571Y-122049942D02*
X100521428Y-122049942D01*
X100521428Y-122049942D02*
X100578571Y-122078514D01*
X100578571Y-122078514D02*
X100607142Y-122107085D01*
X100607142Y-122107085D02*
X100635713Y-122164228D01*
X100635713Y-122164228D02*
X100635713Y-122307085D01*
X100635713Y-122307085D02*
X100607142Y-122364228D01*
X100607142Y-122364228D02*
X100578571Y-122392800D01*
X100578571Y-122392800D02*
X100521428Y-122421371D01*
X100521428Y-122421371D02*
X100378571Y-122421371D01*
X100378571Y-122421371D02*
X100321428Y-122392800D01*
X100321428Y-122392800D02*
X100292856Y-122364228D01*
X100807142Y-121821371D02*
X101007142Y-122421371D01*
X101007142Y-122421371D02*
X101207142Y-121821371D01*
X170391979Y-81746895D02*
X170849122Y-81746895D01*
X170620550Y-82546895D02*
X170620550Y-81746895D01*
X171039598Y-81746895D02*
X171572932Y-82546895D01*
X171572932Y-81746895D02*
X171039598Y-82546895D01*
X218856265Y-82846895D02*
X218856265Y-82046895D01*
X219237217Y-82846895D02*
X219237217Y-82046895D01*
X219237217Y-82046895D02*
X219694360Y-82846895D01*
X219694360Y-82846895D02*
X219694360Y-82046895D01*
X110492857Y-121899942D02*
X110435715Y-121871371D01*
X110435715Y-121871371D02*
X110350000Y-121871371D01*
X110350000Y-121871371D02*
X110264286Y-121899942D01*
X110264286Y-121899942D02*
X110207143Y-121957085D01*
X110207143Y-121957085D02*
X110178572Y-122014228D01*
X110178572Y-122014228D02*
X110150000Y-122128514D01*
X110150000Y-122128514D02*
X110150000Y-122214228D01*
X110150000Y-122214228D02*
X110178572Y-122328514D01*
X110178572Y-122328514D02*
X110207143Y-122385657D01*
X110207143Y-122385657D02*
X110264286Y-122442800D01*
X110264286Y-122442800D02*
X110350000Y-122471371D01*
X110350000Y-122471371D02*
X110407143Y-122471371D01*
X110407143Y-122471371D02*
X110492857Y-122442800D01*
X110492857Y-122442800D02*
X110521429Y-122414228D01*
X110521429Y-122414228D02*
X110521429Y-122214228D01*
X110521429Y-122214228D02*
X110407143Y-122214228D01*
X110778572Y-122471371D02*
X110778572Y-121871371D01*
X110778572Y-121871371D02*
X111121429Y-122471371D01*
X111121429Y-122471371D02*
X111121429Y-121871371D01*
X111407143Y-122471371D02*
X111407143Y-121871371D01*
X111407143Y-121871371D02*
X111550000Y-121871371D01*
X111550000Y-121871371D02*
X111635714Y-121899942D01*
X111635714Y-121899942D02*
X111692857Y-121957085D01*
X111692857Y-121957085D02*
X111721428Y-122014228D01*
X111721428Y-122014228D02*
X111750000Y-122128514D01*
X111750000Y-122128514D02*
X111750000Y-122214228D01*
X111750000Y-122214228D02*
X111721428Y-122328514D01*
X111721428Y-122328514D02*
X111692857Y-122385657D01*
X111692857Y-122385657D02*
X111635714Y-122442800D01*
X111635714Y-122442800D02*
X111550000Y-122471371D01*
X111550000Y-122471371D02*
X111407143Y-122471371D01*
X221587217Y-82046895D02*
X221206265Y-82046895D01*
X221206265Y-82046895D02*
X221168169Y-82427847D01*
X221168169Y-82427847D02*
X221206265Y-82389752D01*
X221206265Y-82389752D02*
X221282455Y-82351657D01*
X221282455Y-82351657D02*
X221472931Y-82351657D01*
X221472931Y-82351657D02*
X221549122Y-82389752D01*
X221549122Y-82389752D02*
X221587217Y-82427847D01*
X221587217Y-82427847D02*
X221625312Y-82504038D01*
X221625312Y-82504038D02*
X221625312Y-82694514D01*
X221625312Y-82694514D02*
X221587217Y-82770704D01*
X221587217Y-82770704D02*
X221549122Y-82808800D01*
X221549122Y-82808800D02*
X221472931Y-82846895D01*
X221472931Y-82846895D02*
X221282455Y-82846895D01*
X221282455Y-82846895D02*
X221206265Y-82808800D01*
X221206265Y-82808800D02*
X221168169Y-82770704D01*
X221853884Y-82046895D02*
X222120551Y-82846895D01*
X222120551Y-82846895D02*
X222387217Y-82046895D01*
X102792857Y-122242800D02*
X103250000Y-122242800D01*
X103021428Y-122471371D02*
X103021428Y-122014228D01*
X103849999Y-122471371D02*
X103507142Y-122471371D01*
X103678571Y-122471371D02*
X103678571Y-121871371D01*
X103678571Y-121871371D02*
X103621428Y-121957085D01*
X103621428Y-121957085D02*
X103564285Y-122014228D01*
X103564285Y-122014228D02*
X103507142Y-122042800D01*
X104078571Y-121928514D02*
X104107143Y-121899942D01*
X104107143Y-121899942D02*
X104164286Y-121871371D01*
X104164286Y-121871371D02*
X104307143Y-121871371D01*
X104307143Y-121871371D02*
X104364286Y-121899942D01*
X104364286Y-121899942D02*
X104392857Y-121928514D01*
X104392857Y-121928514D02*
X104421428Y-121985657D01*
X104421428Y-121985657D02*
X104421428Y-122042800D01*
X104421428Y-122042800D02*
X104392857Y-122128514D01*
X104392857Y-122128514D02*
X104050000Y-122471371D01*
X104050000Y-122471371D02*
X104421428Y-122471371D01*
X104592857Y-121871371D02*
X104792857Y-122471371D01*
X104792857Y-122471371D02*
X104992857Y-121871371D01*
X165375312Y-81784990D02*
X165299122Y-81746895D01*
X165299122Y-81746895D02*
X165184836Y-81746895D01*
X165184836Y-81746895D02*
X165070550Y-81784990D01*
X165070550Y-81784990D02*
X164994360Y-81861180D01*
X164994360Y-81861180D02*
X164956265Y-81937371D01*
X164956265Y-81937371D02*
X164918169Y-82089752D01*
X164918169Y-82089752D02*
X164918169Y-82204038D01*
X164918169Y-82204038D02*
X164956265Y-82356419D01*
X164956265Y-82356419D02*
X164994360Y-82432609D01*
X164994360Y-82432609D02*
X165070550Y-82508800D01*
X165070550Y-82508800D02*
X165184836Y-82546895D01*
X165184836Y-82546895D02*
X165261027Y-82546895D01*
X165261027Y-82546895D02*
X165375312Y-82508800D01*
X165375312Y-82508800D02*
X165413408Y-82470704D01*
X165413408Y-82470704D02*
X165413408Y-82204038D01*
X165413408Y-82204038D02*
X165261027Y-82204038D01*
X165756265Y-82546895D02*
X165756265Y-81746895D01*
X165756265Y-81746895D02*
X166213408Y-82546895D01*
X166213408Y-82546895D02*
X166213408Y-81746895D01*
X166594360Y-82546895D02*
X166594360Y-81746895D01*
X166594360Y-81746895D02*
X166784836Y-81746895D01*
X166784836Y-81746895D02*
X166899122Y-81784990D01*
X166899122Y-81784990D02*
X166975312Y-81861180D01*
X166975312Y-81861180D02*
X167013407Y-81937371D01*
X167013407Y-81937371D02*
X167051503Y-82089752D01*
X167051503Y-82089752D02*
X167051503Y-82204038D01*
X167051503Y-82204038D02*
X167013407Y-82356419D01*
X167013407Y-82356419D02*
X166975312Y-82432609D01*
X166975312Y-82432609D02*
X166899122Y-82508800D01*
X166899122Y-82508800D02*
X166784836Y-82546895D01*
X166784836Y-82546895D02*
X166594360Y-82546895D01*
X95400000Y-122192800D02*
X95857143Y-122192800D01*
X95628571Y-122421371D02*
X95628571Y-121964228D01*
X96085714Y-121821371D02*
X96457142Y-121821371D01*
X96457142Y-121821371D02*
X96257142Y-122049942D01*
X96257142Y-122049942D02*
X96342857Y-122049942D01*
X96342857Y-122049942D02*
X96400000Y-122078514D01*
X96400000Y-122078514D02*
X96428571Y-122107085D01*
X96428571Y-122107085D02*
X96457142Y-122164228D01*
X96457142Y-122164228D02*
X96457142Y-122307085D01*
X96457142Y-122307085D02*
X96428571Y-122364228D01*
X96428571Y-122364228D02*
X96400000Y-122392800D01*
X96400000Y-122392800D02*
X96342857Y-122421371D01*
X96342857Y-122421371D02*
X96171428Y-122421371D01*
X96171428Y-122421371D02*
X96114285Y-122392800D01*
X96114285Y-122392800D02*
X96085714Y-122364228D01*
X96714286Y-122364228D02*
X96742857Y-122392800D01*
X96742857Y-122392800D02*
X96714286Y-122421371D01*
X96714286Y-122421371D02*
X96685714Y-122392800D01*
X96685714Y-122392800D02*
X96714286Y-122364228D01*
X96714286Y-122364228D02*
X96714286Y-122421371D01*
X96942857Y-121821371D02*
X97314285Y-121821371D01*
X97314285Y-121821371D02*
X97114285Y-122049942D01*
X97114285Y-122049942D02*
X97200000Y-122049942D01*
X97200000Y-122049942D02*
X97257143Y-122078514D01*
X97257143Y-122078514D02*
X97285714Y-122107085D01*
X97285714Y-122107085D02*
X97314285Y-122164228D01*
X97314285Y-122164228D02*
X97314285Y-122307085D01*
X97314285Y-122307085D02*
X97285714Y-122364228D01*
X97285714Y-122364228D02*
X97257143Y-122392800D01*
X97257143Y-122392800D02*
X97200000Y-122421371D01*
X97200000Y-122421371D02*
X97028571Y-122421371D01*
X97028571Y-122421371D02*
X96971428Y-122392800D01*
X96971428Y-122392800D02*
X96942857Y-122364228D01*
X97485714Y-121821371D02*
X97685714Y-122421371D01*
X97685714Y-122421371D02*
X97885714Y-121821371D01*
D12*
X141354819Y-94570857D02*
X140878628Y-94904190D01*
X141354819Y-95142285D02*
X140354819Y-95142285D01*
X140354819Y-95142285D02*
X140354819Y-94761333D01*
X140354819Y-94761333D02*
X140402438Y-94666095D01*
X140402438Y-94666095D02*
X140450057Y-94618476D01*
X140450057Y-94618476D02*
X140545295Y-94570857D01*
X140545295Y-94570857D02*
X140688152Y-94570857D01*
X140688152Y-94570857D02*
X140783390Y-94618476D01*
X140783390Y-94618476D02*
X140831009Y-94666095D01*
X140831009Y-94666095D02*
X140878628Y-94761333D01*
X140878628Y-94761333D02*
X140878628Y-95142285D01*
X140354819Y-94237523D02*
X140354819Y-93618476D01*
X140354819Y-93618476D02*
X140735771Y-93951809D01*
X140735771Y-93951809D02*
X140735771Y-93808952D01*
X140735771Y-93808952D02*
X140783390Y-93713714D01*
X140783390Y-93713714D02*
X140831009Y-93666095D01*
X140831009Y-93666095D02*
X140926247Y-93618476D01*
X140926247Y-93618476D02*
X141164342Y-93618476D01*
X141164342Y-93618476D02*
X141259580Y-93666095D01*
X141259580Y-93666095D02*
X141307200Y-93713714D01*
X141307200Y-93713714D02*
X141354819Y-93808952D01*
X141354819Y-93808952D02*
X141354819Y-94094666D01*
X141354819Y-94094666D02*
X141307200Y-94189904D01*
X141307200Y-94189904D02*
X141259580Y-94237523D01*
X141354819Y-93142285D02*
X141354819Y-92951809D01*
X141354819Y-92951809D02*
X141307200Y-92856571D01*
X141307200Y-92856571D02*
X141259580Y-92808952D01*
X141259580Y-92808952D02*
X141116723Y-92713714D01*
X141116723Y-92713714D02*
X140926247Y-92666095D01*
X140926247Y-92666095D02*
X140545295Y-92666095D01*
X140545295Y-92666095D02*
X140450057Y-92713714D01*
X140450057Y-92713714D02*
X140402438Y-92761333D01*
X140402438Y-92761333D02*
X140354819Y-92856571D01*
X140354819Y-92856571D02*
X140354819Y-93047047D01*
X140354819Y-93047047D02*
X140402438Y-93142285D01*
X140402438Y-93142285D02*
X140450057Y-93189904D01*
X140450057Y-93189904D02*
X140545295Y-93237523D01*
X140545295Y-93237523D02*
X140783390Y-93237523D01*
X140783390Y-93237523D02*
X140878628Y-93189904D01*
X140878628Y-93189904D02*
X140926247Y-93142285D01*
X140926247Y-93142285D02*
X140973866Y-93047047D01*
X140973866Y-93047047D02*
X140973866Y-92856571D01*
X140973866Y-92856571D02*
X140926247Y-92761333D01*
X140926247Y-92761333D02*
X140878628Y-92713714D01*
X140878628Y-92713714D02*
X140783390Y-92666095D01*
D11*
X178785714Y-105385419D02*
X178785714Y-104385419D01*
X178785714Y-104385419D02*
X179357142Y-105385419D01*
X179357142Y-105385419D02*
X179357142Y-104385419D01*
X179833333Y-104861609D02*
X180166666Y-104861609D01*
X180309523Y-105385419D02*
X179833333Y-105385419D01*
X179833333Y-105385419D02*
X179833333Y-104385419D01*
X179833333Y-104385419D02*
X180309523Y-104385419D01*
X181261904Y-105385419D02*
X180690476Y-105385419D01*
X180976190Y-105385419D02*
X180976190Y-104385419D01*
X180976190Y-104385419D02*
X180880952Y-104528276D01*
X180880952Y-104528276D02*
X180785714Y-104623514D01*
X180785714Y-104623514D02*
X180690476Y-104671133D01*
D13*
X132024318Y-118467762D02*
X130754318Y-118467762D01*
X131903365Y-117137285D02*
X131963842Y-117197761D01*
X131963842Y-117197761D02*
X132024318Y-117379190D01*
X132024318Y-117379190D02*
X132024318Y-117500142D01*
X132024318Y-117500142D02*
X131963842Y-117681571D01*
X131963842Y-117681571D02*
X131842889Y-117802523D01*
X131842889Y-117802523D02*
X131721937Y-117863000D01*
X131721937Y-117863000D02*
X131480032Y-117923476D01*
X131480032Y-117923476D02*
X131298603Y-117923476D01*
X131298603Y-117923476D02*
X131056699Y-117863000D01*
X131056699Y-117863000D02*
X130935746Y-117802523D01*
X130935746Y-117802523D02*
X130814794Y-117681571D01*
X130814794Y-117681571D02*
X130754318Y-117500142D01*
X130754318Y-117500142D02*
X130754318Y-117379190D01*
X130754318Y-117379190D02*
X130814794Y-117197761D01*
X130814794Y-117197761D02*
X130875270Y-117137285D01*
X131177651Y-116048714D02*
X132024318Y-116048714D01*
X130693842Y-116351095D02*
X131600984Y-116653476D01*
X131600984Y-116653476D02*
X131600984Y-115867285D01*
D12*
X187907142Y-79459580D02*
X187859523Y-79507200D01*
X187859523Y-79507200D02*
X187716666Y-79554819D01*
X187716666Y-79554819D02*
X187621428Y-79554819D01*
X187621428Y-79554819D02*
X187478571Y-79507200D01*
X187478571Y-79507200D02*
X187383333Y-79411961D01*
X187383333Y-79411961D02*
X187335714Y-79316723D01*
X187335714Y-79316723D02*
X187288095Y-79126247D01*
X187288095Y-79126247D02*
X187288095Y-78983390D01*
X187288095Y-78983390D02*
X187335714Y-78792914D01*
X187335714Y-78792914D02*
X187383333Y-78697676D01*
X187383333Y-78697676D02*
X187478571Y-78602438D01*
X187478571Y-78602438D02*
X187621428Y-78554819D01*
X187621428Y-78554819D02*
X187716666Y-78554819D01*
X187716666Y-78554819D02*
X187859523Y-78602438D01*
X187859523Y-78602438D02*
X187907142Y-78650057D01*
X188288095Y-78650057D02*
X188335714Y-78602438D01*
X188335714Y-78602438D02*
X188430952Y-78554819D01*
X188430952Y-78554819D02*
X188669047Y-78554819D01*
X188669047Y-78554819D02*
X188764285Y-78602438D01*
X188764285Y-78602438D02*
X188811904Y-78650057D01*
X188811904Y-78650057D02*
X188859523Y-78745295D01*
X188859523Y-78745295D02*
X188859523Y-78840533D01*
X188859523Y-78840533D02*
X188811904Y-78983390D01*
X188811904Y-78983390D02*
X188240476Y-79554819D01*
X188240476Y-79554819D02*
X188859523Y-79554819D01*
X189430952Y-78983390D02*
X189335714Y-78935771D01*
X189335714Y-78935771D02*
X189288095Y-78888152D01*
X189288095Y-78888152D02*
X189240476Y-78792914D01*
X189240476Y-78792914D02*
X189240476Y-78745295D01*
X189240476Y-78745295D02*
X189288095Y-78650057D01*
X189288095Y-78650057D02*
X189335714Y-78602438D01*
X189335714Y-78602438D02*
X189430952Y-78554819D01*
X189430952Y-78554819D02*
X189621428Y-78554819D01*
X189621428Y-78554819D02*
X189716666Y-78602438D01*
X189716666Y-78602438D02*
X189764285Y-78650057D01*
X189764285Y-78650057D02*
X189811904Y-78745295D01*
X189811904Y-78745295D02*
X189811904Y-78792914D01*
X189811904Y-78792914D02*
X189764285Y-78888152D01*
X189764285Y-78888152D02*
X189716666Y-78935771D01*
X189716666Y-78935771D02*
X189621428Y-78983390D01*
X189621428Y-78983390D02*
X189430952Y-78983390D01*
X189430952Y-78983390D02*
X189335714Y-79031009D01*
X189335714Y-79031009D02*
X189288095Y-79078628D01*
X189288095Y-79078628D02*
X189240476Y-79173866D01*
X189240476Y-79173866D02*
X189240476Y-79364342D01*
X189240476Y-79364342D02*
X189288095Y-79459580D01*
X189288095Y-79459580D02*
X189335714Y-79507200D01*
X189335714Y-79507200D02*
X189430952Y-79554819D01*
X189430952Y-79554819D02*
X189621428Y-79554819D01*
X189621428Y-79554819D02*
X189716666Y-79507200D01*
X189716666Y-79507200D02*
X189764285Y-79459580D01*
X189764285Y-79459580D02*
X189811904Y-79364342D01*
X189811904Y-79364342D02*
X189811904Y-79173866D01*
X189811904Y-79173866D02*
X189764285Y-79078628D01*
X189764285Y-79078628D02*
X189716666Y-79031009D01*
X189716666Y-79031009D02*
X189621428Y-78983390D01*
X100353333Y-75189580D02*
X100305714Y-75237200D01*
X100305714Y-75237200D02*
X100162857Y-75284819D01*
X100162857Y-75284819D02*
X100067619Y-75284819D01*
X100067619Y-75284819D02*
X99924762Y-75237200D01*
X99924762Y-75237200D02*
X99829524Y-75141961D01*
X99829524Y-75141961D02*
X99781905Y-75046723D01*
X99781905Y-75046723D02*
X99734286Y-74856247D01*
X99734286Y-74856247D02*
X99734286Y-74713390D01*
X99734286Y-74713390D02*
X99781905Y-74522914D01*
X99781905Y-74522914D02*
X99829524Y-74427676D01*
X99829524Y-74427676D02*
X99924762Y-74332438D01*
X99924762Y-74332438D02*
X100067619Y-74284819D01*
X100067619Y-74284819D02*
X100162857Y-74284819D01*
X100162857Y-74284819D02*
X100305714Y-74332438D01*
X100305714Y-74332438D02*
X100353333Y-74380057D01*
X100734286Y-74380057D02*
X100781905Y-74332438D01*
X100781905Y-74332438D02*
X100877143Y-74284819D01*
X100877143Y-74284819D02*
X101115238Y-74284819D01*
X101115238Y-74284819D02*
X101210476Y-74332438D01*
X101210476Y-74332438D02*
X101258095Y-74380057D01*
X101258095Y-74380057D02*
X101305714Y-74475295D01*
X101305714Y-74475295D02*
X101305714Y-74570533D01*
X101305714Y-74570533D02*
X101258095Y-74713390D01*
X101258095Y-74713390D02*
X100686667Y-75284819D01*
X100686667Y-75284819D02*
X101305714Y-75284819D01*
X160904819Y-94392857D02*
X160428628Y-94726190D01*
X160904819Y-94964285D02*
X159904819Y-94964285D01*
X159904819Y-94964285D02*
X159904819Y-94583333D01*
X159904819Y-94583333D02*
X159952438Y-94488095D01*
X159952438Y-94488095D02*
X160000057Y-94440476D01*
X160000057Y-94440476D02*
X160095295Y-94392857D01*
X160095295Y-94392857D02*
X160238152Y-94392857D01*
X160238152Y-94392857D02*
X160333390Y-94440476D01*
X160333390Y-94440476D02*
X160381009Y-94488095D01*
X160381009Y-94488095D02*
X160428628Y-94583333D01*
X160428628Y-94583333D02*
X160428628Y-94964285D01*
X159904819Y-94059523D02*
X159904819Y-93440476D01*
X159904819Y-93440476D02*
X160285771Y-93773809D01*
X160285771Y-93773809D02*
X160285771Y-93630952D01*
X160285771Y-93630952D02*
X160333390Y-93535714D01*
X160333390Y-93535714D02*
X160381009Y-93488095D01*
X160381009Y-93488095D02*
X160476247Y-93440476D01*
X160476247Y-93440476D02*
X160714342Y-93440476D01*
X160714342Y-93440476D02*
X160809580Y-93488095D01*
X160809580Y-93488095D02*
X160857200Y-93535714D01*
X160857200Y-93535714D02*
X160904819Y-93630952D01*
X160904819Y-93630952D02*
X160904819Y-93916666D01*
X160904819Y-93916666D02*
X160857200Y-94011904D01*
X160857200Y-94011904D02*
X160809580Y-94059523D01*
X160333390Y-92869047D02*
X160285771Y-92964285D01*
X160285771Y-92964285D02*
X160238152Y-93011904D01*
X160238152Y-93011904D02*
X160142914Y-93059523D01*
X160142914Y-93059523D02*
X160095295Y-93059523D01*
X160095295Y-93059523D02*
X160000057Y-93011904D01*
X160000057Y-93011904D02*
X159952438Y-92964285D01*
X159952438Y-92964285D02*
X159904819Y-92869047D01*
X159904819Y-92869047D02*
X159904819Y-92678571D01*
X159904819Y-92678571D02*
X159952438Y-92583333D01*
X159952438Y-92583333D02*
X160000057Y-92535714D01*
X160000057Y-92535714D02*
X160095295Y-92488095D01*
X160095295Y-92488095D02*
X160142914Y-92488095D01*
X160142914Y-92488095D02*
X160238152Y-92535714D01*
X160238152Y-92535714D02*
X160285771Y-92583333D01*
X160285771Y-92583333D02*
X160333390Y-92678571D01*
X160333390Y-92678571D02*
X160333390Y-92869047D01*
X160333390Y-92869047D02*
X160381009Y-92964285D01*
X160381009Y-92964285D02*
X160428628Y-93011904D01*
X160428628Y-93011904D02*
X160523866Y-93059523D01*
X160523866Y-93059523D02*
X160714342Y-93059523D01*
X160714342Y-93059523D02*
X160809580Y-93011904D01*
X160809580Y-93011904D02*
X160857200Y-92964285D01*
X160857200Y-92964285D02*
X160904819Y-92869047D01*
X160904819Y-92869047D02*
X160904819Y-92678571D01*
X160904819Y-92678571D02*
X160857200Y-92583333D01*
X160857200Y-92583333D02*
X160809580Y-92535714D01*
X160809580Y-92535714D02*
X160714342Y-92488095D01*
X160714342Y-92488095D02*
X160523866Y-92488095D01*
X160523866Y-92488095D02*
X160428628Y-92535714D01*
X160428628Y-92535714D02*
X160381009Y-92583333D01*
X160381009Y-92583333D02*
X160333390Y-92678571D01*
X104335714Y-85362295D02*
X104069047Y-84981342D01*
X103878571Y-85362295D02*
X103878571Y-84562295D01*
X103878571Y-84562295D02*
X104183333Y-84562295D01*
X104183333Y-84562295D02*
X104259523Y-84600390D01*
X104259523Y-84600390D02*
X104297618Y-84638485D01*
X104297618Y-84638485D02*
X104335714Y-84714676D01*
X104335714Y-84714676D02*
X104335714Y-84828961D01*
X104335714Y-84828961D02*
X104297618Y-84905152D01*
X104297618Y-84905152D02*
X104259523Y-84943247D01*
X104259523Y-84943247D02*
X104183333Y-84981342D01*
X104183333Y-84981342D02*
X103878571Y-84981342D01*
X105097618Y-85362295D02*
X104640475Y-85362295D01*
X104869047Y-85362295D02*
X104869047Y-84562295D01*
X104869047Y-84562295D02*
X104792856Y-84676580D01*
X104792856Y-84676580D02*
X104716666Y-84752771D01*
X104716666Y-84752771D02*
X104640475Y-84790866D01*
X105364285Y-84562295D02*
X105859523Y-84562295D01*
X105859523Y-84562295D02*
X105592857Y-84867057D01*
X105592857Y-84867057D02*
X105707142Y-84867057D01*
X105707142Y-84867057D02*
X105783333Y-84905152D01*
X105783333Y-84905152D02*
X105821428Y-84943247D01*
X105821428Y-84943247D02*
X105859523Y-85019438D01*
X105859523Y-85019438D02*
X105859523Y-85209914D01*
X105859523Y-85209914D02*
X105821428Y-85286104D01*
X105821428Y-85286104D02*
X105783333Y-85324200D01*
X105783333Y-85324200D02*
X105707142Y-85362295D01*
X105707142Y-85362295D02*
X105478571Y-85362295D01*
X105478571Y-85362295D02*
X105402380Y-85324200D01*
X105402380Y-85324200D02*
X105364285Y-85286104D01*
X165354761Y-97078057D02*
X165259523Y-97030438D01*
X165259523Y-97030438D02*
X165164285Y-96935200D01*
X165164285Y-96935200D02*
X165021428Y-96792342D01*
X165021428Y-96792342D02*
X164926190Y-96744723D01*
X164926190Y-96744723D02*
X164830952Y-96744723D01*
X164878571Y-96982819D02*
X164783333Y-96935200D01*
X164783333Y-96935200D02*
X164688095Y-96839961D01*
X164688095Y-96839961D02*
X164640476Y-96649485D01*
X164640476Y-96649485D02*
X164640476Y-96316152D01*
X164640476Y-96316152D02*
X164688095Y-96125676D01*
X164688095Y-96125676D02*
X164783333Y-96030438D01*
X164783333Y-96030438D02*
X164878571Y-95982819D01*
X164878571Y-95982819D02*
X165069047Y-95982819D01*
X165069047Y-95982819D02*
X165164285Y-96030438D01*
X165164285Y-96030438D02*
X165259523Y-96125676D01*
X165259523Y-96125676D02*
X165307142Y-96316152D01*
X165307142Y-96316152D02*
X165307142Y-96649485D01*
X165307142Y-96649485D02*
X165259523Y-96839961D01*
X165259523Y-96839961D02*
X165164285Y-96935200D01*
X165164285Y-96935200D02*
X165069047Y-96982819D01*
X165069047Y-96982819D02*
X164878571Y-96982819D01*
X166164285Y-96316152D02*
X166164285Y-96982819D01*
X165926190Y-95935200D02*
X165688095Y-96649485D01*
X165688095Y-96649485D02*
X166307142Y-96649485D01*
X91323810Y-82304819D02*
X91323810Y-81304819D01*
X92371428Y-82209580D02*
X92323809Y-82257200D01*
X92323809Y-82257200D02*
X92180952Y-82304819D01*
X92180952Y-82304819D02*
X92085714Y-82304819D01*
X92085714Y-82304819D02*
X91942857Y-82257200D01*
X91942857Y-82257200D02*
X91847619Y-82161961D01*
X91847619Y-82161961D02*
X91800000Y-82066723D01*
X91800000Y-82066723D02*
X91752381Y-81876247D01*
X91752381Y-81876247D02*
X91752381Y-81733390D01*
X91752381Y-81733390D02*
X91800000Y-81542914D01*
X91800000Y-81542914D02*
X91847619Y-81447676D01*
X91847619Y-81447676D02*
X91942857Y-81352438D01*
X91942857Y-81352438D02*
X92085714Y-81304819D01*
X92085714Y-81304819D02*
X92180952Y-81304819D01*
X92180952Y-81304819D02*
X92323809Y-81352438D01*
X92323809Y-81352438D02*
X92371428Y-81400057D01*
X92942857Y-81733390D02*
X92847619Y-81685771D01*
X92847619Y-81685771D02*
X92800000Y-81638152D01*
X92800000Y-81638152D02*
X92752381Y-81542914D01*
X92752381Y-81542914D02*
X92752381Y-81495295D01*
X92752381Y-81495295D02*
X92800000Y-81400057D01*
X92800000Y-81400057D02*
X92847619Y-81352438D01*
X92847619Y-81352438D02*
X92942857Y-81304819D01*
X92942857Y-81304819D02*
X93133333Y-81304819D01*
X93133333Y-81304819D02*
X93228571Y-81352438D01*
X93228571Y-81352438D02*
X93276190Y-81400057D01*
X93276190Y-81400057D02*
X93323809Y-81495295D01*
X93323809Y-81495295D02*
X93323809Y-81542914D01*
X93323809Y-81542914D02*
X93276190Y-81638152D01*
X93276190Y-81638152D02*
X93228571Y-81685771D01*
X93228571Y-81685771D02*
X93133333Y-81733390D01*
X93133333Y-81733390D02*
X92942857Y-81733390D01*
X92942857Y-81733390D02*
X92847619Y-81781009D01*
X92847619Y-81781009D02*
X92800000Y-81828628D01*
X92800000Y-81828628D02*
X92752381Y-81923866D01*
X92752381Y-81923866D02*
X92752381Y-82114342D01*
X92752381Y-82114342D02*
X92800000Y-82209580D01*
X92800000Y-82209580D02*
X92847619Y-82257200D01*
X92847619Y-82257200D02*
X92942857Y-82304819D01*
X92942857Y-82304819D02*
X93133333Y-82304819D01*
X93133333Y-82304819D02*
X93228571Y-82257200D01*
X93228571Y-82257200D02*
X93276190Y-82209580D01*
X93276190Y-82209580D02*
X93323809Y-82114342D01*
X93323809Y-82114342D02*
X93323809Y-81923866D01*
X93323809Y-81923866D02*
X93276190Y-81828628D01*
X93276190Y-81828628D02*
X93228571Y-81781009D01*
X93228571Y-81781009D02*
X93133333Y-81733390D01*
D13*
X104560237Y-93274318D02*
X104560237Y-92004318D01*
X105890714Y-93153365D02*
X105830238Y-93213842D01*
X105830238Y-93213842D02*
X105648809Y-93274318D01*
X105648809Y-93274318D02*
X105527857Y-93274318D01*
X105527857Y-93274318D02*
X105346428Y-93213842D01*
X105346428Y-93213842D02*
X105225476Y-93092889D01*
X105225476Y-93092889D02*
X105164999Y-92971937D01*
X105164999Y-92971937D02*
X105104523Y-92730032D01*
X105104523Y-92730032D02*
X105104523Y-92548603D01*
X105104523Y-92548603D02*
X105164999Y-92306699D01*
X105164999Y-92306699D02*
X105225476Y-92185746D01*
X105225476Y-92185746D02*
X105346428Y-92064794D01*
X105346428Y-92064794D02*
X105527857Y-92004318D01*
X105527857Y-92004318D02*
X105648809Y-92004318D01*
X105648809Y-92004318D02*
X105830238Y-92064794D01*
X105830238Y-92064794D02*
X105890714Y-92125270D01*
X107100238Y-93274318D02*
X106374523Y-93274318D01*
X106737380Y-93274318D02*
X106737380Y-92004318D01*
X106737380Y-92004318D02*
X106616428Y-92185746D01*
X106616428Y-92185746D02*
X106495476Y-92306699D01*
X106495476Y-92306699D02*
X106374523Y-92367175D01*
D12*
X162083333Y-124409580D02*
X162035714Y-124457200D01*
X162035714Y-124457200D02*
X161892857Y-124504819D01*
X161892857Y-124504819D02*
X161797619Y-124504819D01*
X161797619Y-124504819D02*
X161654762Y-124457200D01*
X161654762Y-124457200D02*
X161559524Y-124361961D01*
X161559524Y-124361961D02*
X161511905Y-124266723D01*
X161511905Y-124266723D02*
X161464286Y-124076247D01*
X161464286Y-124076247D02*
X161464286Y-123933390D01*
X161464286Y-123933390D02*
X161511905Y-123742914D01*
X161511905Y-123742914D02*
X161559524Y-123647676D01*
X161559524Y-123647676D02*
X161654762Y-123552438D01*
X161654762Y-123552438D02*
X161797619Y-123504819D01*
X161797619Y-123504819D02*
X161892857Y-123504819D01*
X161892857Y-123504819D02*
X162035714Y-123552438D01*
X162035714Y-123552438D02*
X162083333Y-123600057D01*
X162416667Y-123504819D02*
X163083333Y-123504819D01*
X163083333Y-123504819D02*
X162654762Y-124504819D01*
X103144819Y-94582857D02*
X102668628Y-94916190D01*
X103144819Y-95154285D02*
X102144819Y-95154285D01*
X102144819Y-95154285D02*
X102144819Y-94773333D01*
X102144819Y-94773333D02*
X102192438Y-94678095D01*
X102192438Y-94678095D02*
X102240057Y-94630476D01*
X102240057Y-94630476D02*
X102335295Y-94582857D01*
X102335295Y-94582857D02*
X102478152Y-94582857D01*
X102478152Y-94582857D02*
X102573390Y-94630476D01*
X102573390Y-94630476D02*
X102621009Y-94678095D01*
X102621009Y-94678095D02*
X102668628Y-94773333D01*
X102668628Y-94773333D02*
X102668628Y-95154285D01*
X102144819Y-94249523D02*
X102144819Y-93630476D01*
X102144819Y-93630476D02*
X102525771Y-93963809D01*
X102525771Y-93963809D02*
X102525771Y-93820952D01*
X102525771Y-93820952D02*
X102573390Y-93725714D01*
X102573390Y-93725714D02*
X102621009Y-93678095D01*
X102621009Y-93678095D02*
X102716247Y-93630476D01*
X102716247Y-93630476D02*
X102954342Y-93630476D01*
X102954342Y-93630476D02*
X103049580Y-93678095D01*
X103049580Y-93678095D02*
X103097200Y-93725714D01*
X103097200Y-93725714D02*
X103144819Y-93820952D01*
X103144819Y-93820952D02*
X103144819Y-94106666D01*
X103144819Y-94106666D02*
X103097200Y-94201904D01*
X103097200Y-94201904D02*
X103049580Y-94249523D01*
X102478152Y-92773333D02*
X103144819Y-92773333D01*
X102097200Y-93011428D02*
X102811485Y-93249523D01*
X102811485Y-93249523D02*
X102811485Y-92630476D01*
D11*
X213688095Y-105885419D02*
X213688095Y-104885419D01*
X213688095Y-104885419D02*
X214259523Y-105885419D01*
X214259523Y-105885419D02*
X214259523Y-104885419D01*
X215259523Y-105885419D02*
X214688095Y-105885419D01*
X214973809Y-105885419D02*
X214973809Y-104885419D01*
X214973809Y-104885419D02*
X214878571Y-105028276D01*
X214878571Y-105028276D02*
X214783333Y-105123514D01*
X214783333Y-105123514D02*
X214688095Y-105171133D01*
D13*
X200174318Y-87039762D02*
X198904318Y-87039762D01*
X200053365Y-85709285D02*
X200113842Y-85769761D01*
X200113842Y-85769761D02*
X200174318Y-85951190D01*
X200174318Y-85951190D02*
X200174318Y-86072142D01*
X200174318Y-86072142D02*
X200113842Y-86253571D01*
X200113842Y-86253571D02*
X199992889Y-86374523D01*
X199992889Y-86374523D02*
X199871937Y-86435000D01*
X199871937Y-86435000D02*
X199630032Y-86495476D01*
X199630032Y-86495476D02*
X199448603Y-86495476D01*
X199448603Y-86495476D02*
X199206699Y-86435000D01*
X199206699Y-86435000D02*
X199085746Y-86374523D01*
X199085746Y-86374523D02*
X198964794Y-86253571D01*
X198964794Y-86253571D02*
X198904318Y-86072142D01*
X198904318Y-86072142D02*
X198904318Y-85951190D01*
X198904318Y-85951190D02*
X198964794Y-85769761D01*
X198964794Y-85769761D02*
X199025270Y-85709285D01*
X198904318Y-85285952D02*
X198904318Y-84499761D01*
X198904318Y-84499761D02*
X199388127Y-84923095D01*
X199388127Y-84923095D02*
X199388127Y-84741666D01*
X199388127Y-84741666D02*
X199448603Y-84620714D01*
X199448603Y-84620714D02*
X199509080Y-84560238D01*
X199509080Y-84560238D02*
X199630032Y-84499761D01*
X199630032Y-84499761D02*
X199932413Y-84499761D01*
X199932413Y-84499761D02*
X200053365Y-84560238D01*
X200053365Y-84560238D02*
X200113842Y-84620714D01*
X200113842Y-84620714D02*
X200174318Y-84741666D01*
X200174318Y-84741666D02*
X200174318Y-85104523D01*
X200174318Y-85104523D02*
X200113842Y-85225476D01*
X200113842Y-85225476D02*
X200053365Y-85285952D01*
D12*
X146294761Y-97278057D02*
X146199523Y-97230438D01*
X146199523Y-97230438D02*
X146104285Y-97135200D01*
X146104285Y-97135200D02*
X145961428Y-96992342D01*
X145961428Y-96992342D02*
X145866190Y-96944723D01*
X145866190Y-96944723D02*
X145770952Y-96944723D01*
X145818571Y-97182819D02*
X145723333Y-97135200D01*
X145723333Y-97135200D02*
X145628095Y-97039961D01*
X145628095Y-97039961D02*
X145580476Y-96849485D01*
X145580476Y-96849485D02*
X145580476Y-96516152D01*
X145580476Y-96516152D02*
X145628095Y-96325676D01*
X145628095Y-96325676D02*
X145723333Y-96230438D01*
X145723333Y-96230438D02*
X145818571Y-96182819D01*
X145818571Y-96182819D02*
X146009047Y-96182819D01*
X146009047Y-96182819D02*
X146104285Y-96230438D01*
X146104285Y-96230438D02*
X146199523Y-96325676D01*
X146199523Y-96325676D02*
X146247142Y-96516152D01*
X146247142Y-96516152D02*
X146247142Y-96849485D01*
X146247142Y-96849485D02*
X146199523Y-97039961D01*
X146199523Y-97039961D02*
X146104285Y-97135200D01*
X146104285Y-97135200D02*
X146009047Y-97182819D01*
X146009047Y-97182819D02*
X145818571Y-97182819D01*
X147151904Y-96182819D02*
X146675714Y-96182819D01*
X146675714Y-96182819D02*
X146628095Y-96659009D01*
X146628095Y-96659009D02*
X146675714Y-96611390D01*
X146675714Y-96611390D02*
X146770952Y-96563771D01*
X146770952Y-96563771D02*
X147009047Y-96563771D01*
X147009047Y-96563771D02*
X147104285Y-96611390D01*
X147104285Y-96611390D02*
X147151904Y-96659009D01*
X147151904Y-96659009D02*
X147199523Y-96754247D01*
X147199523Y-96754247D02*
X147199523Y-96992342D01*
X147199523Y-96992342D02*
X147151904Y-97087580D01*
X147151904Y-97087580D02*
X147104285Y-97135200D01*
X147104285Y-97135200D02*
X147009047Y-97182819D01*
X147009047Y-97182819D02*
X146770952Y-97182819D01*
X146770952Y-97182819D02*
X146675714Y-97135200D01*
X146675714Y-97135200D02*
X146628095Y-97087580D01*
X209363333Y-76954819D02*
X209030000Y-76478628D01*
X208791905Y-76954819D02*
X208791905Y-75954819D01*
X208791905Y-75954819D02*
X209172857Y-75954819D01*
X209172857Y-75954819D02*
X209268095Y-76002438D01*
X209268095Y-76002438D02*
X209315714Y-76050057D01*
X209315714Y-76050057D02*
X209363333Y-76145295D01*
X209363333Y-76145295D02*
X209363333Y-76288152D01*
X209363333Y-76288152D02*
X209315714Y-76383390D01*
X209315714Y-76383390D02*
X209268095Y-76431009D01*
X209268095Y-76431009D02*
X209172857Y-76478628D01*
X209172857Y-76478628D02*
X208791905Y-76478628D01*
X210220476Y-76288152D02*
X210220476Y-76954819D01*
X209982381Y-75907200D02*
X209744286Y-76621485D01*
X209744286Y-76621485D02*
X210363333Y-76621485D01*
X111704819Y-94670857D02*
X111228628Y-95004190D01*
X111704819Y-95242285D02*
X110704819Y-95242285D01*
X110704819Y-95242285D02*
X110704819Y-94861333D01*
X110704819Y-94861333D02*
X110752438Y-94766095D01*
X110752438Y-94766095D02*
X110800057Y-94718476D01*
X110800057Y-94718476D02*
X110895295Y-94670857D01*
X110895295Y-94670857D02*
X111038152Y-94670857D01*
X111038152Y-94670857D02*
X111133390Y-94718476D01*
X111133390Y-94718476D02*
X111181009Y-94766095D01*
X111181009Y-94766095D02*
X111228628Y-94861333D01*
X111228628Y-94861333D02*
X111228628Y-95242285D01*
X111038152Y-93813714D02*
X111704819Y-93813714D01*
X110657200Y-94051809D02*
X111371485Y-94289904D01*
X111371485Y-94289904D02*
X111371485Y-93670857D01*
X110704819Y-93099428D02*
X110704819Y-93004190D01*
X110704819Y-93004190D02*
X110752438Y-92908952D01*
X110752438Y-92908952D02*
X110800057Y-92861333D01*
X110800057Y-92861333D02*
X110895295Y-92813714D01*
X110895295Y-92813714D02*
X111085771Y-92766095D01*
X111085771Y-92766095D02*
X111323866Y-92766095D01*
X111323866Y-92766095D02*
X111514342Y-92813714D01*
X111514342Y-92813714D02*
X111609580Y-92861333D01*
X111609580Y-92861333D02*
X111657200Y-92908952D01*
X111657200Y-92908952D02*
X111704819Y-93004190D01*
X111704819Y-93004190D02*
X111704819Y-93099428D01*
X111704819Y-93099428D02*
X111657200Y-93194666D01*
X111657200Y-93194666D02*
X111609580Y-93242285D01*
X111609580Y-93242285D02*
X111514342Y-93289904D01*
X111514342Y-93289904D02*
X111323866Y-93337523D01*
X111323866Y-93337523D02*
X111085771Y-93337523D01*
X111085771Y-93337523D02*
X110895295Y-93289904D01*
X110895295Y-93289904D02*
X110800057Y-93242285D01*
X110800057Y-93242285D02*
X110752438Y-93194666D01*
X110752438Y-93194666D02*
X110704819Y-93099428D01*
X206339580Y-80020857D02*
X206387200Y-80068476D01*
X206387200Y-80068476D02*
X206434819Y-80211333D01*
X206434819Y-80211333D02*
X206434819Y-80306571D01*
X206434819Y-80306571D02*
X206387200Y-80449428D01*
X206387200Y-80449428D02*
X206291961Y-80544666D01*
X206291961Y-80544666D02*
X206196723Y-80592285D01*
X206196723Y-80592285D02*
X206006247Y-80639904D01*
X206006247Y-80639904D02*
X205863390Y-80639904D01*
X205863390Y-80639904D02*
X205672914Y-80592285D01*
X205672914Y-80592285D02*
X205577676Y-80544666D01*
X205577676Y-80544666D02*
X205482438Y-80449428D01*
X205482438Y-80449428D02*
X205434819Y-80306571D01*
X205434819Y-80306571D02*
X205434819Y-80211333D01*
X205434819Y-80211333D02*
X205482438Y-80068476D01*
X205482438Y-80068476D02*
X205530057Y-80020857D01*
X205530057Y-79639904D02*
X205482438Y-79592285D01*
X205482438Y-79592285D02*
X205434819Y-79497047D01*
X205434819Y-79497047D02*
X205434819Y-79258952D01*
X205434819Y-79258952D02*
X205482438Y-79163714D01*
X205482438Y-79163714D02*
X205530057Y-79116095D01*
X205530057Y-79116095D02*
X205625295Y-79068476D01*
X205625295Y-79068476D02*
X205720533Y-79068476D01*
X205720533Y-79068476D02*
X205863390Y-79116095D01*
X205863390Y-79116095D02*
X206434819Y-79687523D01*
X206434819Y-79687523D02*
X206434819Y-79068476D01*
X205434819Y-78163714D02*
X205434819Y-78639904D01*
X205434819Y-78639904D02*
X205911009Y-78687523D01*
X205911009Y-78687523D02*
X205863390Y-78639904D01*
X205863390Y-78639904D02*
X205815771Y-78544666D01*
X205815771Y-78544666D02*
X205815771Y-78306571D01*
X205815771Y-78306571D02*
X205863390Y-78211333D01*
X205863390Y-78211333D02*
X205911009Y-78163714D01*
X205911009Y-78163714D02*
X206006247Y-78116095D01*
X206006247Y-78116095D02*
X206244342Y-78116095D01*
X206244342Y-78116095D02*
X206339580Y-78163714D01*
X206339580Y-78163714D02*
X206387200Y-78211333D01*
X206387200Y-78211333D02*
X206434819Y-78306571D01*
X206434819Y-78306571D02*
X206434819Y-78544666D01*
X206434819Y-78544666D02*
X206387200Y-78639904D01*
X206387200Y-78639904D02*
X206339580Y-78687523D01*
D11*
X130185714Y-105335419D02*
X130185714Y-104335419D01*
X130185714Y-104335419D02*
X130757142Y-105335419D01*
X130757142Y-105335419D02*
X130757142Y-104335419D01*
X131233333Y-104811609D02*
X131566666Y-104811609D01*
X131709523Y-105335419D02*
X131233333Y-105335419D01*
X131233333Y-105335419D02*
X131233333Y-104335419D01*
X131233333Y-104335419D02*
X131709523Y-104335419D01*
X132090476Y-104430657D02*
X132138095Y-104383038D01*
X132138095Y-104383038D02*
X132233333Y-104335419D01*
X132233333Y-104335419D02*
X132471428Y-104335419D01*
X132471428Y-104335419D02*
X132566666Y-104383038D01*
X132566666Y-104383038D02*
X132614285Y-104430657D01*
X132614285Y-104430657D02*
X132661904Y-104525895D01*
X132661904Y-104525895D02*
X132661904Y-104621133D01*
X132661904Y-104621133D02*
X132614285Y-104763990D01*
X132614285Y-104763990D02*
X132042857Y-105335419D01*
X132042857Y-105335419D02*
X132661904Y-105335419D01*
X145688095Y-105885419D02*
X145688095Y-104885419D01*
X145688095Y-104885419D02*
X146259523Y-105885419D01*
X146259523Y-105885419D02*
X146259523Y-104885419D01*
X147164285Y-105218752D02*
X147164285Y-105885419D01*
X146926190Y-104837800D02*
X146688095Y-105552085D01*
X146688095Y-105552085D02*
X147307142Y-105552085D01*
D12*
X219324819Y-87776666D02*
X218848628Y-88109999D01*
X219324819Y-88348094D02*
X218324819Y-88348094D01*
X218324819Y-88348094D02*
X218324819Y-87967142D01*
X218324819Y-87967142D02*
X218372438Y-87871904D01*
X218372438Y-87871904D02*
X218420057Y-87824285D01*
X218420057Y-87824285D02*
X218515295Y-87776666D01*
X218515295Y-87776666D02*
X218658152Y-87776666D01*
X218658152Y-87776666D02*
X218753390Y-87824285D01*
X218753390Y-87824285D02*
X218801009Y-87871904D01*
X218801009Y-87871904D02*
X218848628Y-87967142D01*
X218848628Y-87967142D02*
X218848628Y-88348094D01*
X218324819Y-86919523D02*
X218324819Y-87109999D01*
X218324819Y-87109999D02*
X218372438Y-87205237D01*
X218372438Y-87205237D02*
X218420057Y-87252856D01*
X218420057Y-87252856D02*
X218562914Y-87348094D01*
X218562914Y-87348094D02*
X218753390Y-87395713D01*
X218753390Y-87395713D02*
X219134342Y-87395713D01*
X219134342Y-87395713D02*
X219229580Y-87348094D01*
X219229580Y-87348094D02*
X219277200Y-87300475D01*
X219277200Y-87300475D02*
X219324819Y-87205237D01*
X219324819Y-87205237D02*
X219324819Y-87014761D01*
X219324819Y-87014761D02*
X219277200Y-86919523D01*
X219277200Y-86919523D02*
X219229580Y-86871904D01*
X219229580Y-86871904D02*
X219134342Y-86824285D01*
X219134342Y-86824285D02*
X218896247Y-86824285D01*
X218896247Y-86824285D02*
X218801009Y-86871904D01*
X218801009Y-86871904D02*
X218753390Y-86919523D01*
X218753390Y-86919523D02*
X218705771Y-87014761D01*
X218705771Y-87014761D02*
X218705771Y-87205237D01*
X218705771Y-87205237D02*
X218753390Y-87300475D01*
X218753390Y-87300475D02*
X218801009Y-87348094D01*
X218801009Y-87348094D02*
X218896247Y-87395713D01*
X98556033Y-76260000D02*
X98222700Y-76493333D01*
X98556033Y-76660000D02*
X97856033Y-76660000D01*
X97856033Y-76660000D02*
X97856033Y-76393333D01*
X97856033Y-76393333D02*
X97889366Y-76326667D01*
X97889366Y-76326667D02*
X97922700Y-76293333D01*
X97922700Y-76293333D02*
X97989366Y-76260000D01*
X97989366Y-76260000D02*
X98089366Y-76260000D01*
X98089366Y-76260000D02*
X98156033Y-76293333D01*
X98156033Y-76293333D02*
X98189366Y-76326667D01*
X98189366Y-76326667D02*
X98222700Y-76393333D01*
X98222700Y-76393333D02*
X98222700Y-76660000D01*
X98556033Y-75593333D02*
X98556033Y-75993333D01*
X98556033Y-75793333D02*
X97856033Y-75793333D01*
X97856033Y-75793333D02*
X97956033Y-75860000D01*
X97956033Y-75860000D02*
X98022700Y-75926667D01*
X98022700Y-75926667D02*
X98056033Y-75993333D01*
X97922700Y-75326666D02*
X97889366Y-75293333D01*
X97889366Y-75293333D02*
X97856033Y-75226666D01*
X97856033Y-75226666D02*
X97856033Y-75060000D01*
X97856033Y-75060000D02*
X97889366Y-74993333D01*
X97889366Y-74993333D02*
X97922700Y-74960000D01*
X97922700Y-74960000D02*
X97989366Y-74926666D01*
X97989366Y-74926666D02*
X98056033Y-74926666D01*
X98056033Y-74926666D02*
X98156033Y-74960000D01*
X98156033Y-74960000D02*
X98556033Y-75360000D01*
X98556033Y-75360000D02*
X98556033Y-74926666D01*
X219854819Y-94470857D02*
X219378628Y-94804190D01*
X219854819Y-95042285D02*
X218854819Y-95042285D01*
X218854819Y-95042285D02*
X218854819Y-94661333D01*
X218854819Y-94661333D02*
X218902438Y-94566095D01*
X218902438Y-94566095D02*
X218950057Y-94518476D01*
X218950057Y-94518476D02*
X219045295Y-94470857D01*
X219045295Y-94470857D02*
X219188152Y-94470857D01*
X219188152Y-94470857D02*
X219283390Y-94518476D01*
X219283390Y-94518476D02*
X219331009Y-94566095D01*
X219331009Y-94566095D02*
X219378628Y-94661333D01*
X219378628Y-94661333D02*
X219378628Y-95042285D01*
X218950057Y-94089904D02*
X218902438Y-94042285D01*
X218902438Y-94042285D02*
X218854819Y-93947047D01*
X218854819Y-93947047D02*
X218854819Y-93708952D01*
X218854819Y-93708952D02*
X218902438Y-93613714D01*
X218902438Y-93613714D02*
X218950057Y-93566095D01*
X218950057Y-93566095D02*
X219045295Y-93518476D01*
X219045295Y-93518476D02*
X219140533Y-93518476D01*
X219140533Y-93518476D02*
X219283390Y-93566095D01*
X219283390Y-93566095D02*
X219854819Y-94137523D01*
X219854819Y-94137523D02*
X219854819Y-93518476D01*
X219854819Y-93042285D02*
X219854819Y-92851809D01*
X219854819Y-92851809D02*
X219807200Y-92756571D01*
X219807200Y-92756571D02*
X219759580Y-92708952D01*
X219759580Y-92708952D02*
X219616723Y-92613714D01*
X219616723Y-92613714D02*
X219426247Y-92566095D01*
X219426247Y-92566095D02*
X219045295Y-92566095D01*
X219045295Y-92566095D02*
X218950057Y-92613714D01*
X218950057Y-92613714D02*
X218902438Y-92661333D01*
X218902438Y-92661333D02*
X218854819Y-92756571D01*
X218854819Y-92756571D02*
X218854819Y-92947047D01*
X218854819Y-92947047D02*
X218902438Y-93042285D01*
X218902438Y-93042285D02*
X218950057Y-93089904D01*
X218950057Y-93089904D02*
X219045295Y-93137523D01*
X219045295Y-93137523D02*
X219283390Y-93137523D01*
X219283390Y-93137523D02*
X219378628Y-93089904D01*
X219378628Y-93089904D02*
X219426247Y-93042285D01*
X219426247Y-93042285D02*
X219473866Y-92947047D01*
X219473866Y-92947047D02*
X219473866Y-92756571D01*
X219473866Y-92756571D02*
X219426247Y-92661333D01*
X219426247Y-92661333D02*
X219378628Y-92613714D01*
X219378628Y-92613714D02*
X219283390Y-92566095D01*
X92895714Y-88636104D02*
X92857618Y-88674200D01*
X92857618Y-88674200D02*
X92743333Y-88712295D01*
X92743333Y-88712295D02*
X92667142Y-88712295D01*
X92667142Y-88712295D02*
X92552856Y-88674200D01*
X92552856Y-88674200D02*
X92476666Y-88598009D01*
X92476666Y-88598009D02*
X92438571Y-88521819D01*
X92438571Y-88521819D02*
X92400475Y-88369438D01*
X92400475Y-88369438D02*
X92400475Y-88255152D01*
X92400475Y-88255152D02*
X92438571Y-88102771D01*
X92438571Y-88102771D02*
X92476666Y-88026580D01*
X92476666Y-88026580D02*
X92552856Y-87950390D01*
X92552856Y-87950390D02*
X92667142Y-87912295D01*
X92667142Y-87912295D02*
X92743333Y-87912295D01*
X92743333Y-87912295D02*
X92857618Y-87950390D01*
X92857618Y-87950390D02*
X92895714Y-87988485D01*
X93657618Y-88712295D02*
X93200475Y-88712295D01*
X93429047Y-88712295D02*
X93429047Y-87912295D01*
X93429047Y-87912295D02*
X93352856Y-88026580D01*
X93352856Y-88026580D02*
X93276666Y-88102771D01*
X93276666Y-88102771D02*
X93200475Y-88140866D01*
X94343333Y-87912295D02*
X94190952Y-87912295D01*
X94190952Y-87912295D02*
X94114761Y-87950390D01*
X94114761Y-87950390D02*
X94076666Y-87988485D01*
X94076666Y-87988485D02*
X94000476Y-88102771D01*
X94000476Y-88102771D02*
X93962380Y-88255152D01*
X93962380Y-88255152D02*
X93962380Y-88559914D01*
X93962380Y-88559914D02*
X94000476Y-88636104D01*
X94000476Y-88636104D02*
X94038571Y-88674200D01*
X94038571Y-88674200D02*
X94114761Y-88712295D01*
X94114761Y-88712295D02*
X94267142Y-88712295D01*
X94267142Y-88712295D02*
X94343333Y-88674200D01*
X94343333Y-88674200D02*
X94381428Y-88636104D01*
X94381428Y-88636104D02*
X94419523Y-88559914D01*
X94419523Y-88559914D02*
X94419523Y-88369438D01*
X94419523Y-88369438D02*
X94381428Y-88293247D01*
X94381428Y-88293247D02*
X94343333Y-88255152D01*
X94343333Y-88255152D02*
X94267142Y-88217057D01*
X94267142Y-88217057D02*
X94114761Y-88217057D01*
X94114761Y-88217057D02*
X94038571Y-88255152D01*
X94038571Y-88255152D02*
X94000476Y-88293247D01*
X94000476Y-88293247D02*
X93962380Y-88369438D01*
D11*
X115688095Y-105885419D02*
X115688095Y-104885419D01*
X115688095Y-104885419D02*
X116259523Y-105885419D01*
X116259523Y-105885419D02*
X116259523Y-104885419D01*
X117211904Y-104885419D02*
X116735714Y-104885419D01*
X116735714Y-104885419D02*
X116688095Y-105361609D01*
X116688095Y-105361609D02*
X116735714Y-105313990D01*
X116735714Y-105313990D02*
X116830952Y-105266371D01*
X116830952Y-105266371D02*
X117069047Y-105266371D01*
X117069047Y-105266371D02*
X117164285Y-105313990D01*
X117164285Y-105313990D02*
X117211904Y-105361609D01*
X117211904Y-105361609D02*
X117259523Y-105456847D01*
X117259523Y-105456847D02*
X117259523Y-105694942D01*
X117259523Y-105694942D02*
X117211904Y-105790180D01*
X117211904Y-105790180D02*
X117164285Y-105837800D01*
X117164285Y-105837800D02*
X117069047Y-105885419D01*
X117069047Y-105885419D02*
X116830952Y-105885419D01*
X116830952Y-105885419D02*
X116735714Y-105837800D01*
X116735714Y-105837800D02*
X116688095Y-105790180D01*
D12*
X214254761Y-97250057D02*
X214159523Y-97202438D01*
X214159523Y-97202438D02*
X214064285Y-97107200D01*
X214064285Y-97107200D02*
X213921428Y-96964342D01*
X213921428Y-96964342D02*
X213826190Y-96916723D01*
X213826190Y-96916723D02*
X213730952Y-96916723D01*
X213778571Y-97154819D02*
X213683333Y-97107200D01*
X213683333Y-97107200D02*
X213588095Y-97011961D01*
X213588095Y-97011961D02*
X213540476Y-96821485D01*
X213540476Y-96821485D02*
X213540476Y-96488152D01*
X213540476Y-96488152D02*
X213588095Y-96297676D01*
X213588095Y-96297676D02*
X213683333Y-96202438D01*
X213683333Y-96202438D02*
X213778571Y-96154819D01*
X213778571Y-96154819D02*
X213969047Y-96154819D01*
X213969047Y-96154819D02*
X214064285Y-96202438D01*
X214064285Y-96202438D02*
X214159523Y-96297676D01*
X214159523Y-96297676D02*
X214207142Y-96488152D01*
X214207142Y-96488152D02*
X214207142Y-96821485D01*
X214207142Y-96821485D02*
X214159523Y-97011961D01*
X214159523Y-97011961D02*
X214064285Y-97107200D01*
X214064285Y-97107200D02*
X213969047Y-97154819D01*
X213969047Y-97154819D02*
X213778571Y-97154819D01*
X214588095Y-96250057D02*
X214635714Y-96202438D01*
X214635714Y-96202438D02*
X214730952Y-96154819D01*
X214730952Y-96154819D02*
X214969047Y-96154819D01*
X214969047Y-96154819D02*
X215064285Y-96202438D01*
X215064285Y-96202438D02*
X215111904Y-96250057D01*
X215111904Y-96250057D02*
X215159523Y-96345295D01*
X215159523Y-96345295D02*
X215159523Y-96440533D01*
X215159523Y-96440533D02*
X215111904Y-96583390D01*
X215111904Y-96583390D02*
X214540476Y-97154819D01*
X214540476Y-97154819D02*
X215159523Y-97154819D01*
X99935714Y-85189104D02*
X99897618Y-85227200D01*
X99897618Y-85227200D02*
X99783333Y-85265295D01*
X99783333Y-85265295D02*
X99707142Y-85265295D01*
X99707142Y-85265295D02*
X99592856Y-85227200D01*
X99592856Y-85227200D02*
X99516666Y-85151009D01*
X99516666Y-85151009D02*
X99478571Y-85074819D01*
X99478571Y-85074819D02*
X99440475Y-84922438D01*
X99440475Y-84922438D02*
X99440475Y-84808152D01*
X99440475Y-84808152D02*
X99478571Y-84655771D01*
X99478571Y-84655771D02*
X99516666Y-84579580D01*
X99516666Y-84579580D02*
X99592856Y-84503390D01*
X99592856Y-84503390D02*
X99707142Y-84465295D01*
X99707142Y-84465295D02*
X99783333Y-84465295D01*
X99783333Y-84465295D02*
X99897618Y-84503390D01*
X99897618Y-84503390D02*
X99935714Y-84541485D01*
X100697618Y-85265295D02*
X100240475Y-85265295D01*
X100469047Y-85265295D02*
X100469047Y-84465295D01*
X100469047Y-84465295D02*
X100392856Y-84579580D01*
X100392856Y-84579580D02*
X100316666Y-84655771D01*
X100316666Y-84655771D02*
X100240475Y-84693866D01*
X101459523Y-85265295D02*
X101002380Y-85265295D01*
X101230952Y-85265295D02*
X101230952Y-84465295D01*
X101230952Y-84465295D02*
X101154761Y-84579580D01*
X101154761Y-84579580D02*
X101078571Y-84655771D01*
X101078571Y-84655771D02*
X101002380Y-84693866D01*
X206183333Y-91509580D02*
X206135714Y-91557200D01*
X206135714Y-91557200D02*
X205992857Y-91604819D01*
X205992857Y-91604819D02*
X205897619Y-91604819D01*
X205897619Y-91604819D02*
X205754762Y-91557200D01*
X205754762Y-91557200D02*
X205659524Y-91461961D01*
X205659524Y-91461961D02*
X205611905Y-91366723D01*
X205611905Y-91366723D02*
X205564286Y-91176247D01*
X205564286Y-91176247D02*
X205564286Y-91033390D01*
X205564286Y-91033390D02*
X205611905Y-90842914D01*
X205611905Y-90842914D02*
X205659524Y-90747676D01*
X205659524Y-90747676D02*
X205754762Y-90652438D01*
X205754762Y-90652438D02*
X205897619Y-90604819D01*
X205897619Y-90604819D02*
X205992857Y-90604819D01*
X205992857Y-90604819D02*
X206135714Y-90652438D01*
X206135714Y-90652438D02*
X206183333Y-90700057D01*
X207088095Y-90604819D02*
X206611905Y-90604819D01*
X206611905Y-90604819D02*
X206564286Y-91081009D01*
X206564286Y-91081009D02*
X206611905Y-91033390D01*
X206611905Y-91033390D02*
X206707143Y-90985771D01*
X206707143Y-90985771D02*
X206945238Y-90985771D01*
X206945238Y-90985771D02*
X207040476Y-91033390D01*
X207040476Y-91033390D02*
X207088095Y-91081009D01*
X207088095Y-91081009D02*
X207135714Y-91176247D01*
X207135714Y-91176247D02*
X207135714Y-91414342D01*
X207135714Y-91414342D02*
X207088095Y-91509580D01*
X207088095Y-91509580D02*
X207040476Y-91557200D01*
X207040476Y-91557200D02*
X206945238Y-91604819D01*
X206945238Y-91604819D02*
X206707143Y-91604819D01*
X206707143Y-91604819D02*
X206611905Y-91557200D01*
X206611905Y-91557200D02*
X206564286Y-91509580D01*
D13*
X191574318Y-89339762D02*
X190304318Y-89339762D01*
X191453365Y-88009285D02*
X191513842Y-88069761D01*
X191513842Y-88069761D02*
X191574318Y-88251190D01*
X191574318Y-88251190D02*
X191574318Y-88372142D01*
X191574318Y-88372142D02*
X191513842Y-88553571D01*
X191513842Y-88553571D02*
X191392889Y-88674523D01*
X191392889Y-88674523D02*
X191271937Y-88735000D01*
X191271937Y-88735000D02*
X191030032Y-88795476D01*
X191030032Y-88795476D02*
X190848603Y-88795476D01*
X190848603Y-88795476D02*
X190606699Y-88735000D01*
X190606699Y-88735000D02*
X190485746Y-88674523D01*
X190485746Y-88674523D02*
X190364794Y-88553571D01*
X190364794Y-88553571D02*
X190304318Y-88372142D01*
X190304318Y-88372142D02*
X190304318Y-88251190D01*
X190304318Y-88251190D02*
X190364794Y-88069761D01*
X190364794Y-88069761D02*
X190425270Y-88009285D01*
X190304318Y-87585952D02*
X190304318Y-86739285D01*
X190304318Y-86739285D02*
X191574318Y-87283571D01*
D12*
X191207142Y-96854819D02*
X190873809Y-96378628D01*
X190635714Y-96854819D02*
X190635714Y-95854819D01*
X190635714Y-95854819D02*
X191016666Y-95854819D01*
X191016666Y-95854819D02*
X191111904Y-95902438D01*
X191111904Y-95902438D02*
X191159523Y-95950057D01*
X191159523Y-95950057D02*
X191207142Y-96045295D01*
X191207142Y-96045295D02*
X191207142Y-96188152D01*
X191207142Y-96188152D02*
X191159523Y-96283390D01*
X191159523Y-96283390D02*
X191111904Y-96331009D01*
X191111904Y-96331009D02*
X191016666Y-96378628D01*
X191016666Y-96378628D02*
X190635714Y-96378628D01*
X191540476Y-95854819D02*
X192159523Y-95854819D01*
X192159523Y-95854819D02*
X191826190Y-96235771D01*
X191826190Y-96235771D02*
X191969047Y-96235771D01*
X191969047Y-96235771D02*
X192064285Y-96283390D01*
X192064285Y-96283390D02*
X192111904Y-96331009D01*
X192111904Y-96331009D02*
X192159523Y-96426247D01*
X192159523Y-96426247D02*
X192159523Y-96664342D01*
X192159523Y-96664342D02*
X192111904Y-96759580D01*
X192111904Y-96759580D02*
X192064285Y-96807200D01*
X192064285Y-96807200D02*
X191969047Y-96854819D01*
X191969047Y-96854819D02*
X191683333Y-96854819D01*
X191683333Y-96854819D02*
X191588095Y-96807200D01*
X191588095Y-96807200D02*
X191540476Y-96759580D01*
X192492857Y-95854819D02*
X193159523Y-95854819D01*
X193159523Y-95854819D02*
X192730952Y-96854819D01*
X201054819Y-94270857D02*
X200578628Y-94604190D01*
X201054819Y-94842285D02*
X200054819Y-94842285D01*
X200054819Y-94842285D02*
X200054819Y-94461333D01*
X200054819Y-94461333D02*
X200102438Y-94366095D01*
X200102438Y-94366095D02*
X200150057Y-94318476D01*
X200150057Y-94318476D02*
X200245295Y-94270857D01*
X200245295Y-94270857D02*
X200388152Y-94270857D01*
X200388152Y-94270857D02*
X200483390Y-94318476D01*
X200483390Y-94318476D02*
X200531009Y-94366095D01*
X200531009Y-94366095D02*
X200578628Y-94461333D01*
X200578628Y-94461333D02*
X200578628Y-94842285D01*
X200150057Y-93889904D02*
X200102438Y-93842285D01*
X200102438Y-93842285D02*
X200054819Y-93747047D01*
X200054819Y-93747047D02*
X200054819Y-93508952D01*
X200054819Y-93508952D02*
X200102438Y-93413714D01*
X200102438Y-93413714D02*
X200150057Y-93366095D01*
X200150057Y-93366095D02*
X200245295Y-93318476D01*
X200245295Y-93318476D02*
X200340533Y-93318476D01*
X200340533Y-93318476D02*
X200483390Y-93366095D01*
X200483390Y-93366095D02*
X201054819Y-93937523D01*
X201054819Y-93937523D02*
X201054819Y-93318476D01*
X200388152Y-92461333D02*
X201054819Y-92461333D01*
X200007200Y-92699428D02*
X200721485Y-92937523D01*
X200721485Y-92937523D02*
X200721485Y-92318476D01*
X116354761Y-97378057D02*
X116259523Y-97330438D01*
X116259523Y-97330438D02*
X116164285Y-97235200D01*
X116164285Y-97235200D02*
X116021428Y-97092342D01*
X116021428Y-97092342D02*
X115926190Y-97044723D01*
X115926190Y-97044723D02*
X115830952Y-97044723D01*
X115878571Y-97282819D02*
X115783333Y-97235200D01*
X115783333Y-97235200D02*
X115688095Y-97139961D01*
X115688095Y-97139961D02*
X115640476Y-96949485D01*
X115640476Y-96949485D02*
X115640476Y-96616152D01*
X115640476Y-96616152D02*
X115688095Y-96425676D01*
X115688095Y-96425676D02*
X115783333Y-96330438D01*
X115783333Y-96330438D02*
X115878571Y-96282819D01*
X115878571Y-96282819D02*
X116069047Y-96282819D01*
X116069047Y-96282819D02*
X116164285Y-96330438D01*
X116164285Y-96330438D02*
X116259523Y-96425676D01*
X116259523Y-96425676D02*
X116307142Y-96616152D01*
X116307142Y-96616152D02*
X116307142Y-96949485D01*
X116307142Y-96949485D02*
X116259523Y-97139961D01*
X116259523Y-97139961D02*
X116164285Y-97235200D01*
X116164285Y-97235200D02*
X116069047Y-97282819D01*
X116069047Y-97282819D02*
X115878571Y-97282819D01*
X117164285Y-96282819D02*
X116973809Y-96282819D01*
X116973809Y-96282819D02*
X116878571Y-96330438D01*
X116878571Y-96330438D02*
X116830952Y-96378057D01*
X116830952Y-96378057D02*
X116735714Y-96520914D01*
X116735714Y-96520914D02*
X116688095Y-96711390D01*
X116688095Y-96711390D02*
X116688095Y-97092342D01*
X116688095Y-97092342D02*
X116735714Y-97187580D01*
X116735714Y-97187580D02*
X116783333Y-97235200D01*
X116783333Y-97235200D02*
X116878571Y-97282819D01*
X116878571Y-97282819D02*
X117069047Y-97282819D01*
X117069047Y-97282819D02*
X117164285Y-97235200D01*
X117164285Y-97235200D02*
X117211904Y-97187580D01*
X117211904Y-97187580D02*
X117259523Y-97092342D01*
X117259523Y-97092342D02*
X117259523Y-96854247D01*
X117259523Y-96854247D02*
X117211904Y-96759009D01*
X117211904Y-96759009D02*
X117164285Y-96711390D01*
X117164285Y-96711390D02*
X117069047Y-96663771D01*
X117069047Y-96663771D02*
X116878571Y-96663771D01*
X116878571Y-96663771D02*
X116783333Y-96711390D01*
X116783333Y-96711390D02*
X116735714Y-96759009D01*
X116735714Y-96759009D02*
X116688095Y-96854247D01*
X92854819Y-94492857D02*
X92378628Y-94826190D01*
X92854819Y-95064285D02*
X91854819Y-95064285D01*
X91854819Y-95064285D02*
X91854819Y-94683333D01*
X91854819Y-94683333D02*
X91902438Y-94588095D01*
X91902438Y-94588095D02*
X91950057Y-94540476D01*
X91950057Y-94540476D02*
X92045295Y-94492857D01*
X92045295Y-94492857D02*
X92188152Y-94492857D01*
X92188152Y-94492857D02*
X92283390Y-94540476D01*
X92283390Y-94540476D02*
X92331009Y-94588095D01*
X92331009Y-94588095D02*
X92378628Y-94683333D01*
X92378628Y-94683333D02*
X92378628Y-95064285D01*
X92188152Y-93635714D02*
X92854819Y-93635714D01*
X91807200Y-93873809D02*
X92521485Y-94111904D01*
X92521485Y-94111904D02*
X92521485Y-93492857D01*
X92854819Y-92588095D02*
X92854819Y-93159523D01*
X92854819Y-92873809D02*
X91854819Y-92873809D01*
X91854819Y-92873809D02*
X91997676Y-92969047D01*
X91997676Y-92969047D02*
X92092914Y-93064285D01*
X92092914Y-93064285D02*
X92140533Y-93159523D01*
X195304761Y-97100057D02*
X195209523Y-97052438D01*
X195209523Y-97052438D02*
X195114285Y-96957200D01*
X195114285Y-96957200D02*
X194971428Y-96814342D01*
X194971428Y-96814342D02*
X194876190Y-96766723D01*
X194876190Y-96766723D02*
X194780952Y-96766723D01*
X194828571Y-97004819D02*
X194733333Y-96957200D01*
X194733333Y-96957200D02*
X194638095Y-96861961D01*
X194638095Y-96861961D02*
X194590476Y-96671485D01*
X194590476Y-96671485D02*
X194590476Y-96338152D01*
X194590476Y-96338152D02*
X194638095Y-96147676D01*
X194638095Y-96147676D02*
X194733333Y-96052438D01*
X194733333Y-96052438D02*
X194828571Y-96004819D01*
X194828571Y-96004819D02*
X195019047Y-96004819D01*
X195019047Y-96004819D02*
X195114285Y-96052438D01*
X195114285Y-96052438D02*
X195209523Y-96147676D01*
X195209523Y-96147676D02*
X195257142Y-96338152D01*
X195257142Y-96338152D02*
X195257142Y-96671485D01*
X195257142Y-96671485D02*
X195209523Y-96861961D01*
X195209523Y-96861961D02*
X195114285Y-96957200D01*
X195114285Y-96957200D02*
X195019047Y-97004819D01*
X195019047Y-97004819D02*
X194828571Y-97004819D01*
X195590476Y-96004819D02*
X196209523Y-96004819D01*
X196209523Y-96004819D02*
X195876190Y-96385771D01*
X195876190Y-96385771D02*
X196019047Y-96385771D01*
X196019047Y-96385771D02*
X196114285Y-96433390D01*
X196114285Y-96433390D02*
X196161904Y-96481009D01*
X196161904Y-96481009D02*
X196209523Y-96576247D01*
X196209523Y-96576247D02*
X196209523Y-96814342D01*
X196209523Y-96814342D02*
X196161904Y-96909580D01*
X196161904Y-96909580D02*
X196114285Y-96957200D01*
X196114285Y-96957200D02*
X196019047Y-97004819D01*
X196019047Y-97004819D02*
X195733333Y-97004819D01*
X195733333Y-97004819D02*
X195638095Y-96957200D01*
X195638095Y-96957200D02*
X195590476Y-96909580D01*
D13*
X162924318Y-119239762D02*
X161654318Y-119239762D01*
X162803365Y-117909285D02*
X162863842Y-117969761D01*
X162863842Y-117969761D02*
X162924318Y-118151190D01*
X162924318Y-118151190D02*
X162924318Y-118272142D01*
X162924318Y-118272142D02*
X162863842Y-118453571D01*
X162863842Y-118453571D02*
X162742889Y-118574523D01*
X162742889Y-118574523D02*
X162621937Y-118635000D01*
X162621937Y-118635000D02*
X162380032Y-118695476D01*
X162380032Y-118695476D02*
X162198603Y-118695476D01*
X162198603Y-118695476D02*
X161956699Y-118635000D01*
X161956699Y-118635000D02*
X161835746Y-118574523D01*
X161835746Y-118574523D02*
X161714794Y-118453571D01*
X161714794Y-118453571D02*
X161654318Y-118272142D01*
X161654318Y-118272142D02*
X161654318Y-118151190D01*
X161654318Y-118151190D02*
X161714794Y-117969761D01*
X161714794Y-117969761D02*
X161775270Y-117909285D01*
X161654318Y-116820714D02*
X161654318Y-117062619D01*
X161654318Y-117062619D02*
X161714794Y-117183571D01*
X161714794Y-117183571D02*
X161775270Y-117244047D01*
X161775270Y-117244047D02*
X161956699Y-117365000D01*
X161956699Y-117365000D02*
X162198603Y-117425476D01*
X162198603Y-117425476D02*
X162682413Y-117425476D01*
X162682413Y-117425476D02*
X162803365Y-117365000D01*
X162803365Y-117365000D02*
X162863842Y-117304523D01*
X162863842Y-117304523D02*
X162924318Y-117183571D01*
X162924318Y-117183571D02*
X162924318Y-116941666D01*
X162924318Y-116941666D02*
X162863842Y-116820714D01*
X162863842Y-116820714D02*
X162803365Y-116760238D01*
X162803365Y-116760238D02*
X162682413Y-116699761D01*
X162682413Y-116699761D02*
X162380032Y-116699761D01*
X162380032Y-116699761D02*
X162259080Y-116760238D01*
X162259080Y-116760238D02*
X162198603Y-116820714D01*
X162198603Y-116820714D02*
X162138127Y-116941666D01*
X162138127Y-116941666D02*
X162138127Y-117183571D01*
X162138127Y-117183571D02*
X162198603Y-117304523D01*
X162198603Y-117304523D02*
X162259080Y-117365000D01*
X162259080Y-117365000D02*
X162380032Y-117425476D01*
D12*
X170854819Y-94320857D02*
X170378628Y-94654190D01*
X170854819Y-94892285D02*
X169854819Y-94892285D01*
X169854819Y-94892285D02*
X169854819Y-94511333D01*
X169854819Y-94511333D02*
X169902438Y-94416095D01*
X169902438Y-94416095D02*
X169950057Y-94368476D01*
X169950057Y-94368476D02*
X170045295Y-94320857D01*
X170045295Y-94320857D02*
X170188152Y-94320857D01*
X170188152Y-94320857D02*
X170283390Y-94368476D01*
X170283390Y-94368476D02*
X170331009Y-94416095D01*
X170331009Y-94416095D02*
X170378628Y-94511333D01*
X170378628Y-94511333D02*
X170378628Y-94892285D01*
X169950057Y-93939904D02*
X169902438Y-93892285D01*
X169902438Y-93892285D02*
X169854819Y-93797047D01*
X169854819Y-93797047D02*
X169854819Y-93558952D01*
X169854819Y-93558952D02*
X169902438Y-93463714D01*
X169902438Y-93463714D02*
X169950057Y-93416095D01*
X169950057Y-93416095D02*
X170045295Y-93368476D01*
X170045295Y-93368476D02*
X170140533Y-93368476D01*
X170140533Y-93368476D02*
X170283390Y-93416095D01*
X170283390Y-93416095D02*
X170854819Y-93987523D01*
X170854819Y-93987523D02*
X170854819Y-93368476D01*
X169854819Y-92511333D02*
X169854819Y-92701809D01*
X169854819Y-92701809D02*
X169902438Y-92797047D01*
X169902438Y-92797047D02*
X169950057Y-92844666D01*
X169950057Y-92844666D02*
X170092914Y-92939904D01*
X170092914Y-92939904D02*
X170283390Y-92987523D01*
X170283390Y-92987523D02*
X170664342Y-92987523D01*
X170664342Y-92987523D02*
X170759580Y-92939904D01*
X170759580Y-92939904D02*
X170807200Y-92892285D01*
X170807200Y-92892285D02*
X170854819Y-92797047D01*
X170854819Y-92797047D02*
X170854819Y-92606571D01*
X170854819Y-92606571D02*
X170807200Y-92511333D01*
X170807200Y-92511333D02*
X170759580Y-92463714D01*
X170759580Y-92463714D02*
X170664342Y-92416095D01*
X170664342Y-92416095D02*
X170426247Y-92416095D01*
X170426247Y-92416095D02*
X170331009Y-92463714D01*
X170331009Y-92463714D02*
X170283390Y-92511333D01*
X170283390Y-92511333D02*
X170235771Y-92606571D01*
X170235771Y-92606571D02*
X170235771Y-92797047D01*
X170235771Y-92797047D02*
X170283390Y-92892285D01*
X170283390Y-92892285D02*
X170331009Y-92939904D01*
X170331009Y-92939904D02*
X170426247Y-92987523D01*
X201857142Y-82159580D02*
X201809523Y-82207200D01*
X201809523Y-82207200D02*
X201666666Y-82254819D01*
X201666666Y-82254819D02*
X201571428Y-82254819D01*
X201571428Y-82254819D02*
X201428571Y-82207200D01*
X201428571Y-82207200D02*
X201333333Y-82111961D01*
X201333333Y-82111961D02*
X201285714Y-82016723D01*
X201285714Y-82016723D02*
X201238095Y-81826247D01*
X201238095Y-81826247D02*
X201238095Y-81683390D01*
X201238095Y-81683390D02*
X201285714Y-81492914D01*
X201285714Y-81492914D02*
X201333333Y-81397676D01*
X201333333Y-81397676D02*
X201428571Y-81302438D01*
X201428571Y-81302438D02*
X201571428Y-81254819D01*
X201571428Y-81254819D02*
X201666666Y-81254819D01*
X201666666Y-81254819D02*
X201809523Y-81302438D01*
X201809523Y-81302438D02*
X201857142Y-81350057D01*
X202238095Y-81350057D02*
X202285714Y-81302438D01*
X202285714Y-81302438D02*
X202380952Y-81254819D01*
X202380952Y-81254819D02*
X202619047Y-81254819D01*
X202619047Y-81254819D02*
X202714285Y-81302438D01*
X202714285Y-81302438D02*
X202761904Y-81350057D01*
X202761904Y-81350057D02*
X202809523Y-81445295D01*
X202809523Y-81445295D02*
X202809523Y-81540533D01*
X202809523Y-81540533D02*
X202761904Y-81683390D01*
X202761904Y-81683390D02*
X202190476Y-82254819D01*
X202190476Y-82254819D02*
X202809523Y-82254819D01*
X203666666Y-81254819D02*
X203476190Y-81254819D01*
X203476190Y-81254819D02*
X203380952Y-81302438D01*
X203380952Y-81302438D02*
X203333333Y-81350057D01*
X203333333Y-81350057D02*
X203238095Y-81492914D01*
X203238095Y-81492914D02*
X203190476Y-81683390D01*
X203190476Y-81683390D02*
X203190476Y-82064342D01*
X203190476Y-82064342D02*
X203238095Y-82159580D01*
X203238095Y-82159580D02*
X203285714Y-82207200D01*
X203285714Y-82207200D02*
X203380952Y-82254819D01*
X203380952Y-82254819D02*
X203571428Y-82254819D01*
X203571428Y-82254819D02*
X203666666Y-82207200D01*
X203666666Y-82207200D02*
X203714285Y-82159580D01*
X203714285Y-82159580D02*
X203761904Y-82064342D01*
X203761904Y-82064342D02*
X203761904Y-81826247D01*
X203761904Y-81826247D02*
X203714285Y-81731009D01*
X203714285Y-81731009D02*
X203666666Y-81683390D01*
X203666666Y-81683390D02*
X203571428Y-81635771D01*
X203571428Y-81635771D02*
X203380952Y-81635771D01*
X203380952Y-81635771D02*
X203285714Y-81683390D01*
X203285714Y-81683390D02*
X203238095Y-81731009D01*
X203238095Y-81731009D02*
X203190476Y-81826247D01*
X89054819Y-85070857D02*
X88578628Y-85404190D01*
X89054819Y-85642285D02*
X88054819Y-85642285D01*
X88054819Y-85642285D02*
X88054819Y-85261333D01*
X88054819Y-85261333D02*
X88102438Y-85166095D01*
X88102438Y-85166095D02*
X88150057Y-85118476D01*
X88150057Y-85118476D02*
X88245295Y-85070857D01*
X88245295Y-85070857D02*
X88388152Y-85070857D01*
X88388152Y-85070857D02*
X88483390Y-85118476D01*
X88483390Y-85118476D02*
X88531009Y-85166095D01*
X88531009Y-85166095D02*
X88578628Y-85261333D01*
X88578628Y-85261333D02*
X88578628Y-85642285D01*
X88388152Y-84213714D02*
X89054819Y-84213714D01*
X88007200Y-84451809D02*
X88721485Y-84689904D01*
X88721485Y-84689904D02*
X88721485Y-84070857D01*
X88150057Y-83737523D02*
X88102438Y-83689904D01*
X88102438Y-83689904D02*
X88054819Y-83594666D01*
X88054819Y-83594666D02*
X88054819Y-83356571D01*
X88054819Y-83356571D02*
X88102438Y-83261333D01*
X88102438Y-83261333D02*
X88150057Y-83213714D01*
X88150057Y-83213714D02*
X88245295Y-83166095D01*
X88245295Y-83166095D02*
X88340533Y-83166095D01*
X88340533Y-83166095D02*
X88483390Y-83213714D01*
X88483390Y-83213714D02*
X89054819Y-83785142D01*
X89054819Y-83785142D02*
X89054819Y-83166095D01*
X209333333Y-83832819D02*
X209000000Y-83356628D01*
X208761905Y-83832819D02*
X208761905Y-82832819D01*
X208761905Y-82832819D02*
X209142857Y-82832819D01*
X209142857Y-82832819D02*
X209238095Y-82880438D01*
X209238095Y-82880438D02*
X209285714Y-82928057D01*
X209285714Y-82928057D02*
X209333333Y-83023295D01*
X209333333Y-83023295D02*
X209333333Y-83166152D01*
X209333333Y-83166152D02*
X209285714Y-83261390D01*
X209285714Y-83261390D02*
X209238095Y-83309009D01*
X209238095Y-83309009D02*
X209142857Y-83356628D01*
X209142857Y-83356628D02*
X208761905Y-83356628D01*
X210285714Y-83832819D02*
X209714286Y-83832819D01*
X210000000Y-83832819D02*
X210000000Y-82832819D01*
X210000000Y-82832819D02*
X209904762Y-82975676D01*
X209904762Y-82975676D02*
X209809524Y-83070914D01*
X209809524Y-83070914D02*
X209714286Y-83118533D01*
D13*
X153122856Y-84337080D02*
X153546190Y-84337080D01*
X153727618Y-85002318D02*
X153122856Y-85002318D01*
X153122856Y-85002318D02*
X153122856Y-83732318D01*
X153122856Y-83732318D02*
X153727618Y-83732318D01*
X154271904Y-85002318D02*
X154271904Y-83732318D01*
X154271904Y-83732318D02*
X154997619Y-85002318D01*
X154997619Y-85002318D02*
X154997619Y-83732318D01*
X156328095Y-84881365D02*
X156267619Y-84941842D01*
X156267619Y-84941842D02*
X156086190Y-85002318D01*
X156086190Y-85002318D02*
X155965238Y-85002318D01*
X155965238Y-85002318D02*
X155783809Y-84941842D01*
X155783809Y-84941842D02*
X155662857Y-84820889D01*
X155662857Y-84820889D02*
X155602380Y-84699937D01*
X155602380Y-84699937D02*
X155541904Y-84458032D01*
X155541904Y-84458032D02*
X155541904Y-84276603D01*
X155541904Y-84276603D02*
X155602380Y-84034699D01*
X155602380Y-84034699D02*
X155662857Y-83913746D01*
X155662857Y-83913746D02*
X155783809Y-83792794D01*
X155783809Y-83792794D02*
X155965238Y-83732318D01*
X155965238Y-83732318D02*
X156086190Y-83732318D01*
X156086190Y-83732318D02*
X156267619Y-83792794D01*
X156267619Y-83792794D02*
X156328095Y-83853270D01*
X157537619Y-85002318D02*
X156811904Y-85002318D01*
X157174761Y-85002318D02*
X157174761Y-83732318D01*
X157174761Y-83732318D02*
X157053809Y-83913746D01*
X157053809Y-83913746D02*
X156932857Y-84034699D01*
X156932857Y-84034699D02*
X156811904Y-84095175D01*
D11*
X96688095Y-105885419D02*
X96688095Y-104885419D01*
X96688095Y-104885419D02*
X97259523Y-105885419D01*
X97259523Y-105885419D02*
X97259523Y-104885419D01*
X98164285Y-104885419D02*
X97973809Y-104885419D01*
X97973809Y-104885419D02*
X97878571Y-104933038D01*
X97878571Y-104933038D02*
X97830952Y-104980657D01*
X97830952Y-104980657D02*
X97735714Y-105123514D01*
X97735714Y-105123514D02*
X97688095Y-105313990D01*
X97688095Y-105313990D02*
X97688095Y-105694942D01*
X97688095Y-105694942D02*
X97735714Y-105790180D01*
X97735714Y-105790180D02*
X97783333Y-105837800D01*
X97783333Y-105837800D02*
X97878571Y-105885419D01*
X97878571Y-105885419D02*
X98069047Y-105885419D01*
X98069047Y-105885419D02*
X98164285Y-105837800D01*
X98164285Y-105837800D02*
X98211904Y-105790180D01*
X98211904Y-105790180D02*
X98259523Y-105694942D01*
X98259523Y-105694942D02*
X98259523Y-105456847D01*
X98259523Y-105456847D02*
X98211904Y-105361609D01*
X98211904Y-105361609D02*
X98164285Y-105313990D01*
X98164285Y-105313990D02*
X98069047Y-105266371D01*
X98069047Y-105266371D02*
X97878571Y-105266371D01*
X97878571Y-105266371D02*
X97783333Y-105313990D01*
X97783333Y-105313990D02*
X97735714Y-105361609D01*
X97735714Y-105361609D02*
X97688095Y-105456847D01*
D12*
X98692295Y-84444285D02*
X98311342Y-84710952D01*
X98692295Y-84901428D02*
X97892295Y-84901428D01*
X97892295Y-84901428D02*
X97892295Y-84596666D01*
X97892295Y-84596666D02*
X97930390Y-84520476D01*
X97930390Y-84520476D02*
X97968485Y-84482381D01*
X97968485Y-84482381D02*
X98044676Y-84444285D01*
X98044676Y-84444285D02*
X98158961Y-84444285D01*
X98158961Y-84444285D02*
X98235152Y-84482381D01*
X98235152Y-84482381D02*
X98273247Y-84520476D01*
X98273247Y-84520476D02*
X98311342Y-84596666D01*
X98311342Y-84596666D02*
X98311342Y-84901428D01*
X98158961Y-83758571D02*
X98692295Y-83758571D01*
X97854200Y-83949047D02*
X98425628Y-84139524D01*
X98425628Y-84139524D02*
X98425628Y-83644285D01*
X97892295Y-83415714D02*
X97892295Y-82920476D01*
X97892295Y-82920476D02*
X98197057Y-83187142D01*
X98197057Y-83187142D02*
X98197057Y-83072857D01*
X98197057Y-83072857D02*
X98235152Y-82996666D01*
X98235152Y-82996666D02*
X98273247Y-82958571D01*
X98273247Y-82958571D02*
X98349438Y-82920476D01*
X98349438Y-82920476D02*
X98539914Y-82920476D01*
X98539914Y-82920476D02*
X98616104Y-82958571D01*
X98616104Y-82958571D02*
X98654200Y-82996666D01*
X98654200Y-82996666D02*
X98692295Y-83072857D01*
X98692295Y-83072857D02*
X98692295Y-83301428D01*
X98692295Y-83301428D02*
X98654200Y-83377619D01*
X98654200Y-83377619D02*
X98616104Y-83415714D01*
X213983333Y-76964819D02*
X213650000Y-76488628D01*
X213411905Y-76964819D02*
X213411905Y-75964819D01*
X213411905Y-75964819D02*
X213792857Y-75964819D01*
X213792857Y-75964819D02*
X213888095Y-76012438D01*
X213888095Y-76012438D02*
X213935714Y-76060057D01*
X213935714Y-76060057D02*
X213983333Y-76155295D01*
X213983333Y-76155295D02*
X213983333Y-76298152D01*
X213983333Y-76298152D02*
X213935714Y-76393390D01*
X213935714Y-76393390D02*
X213888095Y-76441009D01*
X213888095Y-76441009D02*
X213792857Y-76488628D01*
X213792857Y-76488628D02*
X213411905Y-76488628D01*
X214316667Y-75964819D02*
X214935714Y-75964819D01*
X214935714Y-75964819D02*
X214602381Y-76345771D01*
X214602381Y-76345771D02*
X214745238Y-76345771D01*
X214745238Y-76345771D02*
X214840476Y-76393390D01*
X214840476Y-76393390D02*
X214888095Y-76441009D01*
X214888095Y-76441009D02*
X214935714Y-76536247D01*
X214935714Y-76536247D02*
X214935714Y-76774342D01*
X214935714Y-76774342D02*
X214888095Y-76869580D01*
X214888095Y-76869580D02*
X214840476Y-76917200D01*
X214840476Y-76917200D02*
X214745238Y-76964819D01*
X214745238Y-76964819D02*
X214459524Y-76964819D01*
X214459524Y-76964819D02*
X214364286Y-76917200D01*
X214364286Y-76917200D02*
X214316667Y-76869580D01*
X121954819Y-94670857D02*
X121478628Y-95004190D01*
X121954819Y-95242285D02*
X120954819Y-95242285D01*
X120954819Y-95242285D02*
X120954819Y-94861333D01*
X120954819Y-94861333D02*
X121002438Y-94766095D01*
X121002438Y-94766095D02*
X121050057Y-94718476D01*
X121050057Y-94718476D02*
X121145295Y-94670857D01*
X121145295Y-94670857D02*
X121288152Y-94670857D01*
X121288152Y-94670857D02*
X121383390Y-94718476D01*
X121383390Y-94718476D02*
X121431009Y-94766095D01*
X121431009Y-94766095D02*
X121478628Y-94861333D01*
X121478628Y-94861333D02*
X121478628Y-95242285D01*
X120954819Y-94337523D02*
X120954819Y-93718476D01*
X120954819Y-93718476D02*
X121335771Y-94051809D01*
X121335771Y-94051809D02*
X121335771Y-93908952D01*
X121335771Y-93908952D02*
X121383390Y-93813714D01*
X121383390Y-93813714D02*
X121431009Y-93766095D01*
X121431009Y-93766095D02*
X121526247Y-93718476D01*
X121526247Y-93718476D02*
X121764342Y-93718476D01*
X121764342Y-93718476D02*
X121859580Y-93766095D01*
X121859580Y-93766095D02*
X121907200Y-93813714D01*
X121907200Y-93813714D02*
X121954819Y-93908952D01*
X121954819Y-93908952D02*
X121954819Y-94194666D01*
X121954819Y-94194666D02*
X121907200Y-94289904D01*
X121907200Y-94289904D02*
X121859580Y-94337523D01*
X121050057Y-93337523D02*
X121002438Y-93289904D01*
X121002438Y-93289904D02*
X120954819Y-93194666D01*
X120954819Y-93194666D02*
X120954819Y-92956571D01*
X120954819Y-92956571D02*
X121002438Y-92861333D01*
X121002438Y-92861333D02*
X121050057Y-92813714D01*
X121050057Y-92813714D02*
X121145295Y-92766095D01*
X121145295Y-92766095D02*
X121240533Y-92766095D01*
X121240533Y-92766095D02*
X121383390Y-92813714D01*
X121383390Y-92813714D02*
X121954819Y-93385142D01*
X121954819Y-93385142D02*
X121954819Y-92766095D01*
X223739580Y-88372857D02*
X223787200Y-88420476D01*
X223787200Y-88420476D02*
X223834819Y-88563333D01*
X223834819Y-88563333D02*
X223834819Y-88658571D01*
X223834819Y-88658571D02*
X223787200Y-88801428D01*
X223787200Y-88801428D02*
X223691961Y-88896666D01*
X223691961Y-88896666D02*
X223596723Y-88944285D01*
X223596723Y-88944285D02*
X223406247Y-88991904D01*
X223406247Y-88991904D02*
X223263390Y-88991904D01*
X223263390Y-88991904D02*
X223072914Y-88944285D01*
X223072914Y-88944285D02*
X222977676Y-88896666D01*
X222977676Y-88896666D02*
X222882438Y-88801428D01*
X222882438Y-88801428D02*
X222834819Y-88658571D01*
X222834819Y-88658571D02*
X222834819Y-88563333D01*
X222834819Y-88563333D02*
X222882438Y-88420476D01*
X222882438Y-88420476D02*
X222930057Y-88372857D01*
X222930057Y-87991904D02*
X222882438Y-87944285D01*
X222882438Y-87944285D02*
X222834819Y-87849047D01*
X222834819Y-87849047D02*
X222834819Y-87610952D01*
X222834819Y-87610952D02*
X222882438Y-87515714D01*
X222882438Y-87515714D02*
X222930057Y-87468095D01*
X222930057Y-87468095D02*
X223025295Y-87420476D01*
X223025295Y-87420476D02*
X223120533Y-87420476D01*
X223120533Y-87420476D02*
X223263390Y-87468095D01*
X223263390Y-87468095D02*
X223834819Y-88039523D01*
X223834819Y-88039523D02*
X223834819Y-87420476D01*
X223168152Y-86563333D02*
X223834819Y-86563333D01*
X222787200Y-86801428D02*
X223501485Y-87039523D01*
X223501485Y-87039523D02*
X223501485Y-86420476D01*
X209654819Y-94442857D02*
X209178628Y-94776190D01*
X209654819Y-95014285D02*
X208654819Y-95014285D01*
X208654819Y-95014285D02*
X208654819Y-94633333D01*
X208654819Y-94633333D02*
X208702438Y-94538095D01*
X208702438Y-94538095D02*
X208750057Y-94490476D01*
X208750057Y-94490476D02*
X208845295Y-94442857D01*
X208845295Y-94442857D02*
X208988152Y-94442857D01*
X208988152Y-94442857D02*
X209083390Y-94490476D01*
X209083390Y-94490476D02*
X209131009Y-94538095D01*
X209131009Y-94538095D02*
X209178628Y-94633333D01*
X209178628Y-94633333D02*
X209178628Y-95014285D01*
X208654819Y-94109523D02*
X208654819Y-93490476D01*
X208654819Y-93490476D02*
X209035771Y-93823809D01*
X209035771Y-93823809D02*
X209035771Y-93680952D01*
X209035771Y-93680952D02*
X209083390Y-93585714D01*
X209083390Y-93585714D02*
X209131009Y-93538095D01*
X209131009Y-93538095D02*
X209226247Y-93490476D01*
X209226247Y-93490476D02*
X209464342Y-93490476D01*
X209464342Y-93490476D02*
X209559580Y-93538095D01*
X209559580Y-93538095D02*
X209607200Y-93585714D01*
X209607200Y-93585714D02*
X209654819Y-93680952D01*
X209654819Y-93680952D02*
X209654819Y-93966666D01*
X209654819Y-93966666D02*
X209607200Y-94061904D01*
X209607200Y-94061904D02*
X209559580Y-94109523D01*
X208654819Y-92633333D02*
X208654819Y-92823809D01*
X208654819Y-92823809D02*
X208702438Y-92919047D01*
X208702438Y-92919047D02*
X208750057Y-92966666D01*
X208750057Y-92966666D02*
X208892914Y-93061904D01*
X208892914Y-93061904D02*
X209083390Y-93109523D01*
X209083390Y-93109523D02*
X209464342Y-93109523D01*
X209464342Y-93109523D02*
X209559580Y-93061904D01*
X209559580Y-93061904D02*
X209607200Y-93014285D01*
X209607200Y-93014285D02*
X209654819Y-92919047D01*
X209654819Y-92919047D02*
X209654819Y-92728571D01*
X209654819Y-92728571D02*
X209607200Y-92633333D01*
X209607200Y-92633333D02*
X209559580Y-92585714D01*
X209559580Y-92585714D02*
X209464342Y-92538095D01*
X209464342Y-92538095D02*
X209226247Y-92538095D01*
X209226247Y-92538095D02*
X209131009Y-92585714D01*
X209131009Y-92585714D02*
X209083390Y-92633333D01*
X209083390Y-92633333D02*
X209035771Y-92728571D01*
X209035771Y-92728571D02*
X209035771Y-92919047D01*
X209035771Y-92919047D02*
X209083390Y-93014285D01*
X209083390Y-93014285D02*
X209131009Y-93061904D01*
X209131009Y-93061904D02*
X209226247Y-93109523D01*
X209294642Y-89009580D02*
X209247023Y-89057200D01*
X209247023Y-89057200D02*
X209104166Y-89104819D01*
X209104166Y-89104819D02*
X209008928Y-89104819D01*
X209008928Y-89104819D02*
X208866071Y-89057200D01*
X208866071Y-89057200D02*
X208770833Y-88961961D01*
X208770833Y-88961961D02*
X208723214Y-88866723D01*
X208723214Y-88866723D02*
X208675595Y-88676247D01*
X208675595Y-88676247D02*
X208675595Y-88533390D01*
X208675595Y-88533390D02*
X208723214Y-88342914D01*
X208723214Y-88342914D02*
X208770833Y-88247676D01*
X208770833Y-88247676D02*
X208866071Y-88152438D01*
X208866071Y-88152438D02*
X209008928Y-88104819D01*
X209008928Y-88104819D02*
X209104166Y-88104819D01*
X209104166Y-88104819D02*
X209247023Y-88152438D01*
X209247023Y-88152438D02*
X209294642Y-88200057D01*
X209675595Y-88200057D02*
X209723214Y-88152438D01*
X209723214Y-88152438D02*
X209818452Y-88104819D01*
X209818452Y-88104819D02*
X210056547Y-88104819D01*
X210056547Y-88104819D02*
X210151785Y-88152438D01*
X210151785Y-88152438D02*
X210199404Y-88200057D01*
X210199404Y-88200057D02*
X210247023Y-88295295D01*
X210247023Y-88295295D02*
X210247023Y-88390533D01*
X210247023Y-88390533D02*
X210199404Y-88533390D01*
X210199404Y-88533390D02*
X209627976Y-89104819D01*
X209627976Y-89104819D02*
X210247023Y-89104819D01*
X210580357Y-88104819D02*
X211247023Y-88104819D01*
X211247023Y-88104819D02*
X210818452Y-89104819D01*
X106487142Y-75239580D02*
X106439523Y-75287200D01*
X106439523Y-75287200D02*
X106296666Y-75334819D01*
X106296666Y-75334819D02*
X106201428Y-75334819D01*
X106201428Y-75334819D02*
X106058571Y-75287200D01*
X106058571Y-75287200D02*
X105963333Y-75191961D01*
X105963333Y-75191961D02*
X105915714Y-75096723D01*
X105915714Y-75096723D02*
X105868095Y-74906247D01*
X105868095Y-74906247D02*
X105868095Y-74763390D01*
X105868095Y-74763390D02*
X105915714Y-74572914D01*
X105915714Y-74572914D02*
X105963333Y-74477676D01*
X105963333Y-74477676D02*
X106058571Y-74382438D01*
X106058571Y-74382438D02*
X106201428Y-74334819D01*
X106201428Y-74334819D02*
X106296666Y-74334819D01*
X106296666Y-74334819D02*
X106439523Y-74382438D01*
X106439523Y-74382438D02*
X106487142Y-74430057D01*
X106868095Y-74430057D02*
X106915714Y-74382438D01*
X106915714Y-74382438D02*
X107010952Y-74334819D01*
X107010952Y-74334819D02*
X107249047Y-74334819D01*
X107249047Y-74334819D02*
X107344285Y-74382438D01*
X107344285Y-74382438D02*
X107391904Y-74430057D01*
X107391904Y-74430057D02*
X107439523Y-74525295D01*
X107439523Y-74525295D02*
X107439523Y-74620533D01*
X107439523Y-74620533D02*
X107391904Y-74763390D01*
X107391904Y-74763390D02*
X106820476Y-75334819D01*
X106820476Y-75334819D02*
X107439523Y-75334819D01*
X107772857Y-74334819D02*
X108391904Y-74334819D01*
X108391904Y-74334819D02*
X108058571Y-74715771D01*
X108058571Y-74715771D02*
X108201428Y-74715771D01*
X108201428Y-74715771D02*
X108296666Y-74763390D01*
X108296666Y-74763390D02*
X108344285Y-74811009D01*
X108344285Y-74811009D02*
X108391904Y-74906247D01*
X108391904Y-74906247D02*
X108391904Y-75144342D01*
X108391904Y-75144342D02*
X108344285Y-75239580D01*
X108344285Y-75239580D02*
X108296666Y-75287200D01*
X108296666Y-75287200D02*
X108201428Y-75334819D01*
X108201428Y-75334819D02*
X107915714Y-75334819D01*
X107915714Y-75334819D02*
X107820476Y-75287200D01*
X107820476Y-75287200D02*
X107772857Y-75239580D01*
X95333333Y-80354819D02*
X95000000Y-79878628D01*
X94761905Y-80354819D02*
X94761905Y-79354819D01*
X94761905Y-79354819D02*
X95142857Y-79354819D01*
X95142857Y-79354819D02*
X95238095Y-79402438D01*
X95238095Y-79402438D02*
X95285714Y-79450057D01*
X95285714Y-79450057D02*
X95333333Y-79545295D01*
X95333333Y-79545295D02*
X95333333Y-79688152D01*
X95333333Y-79688152D02*
X95285714Y-79783390D01*
X95285714Y-79783390D02*
X95238095Y-79831009D01*
X95238095Y-79831009D02*
X95142857Y-79878628D01*
X95142857Y-79878628D02*
X94761905Y-79878628D01*
X96238095Y-79354819D02*
X95761905Y-79354819D01*
X95761905Y-79354819D02*
X95714286Y-79831009D01*
X95714286Y-79831009D02*
X95761905Y-79783390D01*
X95761905Y-79783390D02*
X95857143Y-79735771D01*
X95857143Y-79735771D02*
X96095238Y-79735771D01*
X96095238Y-79735771D02*
X96190476Y-79783390D01*
X96190476Y-79783390D02*
X96238095Y-79831009D01*
X96238095Y-79831009D02*
X96285714Y-79926247D01*
X96285714Y-79926247D02*
X96285714Y-80164342D01*
X96285714Y-80164342D02*
X96238095Y-80259580D01*
X96238095Y-80259580D02*
X96190476Y-80307200D01*
X96190476Y-80307200D02*
X96095238Y-80354819D01*
X96095238Y-80354819D02*
X95857143Y-80354819D01*
X95857143Y-80354819D02*
X95761905Y-80307200D01*
X95761905Y-80307200D02*
X95714286Y-80259580D01*
X209283333Y-86504819D02*
X208950000Y-86028628D01*
X208711905Y-86504819D02*
X208711905Y-85504819D01*
X208711905Y-85504819D02*
X209092857Y-85504819D01*
X209092857Y-85504819D02*
X209188095Y-85552438D01*
X209188095Y-85552438D02*
X209235714Y-85600057D01*
X209235714Y-85600057D02*
X209283333Y-85695295D01*
X209283333Y-85695295D02*
X209283333Y-85838152D01*
X209283333Y-85838152D02*
X209235714Y-85933390D01*
X209235714Y-85933390D02*
X209188095Y-85981009D01*
X209188095Y-85981009D02*
X209092857Y-86028628D01*
X209092857Y-86028628D02*
X208711905Y-86028628D01*
X209664286Y-85600057D02*
X209711905Y-85552438D01*
X209711905Y-85552438D02*
X209807143Y-85504819D01*
X209807143Y-85504819D02*
X210045238Y-85504819D01*
X210045238Y-85504819D02*
X210140476Y-85552438D01*
X210140476Y-85552438D02*
X210188095Y-85600057D01*
X210188095Y-85600057D02*
X210235714Y-85695295D01*
X210235714Y-85695295D02*
X210235714Y-85790533D01*
X210235714Y-85790533D02*
X210188095Y-85933390D01*
X210188095Y-85933390D02*
X209616667Y-86504819D01*
X209616667Y-86504819D02*
X210235714Y-86504819D01*
X91657142Y-92104819D02*
X91323809Y-91628628D01*
X91085714Y-92104819D02*
X91085714Y-91104819D01*
X91085714Y-91104819D02*
X91466666Y-91104819D01*
X91466666Y-91104819D02*
X91561904Y-91152438D01*
X91561904Y-91152438D02*
X91609523Y-91200057D01*
X91609523Y-91200057D02*
X91657142Y-91295295D01*
X91657142Y-91295295D02*
X91657142Y-91438152D01*
X91657142Y-91438152D02*
X91609523Y-91533390D01*
X91609523Y-91533390D02*
X91561904Y-91581009D01*
X91561904Y-91581009D02*
X91466666Y-91628628D01*
X91466666Y-91628628D02*
X91085714Y-91628628D01*
X92609523Y-92104819D02*
X92038095Y-92104819D01*
X92323809Y-92104819D02*
X92323809Y-91104819D01*
X92323809Y-91104819D02*
X92228571Y-91247676D01*
X92228571Y-91247676D02*
X92133333Y-91342914D01*
X92133333Y-91342914D02*
X92038095Y-91390533D01*
X93228571Y-91104819D02*
X93323809Y-91104819D01*
X93323809Y-91104819D02*
X93419047Y-91152438D01*
X93419047Y-91152438D02*
X93466666Y-91200057D01*
X93466666Y-91200057D02*
X93514285Y-91295295D01*
X93514285Y-91295295D02*
X93561904Y-91485771D01*
X93561904Y-91485771D02*
X93561904Y-91723866D01*
X93561904Y-91723866D02*
X93514285Y-91914342D01*
X93514285Y-91914342D02*
X93466666Y-92009580D01*
X93466666Y-92009580D02*
X93419047Y-92057200D01*
X93419047Y-92057200D02*
X93323809Y-92104819D01*
X93323809Y-92104819D02*
X93228571Y-92104819D01*
X93228571Y-92104819D02*
X93133333Y-92057200D01*
X93133333Y-92057200D02*
X93085714Y-92009580D01*
X93085714Y-92009580D02*
X93038095Y-91914342D01*
X93038095Y-91914342D02*
X92990476Y-91723866D01*
X92990476Y-91723866D02*
X92990476Y-91485771D01*
X92990476Y-91485771D02*
X93038095Y-91295295D01*
X93038095Y-91295295D02*
X93085714Y-91200057D01*
X93085714Y-91200057D02*
X93133333Y-91152438D01*
X93133333Y-91152438D02*
X93228571Y-91104819D01*
D11*
X194688095Y-105885419D02*
X194688095Y-104885419D01*
X194688095Y-104885419D02*
X195259523Y-105885419D01*
X195259523Y-105885419D02*
X195259523Y-104885419D01*
X195688095Y-104980657D02*
X195735714Y-104933038D01*
X195735714Y-104933038D02*
X195830952Y-104885419D01*
X195830952Y-104885419D02*
X196069047Y-104885419D01*
X196069047Y-104885419D02*
X196164285Y-104933038D01*
X196164285Y-104933038D02*
X196211904Y-104980657D01*
X196211904Y-104980657D02*
X196259523Y-105075895D01*
X196259523Y-105075895D02*
X196259523Y-105171133D01*
X196259523Y-105171133D02*
X196211904Y-105313990D01*
X196211904Y-105313990D02*
X195640476Y-105885419D01*
X195640476Y-105885419D02*
X196259523Y-105885419D01*
X164688095Y-105885419D02*
X164688095Y-104885419D01*
X164688095Y-104885419D02*
X165259523Y-105885419D01*
X165259523Y-105885419D02*
X165259523Y-104885419D01*
X165640476Y-104885419D02*
X166259523Y-104885419D01*
X166259523Y-104885419D02*
X165926190Y-105266371D01*
X165926190Y-105266371D02*
X166069047Y-105266371D01*
X166069047Y-105266371D02*
X166164285Y-105313990D01*
X166164285Y-105313990D02*
X166211904Y-105361609D01*
X166211904Y-105361609D02*
X166259523Y-105456847D01*
X166259523Y-105456847D02*
X166259523Y-105694942D01*
X166259523Y-105694942D02*
X166211904Y-105790180D01*
X166211904Y-105790180D02*
X166164285Y-105837800D01*
X166164285Y-105837800D02*
X166069047Y-105885419D01*
X166069047Y-105885419D02*
X165783333Y-105885419D01*
X165783333Y-105885419D02*
X165688095Y-105837800D01*
X165688095Y-105837800D02*
X165640476Y-105790180D01*
D12*
X149383333Y-124309580D02*
X149335714Y-124357200D01*
X149335714Y-124357200D02*
X149192857Y-124404819D01*
X149192857Y-124404819D02*
X149097619Y-124404819D01*
X149097619Y-124404819D02*
X148954762Y-124357200D01*
X148954762Y-124357200D02*
X148859524Y-124261961D01*
X148859524Y-124261961D02*
X148811905Y-124166723D01*
X148811905Y-124166723D02*
X148764286Y-123976247D01*
X148764286Y-123976247D02*
X148764286Y-123833390D01*
X148764286Y-123833390D02*
X148811905Y-123642914D01*
X148811905Y-123642914D02*
X148859524Y-123547676D01*
X148859524Y-123547676D02*
X148954762Y-123452438D01*
X148954762Y-123452438D02*
X149097619Y-123404819D01*
X149097619Y-123404819D02*
X149192857Y-123404819D01*
X149192857Y-123404819D02*
X149335714Y-123452438D01*
X149335714Y-123452438D02*
X149383333Y-123500057D01*
X150240476Y-123404819D02*
X150050000Y-123404819D01*
X150050000Y-123404819D02*
X149954762Y-123452438D01*
X149954762Y-123452438D02*
X149907143Y-123500057D01*
X149907143Y-123500057D02*
X149811905Y-123642914D01*
X149811905Y-123642914D02*
X149764286Y-123833390D01*
X149764286Y-123833390D02*
X149764286Y-124214342D01*
X149764286Y-124214342D02*
X149811905Y-124309580D01*
X149811905Y-124309580D02*
X149859524Y-124357200D01*
X149859524Y-124357200D02*
X149954762Y-124404819D01*
X149954762Y-124404819D02*
X150145238Y-124404819D01*
X150145238Y-124404819D02*
X150240476Y-124357200D01*
X150240476Y-124357200D02*
X150288095Y-124309580D01*
X150288095Y-124309580D02*
X150335714Y-124214342D01*
X150335714Y-124214342D02*
X150335714Y-123976247D01*
X150335714Y-123976247D02*
X150288095Y-123881009D01*
X150288095Y-123881009D02*
X150240476Y-123833390D01*
X150240476Y-123833390D02*
X150145238Y-123785771D01*
X150145238Y-123785771D02*
X149954762Y-123785771D01*
X149954762Y-123785771D02*
X149859524Y-123833390D01*
X149859524Y-123833390D02*
X149811905Y-123881009D01*
X149811905Y-123881009D02*
X149764286Y-123976247D01*
D11*
X137961905Y-87357419D02*
X137961905Y-86357419D01*
X137961905Y-86357419D02*
X138200000Y-86357419D01*
X138200000Y-86357419D02*
X138342857Y-86405038D01*
X138342857Y-86405038D02*
X138438095Y-86500276D01*
X138438095Y-86500276D02*
X138485714Y-86595514D01*
X138485714Y-86595514D02*
X138533333Y-86785990D01*
X138533333Y-86785990D02*
X138533333Y-86928847D01*
X138533333Y-86928847D02*
X138485714Y-87119323D01*
X138485714Y-87119323D02*
X138438095Y-87214561D01*
X138438095Y-87214561D02*
X138342857Y-87309800D01*
X138342857Y-87309800D02*
X138200000Y-87357419D01*
X138200000Y-87357419D02*
X137961905Y-87357419D01*
X139390476Y-86690752D02*
X139390476Y-87357419D01*
X139152381Y-86309800D02*
X138914286Y-87024085D01*
X138914286Y-87024085D02*
X139533333Y-87024085D01*
D12*
X199529580Y-80020857D02*
X199577200Y-80068476D01*
X199577200Y-80068476D02*
X199624819Y-80211333D01*
X199624819Y-80211333D02*
X199624819Y-80306571D01*
X199624819Y-80306571D02*
X199577200Y-80449428D01*
X199577200Y-80449428D02*
X199481961Y-80544666D01*
X199481961Y-80544666D02*
X199386723Y-80592285D01*
X199386723Y-80592285D02*
X199196247Y-80639904D01*
X199196247Y-80639904D02*
X199053390Y-80639904D01*
X199053390Y-80639904D02*
X198862914Y-80592285D01*
X198862914Y-80592285D02*
X198767676Y-80544666D01*
X198767676Y-80544666D02*
X198672438Y-80449428D01*
X198672438Y-80449428D02*
X198624819Y-80306571D01*
X198624819Y-80306571D02*
X198624819Y-80211333D01*
X198624819Y-80211333D02*
X198672438Y-80068476D01*
X198672438Y-80068476D02*
X198720057Y-80020857D01*
X199624819Y-79068476D02*
X199624819Y-79639904D01*
X199624819Y-79354190D02*
X198624819Y-79354190D01*
X198624819Y-79354190D02*
X198767676Y-79449428D01*
X198767676Y-79449428D02*
X198862914Y-79544666D01*
X198862914Y-79544666D02*
X198910533Y-79639904D01*
X198624819Y-78735142D02*
X198624819Y-78068476D01*
X198624819Y-78068476D02*
X199624819Y-78497047D01*
D13*
X113462618Y-75584318D02*
X113462618Y-74314318D01*
X113462618Y-74314318D02*
X113764999Y-74314318D01*
X113764999Y-74314318D02*
X113946428Y-74374794D01*
X113946428Y-74374794D02*
X114067380Y-74495746D01*
X114067380Y-74495746D02*
X114127857Y-74616699D01*
X114127857Y-74616699D02*
X114188333Y-74858603D01*
X114188333Y-74858603D02*
X114188333Y-75040032D01*
X114188333Y-75040032D02*
X114127857Y-75281937D01*
X114127857Y-75281937D02*
X114067380Y-75402889D01*
X114067380Y-75402889D02*
X113946428Y-75523842D01*
X113946428Y-75523842D02*
X113764999Y-75584318D01*
X113764999Y-75584318D02*
X113462618Y-75584318D01*
X114672142Y-74435270D02*
X114732618Y-74374794D01*
X114732618Y-74374794D02*
X114853571Y-74314318D01*
X114853571Y-74314318D02*
X115155952Y-74314318D01*
X115155952Y-74314318D02*
X115276904Y-74374794D01*
X115276904Y-74374794D02*
X115337380Y-74435270D01*
X115337380Y-74435270D02*
X115397857Y-74556222D01*
X115397857Y-74556222D02*
X115397857Y-74677175D01*
X115397857Y-74677175D02*
X115337380Y-74858603D01*
X115337380Y-74858603D02*
X114611666Y-75584318D01*
X114611666Y-75584318D02*
X115397857Y-75584318D01*
D12*
X97154761Y-97250057D02*
X97059523Y-97202438D01*
X97059523Y-97202438D02*
X96964285Y-97107200D01*
X96964285Y-97107200D02*
X96821428Y-96964342D01*
X96821428Y-96964342D02*
X96726190Y-96916723D01*
X96726190Y-96916723D02*
X96630952Y-96916723D01*
X96678571Y-97154819D02*
X96583333Y-97107200D01*
X96583333Y-97107200D02*
X96488095Y-97011961D01*
X96488095Y-97011961D02*
X96440476Y-96821485D01*
X96440476Y-96821485D02*
X96440476Y-96488152D01*
X96440476Y-96488152D02*
X96488095Y-96297676D01*
X96488095Y-96297676D02*
X96583333Y-96202438D01*
X96583333Y-96202438D02*
X96678571Y-96154819D01*
X96678571Y-96154819D02*
X96869047Y-96154819D01*
X96869047Y-96154819D02*
X96964285Y-96202438D01*
X96964285Y-96202438D02*
X97059523Y-96297676D01*
X97059523Y-96297676D02*
X97107142Y-96488152D01*
X97107142Y-96488152D02*
X97107142Y-96821485D01*
X97107142Y-96821485D02*
X97059523Y-97011961D01*
X97059523Y-97011961D02*
X96964285Y-97107200D01*
X96964285Y-97107200D02*
X96869047Y-97154819D01*
X96869047Y-97154819D02*
X96678571Y-97154819D01*
X97440476Y-96154819D02*
X98107142Y-96154819D01*
X98107142Y-96154819D02*
X97678571Y-97154819D01*
D13*
X181024318Y-118367762D02*
X179754318Y-118367762D01*
X180903365Y-117037285D02*
X180963842Y-117097761D01*
X180963842Y-117097761D02*
X181024318Y-117279190D01*
X181024318Y-117279190D02*
X181024318Y-117400142D01*
X181024318Y-117400142D02*
X180963842Y-117581571D01*
X180963842Y-117581571D02*
X180842889Y-117702523D01*
X180842889Y-117702523D02*
X180721937Y-117763000D01*
X180721937Y-117763000D02*
X180480032Y-117823476D01*
X180480032Y-117823476D02*
X180298603Y-117823476D01*
X180298603Y-117823476D02*
X180056699Y-117763000D01*
X180056699Y-117763000D02*
X179935746Y-117702523D01*
X179935746Y-117702523D02*
X179814794Y-117581571D01*
X179814794Y-117581571D02*
X179754318Y-117400142D01*
X179754318Y-117400142D02*
X179754318Y-117279190D01*
X179754318Y-117279190D02*
X179814794Y-117097761D01*
X179814794Y-117097761D02*
X179875270Y-117037285D01*
X179875270Y-116553476D02*
X179814794Y-116493000D01*
X179814794Y-116493000D02*
X179754318Y-116372047D01*
X179754318Y-116372047D02*
X179754318Y-116069666D01*
X179754318Y-116069666D02*
X179814794Y-115948714D01*
X179814794Y-115948714D02*
X179875270Y-115888238D01*
X179875270Y-115888238D02*
X179996222Y-115827761D01*
X179996222Y-115827761D02*
X180117175Y-115827761D01*
X180117175Y-115827761D02*
X180298603Y-115888238D01*
X180298603Y-115888238D02*
X181024318Y-116613952D01*
X181024318Y-116613952D02*
X181024318Y-115827761D01*
X113219047Y-85465270D02*
X113098095Y-85404794D01*
X113098095Y-85404794D02*
X112977142Y-85283842D01*
X112977142Y-85283842D02*
X112795714Y-85102413D01*
X112795714Y-85102413D02*
X112674761Y-85041937D01*
X112674761Y-85041937D02*
X112553809Y-85041937D01*
X112614285Y-85344318D02*
X112493333Y-85283842D01*
X112493333Y-85283842D02*
X112372380Y-85162889D01*
X112372380Y-85162889D02*
X112311904Y-84920984D01*
X112311904Y-84920984D02*
X112311904Y-84497651D01*
X112311904Y-84497651D02*
X112372380Y-84255746D01*
X112372380Y-84255746D02*
X112493333Y-84134794D01*
X112493333Y-84134794D02*
X112614285Y-84074318D01*
X112614285Y-84074318D02*
X112856190Y-84074318D01*
X112856190Y-84074318D02*
X112977142Y-84134794D01*
X112977142Y-84134794D02*
X113098095Y-84255746D01*
X113098095Y-84255746D02*
X113158571Y-84497651D01*
X113158571Y-84497651D02*
X113158571Y-84920984D01*
X113158571Y-84920984D02*
X113098095Y-85162889D01*
X113098095Y-85162889D02*
X112977142Y-85283842D01*
X112977142Y-85283842D02*
X112856190Y-85344318D01*
X112856190Y-85344318D02*
X112614285Y-85344318D01*
X113884285Y-84618603D02*
X113763333Y-84558127D01*
X113763333Y-84558127D02*
X113702856Y-84497651D01*
X113702856Y-84497651D02*
X113642380Y-84376699D01*
X113642380Y-84376699D02*
X113642380Y-84316222D01*
X113642380Y-84316222D02*
X113702856Y-84195270D01*
X113702856Y-84195270D02*
X113763333Y-84134794D01*
X113763333Y-84134794D02*
X113884285Y-84074318D01*
X113884285Y-84074318D02*
X114126190Y-84074318D01*
X114126190Y-84074318D02*
X114247142Y-84134794D01*
X114247142Y-84134794D02*
X114307618Y-84195270D01*
X114307618Y-84195270D02*
X114368095Y-84316222D01*
X114368095Y-84316222D02*
X114368095Y-84376699D01*
X114368095Y-84376699D02*
X114307618Y-84497651D01*
X114307618Y-84497651D02*
X114247142Y-84558127D01*
X114247142Y-84558127D02*
X114126190Y-84618603D01*
X114126190Y-84618603D02*
X113884285Y-84618603D01*
X113884285Y-84618603D02*
X113763333Y-84679080D01*
X113763333Y-84679080D02*
X113702856Y-84739556D01*
X113702856Y-84739556D02*
X113642380Y-84860508D01*
X113642380Y-84860508D02*
X113642380Y-85102413D01*
X113642380Y-85102413D02*
X113702856Y-85223365D01*
X113702856Y-85223365D02*
X113763333Y-85283842D01*
X113763333Y-85283842D02*
X113884285Y-85344318D01*
X113884285Y-85344318D02*
X114126190Y-85344318D01*
X114126190Y-85344318D02*
X114247142Y-85283842D01*
X114247142Y-85283842D02*
X114307618Y-85223365D01*
X114307618Y-85223365D02*
X114368095Y-85102413D01*
X114368095Y-85102413D02*
X114368095Y-84860508D01*
X114368095Y-84860508D02*
X114307618Y-84739556D01*
X114307618Y-84739556D02*
X114247142Y-84679080D01*
X114247142Y-84679080D02*
X114126190Y-84618603D01*
D12*
X96807142Y-92109580D02*
X96759523Y-92157200D01*
X96759523Y-92157200D02*
X96616666Y-92204819D01*
X96616666Y-92204819D02*
X96521428Y-92204819D01*
X96521428Y-92204819D02*
X96378571Y-92157200D01*
X96378571Y-92157200D02*
X96283333Y-92061961D01*
X96283333Y-92061961D02*
X96235714Y-91966723D01*
X96235714Y-91966723D02*
X96188095Y-91776247D01*
X96188095Y-91776247D02*
X96188095Y-91633390D01*
X96188095Y-91633390D02*
X96235714Y-91442914D01*
X96235714Y-91442914D02*
X96283333Y-91347676D01*
X96283333Y-91347676D02*
X96378571Y-91252438D01*
X96378571Y-91252438D02*
X96521428Y-91204819D01*
X96521428Y-91204819D02*
X96616666Y-91204819D01*
X96616666Y-91204819D02*
X96759523Y-91252438D01*
X96759523Y-91252438D02*
X96807142Y-91300057D01*
X97759523Y-92204819D02*
X97188095Y-92204819D01*
X97473809Y-92204819D02*
X97473809Y-91204819D01*
X97473809Y-91204819D02*
X97378571Y-91347676D01*
X97378571Y-91347676D02*
X97283333Y-91442914D01*
X97283333Y-91442914D02*
X97188095Y-91490533D01*
X98140476Y-91300057D02*
X98188095Y-91252438D01*
X98188095Y-91252438D02*
X98283333Y-91204819D01*
X98283333Y-91204819D02*
X98521428Y-91204819D01*
X98521428Y-91204819D02*
X98616666Y-91252438D01*
X98616666Y-91252438D02*
X98664285Y-91300057D01*
X98664285Y-91300057D02*
X98711904Y-91395295D01*
X98711904Y-91395295D02*
X98711904Y-91490533D01*
X98711904Y-91490533D02*
X98664285Y-91633390D01*
X98664285Y-91633390D02*
X98092857Y-92204819D01*
X98092857Y-92204819D02*
X98711904Y-92204819D01*
X151754819Y-94570857D02*
X151278628Y-94904190D01*
X151754819Y-95142285D02*
X150754819Y-95142285D01*
X150754819Y-95142285D02*
X150754819Y-94761333D01*
X150754819Y-94761333D02*
X150802438Y-94666095D01*
X150802438Y-94666095D02*
X150850057Y-94618476D01*
X150850057Y-94618476D02*
X150945295Y-94570857D01*
X150945295Y-94570857D02*
X151088152Y-94570857D01*
X151088152Y-94570857D02*
X151183390Y-94618476D01*
X151183390Y-94618476D02*
X151231009Y-94666095D01*
X151231009Y-94666095D02*
X151278628Y-94761333D01*
X151278628Y-94761333D02*
X151278628Y-95142285D01*
X150754819Y-94237523D02*
X150754819Y-93618476D01*
X150754819Y-93618476D02*
X151135771Y-93951809D01*
X151135771Y-93951809D02*
X151135771Y-93808952D01*
X151135771Y-93808952D02*
X151183390Y-93713714D01*
X151183390Y-93713714D02*
X151231009Y-93666095D01*
X151231009Y-93666095D02*
X151326247Y-93618476D01*
X151326247Y-93618476D02*
X151564342Y-93618476D01*
X151564342Y-93618476D02*
X151659580Y-93666095D01*
X151659580Y-93666095D02*
X151707200Y-93713714D01*
X151707200Y-93713714D02*
X151754819Y-93808952D01*
X151754819Y-93808952D02*
X151754819Y-94094666D01*
X151754819Y-94094666D02*
X151707200Y-94189904D01*
X151707200Y-94189904D02*
X151659580Y-94237523D01*
X150754819Y-92999428D02*
X150754819Y-92904190D01*
X150754819Y-92904190D02*
X150802438Y-92808952D01*
X150802438Y-92808952D02*
X150850057Y-92761333D01*
X150850057Y-92761333D02*
X150945295Y-92713714D01*
X150945295Y-92713714D02*
X151135771Y-92666095D01*
X151135771Y-92666095D02*
X151373866Y-92666095D01*
X151373866Y-92666095D02*
X151564342Y-92713714D01*
X151564342Y-92713714D02*
X151659580Y-92761333D01*
X151659580Y-92761333D02*
X151707200Y-92808952D01*
X151707200Y-92808952D02*
X151754819Y-92904190D01*
X151754819Y-92904190D02*
X151754819Y-92999428D01*
X151754819Y-92999428D02*
X151707200Y-93094666D01*
X151707200Y-93094666D02*
X151659580Y-93142285D01*
X151659580Y-93142285D02*
X151564342Y-93189904D01*
X151564342Y-93189904D02*
X151373866Y-93237523D01*
X151373866Y-93237523D02*
X151135771Y-93237523D01*
X151135771Y-93237523D02*
X150945295Y-93189904D01*
X150945295Y-93189904D02*
X150850057Y-93142285D01*
X150850057Y-93142285D02*
X150802438Y-93094666D01*
X150802438Y-93094666D02*
X150754819Y-92999428D01*
X88761905Y-95054819D02*
X88761905Y-94054819D01*
X88761905Y-94054819D02*
X89000000Y-94054819D01*
X89000000Y-94054819D02*
X89142857Y-94102438D01*
X89142857Y-94102438D02*
X89238095Y-94197676D01*
X89238095Y-94197676D02*
X89285714Y-94292914D01*
X89285714Y-94292914D02*
X89333333Y-94483390D01*
X89333333Y-94483390D02*
X89333333Y-94626247D01*
X89333333Y-94626247D02*
X89285714Y-94816723D01*
X89285714Y-94816723D02*
X89238095Y-94911961D01*
X89238095Y-94911961D02*
X89142857Y-95007200D01*
X89142857Y-95007200D02*
X89000000Y-95054819D01*
X89000000Y-95054819D02*
X88761905Y-95054819D01*
X90238095Y-94054819D02*
X89761905Y-94054819D01*
X89761905Y-94054819D02*
X89714286Y-94531009D01*
X89714286Y-94531009D02*
X89761905Y-94483390D01*
X89761905Y-94483390D02*
X89857143Y-94435771D01*
X89857143Y-94435771D02*
X90095238Y-94435771D01*
X90095238Y-94435771D02*
X90190476Y-94483390D01*
X90190476Y-94483390D02*
X90238095Y-94531009D01*
X90238095Y-94531009D02*
X90285714Y-94626247D01*
X90285714Y-94626247D02*
X90285714Y-94864342D01*
X90285714Y-94864342D02*
X90238095Y-94959580D01*
X90238095Y-94959580D02*
X90190476Y-95007200D01*
X90190476Y-95007200D02*
X90095238Y-95054819D01*
X90095238Y-95054819D02*
X89857143Y-95054819D01*
X89857143Y-95054819D02*
X89761905Y-95007200D01*
X89761905Y-95007200D02*
X89714286Y-94959580D01*
D14*
%TO.C,R39*%
X142115000Y-93700936D02*
X142115000Y-94155064D01*
X143585000Y-93700936D02*
X143585000Y-94155064D01*
D15*
%TO.C,IC4*%
X126250000Y-112028000D02*
X136650000Y-112028000D01*
X126250000Y-122428000D02*
X126250000Y-112028000D01*
X136650000Y-112028000D02*
X136650000Y-122428000D01*
X136650000Y-122428000D02*
X126250000Y-122428000D01*
D16*
X136850000Y-110178000D02*
G75*
G02*
X136450000Y-110178000I-200000J0D01*
G01*
X136450000Y-110178000D02*
G75*
G02*
X136850000Y-110178000I200000J0D01*
G01*
D14*
%TO.C,C28*%
X188773752Y-80143000D02*
X188251248Y-80143000D01*
X188773752Y-81613000D02*
X188251248Y-81613000D01*
%TO.C,C2*%
X99390000Y-80915748D02*
X99390000Y-78084252D01*
X104610000Y-80915748D02*
X104610000Y-78084252D01*
%TO.C,R38*%
X161315000Y-93500936D02*
X161315000Y-93955064D01*
X162785000Y-93500936D02*
X162785000Y-93955064D01*
%TO.C,R13*%
X104672936Y-85715000D02*
X105127064Y-85715000D01*
X104672936Y-87185000D02*
X105127064Y-87185000D01*
D15*
%TO.C,Q4*%
X164000000Y-93628000D02*
X166900000Y-93628000D01*
X164000000Y-93828000D02*
X164000000Y-93628000D01*
X166900000Y-93628000D02*
X166900000Y-93828000D01*
X166900000Y-93828000D02*
X164000000Y-93828000D01*
X166985000Y-92078000D02*
X166985000Y-93278000D01*
%TO.C,IC8*%
X92050000Y-82828000D02*
X93050000Y-82828000D01*
X93400000Y-83028000D02*
X93700000Y-83028000D01*
X93400000Y-85028000D02*
X93400000Y-83028000D01*
X93700000Y-83028000D02*
X93700000Y-85028000D01*
X93700000Y-85028000D02*
X93400000Y-85028000D01*
%TO.C,IC1*%
X100850000Y-88478000D02*
X102250000Y-88478000D01*
X102600000Y-88528000D02*
X104900000Y-88528000D01*
X102600000Y-91528000D02*
X102600000Y-88528000D01*
X104900000Y-88528000D02*
X104900000Y-91528000D01*
X104900000Y-91528000D02*
X102600000Y-91528000D01*
D14*
%TO.C,C7*%
X159511252Y-123193000D02*
X158988748Y-123193000D01*
X159511252Y-124663000D02*
X158988748Y-124663000D01*
%TO.C,R34*%
X100215000Y-93700936D02*
X100215000Y-94155064D01*
X101685000Y-93700936D02*
X101685000Y-94155064D01*
D11*
%TO.C,N1*%
X219022000Y-104928000D02*
G75*
G02*
X209878000Y-104928000I-4572000J0D01*
G01*
X209878000Y-104928000D02*
G75*
G02*
X219022000Y-104928000I4572000J0D01*
G01*
D14*
%TO.C,+HV1*%
X108750000Y-120300000D02*
G75*
G02*
X106350000Y-120300000I-1200000J0D01*
G01*
X106350000Y-120300000D02*
G75*
G02*
X108750000Y-120300000I1200000J0D01*
G01*
D15*
%TO.C,IC3*%
X200662500Y-84828000D02*
X201862500Y-84828000D01*
X202212500Y-84928000D02*
X202812500Y-84928000D01*
X202212500Y-87828000D02*
X202212500Y-84928000D01*
X202812500Y-84928000D02*
X202812500Y-87828000D01*
X202812500Y-87828000D02*
X202212500Y-87828000D01*
%TO.C,Q5*%
X144940000Y-93828000D02*
X147840000Y-93828000D01*
X144940000Y-94028000D02*
X144940000Y-93828000D01*
X147840000Y-93828000D02*
X147840000Y-94028000D01*
X147840000Y-94028000D02*
X144940000Y-94028000D01*
X147925000Y-92278000D02*
X147925000Y-93478000D01*
D14*
%TO.C,R4*%
X209707064Y-77415000D02*
X209252936Y-77415000D01*
X209707064Y-78885000D02*
X209252936Y-78885000D01*
%TO.C,R40*%
X112215000Y-93800936D02*
X112215000Y-94255064D01*
X113685000Y-93800936D02*
X113685000Y-94255064D01*
%TO.C,C25*%
X203565000Y-79116748D02*
X203565000Y-79639252D01*
X205035000Y-79116748D02*
X205035000Y-79639252D01*
D11*
%TO.C,N4*%
X151022000Y-104928000D02*
G75*
G02*
X141878000Y-104928000I-4572000J0D01*
G01*
X141878000Y-104928000D02*
G75*
G02*
X151022000Y-104928000I4572000J0D01*
G01*
D14*
%TO.C,R6*%
X216485000Y-87382936D02*
X216485000Y-87837064D01*
X217955000Y-87382936D02*
X217955000Y-87837064D01*
%TO.C,R12*%
X95590000Y-77527064D02*
X95590000Y-76072936D01*
X97410000Y-77527064D02*
X97410000Y-76072936D01*
%TO.C,R29*%
X217015000Y-93600936D02*
X217015000Y-94055064D01*
X218485000Y-93600936D02*
X218485000Y-94055064D01*
%TO.C,C16*%
X93761252Y-86193000D02*
X93238748Y-86193000D01*
X93761252Y-87663000D02*
X93238748Y-87663000D01*
D11*
%TO.C,N5*%
X121022000Y-104928000D02*
G75*
G02*
X111878000Y-104928000I-4572000J0D01*
G01*
X111878000Y-104928000D02*
G75*
G02*
X121022000Y-104928000I4572000J0D01*
G01*
D15*
%TO.C,Q2*%
X212900000Y-93728000D02*
X215800000Y-93728000D01*
X212900000Y-93928000D02*
X212900000Y-93728000D01*
X215800000Y-93728000D02*
X215800000Y-93928000D01*
X215800000Y-93928000D02*
X212900000Y-93928000D01*
X215885000Y-92178000D02*
X215885000Y-93378000D01*
D14*
%TO.C,+12V1*%
X105210000Y-120270000D02*
G75*
G02*
X102810000Y-120270000I-1200000J0D01*
G01*
X102810000Y-120270000D02*
G75*
G02*
X105210000Y-120270000I1200000J0D01*
G01*
D15*
%TO.C,C11*%
X98750000Y-86528000D02*
G75*
G02*
X98650000Y-86528000I-50000J0D01*
G01*
X98650000Y-86528000D02*
G75*
G02*
X98750000Y-86528000I50000J0D01*
G01*
D14*
%TO.C,C5*%
X203288748Y-90415000D02*
X203811252Y-90415000D01*
X203288748Y-91885000D02*
X203811252Y-91885000D01*
D15*
%TO.C,IC7*%
X192024000Y-83448000D02*
X192024000Y-89548000D01*
D11*
X197600000Y-79388000D02*
X197600000Y-79388000D01*
X197600000Y-79488000D02*
X197600000Y-79488000D01*
D15*
X198604000Y-83448000D02*
X192024000Y-83448000D01*
X198604000Y-89548000D02*
X198604000Y-83448000D01*
D11*
X197600000Y-79388000D02*
G75*
G02*
X197600000Y-79488000I0J-50000D01*
G01*
X197600000Y-79488000D02*
G75*
G02*
X197600000Y-79388000I0J50000D01*
G01*
D14*
%TO.C,R37*%
X191115000Y-93500936D02*
X191115000Y-93955064D01*
X192585000Y-93500936D02*
X192585000Y-93955064D01*
%TO.C,R24*%
X198215000Y-93400936D02*
X198215000Y-93855064D01*
X199685000Y-93400936D02*
X199685000Y-93855064D01*
D15*
%TO.C,Q6*%
X115000000Y-93928000D02*
X117900000Y-93928000D01*
X115000000Y-94128000D02*
X115000000Y-93928000D01*
X117900000Y-93928000D02*
X117900000Y-94128000D01*
X117900000Y-94128000D02*
X115000000Y-94128000D01*
X117985000Y-92378000D02*
X117985000Y-93578000D01*
D14*
%TO.C,R41*%
X93215000Y-93700936D02*
X93215000Y-94155064D01*
X94685000Y-93700936D02*
X94685000Y-94155064D01*
D15*
%TO.C,Q3*%
X194000000Y-93628000D02*
X196900000Y-93628000D01*
X194000000Y-93828000D02*
X194000000Y-93628000D01*
X196900000Y-93628000D02*
X196900000Y-93828000D01*
X196900000Y-93828000D02*
X194000000Y-93828000D01*
X196985000Y-92078000D02*
X196985000Y-93278000D01*
%TO.C,IC6*%
X150800000Y-115728000D02*
X161000000Y-115728000D01*
X150800000Y-120328000D02*
X150800000Y-115728000D01*
X161000000Y-115728000D02*
X161000000Y-120328000D01*
X161000000Y-120328000D02*
X150800000Y-120328000D01*
X161045000Y-113553000D02*
X161045000Y-115378000D01*
D14*
%TO.C,R26*%
X168015000Y-93450936D02*
X168015000Y-93905064D01*
X169485000Y-93450936D02*
X169485000Y-93905064D01*
%TO.C,C26*%
X202238748Y-82643000D02*
X202761252Y-82643000D01*
X202238748Y-84113000D02*
X202761252Y-84113000D01*
%TO.C,R42*%
X89515000Y-84655064D02*
X89515000Y-84200936D01*
X90985000Y-84655064D02*
X90985000Y-84200936D01*
%TO.C,R1*%
X206977064Y-82643000D02*
X206522936Y-82643000D01*
X206977064Y-84113000D02*
X206522936Y-84113000D01*
D11*
%TO.C,ENC1*%
X149100000Y-77578000D02*
X149100000Y-77578000D01*
X149100000Y-77578000D02*
X149100000Y-77578000D01*
X149100000Y-77578000D02*
X149100000Y-81528000D01*
X149100000Y-77578000D02*
X151550000Y-77578000D01*
X149100000Y-81528000D02*
X149100000Y-77578000D01*
X149100000Y-81528000D02*
X149100000Y-81528000D01*
X149100000Y-87028000D02*
X149100000Y-87028000D01*
X149100000Y-87028000D02*
X149100000Y-90978000D01*
X149100000Y-90978000D02*
X149100000Y-87028000D01*
X149100000Y-90978000D02*
X149100000Y-90978000D01*
X149100000Y-90978000D02*
X149100000Y-90978000D01*
X149100000Y-90978000D02*
X151300000Y-90978000D01*
X151300000Y-90978000D02*
X149100000Y-90978000D01*
X151300000Y-90978000D02*
X151300000Y-90978000D01*
X151550000Y-77578000D02*
X149100000Y-77578000D01*
X151550000Y-77578000D02*
X151550000Y-77578000D01*
X154050000Y-90978000D02*
X154050000Y-90978000D01*
X154050000Y-90978000D02*
X156550000Y-90978000D01*
X156550000Y-90978000D02*
X154050000Y-90978000D01*
X156550000Y-90978000D02*
X156550000Y-90978000D01*
D15*
X157800000Y-92878000D02*
X157800000Y-92878000D01*
X157800000Y-92878000D02*
X157800000Y-92878000D01*
X157800000Y-92978000D02*
X157800000Y-92978000D01*
D11*
X159300000Y-90978000D02*
X159300000Y-90978000D01*
X159300000Y-90978000D02*
X161500000Y-90978000D01*
X161500000Y-87028000D02*
X161500000Y-87028000D01*
X161500000Y-87028000D02*
X161500000Y-90978000D01*
X161500000Y-90978000D02*
X159300000Y-90978000D01*
X161500000Y-90978000D02*
X161500000Y-87028000D01*
X161500000Y-90978000D02*
X161500000Y-90978000D01*
X161500000Y-90978000D02*
X161500000Y-90978000D01*
D15*
X157800000Y-92878000D02*
G75*
G02*
X157800000Y-92978000I0J-50000D01*
G01*
X157800000Y-92978000D02*
G75*
G02*
X157800000Y-92878000I0J50000D01*
G01*
X157800000Y-92978000D02*
G75*
G02*
X157800000Y-92878000I0J50000D01*
G01*
D14*
%TO.C,GND1*%
X112170000Y-120330000D02*
G75*
G02*
X109770000Y-120330000I-1200000J0D01*
G01*
X109770000Y-120330000D02*
G75*
G02*
X112170000Y-120330000I1200000J0D01*
G01*
D11*
%TO.C,N6*%
X102022000Y-104928000D02*
G75*
G02*
X92878000Y-104928000I-4572000J0D01*
G01*
X92878000Y-104928000D02*
G75*
G02*
X102022000Y-104928000I4572000J0D01*
G01*
D14*
%TO.C,R43*%
X96115000Y-84655064D02*
X96115000Y-84200936D01*
X97585000Y-84655064D02*
X97585000Y-84200936D01*
%TO.C,R3*%
X213922936Y-77425000D02*
X214377064Y-77425000D01*
X213922936Y-78895000D02*
X214377064Y-78895000D01*
%TO.C,R32*%
X119115000Y-93800936D02*
X119115000Y-94255064D01*
X120585000Y-93800936D02*
X120585000Y-94255064D01*
%TO.C,C24*%
X220965000Y-87468748D02*
X220965000Y-87991252D01*
X222435000Y-87468748D02*
X222435000Y-87991252D01*
%TO.C,R36*%
X210215000Y-93600936D02*
X210215000Y-94055064D01*
X211685000Y-93600936D02*
X211685000Y-94055064D01*
%TO.C,C27*%
X206911252Y-87965000D02*
X206388748Y-87965000D01*
X206911252Y-89435000D02*
X206388748Y-89435000D01*
%TO.C,C23*%
X106390000Y-80915748D02*
X106390000Y-78084252D01*
X111610000Y-80915748D02*
X111610000Y-78084252D01*
%TO.C,R5*%
X95727064Y-80565000D02*
X95272936Y-80565000D01*
X95727064Y-82035000D02*
X95272936Y-82035000D01*
%TO.C,R2*%
X206472936Y-85315000D02*
X206927064Y-85315000D01*
X206472936Y-86785000D02*
X206927064Y-86785000D01*
%TO.C,R10*%
X93027064Y-88990000D02*
X91572936Y-88990000D01*
X93027064Y-90810000D02*
X91572936Y-90810000D01*
D11*
%TO.C,N2*%
X200022000Y-104928000D02*
G75*
G02*
X190878000Y-104928000I-4572000J0D01*
G01*
X190878000Y-104928000D02*
G75*
G02*
X200022000Y-104928000I4572000J0D01*
G01*
%TO.C,N3*%
X170022000Y-104928000D02*
G75*
G02*
X160878000Y-104928000I-4572000J0D01*
G01*
X160878000Y-104928000D02*
G75*
G02*
X170022000Y-104928000I4572000J0D01*
G01*
D14*
%TO.C,C6*%
X152188748Y-123143000D02*
X152711252Y-123143000D01*
X152188748Y-124613000D02*
X152711252Y-124613000D01*
%TO.C,+5V1*%
X101680000Y-120270000D02*
G75*
G02*
X99280000Y-120270000I-1200000J0D01*
G01*
X99280000Y-120270000D02*
G75*
G02*
X101680000Y-120270000I1200000J0D01*
G01*
%TO.C,C17*%
X200115000Y-79639252D02*
X200115000Y-79116748D01*
X201585000Y-79639252D02*
X201585000Y-79116748D01*
%TO.C,+3.3V1*%
X98020000Y-120250000D02*
G75*
G02*
X95620000Y-120250000I-1200000J0D01*
G01*
X95620000Y-120250000D02*
G75*
G02*
X98020000Y-120250000I1200000J0D01*
G01*
D15*
%TO.C,D2*%
X113138000Y-76900000D02*
X113138000Y-82425000D01*
X115862000Y-82100000D02*
X115862000Y-76900000D01*
%TO.C,Q7*%
X95900000Y-93828000D02*
X98800000Y-93828000D01*
X95900000Y-94028000D02*
X95900000Y-93828000D01*
X98800000Y-93828000D02*
X98800000Y-94028000D01*
X98800000Y-94028000D02*
X95900000Y-94028000D01*
X98885000Y-92278000D02*
X98885000Y-93478000D01*
%TO.C,IC2*%
X175250000Y-111928000D02*
X185650000Y-111928000D01*
X175250000Y-122328000D02*
X175250000Y-111928000D01*
X185650000Y-111928000D02*
X185650000Y-122328000D01*
X185650000Y-122328000D02*
X175250000Y-122328000D01*
D16*
X185850000Y-110078000D02*
G75*
G02*
X185450000Y-110078000I-200000J0D01*
G01*
X185450000Y-110078000D02*
G75*
G02*
X185850000Y-110078000I200000J0D01*
G01*
D15*
%TO.C,Q8*%
X107599000Y-86523000D02*
X107599000Y-86523000D01*
X107599000Y-86523000D02*
X107599000Y-86523000D01*
X107699000Y-86523000D02*
X107699000Y-86523000D01*
X107599000Y-86523000D02*
G75*
G02*
X107699000Y-86523000I50000J0D01*
G01*
X107699000Y-86523000D02*
G75*
G02*
X107599000Y-86523000I-50000J0D01*
G01*
X107699000Y-86523000D02*
G75*
G02*
X107599000Y-86523000I-50000J0D01*
G01*
D14*
%TO.C,C12*%
X97188748Y-89415000D02*
X97711252Y-89415000D01*
X97188748Y-90885000D02*
X97711252Y-90885000D01*
%TO.C,R30*%
X148915000Y-94155064D02*
X148915000Y-93700936D01*
X150385000Y-94155064D02*
X150385000Y-93700936D01*
%TO.C,D5*%
X88540000Y-92365000D02*
X88540000Y-93835000D01*
X88540000Y-93835000D02*
X91000000Y-93835000D01*
X91000000Y-92365000D02*
X88540000Y-92365000D01*
%TD*%
M02*
