%TF.GenerationSoftware,KiCad,Pcbnew,8.0.6*%
%TF.CreationDate,2024-10-16T19:54:22+02:00*%
%TF.ProjectId,nixie_alarm_main_board,6e697869-655f-4616-9c61-726d5f6d6169,rev?*%
%TF.SameCoordinates,Original*%
%TF.FileFunction,Soldermask,Bot*%
%TF.FilePolarity,Negative*%
%FSLAX46Y46*%
G04 Gerber Fmt 4.6, Leading zero omitted, Abs format (unit mm)*
G04 Created by KiCad (PCBNEW 8.0.6) date 2024-10-16 19:54:22*
%MOMM*%
%LPD*%
G01*
G04 APERTURE LIST*
G04 Aperture macros list*
%AMRoundRect*
0 Rectangle with rounded corners*
0 $1 Rounding radius*
0 $2 $3 $4 $5 $6 $7 $8 $9 X,Y pos of 4 corners*
0 Add a 4 corners polygon primitive as box body*
4,1,4,$2,$3,$4,$5,$6,$7,$8,$9,$2,$3,0*
0 Add four circle primitives for the rounded corners*
1,1,$1+$1,$2,$3*
1,1,$1+$1,$4,$5*
1,1,$1+$1,$6,$7*
1,1,$1+$1,$8,$9*
0 Add four rect primitives between the rounded corners*
20,1,$1+$1,$2,$3,$4,$5,0*
20,1,$1+$1,$4,$5,$6,$7,0*
20,1,$1+$1,$6,$7,$8,$9,0*
20,1,$1+$1,$8,$9,$2,$3,0*%
G04 Aperture macros list end*
%ADD10C,0.700000*%
%ADD11C,0.150000*%
%ADD12C,0.100000*%
%ADD13C,1.524000*%
%ADD14C,0.800000*%
%ADD15C,6.400000*%
%ADD16C,1.800000*%
%ADD17C,4.572000*%
%ADD18RoundRect,0.250000X-0.475000X0.337500X-0.475000X-0.337500X0.475000X-0.337500X0.475000X0.337500X0*%
%ADD19R,0.400000X0.450000*%
%ADD20R,0.500000X0.450000*%
%ADD21RoundRect,0.250000X0.450000X-0.350000X0.450000X0.350000X-0.450000X0.350000X-0.450000X-0.350000X0*%
%ADD22RoundRect,0.250000X-0.450000X0.350000X-0.450000X-0.350000X0.450000X-0.350000X0.450000X0.350000X0*%
%ADD23RoundRect,0.250000X0.337500X0.475000X-0.337500X0.475000X-0.337500X-0.475000X0.337500X-0.475000X0*%
%ADD24R,2.900000X5.400000*%
%ADD25R,0.250000X0.750000*%
%ADD26R,2.300000X2.500000*%
%ADD27R,1.250000X4.700000*%
%ADD28RoundRect,0.250000X0.350000X0.450000X-0.350000X0.450000X-0.350000X-0.450000X0.350000X-0.450000X0*%
%ADD29R,1.700000X1.700000*%
%ADD30O,1.700000X1.700000*%
%ADD31RoundRect,0.250000X0.475000X-0.337500X0.475000X0.337500X-0.475000X0.337500X-0.475000X-0.337500X0*%
%ADD32RoundRect,0.250000X-0.350000X-0.450000X0.350000X-0.450000X0.350000X0.450000X-0.350000X0.450000X0*%
%ADD33RoundRect,0.250000X-0.337500X-0.475000X0.337500X-0.475000X0.337500X0.475000X-0.337500X0.475000X0*%
%ADD34RoundRect,0.250000X-0.400000X-0.625000X0.400000X-0.625000X0.400000X0.625000X-0.400000X0.625000X0*%
%ADD35RoundRect,0.250000X0.600000X0.725000X-0.600000X0.725000X-0.600000X-0.725000X0.600000X-0.725000X0*%
%ADD36O,1.700000X1.950000*%
%ADD37C,1.410000*%
%ADD38C,1.300000*%
%ADD39R,1.800000X1.700000*%
%ADD40R,2.100000X1.800000*%
%ADD41R,1.700000X1.800000*%
%ADD42R,1.500000X0.900000*%
%ADD43R,0.900000X1.500000*%
%ADD44C,0.600000*%
%ADD45R,3.900000X3.900000*%
%ADD46C,0.650000*%
%ADD47RoundRect,0.150000X-0.150000X-0.425000X0.150000X-0.425000X0.150000X0.425000X-0.150000X0.425000X0*%
%ADD48RoundRect,0.075000X-0.075000X-0.500000X0.075000X-0.500000X0.075000X0.500000X-0.075000X0.500000X0*%
%ADD49O,1.000000X1.800000*%
%ADD50O,1.000000X2.100000*%
G04 APERTURE END LIST*
D10*
X223900000Y-126500000D02*
X87900000Y-126500000D01*
X86900000Y-125500000D02*
X86900000Y-74500000D01*
X87900000Y-73500000D02*
X223900000Y-73500000D01*
X86900000Y-74500000D02*
G75*
G02*
X87900000Y-73500000I1000000J0D01*
G01*
X223900000Y-73500000D02*
G75*
G02*
X224900000Y-74500000I0J-1000000D01*
G01*
X224900000Y-125500000D02*
G75*
G02*
X223900000Y-126500000I-1000000J0D01*
G01*
X224900000Y-74500000D02*
X224900000Y-125500000D01*
X87900000Y-126500000D02*
G75*
G02*
X86900000Y-125500000I0J1000000D01*
G01*
D11*
X85283333Y-66538152D02*
X85283333Y-67204819D01*
X85045238Y-66157200D02*
X84807143Y-66871485D01*
X84807143Y-66871485D02*
X85426190Y-66871485D01*
X85854762Y-67157200D02*
X85854762Y-67204819D01*
X85854762Y-67204819D02*
X85807143Y-67300057D01*
X85807143Y-67300057D02*
X85759524Y-67347676D01*
X86807142Y-67204819D02*
X86235714Y-67204819D01*
X86521428Y-67204819D02*
X86521428Y-66204819D01*
X86521428Y-66204819D02*
X86426190Y-66347676D01*
X86426190Y-66347676D02*
X86330952Y-66442914D01*
X86330952Y-66442914D02*
X86235714Y-66490533D01*
X87426190Y-66204819D02*
X87521428Y-66204819D01*
X87521428Y-66204819D02*
X87616666Y-66252438D01*
X87616666Y-66252438D02*
X87664285Y-66300057D01*
X87664285Y-66300057D02*
X87711904Y-66395295D01*
X87711904Y-66395295D02*
X87759523Y-66585771D01*
X87759523Y-66585771D02*
X87759523Y-66823866D01*
X87759523Y-66823866D02*
X87711904Y-67014342D01*
X87711904Y-67014342D02*
X87664285Y-67109580D01*
X87664285Y-67109580D02*
X87616666Y-67157200D01*
X87616666Y-67157200D02*
X87521428Y-67204819D01*
X87521428Y-67204819D02*
X87426190Y-67204819D01*
X87426190Y-67204819D02*
X87330952Y-67157200D01*
X87330952Y-67157200D02*
X87283333Y-67109580D01*
X87283333Y-67109580D02*
X87235714Y-67014342D01*
X87235714Y-67014342D02*
X87188095Y-66823866D01*
X87188095Y-66823866D02*
X87188095Y-66585771D01*
X87188095Y-66585771D02*
X87235714Y-66395295D01*
X87235714Y-66395295D02*
X87283333Y-66300057D01*
X87283333Y-66300057D02*
X87330952Y-66252438D01*
X87330952Y-66252438D02*
X87426190Y-66204819D01*
X88378571Y-66204819D02*
X88473809Y-66204819D01*
X88473809Y-66204819D02*
X88569047Y-66252438D01*
X88569047Y-66252438D02*
X88616666Y-66300057D01*
X88616666Y-66300057D02*
X88664285Y-66395295D01*
X88664285Y-66395295D02*
X88711904Y-66585771D01*
X88711904Y-66585771D02*
X88711904Y-66823866D01*
X88711904Y-66823866D02*
X88664285Y-67014342D01*
X88664285Y-67014342D02*
X88616666Y-67109580D01*
X88616666Y-67109580D02*
X88569047Y-67157200D01*
X88569047Y-67157200D02*
X88473809Y-67204819D01*
X88473809Y-67204819D02*
X88378571Y-67204819D01*
X88378571Y-67204819D02*
X88283333Y-67157200D01*
X88283333Y-67157200D02*
X88235714Y-67109580D01*
X88235714Y-67109580D02*
X88188095Y-67014342D01*
X88188095Y-67014342D02*
X88140476Y-66823866D01*
X88140476Y-66823866D02*
X88140476Y-66585771D01*
X88140476Y-66585771D02*
X88188095Y-66395295D01*
X88188095Y-66395295D02*
X88235714Y-66300057D01*
X88235714Y-66300057D02*
X88283333Y-66252438D01*
X88283333Y-66252438D02*
X88378571Y-66204819D01*
X89330952Y-66204819D02*
X89426190Y-66204819D01*
X89426190Y-66204819D02*
X89521428Y-66252438D01*
X89521428Y-66252438D02*
X89569047Y-66300057D01*
X89569047Y-66300057D02*
X89616666Y-66395295D01*
X89616666Y-66395295D02*
X89664285Y-66585771D01*
X89664285Y-66585771D02*
X89664285Y-66823866D01*
X89664285Y-66823866D02*
X89616666Y-67014342D01*
X89616666Y-67014342D02*
X89569047Y-67109580D01*
X89569047Y-67109580D02*
X89521428Y-67157200D01*
X89521428Y-67157200D02*
X89426190Y-67204819D01*
X89426190Y-67204819D02*
X89330952Y-67204819D01*
X89330952Y-67204819D02*
X89235714Y-67157200D01*
X89235714Y-67157200D02*
X89188095Y-67109580D01*
X89188095Y-67109580D02*
X89140476Y-67014342D01*
X89140476Y-67014342D02*
X89092857Y-66823866D01*
X89092857Y-66823866D02*
X89092857Y-66585771D01*
X89092857Y-66585771D02*
X89140476Y-66395295D01*
X89140476Y-66395295D02*
X89188095Y-66300057D01*
X89188095Y-66300057D02*
X89235714Y-66252438D01*
X89235714Y-66252438D02*
X89330952Y-66204819D01*
X90854762Y-67204819D02*
X90854762Y-66538152D01*
X90854762Y-66633390D02*
X90902381Y-66585771D01*
X90902381Y-66585771D02*
X90997619Y-66538152D01*
X90997619Y-66538152D02*
X91140476Y-66538152D01*
X91140476Y-66538152D02*
X91235714Y-66585771D01*
X91235714Y-66585771D02*
X91283333Y-66681009D01*
X91283333Y-66681009D02*
X91283333Y-67204819D01*
X91283333Y-66681009D02*
X91330952Y-66585771D01*
X91330952Y-66585771D02*
X91426190Y-66538152D01*
X91426190Y-66538152D02*
X91569047Y-66538152D01*
X91569047Y-66538152D02*
X91664286Y-66585771D01*
X91664286Y-66585771D02*
X91711905Y-66681009D01*
X91711905Y-66681009D02*
X91711905Y-67204819D01*
X92188095Y-67204819D02*
X92188095Y-66538152D01*
X92188095Y-66633390D02*
X92235714Y-66585771D01*
X92235714Y-66585771D02*
X92330952Y-66538152D01*
X92330952Y-66538152D02*
X92473809Y-66538152D01*
X92473809Y-66538152D02*
X92569047Y-66585771D01*
X92569047Y-66585771D02*
X92616666Y-66681009D01*
X92616666Y-66681009D02*
X92616666Y-67204819D01*
X92616666Y-66681009D02*
X92664285Y-66585771D01*
X92664285Y-66585771D02*
X92759523Y-66538152D01*
X92759523Y-66538152D02*
X92902380Y-66538152D01*
X92902380Y-66538152D02*
X92997619Y-66585771D01*
X92997619Y-66585771D02*
X93045238Y-66681009D01*
X93045238Y-66681009D02*
X93045238Y-67204819D01*
D12*
X91000000Y-77300000D02*
X91000000Y-67313580D01*
X86900000Y-77300000D02*
X86900000Y-67313580D01*
X91000000Y-67900000D02*
X86900000Y-67900000D01*
X91000000Y-67900000D02*
X86900000Y-67900000D01*
X91000000Y-67900000D02*
X89873496Y-68486421D01*
X91000000Y-67900000D02*
X89873496Y-67313579D01*
X86900000Y-67900000D02*
X88026504Y-67313579D01*
X86900000Y-67900000D02*
X88026504Y-68486421D01*
D11*
X82638152Y-79416666D02*
X83304819Y-79416666D01*
X82257200Y-79654761D02*
X82971485Y-79892856D01*
X82971485Y-79892856D02*
X82971485Y-79273809D01*
X83257200Y-78845237D02*
X83304819Y-78845237D01*
X83304819Y-78845237D02*
X83400057Y-78892856D01*
X83400057Y-78892856D02*
X83447676Y-78940475D01*
X83304819Y-77892857D02*
X83304819Y-78464285D01*
X83304819Y-78178571D02*
X82304819Y-78178571D01*
X82304819Y-78178571D02*
X82447676Y-78273809D01*
X82447676Y-78273809D02*
X82542914Y-78369047D01*
X82542914Y-78369047D02*
X82590533Y-78464285D01*
X82304819Y-77273809D02*
X82304819Y-77178571D01*
X82304819Y-77178571D02*
X82352438Y-77083333D01*
X82352438Y-77083333D02*
X82400057Y-77035714D01*
X82400057Y-77035714D02*
X82495295Y-76988095D01*
X82495295Y-76988095D02*
X82685771Y-76940476D01*
X82685771Y-76940476D02*
X82923866Y-76940476D01*
X82923866Y-76940476D02*
X83114342Y-76988095D01*
X83114342Y-76988095D02*
X83209580Y-77035714D01*
X83209580Y-77035714D02*
X83257200Y-77083333D01*
X83257200Y-77083333D02*
X83304819Y-77178571D01*
X83304819Y-77178571D02*
X83304819Y-77273809D01*
X83304819Y-77273809D02*
X83257200Y-77369047D01*
X83257200Y-77369047D02*
X83209580Y-77416666D01*
X83209580Y-77416666D02*
X83114342Y-77464285D01*
X83114342Y-77464285D02*
X82923866Y-77511904D01*
X82923866Y-77511904D02*
X82685771Y-77511904D01*
X82685771Y-77511904D02*
X82495295Y-77464285D01*
X82495295Y-77464285D02*
X82400057Y-77416666D01*
X82400057Y-77416666D02*
X82352438Y-77369047D01*
X82352438Y-77369047D02*
X82304819Y-77273809D01*
X82304819Y-76321428D02*
X82304819Y-76226190D01*
X82304819Y-76226190D02*
X82352438Y-76130952D01*
X82352438Y-76130952D02*
X82400057Y-76083333D01*
X82400057Y-76083333D02*
X82495295Y-76035714D01*
X82495295Y-76035714D02*
X82685771Y-75988095D01*
X82685771Y-75988095D02*
X82923866Y-75988095D01*
X82923866Y-75988095D02*
X83114342Y-76035714D01*
X83114342Y-76035714D02*
X83209580Y-76083333D01*
X83209580Y-76083333D02*
X83257200Y-76130952D01*
X83257200Y-76130952D02*
X83304819Y-76226190D01*
X83304819Y-76226190D02*
X83304819Y-76321428D01*
X83304819Y-76321428D02*
X83257200Y-76416666D01*
X83257200Y-76416666D02*
X83209580Y-76464285D01*
X83209580Y-76464285D02*
X83114342Y-76511904D01*
X83114342Y-76511904D02*
X82923866Y-76559523D01*
X82923866Y-76559523D02*
X82685771Y-76559523D01*
X82685771Y-76559523D02*
X82495295Y-76511904D01*
X82495295Y-76511904D02*
X82400057Y-76464285D01*
X82400057Y-76464285D02*
X82352438Y-76416666D01*
X82352438Y-76416666D02*
X82304819Y-76321428D01*
X82304819Y-75369047D02*
X82304819Y-75273809D01*
X82304819Y-75273809D02*
X82352438Y-75178571D01*
X82352438Y-75178571D02*
X82400057Y-75130952D01*
X82400057Y-75130952D02*
X82495295Y-75083333D01*
X82495295Y-75083333D02*
X82685771Y-75035714D01*
X82685771Y-75035714D02*
X82923866Y-75035714D01*
X82923866Y-75035714D02*
X83114342Y-75083333D01*
X83114342Y-75083333D02*
X83209580Y-75130952D01*
X83209580Y-75130952D02*
X83257200Y-75178571D01*
X83257200Y-75178571D02*
X83304819Y-75273809D01*
X83304819Y-75273809D02*
X83304819Y-75369047D01*
X83304819Y-75369047D02*
X83257200Y-75464285D01*
X83257200Y-75464285D02*
X83209580Y-75511904D01*
X83209580Y-75511904D02*
X83114342Y-75559523D01*
X83114342Y-75559523D02*
X82923866Y-75607142D01*
X82923866Y-75607142D02*
X82685771Y-75607142D01*
X82685771Y-75607142D02*
X82495295Y-75559523D01*
X82495295Y-75559523D02*
X82400057Y-75511904D01*
X82400057Y-75511904D02*
X82352438Y-75464285D01*
X82352438Y-75464285D02*
X82304819Y-75369047D01*
X83304819Y-73845237D02*
X82638152Y-73845237D01*
X82733390Y-73845237D02*
X82685771Y-73797618D01*
X82685771Y-73797618D02*
X82638152Y-73702380D01*
X82638152Y-73702380D02*
X82638152Y-73559523D01*
X82638152Y-73559523D02*
X82685771Y-73464285D01*
X82685771Y-73464285D02*
X82781009Y-73416666D01*
X82781009Y-73416666D02*
X83304819Y-73416666D01*
X82781009Y-73416666D02*
X82685771Y-73369047D01*
X82685771Y-73369047D02*
X82638152Y-73273809D01*
X82638152Y-73273809D02*
X82638152Y-73130952D01*
X82638152Y-73130952D02*
X82685771Y-73035713D01*
X82685771Y-73035713D02*
X82781009Y-72988094D01*
X82781009Y-72988094D02*
X83304819Y-72988094D01*
X83304819Y-72511904D02*
X82638152Y-72511904D01*
X82733390Y-72511904D02*
X82685771Y-72464285D01*
X82685771Y-72464285D02*
X82638152Y-72369047D01*
X82638152Y-72369047D02*
X82638152Y-72226190D01*
X82638152Y-72226190D02*
X82685771Y-72130952D01*
X82685771Y-72130952D02*
X82781009Y-72083333D01*
X82781009Y-72083333D02*
X83304819Y-72083333D01*
X82781009Y-72083333D02*
X82685771Y-72035714D01*
X82685771Y-72035714D02*
X82638152Y-71940476D01*
X82638152Y-71940476D02*
X82638152Y-71797619D01*
X82638152Y-71797619D02*
X82685771Y-71702380D01*
X82685771Y-71702380D02*
X82781009Y-71654761D01*
X82781009Y-71654761D02*
X83304819Y-71654761D01*
D12*
X90500000Y-77800000D02*
X83413580Y-77800000D01*
X90500000Y-73700000D02*
X83413580Y-73700000D01*
X84000000Y-77800000D02*
X84000000Y-73700000D01*
X84000000Y-77800000D02*
X84000000Y-73700000D01*
X84000000Y-77800000D02*
X83413579Y-76673496D01*
X84000000Y-77800000D02*
X84586421Y-76673496D01*
X84000000Y-73700000D02*
X84586421Y-74826504D01*
X84000000Y-73700000D02*
X83413579Y-74826504D01*
D13*
%TO.C,NE1*%
X182590000Y-104928000D03*
X177510000Y-104928000D03*
%TD*%
D14*
%TO.C,H3*%
X88600000Y-122400000D03*
X89302944Y-120702944D03*
X89302944Y-124097056D03*
X91000000Y-120000000D03*
D15*
X91000000Y-122400000D03*
D14*
X91000000Y-124800000D03*
X92697056Y-120702944D03*
X92697056Y-124097056D03*
X93400000Y-122400000D03*
%TD*%
D13*
%TO.C,N1*%
X210767000Y-102134000D03*
X216482000Y-100864000D03*
X218006000Y-102134000D03*
X218895000Y-103912000D03*
X218006000Y-107849000D03*
X216482000Y-108992000D03*
X214450000Y-109500000D03*
X212418000Y-108992000D03*
X210894000Y-107722000D03*
X210005000Y-103912000D03*
X218895000Y-105944000D03*
X210005000Y-105944000D03*
X212418000Y-100864000D03*
%TD*%
%TO.C,NE2*%
X128810000Y-104928000D03*
X133890000Y-104928000D03*
%TD*%
%TO.C,N4*%
X142767000Y-102134000D03*
X148482000Y-100864000D03*
X150006000Y-102134000D03*
X150895000Y-103912000D03*
X150006000Y-107849000D03*
X148482000Y-108992000D03*
X146450000Y-109500000D03*
X144418000Y-108992000D03*
X142894000Y-107722000D03*
X142005000Y-103912000D03*
X150895000Y-105944000D03*
X142005000Y-105944000D03*
X144418000Y-100864000D03*
%TD*%
%TO.C,N5*%
X112767000Y-102134000D03*
X118482000Y-100864000D03*
X120006000Y-102134000D03*
X120895000Y-103912000D03*
X120006000Y-107849000D03*
X118482000Y-108992000D03*
X116450000Y-109500000D03*
X114418000Y-108992000D03*
X112894000Y-107722000D03*
X112005000Y-103912000D03*
X120895000Y-105944000D03*
X112005000Y-105944000D03*
X114418000Y-100864000D03*
%TD*%
D14*
%TO.C,H4*%
X218400000Y-122400000D03*
X219102944Y-120702944D03*
X219102944Y-124097056D03*
X220800000Y-120000000D03*
D15*
X220800000Y-122400000D03*
D14*
X220800000Y-124800000D03*
X222497056Y-120702944D03*
X222497056Y-124097056D03*
X223200000Y-122400000D03*
%TD*%
D16*
%TO.C,ENC1*%
X157800000Y-91278000D03*
X152800000Y-91278000D03*
X157800000Y-76778000D03*
X152800000Y-76778000D03*
X155300000Y-76778000D03*
D17*
X160900000Y-84278000D03*
X149700000Y-84278000D03*
%TD*%
D14*
%TO.C,H1*%
X88600000Y-77600000D03*
X89302944Y-75902944D03*
X89302944Y-79297056D03*
X91000000Y-75200000D03*
D15*
X91000000Y-77600000D03*
D14*
X91000000Y-80000000D03*
X92697056Y-75902944D03*
X92697056Y-79297056D03*
X93400000Y-77600000D03*
%TD*%
D13*
%TO.C,N6*%
X93767000Y-102134000D03*
X99482000Y-100864000D03*
X101006000Y-102134000D03*
X101895000Y-103912000D03*
X101006000Y-107849000D03*
X99482000Y-108992000D03*
X97450000Y-109500000D03*
X95418000Y-108992000D03*
X93894000Y-107722000D03*
X93005000Y-103912000D03*
X101895000Y-105944000D03*
X93005000Y-105944000D03*
X95418000Y-100864000D03*
%TD*%
%TO.C,N2*%
X191767000Y-102134000D03*
X197482000Y-100864000D03*
X199006000Y-102134000D03*
X199895000Y-103912000D03*
X199006000Y-107849000D03*
X197482000Y-108992000D03*
X195450000Y-109500000D03*
X193418000Y-108992000D03*
X191894000Y-107722000D03*
X191005000Y-103912000D03*
X199895000Y-105944000D03*
X191005000Y-105944000D03*
X193418000Y-100864000D03*
%TD*%
%TO.C,N3*%
X161767000Y-102134000D03*
X167482000Y-100864000D03*
X169006000Y-102134000D03*
X169895000Y-103912000D03*
X169006000Y-107849000D03*
X167482000Y-108992000D03*
X165450000Y-109500000D03*
X163418000Y-108992000D03*
X161894000Y-107722000D03*
X161005000Y-103912000D03*
X169895000Y-105944000D03*
X161005000Y-105944000D03*
X163418000Y-100864000D03*
%TD*%
D14*
%TO.C,H2*%
X218400000Y-77600000D03*
X219102944Y-75902944D03*
X219102944Y-79297056D03*
X220800000Y-75200000D03*
D15*
X220800000Y-77600000D03*
D14*
X220800000Y-80000000D03*
X222497056Y-75902944D03*
X222497056Y-79297056D03*
X223200000Y-77600000D03*
%TD*%
D18*
%TO.C,C18*%
X197000000Y-81240500D03*
X197000000Y-83315500D03*
%TD*%
D19*
%TO.C,Q1*%
X91300000Y-96303000D03*
X90500000Y-96303000D03*
D20*
X90900000Y-95153000D03*
%TD*%
D18*
%TO.C,C4*%
X153900000Y-85890500D03*
X153900000Y-87965500D03*
%TD*%
D21*
%TO.C,R35*%
X93950000Y-96778000D03*
X93950000Y-94778000D03*
%TD*%
D18*
%TO.C,C10*%
X105950000Y-85062500D03*
X105950000Y-87137500D03*
%TD*%
D22*
%TO.C,R28*%
X146350000Y-96728000D03*
X146350000Y-98728000D03*
%TD*%
D23*
%TO.C,C13*%
X110637500Y-89328000D03*
X108562500Y-89328000D03*
%TD*%
D24*
%TO.C,L2*%
X128150000Y-80878000D03*
X118250000Y-80878000D03*
%TD*%
D18*
%TO.C,C22*%
X136450000Y-90640500D03*
X136450000Y-92715500D03*
%TD*%
D25*
%TO.C,D1*%
X211340000Y-83500000D03*
X211840000Y-83500000D03*
X212340000Y-83500000D03*
X212840000Y-83500000D03*
X213340000Y-83500000D03*
X213340000Y-84500000D03*
X212840000Y-84500000D03*
X212340000Y-84500000D03*
X211840000Y-84500000D03*
X211340000Y-84500000D03*
%TD*%
D26*
%TO.C,C20*%
X133150000Y-92678000D03*
X126950000Y-92678000D03*
%TD*%
D27*
%TO.C,L1*%
X204905000Y-93990000D03*
X201655000Y-93990000D03*
%TD*%
D28*
%TO.C,R16*%
X187700000Y-103128000D03*
X185700000Y-103128000D03*
%TD*%
D29*
%TO.C,J5*%
X171050000Y-83848000D03*
D30*
X168510000Y-83848000D03*
X165970000Y-83848000D03*
%TD*%
D22*
%TO.C,R8*%
X157050000Y-85928000D03*
X157050000Y-87928000D03*
%TD*%
D21*
%TO.C,R18*%
X152850000Y-81278000D03*
X152850000Y-79278000D03*
%TD*%
D25*
%TO.C,D3*%
X169150000Y-86460000D03*
X169650000Y-86460000D03*
X170150000Y-86460000D03*
X170650000Y-86460000D03*
X171150000Y-86460000D03*
X171150000Y-87460000D03*
X170650000Y-87460000D03*
X170150000Y-87460000D03*
X169650000Y-87460000D03*
X169150000Y-87460000D03*
%TD*%
D31*
%TO.C,C19*%
X193700000Y-83315500D03*
X193700000Y-81240500D03*
%TD*%
D32*
%TO.C,R14*%
X108600000Y-91828000D03*
X110600000Y-91828000D03*
%TD*%
D18*
%TO.C,C1*%
X203600000Y-86562500D03*
X203600000Y-88637500D03*
%TD*%
D22*
%TO.C,R27*%
X131450000Y-96628000D03*
X131450000Y-98628000D03*
%TD*%
D32*
%TO.C,R23*%
X206450000Y-100628000D03*
X208450000Y-100628000D03*
%TD*%
D33*
%TO.C,C9*%
X179612500Y-123628000D03*
X181687500Y-123628000D03*
%TD*%
D34*
%TO.C,R15*%
X185150000Y-105828000D03*
X188250000Y-105828000D03*
%TD*%
D21*
%TO.C,R7*%
X155450000Y-83978000D03*
X155450000Y-81978000D03*
%TD*%
%TO.C,R44*%
X103050000Y-87130000D03*
X103050000Y-85130000D03*
%TD*%
D28*
%TO.C,R22*%
X203050000Y-100628000D03*
X201050000Y-100628000D03*
%TD*%
D23*
%TO.C,C15*%
X162337500Y-76700000D03*
X160262500Y-76700000D03*
%TD*%
D21*
%TO.C,R21*%
X180050000Y-107828000D03*
X180050000Y-105828000D03*
%TD*%
D18*
%TO.C,C29*%
X206800000Y-86562500D03*
X206800000Y-88637500D03*
%TD*%
D33*
%TO.C,C14*%
X148162500Y-79678000D03*
X150237500Y-79678000D03*
%TD*%
D35*
%TO.C,J2*%
X221700000Y-84428000D03*
D36*
X219200000Y-84428000D03*
X216700000Y-84428000D03*
%TD*%
D22*
%TO.C,R17*%
X157850000Y-79278000D03*
X157850000Y-81278000D03*
%TD*%
D32*
%TO.C,R20*%
X159950000Y-79750000D03*
X161950000Y-79750000D03*
%TD*%
D23*
%TO.C,C8*%
X132087500Y-123628000D03*
X130012500Y-123628000D03*
%TD*%
D37*
%TO.C,LS1*%
X96800000Y-87428000D03*
X90300000Y-87428000D03*
%TD*%
D22*
%TO.C,R25*%
X165450000Y-96528000D03*
X165450000Y-98528000D03*
%TD*%
%TO.C,R31*%
X116420000Y-96640000D03*
X116420000Y-98640000D03*
%TD*%
D28*
%TO.C,R19*%
X150250000Y-76778000D03*
X148250000Y-76778000D03*
%TD*%
D38*
%TO.C,J1*%
X139750000Y-76628000D03*
X139750000Y-81628000D03*
D39*
X139750000Y-85478000D03*
D40*
X136350000Y-82128000D03*
D39*
X137500000Y-85478000D03*
D41*
X142350000Y-76978000D03*
X136150000Y-76978000D03*
%TD*%
D21*
%TO.C,R11*%
X96600000Y-80000000D03*
X96600000Y-78000000D03*
%TD*%
D22*
%TO.C,R33*%
X97350000Y-96728000D03*
X97350000Y-98728000D03*
%TD*%
D26*
%TO.C,C21*%
X139750000Y-92678000D03*
X145950000Y-92678000D03*
%TD*%
D42*
%TO.C,U1*%
X191250000Y-81208000D03*
X191250000Y-82478000D03*
X191250000Y-83748000D03*
X191250000Y-85018000D03*
X191250000Y-86288000D03*
X191250000Y-87558000D03*
X191250000Y-88828000D03*
X191250000Y-90098000D03*
X191250000Y-91368000D03*
X191250000Y-92638000D03*
X191250000Y-93908000D03*
X191250000Y-95178000D03*
X191250000Y-96448000D03*
X191250000Y-97718000D03*
D43*
X189485000Y-98968000D03*
X188215000Y-98968000D03*
X186945000Y-98968000D03*
X185675000Y-98968000D03*
X184405000Y-98968000D03*
X183135000Y-98968000D03*
X181865000Y-98968000D03*
X180595000Y-98968000D03*
X179325000Y-98968000D03*
X178055000Y-98968000D03*
X176785000Y-98968000D03*
X175515000Y-98968000D03*
D42*
X173750000Y-97718000D03*
X173750000Y-96448000D03*
X173750000Y-95178000D03*
X173750000Y-93908000D03*
X173750000Y-92638000D03*
X173750000Y-91368000D03*
X173750000Y-90098000D03*
X173750000Y-88828000D03*
X173750000Y-87558000D03*
X173750000Y-86288000D03*
X173750000Y-85018000D03*
X173750000Y-83748000D03*
X173750000Y-82478000D03*
X173750000Y-81208000D03*
D44*
X185400000Y-89628000D03*
X185400000Y-88228000D03*
X184700000Y-90328000D03*
X184700000Y-88928000D03*
X184700000Y-87528000D03*
X184000000Y-89628000D03*
D45*
X184000000Y-88928000D03*
D44*
X184000000Y-88228000D03*
X183300000Y-90328000D03*
X183300000Y-88928000D03*
X183300000Y-87528000D03*
X182600000Y-89628000D03*
X182600000Y-88228000D03*
%TD*%
D46*
%TO.C,J3*%
X208960000Y-79893000D03*
X214740000Y-79893000D03*
D47*
X208650000Y-80968000D03*
X209450000Y-80968000D03*
D48*
X210600000Y-80968000D03*
X211600000Y-80968000D03*
X212100000Y-80968000D03*
X213100000Y-80968000D03*
D47*
X214250000Y-80968000D03*
X215050000Y-80968000D03*
X215050000Y-80968000D03*
X214250000Y-80968000D03*
D48*
X213600000Y-80968000D03*
X212600000Y-80968000D03*
X211100000Y-80968000D03*
X210100000Y-80968000D03*
D47*
X209450000Y-80968000D03*
X208650000Y-80968000D03*
D49*
X207530000Y-76213000D03*
D50*
X207530000Y-80393000D03*
D49*
X216170000Y-76213000D03*
D50*
X216170000Y-80393000D03*
%TD*%
M02*
